G04 Layer_Color=16711935*
%FSLAX43Y43*%
%MOMM*%
G71*
G01*
G75*
%ADD62C,0.000*%
%ADD65C,0.152*%
%ADD67C,0.198*%
%ADD98C,0.100*%
D62*
X55677Y188987D02*
G03*
X55677Y189597I0J305D01*
G01*
X55169Y42810D02*
G03*
X55169Y43420I0J305D01*
G01*
X55169Y67005D02*
G03*
X55169Y67615I0J305D01*
G01*
Y91262D02*
G03*
X55169Y91872I0J305D01*
G01*
X55677Y140473D02*
G03*
X55677Y141083I0J305D01*
G01*
Y164603D02*
G03*
X55677Y165213I0J305D01*
G01*
D65*
Y187692D02*
X58877D01*
X55677D02*
Y188987D01*
Y189597D01*
Y190892D01*
X58877D01*
Y187692D02*
Y190892D01*
X56109D02*
Y191857D01*
X56490D01*
Y190892D02*
Y191857D01*
X56109Y190892D02*
X56490D01*
X56769D02*
Y191857D01*
X57150D01*
Y190892D02*
Y191857D01*
X56769Y190892D02*
X57150D01*
X57404D02*
Y191857D01*
X57785D01*
Y190892D02*
Y191857D01*
X57404Y190892D02*
X57785D01*
X58064D02*
Y191857D01*
X58445D01*
Y190892D02*
Y191857D01*
X58064Y190892D02*
X58445D01*
Y186727D02*
Y187692D01*
X58064Y186727D02*
X58445D01*
X58064D02*
Y187692D01*
X58445D01*
X57785Y186727D02*
Y187692D01*
X57404Y186727D02*
X57785D01*
X57404D02*
Y187692D01*
X57785D01*
X57150Y186727D02*
Y187692D01*
X56769Y186727D02*
X57150D01*
X56769D02*
Y187692D01*
X57150D01*
X56490Y186727D02*
Y187692D01*
X56109Y186727D02*
X56490D01*
X56109D02*
Y187692D01*
X56490D01*
X55169Y41515D02*
X58369D01*
X55169D02*
Y42810D01*
Y43420D01*
Y44715D01*
X58369D01*
Y41515D02*
Y44715D01*
X55601D02*
Y45680D01*
X55982D01*
Y44715D02*
Y45680D01*
X55601Y44715D02*
X55982D01*
X56261D02*
Y45680D01*
X56642D01*
Y44715D02*
Y45680D01*
X56261Y44715D02*
X56642D01*
X56896D02*
Y45680D01*
X57277D01*
Y44715D02*
Y45680D01*
X56896Y44715D02*
X57277D01*
X57556D02*
Y45680D01*
X57937D01*
Y44715D02*
Y45680D01*
X57556Y44715D02*
X57937D01*
Y40550D02*
Y41515D01*
X57556Y40550D02*
X57937D01*
X57556D02*
Y41515D01*
X57937D01*
X57277Y40550D02*
Y41515D01*
X56896Y40550D02*
X57277D01*
X56896D02*
Y41515D01*
X57277D01*
X56642Y40550D02*
Y41515D01*
X56261Y40550D02*
X56642D01*
X56261D02*
Y41515D01*
X56642D01*
X55982Y40550D02*
Y41515D01*
X55601Y40550D02*
X55982D01*
X55601D02*
Y41515D01*
X55982D01*
X55169Y65710D02*
X58369D01*
X55169D02*
Y67005D01*
Y67615D01*
Y68910D01*
X58369D01*
Y65710D02*
Y68910D01*
X55601D02*
Y69875D01*
X55982D01*
Y68910D02*
Y69875D01*
X55601Y68910D02*
X55982D01*
X56261D02*
Y69875D01*
X56642D01*
Y68910D02*
Y69875D01*
X56261Y68910D02*
X56642D01*
X56896D02*
Y69875D01*
X57277D01*
Y68910D02*
Y69875D01*
X56896Y68910D02*
X57277D01*
X57556D02*
Y69875D01*
X57937D01*
Y68910D02*
Y69875D01*
X57556Y68910D02*
X57937D01*
Y64745D02*
Y65710D01*
X57556Y64745D02*
X57937D01*
X57556D02*
Y65710D01*
X57937D01*
X57277Y64745D02*
Y65710D01*
X56896Y64745D02*
X57277D01*
X56896D02*
Y65710D01*
X57277D01*
X56642Y64745D02*
Y65710D01*
X56261Y64745D02*
X56642D01*
X56261D02*
Y65710D01*
X56642D01*
X55982Y64745D02*
Y65710D01*
X55601Y64745D02*
X55982D01*
X55601D02*
Y65710D01*
X55982D01*
X55169Y89967D02*
X58369D01*
X55169D02*
Y91262D01*
Y91872D01*
Y93167D01*
X58369D01*
Y89967D02*
Y93167D01*
X55601D02*
Y94132D01*
X55982D01*
Y93167D02*
Y94132D01*
X55601Y93167D02*
X55982D01*
X56261D02*
Y94132D01*
X56642D01*
Y93167D02*
Y94132D01*
X56261Y93167D02*
X56642D01*
X56896D02*
Y94132D01*
X57277D01*
Y93167D02*
Y94132D01*
X56896Y93167D02*
X57277D01*
X57556D02*
Y94132D01*
X57937D01*
Y93167D02*
Y94132D01*
X57556Y93167D02*
X57937D01*
Y89002D02*
Y89967D01*
X57556Y89002D02*
X57937D01*
X57556D02*
Y89967D01*
X57937D01*
X57277Y89002D02*
Y89967D01*
X56896Y89002D02*
X57277D01*
X56896D02*
Y89967D01*
X57277D01*
X56642Y89002D02*
Y89967D01*
X56261Y89002D02*
X56642D01*
X56261D02*
Y89967D01*
X56642D01*
X55982Y89002D02*
Y89967D01*
X55601Y89002D02*
X55982D01*
X55601D02*
Y89967D01*
X55982D01*
X55677Y139178D02*
X58877D01*
X55677D02*
Y140473D01*
Y141083D01*
Y142378D01*
X58877D01*
Y139178D02*
Y142378D01*
X56109D02*
Y143343D01*
X56490D01*
Y142378D02*
Y143343D01*
X56109Y142378D02*
X56490D01*
X56769D02*
Y143343D01*
X57150D01*
Y142378D02*
Y143343D01*
X56769Y142378D02*
X57150D01*
X57404D02*
Y143343D01*
X57785D01*
Y142378D02*
Y143343D01*
X57404Y142378D02*
X57785D01*
X58064D02*
Y143343D01*
X58445D01*
Y142378D02*
Y143343D01*
X58064Y142378D02*
X58445D01*
Y138213D02*
Y139178D01*
X58064Y138213D02*
X58445D01*
X58064D02*
Y139178D01*
X58445D01*
X57785Y138213D02*
Y139178D01*
X57404Y138213D02*
X57785D01*
X57404D02*
Y139178D01*
X57785D01*
X57150Y138213D02*
Y139178D01*
X56769Y138213D02*
X57150D01*
X56769D02*
Y139178D01*
X57150D01*
X56490Y138213D02*
Y139178D01*
X56109Y138213D02*
X56490D01*
X56109D02*
Y139178D01*
X56490D01*
X55677Y163308D02*
X58877D01*
X55677D02*
Y164603D01*
Y165213D01*
Y166508D01*
X58877D01*
Y163308D02*
Y166508D01*
X56109D02*
Y167473D01*
X56490D01*
Y166508D02*
Y167473D01*
X56109Y166508D02*
X56490D01*
X56769D02*
Y167473D01*
X57150D01*
Y166508D02*
Y167473D01*
X56769Y166508D02*
X57150D01*
X57404D02*
Y167473D01*
X57785D01*
Y166508D02*
Y167473D01*
X57404Y166508D02*
X57785D01*
X58064D02*
Y167473D01*
X58445D01*
Y166508D02*
Y167473D01*
X58064Y166508D02*
X58445D01*
Y162343D02*
Y163308D01*
X58064Y162343D02*
X58445D01*
X58064D02*
Y163308D01*
X58445D01*
X57785Y162343D02*
Y163308D01*
X57404Y162343D02*
X57785D01*
X57404D02*
Y163308D01*
X57785D01*
X57150Y162343D02*
Y163308D01*
X56769Y162343D02*
X57150D01*
X56769D02*
Y163308D01*
X57150D01*
X56490Y162343D02*
Y163308D01*
X56109Y162343D02*
X56490D01*
X56109D02*
Y163308D01*
X56490D01*
D67*
X54381Y186737D02*
X55452D01*
X54648Y186291D02*
X55184Y187183D01*
X54648D02*
X55184Y186291D01*
X53873Y40560D02*
X54944D01*
X54140Y40114D02*
X54676Y41006D01*
X54140D02*
X54676Y40114D01*
X53873Y64755D02*
X54944D01*
X54140Y64309D02*
X54676Y65201D01*
X54140D02*
X54676Y64309D01*
X53873Y89012D02*
X54944D01*
X54140Y88566D02*
X54676Y89458D01*
X54140D02*
X54676Y88566D01*
X54381Y138223D02*
X55452D01*
X54648Y137777D02*
X55184Y138669D01*
X54648D02*
X55184Y137777D01*
X54381Y162353D02*
X55452D01*
X54648Y161907D02*
X55184Y162799D01*
X54648D02*
X55184Y161907D01*
D98*
X71374Y184812D02*
Y184212D01*
X71674D01*
X71774Y184312D01*
Y184712D01*
X71674Y184812D01*
X71374D01*
X71974D02*
Y184212D01*
X72274D01*
X72374Y184312D01*
Y184712D01*
X72274Y184812D01*
X71974D01*
X72973Y184712D02*
X72874Y184812D01*
X72674D01*
X72574Y184712D01*
Y184612D01*
X72674Y184512D01*
X72874D01*
X72973Y184412D01*
Y184312D01*
X72874Y184212D01*
X72674D01*
X72574Y184312D01*
X73573Y184812D02*
X73373Y184712D01*
X73173Y184512D01*
Y184312D01*
X73273Y184212D01*
X73473D01*
X73573Y184312D01*
Y184412D01*
X73473Y184512D01*
X73173D01*
X73773Y184112D02*
X74173D01*
X74373Y184812D02*
Y184312D01*
X74473Y184212D01*
X74673D01*
X74773Y184312D01*
Y184812D01*
X75373D02*
X74973D01*
Y184512D01*
X75173Y184612D01*
X75273D01*
X75373Y184512D01*
Y184312D01*
X75273Y184212D01*
X75073D01*
X74973Y184312D01*
X40767Y188957D02*
Y188357D01*
X41067D01*
X41167Y188457D01*
Y188857D01*
X41067Y188957D01*
X40767D01*
X41367D02*
Y188357D01*
X41667D01*
X41767Y188457D01*
Y188857D01*
X41667Y188957D01*
X41367D01*
X42366Y188857D02*
X42267Y188957D01*
X42067D01*
X41967Y188857D01*
Y188757D01*
X42067Y188657D01*
X42267D01*
X42366Y188557D01*
Y188457D01*
X42267Y188357D01*
X42067D01*
X41967Y188457D01*
X42966Y188957D02*
X42766Y188857D01*
X42566Y188657D01*
Y188457D01*
X42666Y188357D01*
X42866D01*
X42966Y188457D01*
Y188557D01*
X42866Y188657D01*
X42566D01*
X43166Y188257D02*
X43566D01*
X43766Y188957D02*
Y188457D01*
X43866Y188357D01*
X44066D01*
X44166Y188457D01*
Y188957D01*
X44366Y188857D02*
X44466Y188957D01*
X44666D01*
X44766Y188857D01*
Y188757D01*
X44666Y188657D01*
X44566D01*
X44666D01*
X44766Y188557D01*
Y188457D01*
X44666Y188357D01*
X44466D01*
X44366Y188457D01*
X71882Y196750D02*
Y196150D01*
X72182D01*
X72282Y196250D01*
Y196650D01*
X72182Y196750D01*
X71882D01*
X72482D02*
Y196150D01*
X72782D01*
X72882Y196250D01*
Y196650D01*
X72782Y196750D01*
X72482D01*
X73481Y196650D02*
X73382Y196750D01*
X73182D01*
X73082Y196650D01*
Y196550D01*
X73182Y196450D01*
X73382D01*
X73481Y196350D01*
Y196250D01*
X73382Y196150D01*
X73182D01*
X73082Y196250D01*
X74081Y196750D02*
X73881Y196650D01*
X73681Y196450D01*
Y196250D01*
X73781Y196150D01*
X73981D01*
X74081Y196250D01*
Y196350D01*
X73981Y196450D01*
X73681D01*
X74281Y196050D02*
X74681D01*
X74881Y196750D02*
Y196250D01*
X74981Y196150D01*
X75181D01*
X75281Y196250D01*
Y196750D01*
X75881Y196150D02*
X75481D01*
X75881Y196550D01*
Y196650D01*
X75781Y196750D01*
X75581D01*
X75481Y196650D01*
X70866Y38635D02*
Y38035D01*
X71166D01*
X71266Y38135D01*
Y38535D01*
X71166Y38635D01*
X70866D01*
X71466D02*
Y38035D01*
X71766D01*
X71866Y38135D01*
Y38535D01*
X71766Y38635D01*
X71466D01*
X72465Y38535D02*
X72366Y38635D01*
X72166D01*
X72066Y38535D01*
Y38435D01*
X72166Y38335D01*
X72366D01*
X72465Y38235D01*
Y38135D01*
X72366Y38035D01*
X72166D01*
X72066Y38135D01*
X72665Y38035D02*
X72865D01*
X72765D01*
Y38635D01*
X72665Y38535D01*
X73165Y37935D02*
X73565D01*
X73765Y38635D02*
Y38135D01*
X73865Y38035D01*
X74065D01*
X74165Y38135D01*
Y38635D01*
X74765D02*
X74365D01*
Y38335D01*
X74565Y38435D01*
X74665D01*
X74765Y38335D01*
Y38135D01*
X74665Y38035D01*
X74465D01*
X74365Y38135D01*
X40259Y42780D02*
Y42180D01*
X40559D01*
X40659Y42280D01*
Y42680D01*
X40559Y42780D01*
X40259D01*
X40859D02*
Y42180D01*
X41159D01*
X41259Y42280D01*
Y42680D01*
X41159Y42780D01*
X40859D01*
X41858Y42680D02*
X41759Y42780D01*
X41559D01*
X41459Y42680D01*
Y42580D01*
X41559Y42480D01*
X41759D01*
X41858Y42380D01*
Y42280D01*
X41759Y42180D01*
X41559D01*
X41459Y42280D01*
X42058Y42180D02*
X42258D01*
X42158D01*
Y42780D01*
X42058Y42680D01*
X42558Y42080D02*
X42958D01*
X43158Y42780D02*
Y42280D01*
X43258Y42180D01*
X43458D01*
X43558Y42280D01*
Y42780D01*
X43758Y42680D02*
X43858Y42780D01*
X44058D01*
X44158Y42680D01*
Y42580D01*
X44058Y42480D01*
X43958D01*
X44058D01*
X44158Y42380D01*
Y42280D01*
X44058Y42180D01*
X43858D01*
X43758Y42280D01*
X71374Y50573D02*
Y49973D01*
X71674D01*
X71774Y50073D01*
Y50473D01*
X71674Y50573D01*
X71374D01*
X71974D02*
Y49973D01*
X72274D01*
X72374Y50073D01*
Y50473D01*
X72274Y50573D01*
X71974D01*
X72973Y50473D02*
X72874Y50573D01*
X72674D01*
X72574Y50473D01*
Y50373D01*
X72674Y50273D01*
X72874D01*
X72973Y50173D01*
Y50073D01*
X72874Y49973D01*
X72674D01*
X72574Y50073D01*
X73173Y49973D02*
X73373D01*
X73273D01*
Y50573D01*
X73173Y50473D01*
X73673Y49873D02*
X74073D01*
X74273Y50573D02*
Y50073D01*
X74373Y49973D01*
X74573D01*
X74673Y50073D01*
Y50573D01*
X75273Y49973D02*
X74873D01*
X75273Y50373D01*
Y50473D01*
X75173Y50573D01*
X74973D01*
X74873Y50473D01*
X70866Y62830D02*
Y62230D01*
X71166D01*
X71266Y62330D01*
Y62730D01*
X71166Y62830D01*
X70866D01*
X71466D02*
Y62230D01*
X71766D01*
X71866Y62330D01*
Y62730D01*
X71766Y62830D01*
X71466D01*
X72465Y62730D02*
X72366Y62830D01*
X72166D01*
X72066Y62730D01*
Y62630D01*
X72166Y62530D01*
X72366D01*
X72465Y62430D01*
Y62330D01*
X72366Y62230D01*
X72166D01*
X72066Y62330D01*
X73065Y62230D02*
X72665D01*
X73065Y62630D01*
Y62730D01*
X72965Y62830D01*
X72765D01*
X72665Y62730D01*
X73265Y62130D02*
X73665D01*
X73865Y62830D02*
Y62330D01*
X73965Y62230D01*
X74165D01*
X74265Y62330D01*
Y62830D01*
X74865D02*
X74465D01*
Y62530D01*
X74665Y62630D01*
X74765D01*
X74865Y62530D01*
Y62330D01*
X74765Y62230D01*
X74565D01*
X74465Y62330D01*
X40259Y66975D02*
Y66375D01*
X40559D01*
X40659Y66475D01*
Y66875D01*
X40559Y66975D01*
X40259D01*
X40859D02*
Y66375D01*
X41159D01*
X41259Y66475D01*
Y66875D01*
X41159Y66975D01*
X40859D01*
X41858Y66875D02*
X41759Y66975D01*
X41559D01*
X41459Y66875D01*
Y66775D01*
X41559Y66675D01*
X41759D01*
X41858Y66575D01*
Y66475D01*
X41759Y66375D01*
X41559D01*
X41459Y66475D01*
X42458Y66375D02*
X42058D01*
X42458Y66775D01*
Y66875D01*
X42358Y66975D01*
X42158D01*
X42058Y66875D01*
X42658Y66275D02*
X43058D01*
X43258Y66975D02*
Y66475D01*
X43358Y66375D01*
X43558D01*
X43658Y66475D01*
Y66975D01*
X43858Y66875D02*
X43958Y66975D01*
X44158D01*
X44258Y66875D01*
Y66775D01*
X44158Y66675D01*
X44058D01*
X44158D01*
X44258Y66575D01*
Y66475D01*
X44158Y66375D01*
X43958D01*
X43858Y66475D01*
X71374Y74768D02*
Y74168D01*
X71674D01*
X71774Y74268D01*
Y74668D01*
X71674Y74768D01*
X71374D01*
X71974D02*
Y74168D01*
X72274D01*
X72374Y74268D01*
Y74668D01*
X72274Y74768D01*
X71974D01*
X72973Y74668D02*
X72874Y74768D01*
X72674D01*
X72574Y74668D01*
Y74568D01*
X72674Y74468D01*
X72874D01*
X72973Y74368D01*
Y74268D01*
X72874Y74168D01*
X72674D01*
X72574Y74268D01*
X73573Y74168D02*
X73173D01*
X73573Y74568D01*
Y74668D01*
X73473Y74768D01*
X73273D01*
X73173Y74668D01*
X73773Y74068D02*
X74173D01*
X74373Y74768D02*
Y74268D01*
X74473Y74168D01*
X74673D01*
X74773Y74268D01*
Y74768D01*
X75373Y74168D02*
X74973D01*
X75373Y74568D01*
Y74668D01*
X75273Y74768D01*
X75073D01*
X74973Y74668D01*
X70866Y87087D02*
Y86487D01*
X71166D01*
X71266Y86587D01*
Y86987D01*
X71166Y87087D01*
X70866D01*
X71466D02*
Y86487D01*
X71766D01*
X71866Y86587D01*
Y86987D01*
X71766Y87087D01*
X71466D01*
X72465Y86987D02*
X72366Y87087D01*
X72166D01*
X72066Y86987D01*
Y86887D01*
X72166Y86787D01*
X72366D01*
X72465Y86687D01*
Y86587D01*
X72366Y86487D01*
X72166D01*
X72066Y86587D01*
X72665Y86987D02*
X72765Y87087D01*
X72965D01*
X73065Y86987D01*
Y86887D01*
X72965Y86787D01*
X72865D01*
X72965D01*
X73065Y86687D01*
Y86587D01*
X72965Y86487D01*
X72765D01*
X72665Y86587D01*
X73265Y86387D02*
X73665D01*
X73865Y87087D02*
Y86587D01*
X73965Y86487D01*
X74165D01*
X74265Y86587D01*
Y87087D01*
X74865D02*
X74465D01*
Y86787D01*
X74665Y86887D01*
X74765D01*
X74865Y86787D01*
Y86587D01*
X74765Y86487D01*
X74565D01*
X74465Y86587D01*
X40259Y91232D02*
Y90632D01*
X40559D01*
X40659Y90732D01*
Y91132D01*
X40559Y91232D01*
X40259D01*
X40859D02*
Y90632D01*
X41159D01*
X41259Y90732D01*
Y91132D01*
X41159Y91232D01*
X40859D01*
X41858Y91132D02*
X41759Y91232D01*
X41559D01*
X41459Y91132D01*
Y91032D01*
X41559Y90932D01*
X41759D01*
X41858Y90832D01*
Y90732D01*
X41759Y90632D01*
X41559D01*
X41459Y90732D01*
X42058Y91132D02*
X42158Y91232D01*
X42358D01*
X42458Y91132D01*
Y91032D01*
X42358Y90932D01*
X42258D01*
X42358D01*
X42458Y90832D01*
Y90732D01*
X42358Y90632D01*
X42158D01*
X42058Y90732D01*
X42658Y90532D02*
X43058D01*
X43258Y91232D02*
Y90732D01*
X43358Y90632D01*
X43558D01*
X43658Y90732D01*
Y91232D01*
X43858Y91132D02*
X43958Y91232D01*
X44158D01*
X44258Y91132D01*
Y91032D01*
X44158Y90932D01*
X44058D01*
X44158D01*
X44258Y90832D01*
Y90732D01*
X44158Y90632D01*
X43958D01*
X43858Y90732D01*
X71374Y99025D02*
Y98425D01*
X71674D01*
X71774Y98525D01*
Y98925D01*
X71674Y99025D01*
X71374D01*
X71974D02*
Y98425D01*
X72274D01*
X72374Y98525D01*
Y98925D01*
X72274Y99025D01*
X71974D01*
X72973Y98925D02*
X72874Y99025D01*
X72674D01*
X72574Y98925D01*
Y98825D01*
X72674Y98725D01*
X72874D01*
X72973Y98625D01*
Y98525D01*
X72874Y98425D01*
X72674D01*
X72574Y98525D01*
X73173Y98925D02*
X73273Y99025D01*
X73473D01*
X73573Y98925D01*
Y98825D01*
X73473Y98725D01*
X73373D01*
X73473D01*
X73573Y98625D01*
Y98525D01*
X73473Y98425D01*
X73273D01*
X73173Y98525D01*
X73773Y98325D02*
X74173D01*
X74373Y99025D02*
Y98525D01*
X74473Y98425D01*
X74673D01*
X74773Y98525D01*
Y99025D01*
X75373Y98425D02*
X74973D01*
X75373Y98825D01*
Y98925D01*
X75273Y99025D01*
X75073D01*
X74973Y98925D01*
X71374Y136298D02*
Y135698D01*
X71674D01*
X71774Y135798D01*
Y136198D01*
X71674Y136298D01*
X71374D01*
X71974D02*
Y135698D01*
X72274D01*
X72374Y135798D01*
Y136198D01*
X72274Y136298D01*
X71974D01*
X72973Y136198D02*
X72874Y136298D01*
X72674D01*
X72574Y136198D01*
Y136098D01*
X72674Y135998D01*
X72874D01*
X72973Y135898D01*
Y135798D01*
X72874Y135698D01*
X72674D01*
X72574Y135798D01*
X73473Y135698D02*
Y136298D01*
X73173Y135998D01*
X73573D01*
X73773Y135598D02*
X74173D01*
X74373Y136298D02*
Y135798D01*
X74473Y135698D01*
X74673D01*
X74773Y135798D01*
Y136298D01*
X75373D02*
X74973D01*
Y135998D01*
X75173Y136098D01*
X75273D01*
X75373Y135998D01*
Y135798D01*
X75273Y135698D01*
X75073D01*
X74973Y135798D01*
X40767Y140443D02*
Y139843D01*
X41067D01*
X41167Y139943D01*
Y140343D01*
X41067Y140443D01*
X40767D01*
X41367D02*
Y139843D01*
X41667D01*
X41767Y139943D01*
Y140343D01*
X41667Y140443D01*
X41367D01*
X42366Y140343D02*
X42267Y140443D01*
X42067D01*
X41967Y140343D01*
Y140243D01*
X42067Y140143D01*
X42267D01*
X42366Y140043D01*
Y139943D01*
X42267Y139843D01*
X42067D01*
X41967Y139943D01*
X42866Y139843D02*
Y140443D01*
X42566Y140143D01*
X42966D01*
X43166Y139743D02*
X43566D01*
X43766Y140443D02*
Y139943D01*
X43866Y139843D01*
X44066D01*
X44166Y139943D01*
Y140443D01*
X44366Y140343D02*
X44466Y140443D01*
X44666D01*
X44766Y140343D01*
Y140243D01*
X44666Y140143D01*
X44566D01*
X44666D01*
X44766Y140043D01*
Y139943D01*
X44666Y139843D01*
X44466D01*
X44366Y139943D01*
X71882Y148236D02*
Y147636D01*
X72182D01*
X72282Y147736D01*
Y148136D01*
X72182Y148236D01*
X71882D01*
X72482D02*
Y147636D01*
X72782D01*
X72882Y147736D01*
Y148136D01*
X72782Y148236D01*
X72482D01*
X73481Y148136D02*
X73382Y148236D01*
X73182D01*
X73082Y148136D01*
Y148036D01*
X73182Y147936D01*
X73382D01*
X73481Y147836D01*
Y147736D01*
X73382Y147636D01*
X73182D01*
X73082Y147736D01*
X73981Y147636D02*
Y148236D01*
X73681Y147936D01*
X74081D01*
X74281Y147536D02*
X74681D01*
X74881Y148236D02*
Y147736D01*
X74981Y147636D01*
X75181D01*
X75281Y147736D01*
Y148236D01*
X75881Y147636D02*
X75481D01*
X75881Y148036D01*
Y148136D01*
X75781Y148236D01*
X75581D01*
X75481Y148136D01*
X71374Y160428D02*
Y159828D01*
X71674D01*
X71774Y159928D01*
Y160328D01*
X71674Y160428D01*
X71374D01*
X71974D02*
Y159828D01*
X72274D01*
X72374Y159928D01*
Y160328D01*
X72274Y160428D01*
X71974D01*
X72973Y160328D02*
X72874Y160428D01*
X72674D01*
X72574Y160328D01*
Y160228D01*
X72674Y160128D01*
X72874D01*
X72973Y160028D01*
Y159928D01*
X72874Y159828D01*
X72674D01*
X72574Y159928D01*
X73573Y160428D02*
X73173D01*
Y160128D01*
X73373Y160228D01*
X73473D01*
X73573Y160128D01*
Y159928D01*
X73473Y159828D01*
X73273D01*
X73173Y159928D01*
X73773Y159728D02*
X74173D01*
X74373Y160428D02*
Y159928D01*
X74473Y159828D01*
X74673D01*
X74773Y159928D01*
Y160428D01*
X75373D02*
X74973D01*
Y160128D01*
X75173Y160228D01*
X75273D01*
X75373Y160128D01*
Y159928D01*
X75273Y159828D01*
X75073D01*
X74973Y159928D01*
X40767Y164573D02*
Y163973D01*
X41067D01*
X41167Y164073D01*
Y164473D01*
X41067Y164573D01*
X40767D01*
X41367D02*
Y163973D01*
X41667D01*
X41767Y164073D01*
Y164473D01*
X41667Y164573D01*
X41367D01*
X42366Y164473D02*
X42267Y164573D01*
X42067D01*
X41967Y164473D01*
Y164373D01*
X42067Y164273D01*
X42267D01*
X42366Y164173D01*
Y164073D01*
X42267Y163973D01*
X42067D01*
X41967Y164073D01*
X42966Y164573D02*
X42566D01*
Y164273D01*
X42766Y164373D01*
X42866D01*
X42966Y164273D01*
Y164073D01*
X42866Y163973D01*
X42666D01*
X42566Y164073D01*
X43166Y163873D02*
X43566D01*
X43766Y164573D02*
Y164073D01*
X43866Y163973D01*
X44066D01*
X44166Y164073D01*
Y164573D01*
X44366Y164473D02*
X44466Y164573D01*
X44666D01*
X44766Y164473D01*
Y164373D01*
X44666Y164273D01*
X44566D01*
X44666D01*
X44766Y164173D01*
Y164073D01*
X44666Y163973D01*
X44466D01*
X44366Y164073D01*
X71882Y172366D02*
Y171766D01*
X72182D01*
X72282Y171866D01*
Y172266D01*
X72182Y172366D01*
X71882D01*
X72482D02*
Y171766D01*
X72782D01*
X72882Y171866D01*
Y172266D01*
X72782Y172366D01*
X72482D01*
X73481Y172266D02*
X73382Y172366D01*
X73182D01*
X73082Y172266D01*
Y172166D01*
X73182Y172066D01*
X73382D01*
X73481Y171966D01*
Y171866D01*
X73382Y171766D01*
X73182D01*
X73082Y171866D01*
X74081Y172366D02*
X73681D01*
Y172066D01*
X73881Y172166D01*
X73981D01*
X74081Y172066D01*
Y171866D01*
X73981Y171766D01*
X73781D01*
X73681Y171866D01*
X74281Y171666D02*
X74681D01*
X74881Y172366D02*
Y171866D01*
X74981Y171766D01*
X75181D01*
X75281Y171866D01*
Y172366D01*
X75881Y171766D02*
X75481D01*
X75881Y172166D01*
Y172266D01*
X75781Y172366D01*
X75581D01*
X75481Y172266D01*
X48606Y74233D02*
X48006D01*
Y73933D01*
X48106Y73833D01*
X48506D01*
X48606Y73933D01*
Y74233D01*
Y73633D02*
X48006D01*
Y73333D01*
X48106Y73233D01*
X48506D01*
X48606Y73333D01*
Y73633D01*
X48506Y72634D02*
X48606Y72733D01*
Y72933D01*
X48506Y73033D01*
X48406D01*
X48306Y72933D01*
Y72733D01*
X48206Y72634D01*
X48106D01*
X48006Y72733D01*
Y72933D01*
X48106Y73033D01*
X48006Y72034D02*
Y72434D01*
X48406Y72034D01*
X48506D01*
X48606Y72134D01*
Y72334D01*
X48506Y72434D01*
X47906Y71834D02*
Y71434D01*
X48606Y71234D02*
X48106D01*
X48006Y71134D01*
Y70934D01*
X48106Y70834D01*
X48606D01*
X48106Y70634D02*
X48006Y70534D01*
Y70334D01*
X48106Y70234D01*
X48506D01*
X48606Y70334D01*
Y70534D01*
X48506Y70634D01*
X48406D01*
X48306Y70534D01*
Y70234D01*
X48606Y98490D02*
X48006D01*
Y98190D01*
X48106Y98090D01*
X48506D01*
X48606Y98190D01*
Y98490D01*
Y97890D02*
X48006D01*
Y97590D01*
X48106Y97490D01*
X48506D01*
X48606Y97590D01*
Y97890D01*
X48506Y96891D02*
X48606Y96990D01*
Y97190D01*
X48506Y97290D01*
X48406D01*
X48306Y97190D01*
Y96990D01*
X48206Y96891D01*
X48106D01*
X48006Y96990D01*
Y97190D01*
X48106Y97290D01*
X48506Y96691D02*
X48606Y96591D01*
Y96391D01*
X48506Y96291D01*
X48406D01*
X48306Y96391D01*
Y96491D01*
Y96391D01*
X48206Y96291D01*
X48106D01*
X48006Y96391D01*
Y96591D01*
X48106Y96691D01*
X47906Y96091D02*
Y95691D01*
X48606Y95491D02*
X48106D01*
X48006Y95391D01*
Y95191D01*
X48106Y95091D01*
X48606D01*
X48106Y94891D02*
X48006Y94791D01*
Y94591D01*
X48106Y94491D01*
X48506D01*
X48606Y94591D01*
Y94791D01*
X48506Y94891D01*
X48406D01*
X48306Y94791D01*
Y94491D01*
X49114Y147701D02*
X48514D01*
Y147401D01*
X48614Y147301D01*
X49014D01*
X49114Y147401D01*
Y147701D01*
Y147101D02*
X48514D01*
Y146801D01*
X48614Y146701D01*
X49014D01*
X49114Y146801D01*
Y147101D01*
X49014Y146102D02*
X49114Y146201D01*
Y146401D01*
X49014Y146501D01*
X48914D01*
X48814Y146401D01*
Y146201D01*
X48714Y146102D01*
X48614D01*
X48514Y146201D01*
Y146401D01*
X48614Y146501D01*
X48514Y145602D02*
X49114D01*
X48814Y145902D01*
Y145502D01*
X48414Y145302D02*
Y144902D01*
X49114Y144702D02*
X48614D01*
X48514Y144602D01*
Y144402D01*
X48614Y144302D01*
X49114D01*
X48614Y144102D02*
X48514Y144002D01*
Y143802D01*
X48614Y143702D01*
X49014D01*
X49114Y143802D01*
Y144002D01*
X49014Y144102D01*
X48914D01*
X48814Y144002D01*
Y143702D01*
X49114Y171831D02*
X48514D01*
Y171531D01*
X48614Y171431D01*
X49014D01*
X49114Y171531D01*
Y171831D01*
Y171231D02*
X48514D01*
Y170931D01*
X48614Y170831D01*
X49014D01*
X49114Y170931D01*
Y171231D01*
X49014Y170232D02*
X49114Y170331D01*
Y170531D01*
X49014Y170631D01*
X48914D01*
X48814Y170531D01*
Y170331D01*
X48714Y170232D01*
X48614D01*
X48514Y170331D01*
Y170531D01*
X48614Y170631D01*
X49114Y169632D02*
Y170032D01*
X48814D01*
X48914Y169832D01*
Y169732D01*
X48814Y169632D01*
X48614D01*
X48514Y169732D01*
Y169932D01*
X48614Y170032D01*
X48414Y169432D02*
Y169032D01*
X49114Y168832D02*
X48614D01*
X48514Y168732D01*
Y168532D01*
X48614Y168432D01*
X49114D01*
X48614Y168232D02*
X48514Y168132D01*
Y167932D01*
X48614Y167832D01*
X49014D01*
X49114Y167932D01*
Y168132D01*
X49014Y168232D01*
X48914D01*
X48814Y168132D01*
Y167832D01*
X49114Y196215D02*
X48514D01*
Y195915D01*
X48614Y195815D01*
X49014D01*
X49114Y195915D01*
Y196215D01*
Y195615D02*
X48514D01*
Y195315D01*
X48614Y195215D01*
X49014D01*
X49114Y195315D01*
Y195615D01*
X49014Y194616D02*
X49114Y194715D01*
Y194915D01*
X49014Y195015D01*
X48914D01*
X48814Y194915D01*
Y194715D01*
X48714Y194616D01*
X48614D01*
X48514Y194715D01*
Y194915D01*
X48614Y195015D01*
X49114Y194016D02*
X49014Y194216D01*
X48814Y194416D01*
X48614D01*
X48514Y194316D01*
Y194116D01*
X48614Y194016D01*
X48714D01*
X48814Y194116D01*
Y194416D01*
X48414Y193816D02*
Y193416D01*
X49114Y193216D02*
X48614D01*
X48514Y193116D01*
Y192916D01*
X48614Y192816D01*
X49114D01*
X48614Y192616D02*
X48514Y192516D01*
Y192316D01*
X48614Y192216D01*
X49014D01*
X49114Y192316D01*
Y192516D01*
X49014Y192616D01*
X48914D01*
X48814Y192516D01*
Y192216D01*
X48606Y50038D02*
X48006D01*
Y49738D01*
X48106Y49638D01*
X48506D01*
X48606Y49738D01*
Y50038D01*
Y49438D02*
X48006D01*
Y49138D01*
X48106Y49038D01*
X48506D01*
X48606Y49138D01*
Y49438D01*
X48506Y48439D02*
X48606Y48538D01*
Y48738D01*
X48506Y48838D01*
X48406D01*
X48306Y48738D01*
Y48538D01*
X48206Y48439D01*
X48106D01*
X48006Y48538D01*
Y48738D01*
X48106Y48838D01*
X48006Y48239D02*
Y48039D01*
Y48139D01*
X48606D01*
X48506Y48239D01*
X47906Y47739D02*
Y47339D01*
X48606Y47139D02*
X48106D01*
X48006Y47039D01*
Y46839D01*
X48106Y46739D01*
X48606D01*
X48106Y46539D02*
X48006Y46439D01*
Y46239D01*
X48106Y46139D01*
X48506D01*
X48606Y46239D01*
Y46439D01*
X48506Y46539D01*
X48406D01*
X48306Y46439D01*
Y46139D01*
M02*
