G04 Layer_Physical_Order=2*
G04 Layer_Color=32768*
%FSLAX43Y43*%
%MOMM*%
G71*
G01*
G75*
%ADD44C,1.016*%
%ADD45C,2.016*%
%ADD46C,1.916*%
%ADD47C,2.032*%
G04:AMPARAMS|DCode=48|XSize=2.54mm|YSize=2.54mm|CornerRadius=0mm|HoleSize=0mm|Usage=FLASHONLY|Rotation=0.000|XOffset=0mm|YOffset=0mm|HoleType=Round|Shape=Relief|Width=0.254mm|Gap=0.254mm|Entries=4|*
%AMTHD48*
7,0,0,2.540,2.032,0.254,45*
%
%ADD48THD48*%
%ADD49O,1.866X1.666*%
%ADD50O,2.516X1.841*%
%ADD51O,2.516X1.841*%
%ADD52O,1.866X1.666*%
%ADD53C,2.116*%
G04:AMPARAMS|DCode=54|XSize=2.524mm|YSize=2.524mm|CornerRadius=0mm|HoleSize=0mm|Usage=FLASHONLY|Rotation=0.000|XOffset=0mm|YOffset=0mm|HoleType=Round|Shape=Relief|Width=0.254mm|Gap=0.254mm|Entries=4|*
%AMTHD54*
7,0,0,2.524,2.016,0.254,45*
%
%ADD54THD54*%
%ADD55C,1.516*%
G04:AMPARAMS|DCode=56|XSize=2.024mm|YSize=2.024mm|CornerRadius=0mm|HoleSize=0mm|Usage=FLASHONLY|Rotation=0.000|XOffset=0mm|YOffset=0mm|HoleType=Round|Shape=Relief|Width=0.254mm|Gap=0.254mm|Entries=4|*
%AMTHD56*
7,0,0,2.024,1.516,0.254,45*
%
%ADD56THD56*%
G04:AMPARAMS|DCode=57|XSize=2.235mm|YSize=2.235mm|CornerRadius=0mm|HoleSize=0mm|Usage=FLASHONLY|Rotation=0.000|XOffset=0mm|YOffset=0mm|HoleType=Round|Shape=Relief|Width=0.254mm|Gap=0.254mm|Entries=4|*
%AMTHD57*
7,0,0,2.235,1.727,0.254,45*
%
%ADD57THD57*%
%ADD58C,1.727*%
D44*
X19939Y31877D02*
X99441D01*
X99568Y31750D01*
X100965Y33147D01*
Y202819D01*
X20320D02*
X100965D01*
X19939Y31877D02*
X20320Y202819D01*
D45*
X63627Y43815D02*
D03*
X49530Y41910D02*
D03*
X63627Y68010D02*
D03*
X49530Y66105D02*
D03*
X63627Y92267D02*
D03*
X49530Y90362D02*
D03*
X64135Y141478D02*
D03*
X50038Y139573D02*
D03*
X64135Y165608D02*
D03*
X50038Y163703D02*
D03*
X64135Y189992D02*
D03*
X50038Y188087D02*
D03*
X62992Y127000D02*
D03*
X53975Y127127D02*
D03*
X62103Y198374D02*
D03*
X97282Y187325D02*
D03*
Y194056D02*
D03*
X22352Y198374D02*
D03*
X23495Y195707D02*
D03*
X24638Y192786D02*
D03*
X27432Y186436D02*
D03*
X25908Y189738D02*
D03*
X61595Y52197D02*
D03*
X96774Y41148D02*
D03*
Y47879D02*
D03*
X21844Y52197D02*
D03*
X22987Y49530D02*
D03*
X24130Y46609D02*
D03*
X26924Y40259D02*
D03*
X25400Y43561D02*
D03*
X61595Y76392D02*
D03*
X96774Y65343D02*
D03*
Y72074D02*
D03*
X21844Y76392D02*
D03*
X22987Y73725D02*
D03*
X24130Y70804D02*
D03*
X26924Y64454D02*
D03*
X25400Y67756D02*
D03*
X61595Y100649D02*
D03*
X96774Y89600D02*
D03*
Y96331D02*
D03*
X21844Y100649D02*
D03*
X22987Y97982D02*
D03*
X24130Y95061D02*
D03*
X26924Y88711D02*
D03*
X25400Y92013D02*
D03*
X62103Y149860D02*
D03*
X97282Y138811D02*
D03*
Y145542D02*
D03*
X22352Y149860D02*
D03*
X23495Y147193D02*
D03*
X24638Y144272D02*
D03*
X27432Y137922D02*
D03*
X25908Y141224D02*
D03*
X62103Y173990D02*
D03*
X97282Y162941D02*
D03*
Y169672D02*
D03*
X22352Y173990D02*
D03*
X23495Y171323D02*
D03*
X24638Y168402D02*
D03*
X27432Y162052D02*
D03*
X25908Y165354D02*
D03*
X79756Y127127D02*
D03*
X83439D02*
D03*
X83566Y123952D02*
D03*
X79756D02*
D03*
X86741Y114427D02*
D03*
X81407Y108712D02*
D03*
D46*
X83058Y193167D02*
D03*
Y195707D02*
D03*
X85598Y193167D02*
D03*
Y195707D02*
D03*
X88138Y193167D02*
D03*
Y195707D02*
D03*
X90678Y193167D02*
D03*
Y195707D02*
D03*
Y187960D02*
D03*
Y185420D02*
D03*
X88138Y187960D02*
D03*
Y185420D02*
D03*
X85598Y187960D02*
D03*
Y185420D02*
D03*
X83058Y187960D02*
D03*
Y185420D02*
D03*
X94615Y191770D02*
D03*
Y189230D02*
D03*
X82550Y39243D02*
D03*
Y41783D02*
D03*
X85090Y39243D02*
D03*
Y41783D02*
D03*
X87630Y39243D02*
D03*
Y41783D02*
D03*
X90170Y39243D02*
D03*
Y41783D02*
D03*
X94107Y43053D02*
D03*
Y45593D02*
D03*
X90170Y49530D02*
D03*
Y46990D02*
D03*
X87630Y49530D02*
D03*
Y46990D02*
D03*
X85090Y49530D02*
D03*
Y46990D02*
D03*
X82550Y49530D02*
D03*
Y46990D02*
D03*
X82550Y63438D02*
D03*
Y65978D02*
D03*
X85090Y63438D02*
D03*
Y65978D02*
D03*
X87630Y63438D02*
D03*
Y65978D02*
D03*
X90170Y63438D02*
D03*
Y65978D02*
D03*
X94107Y67248D02*
D03*
Y69788D02*
D03*
X90170Y73725D02*
D03*
Y71185D02*
D03*
X87630Y73725D02*
D03*
Y71185D02*
D03*
X85090Y73725D02*
D03*
Y71185D02*
D03*
X82550Y73725D02*
D03*
Y71185D02*
D03*
X82550Y87695D02*
D03*
Y90235D02*
D03*
X85090Y87695D02*
D03*
Y90235D02*
D03*
X87630Y87695D02*
D03*
Y90235D02*
D03*
X90170Y87695D02*
D03*
Y90235D02*
D03*
X94107Y91505D02*
D03*
Y94045D02*
D03*
X90170Y97982D02*
D03*
Y95442D02*
D03*
X87630Y97982D02*
D03*
Y95442D02*
D03*
X85090Y97982D02*
D03*
Y95442D02*
D03*
X82550Y97982D02*
D03*
Y95442D02*
D03*
X83058Y136906D02*
D03*
Y139446D02*
D03*
X85598Y136906D02*
D03*
Y139446D02*
D03*
X88138Y136906D02*
D03*
Y139446D02*
D03*
X90678Y136906D02*
D03*
Y139446D02*
D03*
X94615Y140716D02*
D03*
Y143256D02*
D03*
X90678Y147193D02*
D03*
Y144653D02*
D03*
X88138Y147193D02*
D03*
Y144653D02*
D03*
X85598Y147193D02*
D03*
Y144653D02*
D03*
X83058Y147193D02*
D03*
Y144653D02*
D03*
Y161036D02*
D03*
Y163576D02*
D03*
X85598Y161036D02*
D03*
Y163576D02*
D03*
X88138Y161036D02*
D03*
Y163576D02*
D03*
X90678Y161036D02*
D03*
Y163576D02*
D03*
X94615Y164846D02*
D03*
Y167386D02*
D03*
X90678Y171323D02*
D03*
Y168783D02*
D03*
X88138Y171323D02*
D03*
Y168783D02*
D03*
X85598Y171323D02*
D03*
Y168783D02*
D03*
X83058Y171323D02*
D03*
Y168783D02*
D03*
D47*
X49530Y123698D02*
D03*
X46990D02*
D03*
X44450D02*
D03*
X41910D02*
D03*
X39370D02*
D03*
X36830D02*
D03*
X34290D02*
D03*
X31750D02*
D03*
X29210D02*
D03*
X26670D02*
D03*
X21590D02*
D03*
X49530Y108458D02*
D03*
X46990D02*
D03*
X44450D02*
D03*
X41910D02*
D03*
X39370D02*
D03*
X36830D02*
D03*
X34290D02*
D03*
X31750D02*
D03*
X26670D02*
D03*
X24130D02*
D03*
X21590D02*
D03*
D48*
X24130Y123698D02*
D03*
X29210Y108458D02*
D03*
D49*
X96443Y113611D02*
D03*
D50*
X99568Y115474D02*
D03*
D51*
Y107299D02*
D03*
D52*
X96443Y109161D02*
D03*
D53*
X81534Y125603D02*
D03*
Y120523D02*
D03*
D54*
X58547Y127000D02*
D03*
D55*
X98806Y117221D02*
D03*
X39116Y37719D02*
D03*
X77089Y53975D02*
D03*
X68453Y46609D02*
D03*
X33498Y50174D02*
D03*
X56134Y39243D02*
D03*
X56007Y43942D02*
D03*
X57785Y38989D02*
D03*
X76962Y40132D02*
D03*
X71374Y36322D02*
D03*
X57785Y114808D02*
D03*
X77343Y112776D02*
D03*
X74803Y108966D02*
D03*
X45720Y44323D02*
D03*
X71374Y60517D02*
D03*
X76962Y64327D02*
D03*
X56007Y68137D02*
D03*
X57785Y63184D02*
D03*
X56134Y63438D02*
D03*
X45720Y68518D02*
D03*
X68453Y70804D02*
D03*
X77089Y78170D02*
D03*
X39116Y61914D02*
D03*
X71374Y84774D02*
D03*
X76962Y88584D02*
D03*
X56007Y92394D02*
D03*
X57785Y87441D02*
D03*
X56134Y87695D02*
D03*
X45720Y92775D02*
D03*
X33498Y98626D02*
D03*
X68453Y95061D02*
D03*
X77089Y102427D02*
D03*
X39116Y86171D02*
D03*
X71882Y133985D02*
D03*
X77470Y137795D02*
D03*
X56515Y141605D02*
D03*
X58293Y136652D02*
D03*
X56642Y136906D02*
D03*
X46228Y141986D02*
D03*
X34006Y147837D02*
D03*
X68961Y144272D02*
D03*
X77597Y151638D02*
D03*
X39624Y135382D02*
D03*
X71882Y158115D02*
D03*
X77470Y161925D02*
D03*
X56515Y165735D02*
D03*
X58293Y160782D02*
D03*
X56642Y161036D02*
D03*
X46228Y166116D02*
D03*
X34006Y171967D02*
D03*
X68961Y168402D02*
D03*
X77597Y175768D02*
D03*
X39624Y159512D02*
D03*
X71882Y182499D02*
D03*
X77470Y186309D02*
D03*
X56515Y190119D02*
D03*
X58293Y185166D02*
D03*
X56642Y185420D02*
D03*
X46228Y190500D02*
D03*
X34006Y196351D02*
D03*
X68961Y192786D02*
D03*
X77597Y200152D02*
D03*
X39624Y183896D02*
D03*
X33528Y74549D02*
D03*
X29591Y144272D02*
D03*
D56*
X36449Y38862D02*
D03*
X49657Y37592D02*
D03*
X26871Y50366D02*
D03*
X41275Y45974D02*
D03*
X40640Y37719D02*
D03*
X72644Y54229D02*
D03*
X73152Y46990D02*
D03*
X72009Y42291D02*
D03*
X72771Y34798D02*
D03*
X33498Y49031D02*
D03*
X54483Y42164D02*
D03*
X52578Y41656D02*
D03*
X56134Y112649D02*
D03*
X62103Y111506D02*
D03*
X61976Y115062D02*
D03*
X90805Y112649D02*
D03*
X77470Y115443D02*
D03*
X75822Y111255D02*
D03*
X41275Y70169D02*
D03*
X54483Y66359D02*
D03*
X52578Y65851D02*
D03*
X72771Y58993D02*
D03*
X72009Y66486D02*
D03*
X73152Y71185D02*
D03*
X72644Y78424D02*
D03*
X40640Y61914D02*
D03*
X26871Y74561D02*
D03*
X49657Y61787D02*
D03*
X36449Y63057D02*
D03*
X41275Y94426D02*
D03*
X54483Y90616D02*
D03*
X33498Y97483D02*
D03*
X52578Y90108D02*
D03*
X72771Y83250D02*
D03*
X72009Y90743D02*
D03*
X73152Y95442D02*
D03*
X72644Y102681D02*
D03*
X40640Y86171D02*
D03*
X26871Y98818D02*
D03*
X49657Y86044D02*
D03*
X36449Y87314D02*
D03*
X41783Y143637D02*
D03*
X54991Y139827D02*
D03*
X34006Y146694D02*
D03*
X53086Y139319D02*
D03*
X73279Y132461D02*
D03*
X72517Y139954D02*
D03*
X73660Y144653D02*
D03*
X73152Y151892D02*
D03*
X41148Y135382D02*
D03*
X27379Y148029D02*
D03*
X50165Y135255D02*
D03*
X36957Y136525D02*
D03*
X41783Y167767D02*
D03*
X54991Y163957D02*
D03*
X34006Y170824D02*
D03*
X53086Y163449D02*
D03*
X73279Y156591D02*
D03*
X72517Y164084D02*
D03*
X73660Y168783D02*
D03*
X73152Y176022D02*
D03*
X41148Y159512D02*
D03*
X27379Y172159D02*
D03*
X50165Y159385D02*
D03*
X36957Y160655D02*
D03*
X41783Y192151D02*
D03*
X54991Y188341D02*
D03*
X34006Y195208D02*
D03*
X53086Y187833D02*
D03*
X73279Y180975D02*
D03*
X72517Y188468D02*
D03*
X73660Y193167D02*
D03*
X73152Y200406D02*
D03*
X41148Y183896D02*
D03*
X27379Y196543D02*
D03*
X50165Y183769D02*
D03*
X36957Y185039D02*
D03*
X33528Y73279D02*
D03*
D57*
X65659Y117475D02*
D03*
X86995Y124079D02*
D03*
X40275Y49784D02*
D03*
X54737Y46736D02*
D03*
X40275Y73979D02*
D03*
X54737Y70931D02*
D03*
X40275Y98236D02*
D03*
X54737Y95188D02*
D03*
X40783Y147447D02*
D03*
X55245Y144399D02*
D03*
X40783Y171577D02*
D03*
X55245Y168529D02*
D03*
X40783Y195961D02*
D03*
X55245Y192913D02*
D03*
D58*
X72390Y123317D02*
D03*
X71120Y119507D02*
D03*
X68834Y118110D02*
D03*
X27051Y114554D02*
D03*
X36703Y128778D02*
D03*
X34417D02*
D03*
X32131Y135509D02*
D03*
X30861Y133223D02*
D03*
X32385Y128778D02*
D03*
X34163Y103505D02*
D03*
X30607Y38227D02*
D03*
X79629Y36576D02*
D03*
X67818Y40132D02*
D03*
X72263Y38100D02*
D03*
X75819Y33274D02*
D03*
X42737Y49087D02*
D03*
X59436Y46482D02*
D03*
X53975Y48895D02*
D03*
X50673Y47752D02*
D03*
X53001Y51266D02*
D03*
X53001Y75461D02*
D03*
X50673Y71947D02*
D03*
X53975Y73090D02*
D03*
X59436Y70677D02*
D03*
X42737Y73282D02*
D03*
X30607Y62422D02*
D03*
X67818Y64327D02*
D03*
X79629Y60771D02*
D03*
X72263Y62295D02*
D03*
X75819Y57469D02*
D03*
X53001Y99718D02*
D03*
X50673Y96204D02*
D03*
X53975Y97347D02*
D03*
X59436Y94934D02*
D03*
X42737Y97539D02*
D03*
X30607Y86679D02*
D03*
X67818Y88584D02*
D03*
X79629Y85028D02*
D03*
X72263Y86552D02*
D03*
X75819Y81726D02*
D03*
X53509Y148929D02*
D03*
X51181Y145415D02*
D03*
X54483Y146558D02*
D03*
X59944Y144145D02*
D03*
X43245Y146750D02*
D03*
X68326Y137795D02*
D03*
X80137Y134239D02*
D03*
X72771Y135763D02*
D03*
X76327Y130937D02*
D03*
X53509Y173059D02*
D03*
X51181Y169545D02*
D03*
X54483Y170688D02*
D03*
X59944Y168275D02*
D03*
X43245Y170880D02*
D03*
X31115Y160020D02*
D03*
X68326Y161925D02*
D03*
X80137Y158369D02*
D03*
X72771Y159893D02*
D03*
X76327Y155067D02*
D03*
X53509Y197443D02*
D03*
X51181Y193929D02*
D03*
X54483Y195072D02*
D03*
X59944Y192659D02*
D03*
X43245Y195264D02*
D03*
X31115Y184404D02*
D03*
X68326Y186309D02*
D03*
X80137Y182753D02*
D03*
X72771Y184277D02*
D03*
X76327Y179451D02*
D03*
X27051Y134747D02*
D03*
X34544Y136017D02*
D03*
M02*
