G04 Layer_Color=16711935*
%FSLAX43Y43*%
%MOMM*%
G71*
G01*
G75*
%ADD98C,0.100*%
D98*
X65694Y123012D02*
G03*
X65694Y123012I-500J0D01*
G01*
X72171Y186066D02*
G03*
X72171Y186066I-500J0D01*
G01*
X41564Y190211D02*
G03*
X41564Y190211I-500J0D01*
G01*
X72679Y198004D02*
G03*
X72679Y198004I-500J0D01*
G01*
X33043Y196552D02*
G03*
X33043Y196552I-500J0D01*
G01*
X71663Y39889D02*
G03*
X71663Y39889I-500J0D01*
G01*
X32535Y50375D02*
G03*
X32535Y50375I-500J0D01*
G01*
X41056Y44034D02*
G03*
X41056Y44034I-500J0D01*
G01*
X72171Y51827D02*
G03*
X72171Y51827I-500J0D01*
G01*
X71663Y64084D02*
G03*
X71663Y64084I-500J0D01*
G01*
X32535Y74570D02*
G03*
X32535Y74570I-500J0D01*
G01*
X41056Y68229D02*
G03*
X41056Y68229I-500J0D01*
G01*
X72171Y76022D02*
G03*
X72171Y76022I-500J0D01*
G01*
X71663Y88341D02*
G03*
X71663Y88341I-500J0D01*
G01*
X32535Y98827D02*
G03*
X32535Y98827I-500J0D01*
G01*
X41056Y92486D02*
G03*
X41056Y92486I-500J0D01*
G01*
X72171Y100279D02*
G03*
X72171Y100279I-500J0D01*
G01*
X72171Y137552D02*
G03*
X72171Y137552I-500J0D01*
G01*
X33043Y148038D02*
G03*
X33043Y148038I-500J0D01*
G01*
X41564Y141697D02*
G03*
X41564Y141697I-500J0D01*
G01*
X72679Y149490D02*
G03*
X72679Y149490I-500J0D01*
G01*
X72171Y161682D02*
G03*
X72171Y161682I-500J0D01*
G01*
X33043Y172168D02*
G03*
X33043Y172168I-500J0D01*
G01*
X41564Y165827D02*
G03*
X41564Y165827I-500J0D01*
G01*
X72679Y173620D02*
G03*
X72679Y173620I-500J0D01*
G01*
X50360Y73936D02*
G03*
X50360Y73936I-500J0D01*
G01*
Y98193D02*
G03*
X50360Y98193I-500J0D01*
G01*
X50868Y147404D02*
G03*
X50868Y147404I-500J0D01*
G01*
Y171534D02*
G03*
X50868Y171534I-500J0D01*
G01*
Y195918D02*
G03*
X50868Y195918I-500J0D01*
G01*
X50360Y49741D02*
G03*
X50360Y49741I-500J0D01*
G01*
X43575Y38006D02*
X45325D01*
X43575Y38956D02*
X45325D01*
Y38006D02*
Y38956D01*
X43575Y38006D02*
Y38956D01*
Y62263D02*
X45325D01*
X43575Y63213D02*
X45325D01*
Y62263D02*
Y63213D01*
X43575Y62263D02*
Y63213D01*
Y86520D02*
X45325D01*
X43575Y87470D02*
X45325D01*
Y86520D02*
Y87470D01*
X43575Y86520D02*
Y87470D01*
X44210Y135542D02*
X45960D01*
X44210Y136492D02*
X45960D01*
Y135542D02*
Y136492D01*
X44210Y135542D02*
Y136492D01*
Y159799D02*
X45960D01*
X44210Y160749D02*
X45960D01*
Y159799D02*
Y160749D01*
X44210Y159799D02*
Y160749D01*
X44083Y184183D02*
X45833D01*
X44083Y185133D02*
X45833D01*
Y184183D02*
Y185133D01*
X44083Y184183D02*
Y185133D01*
X56196Y193997D02*
Y196147D01*
X57596Y193997D02*
Y196147D01*
X56196Y193997D02*
X57596D01*
X56196Y196147D02*
X57596D01*
X56196Y169994D02*
Y172144D01*
X57596Y169994D02*
Y172144D01*
X56196Y169994D02*
X57596D01*
X56196Y172144D02*
X57596D01*
X56196Y145610D02*
Y147760D01*
X57596Y145610D02*
Y147760D01*
X56196Y145610D02*
X57596D01*
X56196Y147760D02*
X57596D01*
X55561Y96588D02*
Y98738D01*
X56961Y96588D02*
Y98738D01*
X55561Y96588D02*
X56961D01*
X55561Y98738D02*
X56961D01*
X55688Y72204D02*
Y74354D01*
X57088Y72204D02*
Y74354D01*
X55688Y72204D02*
X57088D01*
X55688Y74354D02*
X57088D01*
X55561Y47947D02*
Y50097D01*
X56961Y47947D02*
Y50097D01*
X55561Y47947D02*
X56961D01*
X55561Y50097D02*
X56961D01*
X47566Y40451D02*
X49716D01*
X47566Y39051D02*
X49716D01*
X47566D02*
Y40451D01*
X49716Y39051D02*
Y40451D01*
X76741Y109680D02*
Y111430D01*
X77691Y109680D02*
Y111430D01*
X76741Y109680D02*
X77691D01*
X76741Y111430D02*
X77691D01*
X76365Y107169D02*
Y107969D01*
X74765Y107169D02*
Y107969D01*
X74765Y107969D02*
X76365D01*
X74765Y107169D02*
X76365D01*
X79713Y114743D02*
X81863D01*
X79713Y116143D02*
X81863D01*
Y114743D02*
Y116143D01*
X79713Y114743D02*
Y116143D01*
X86425Y109304D02*
Y111454D01*
X85025Y109304D02*
Y111454D01*
X86425D01*
X85025Y109304D02*
X86425D01*
X88552Y111201D02*
Y112951D01*
X89502Y111201D02*
Y112951D01*
X88552Y111201D02*
X89502D01*
X88552Y112951D02*
X89502D01*
X76054Y121323D02*
X76854D01*
X76054Y119723D02*
X76854D01*
X76054Y119723D02*
Y121323D01*
X76854Y119723D02*
Y121323D01*
X77154Y123766D02*
Y125916D01*
X75754Y123766D02*
Y125916D01*
X77154D01*
X75754Y123766D02*
X77154D01*
X67324Y116238D02*
X69074D01*
X67324Y117188D02*
X69074D01*
Y116238D02*
Y117188D01*
X67324Y116238D02*
Y117188D01*
X60546Y119967D02*
Y121717D01*
X59596Y119967D02*
Y121717D01*
X60546D01*
X59596Y119967D02*
X60546D01*
X59004Y115537D02*
X60754D01*
X59004Y114587D02*
X60754D01*
X59004D02*
Y115537D01*
X60754Y114587D02*
Y115537D01*
X53402Y111590D02*
Y113740D01*
X54802Y111590D02*
Y113740D01*
X53402Y111590D02*
X54802D01*
X53402Y113740D02*
X54802D01*
X89724Y51757D02*
Y53907D01*
X91124Y51757D02*
Y53907D01*
X89724Y51757D02*
X91124D01*
X89724Y53907D02*
X91124D01*
X87057Y51884D02*
Y54034D01*
X88457Y51884D02*
Y54034D01*
X87057Y51884D02*
X88457D01*
X87057Y54034D02*
X88457D01*
X65213Y34866D02*
Y37016D01*
X66613Y34866D02*
Y37016D01*
X65213Y34866D02*
X66613D01*
X65213Y37016D02*
X66613D01*
X58218Y35811D02*
X60368D01*
X58218Y37211D02*
X60368D01*
Y35811D02*
Y37211D01*
X58218Y35811D02*
Y37211D01*
X84390Y51884D02*
Y54034D01*
X85790Y51884D02*
Y54034D01*
X84390Y51884D02*
X85790D01*
X84390Y54034D02*
X85790D01*
X31564Y42161D02*
X33714D01*
X31564Y43561D02*
X33714D01*
Y42161D02*
Y43561D01*
X31564Y42161D02*
Y43561D01*
X29659Y39494D02*
X31809D01*
X29659Y40894D02*
X31809D01*
Y39494D02*
Y40894D01*
X29659Y39494D02*
Y40894D01*
X83250Y52011D02*
Y54161D01*
X81850Y52011D02*
Y54161D01*
X83250D01*
X81850Y52011D02*
X83250D01*
X53180Y43002D02*
Y44752D01*
X52230Y43002D02*
Y44752D01*
X53180D01*
X52230Y43002D02*
X53180D01*
X54704D02*
Y44752D01*
X53754Y43002D02*
Y44752D01*
X54704D01*
X53754Y43002D02*
X54704D01*
X52103Y38684D02*
Y40434D01*
X53053Y38684D02*
Y40434D01*
X52103Y38684D02*
X53053D01*
X52103Y40434D02*
X53053D01*
X53754Y38684D02*
Y40434D01*
X54704Y38684D02*
Y40434D01*
X53754Y38684D02*
X54704D01*
X53754Y40434D02*
X54704D01*
X38464Y48788D02*
Y50538D01*
X37514Y48788D02*
Y50538D01*
X38464D01*
X37514Y48788D02*
X38464D01*
X36940D02*
Y50538D01*
X35990Y48788D02*
Y50538D01*
X36940D01*
X35990Y48788D02*
X36940D01*
X35416D02*
Y50538D01*
X34466Y48788D02*
Y50538D01*
X35416D01*
X34466Y48788D02*
X35416D01*
X69737Y34954D02*
X71487D01*
X69737Y34004D02*
X71487D01*
X69737D02*
Y34954D01*
X71487Y34004D02*
Y34954D01*
X70118Y47146D02*
X71868D01*
X70118Y46196D02*
X71868D01*
X70118D02*
Y47146D01*
X71868Y46196D02*
Y47146D01*
X73674Y53435D02*
X75424D01*
X73674Y54385D02*
X75424D01*
Y53435D02*
Y54385D01*
X73674Y53435D02*
Y54385D01*
X38941Y39272D02*
X40691D01*
X38941Y38322D02*
X40691D01*
X38941D02*
Y39272D01*
X40691Y38322D02*
Y39272D01*
X42624Y45434D02*
X44374D01*
X42624Y46384D02*
X44374D01*
Y45434D02*
Y46384D01*
X42624Y45434D02*
Y46384D01*
X27943Y48791D02*
Y50541D01*
X28893Y48791D02*
Y50541D01*
X27943Y48791D02*
X28893D01*
X27943Y50541D02*
X28893D01*
X35066Y46003D02*
X36816D01*
X35066Y45053D02*
X36816D01*
X35066D02*
Y46003D01*
X36816Y45053D02*
Y46003D01*
X36924Y40273D02*
Y42023D01*
X35974Y40273D02*
Y42023D01*
X36924D01*
X35974Y40273D02*
X36924D01*
X89724Y75952D02*
Y78102D01*
X91124Y75952D02*
Y78102D01*
X89724Y75952D02*
X91124D01*
X89724Y78102D02*
X91124D01*
X87057Y76079D02*
Y78229D01*
X88457Y76079D02*
Y78229D01*
X87057Y76079D02*
X88457D01*
X87057Y78229D02*
X88457D01*
X65213Y59061D02*
Y61211D01*
X66613Y59061D02*
Y61211D01*
X65213Y59061D02*
X66613D01*
X65213Y61211D02*
X66613D01*
X58218Y60006D02*
X60368D01*
X58218Y61406D02*
X60368D01*
Y60006D02*
Y61406D01*
X58218Y60006D02*
Y61406D01*
X84390Y76079D02*
Y78229D01*
X85790Y76079D02*
Y78229D01*
X84390Y76079D02*
X85790D01*
X84390Y78229D02*
X85790D01*
X47566Y64708D02*
X49716D01*
X47566Y63308D02*
X49716D01*
X47566D02*
Y64708D01*
X49716Y63308D02*
Y64708D01*
X31564Y66356D02*
X33714D01*
X31564Y67756D02*
X33714D01*
Y66356D02*
Y67756D01*
X31564Y66356D02*
Y67756D01*
X29659Y63689D02*
X31809D01*
X29659Y65089D02*
X31809D01*
Y63689D02*
Y65089D01*
X29659Y63689D02*
Y65089D01*
X83250Y76206D02*
Y78356D01*
X81850Y76206D02*
Y78356D01*
X83250D01*
X81850Y76206D02*
X83250D01*
X53180Y67197D02*
Y68947D01*
X52230Y67197D02*
Y68947D01*
X53180D01*
X52230Y67197D02*
X53180D01*
X54704D02*
Y68947D01*
X53754Y67197D02*
Y68947D01*
X54704D01*
X53754Y67197D02*
X54704D01*
X52103Y62879D02*
Y64629D01*
X53053Y62879D02*
Y64629D01*
X52103Y62879D02*
X53053D01*
X52103Y64629D02*
X53053D01*
X53754Y62879D02*
Y64629D01*
X54704Y62879D02*
Y64629D01*
X53754Y62879D02*
X54704D01*
X53754Y64629D02*
X54704D01*
X38464Y72983D02*
Y74733D01*
X37514Y72983D02*
Y74733D01*
X38464D01*
X37514Y72983D02*
X38464D01*
X36940D02*
Y74733D01*
X35990Y72983D02*
Y74733D01*
X36940D01*
X35990Y72983D02*
X36940D01*
X35416D02*
Y74733D01*
X34466Y72983D02*
Y74733D01*
X35416D01*
X34466Y72983D02*
X35416D01*
X69737Y59149D02*
X71487D01*
X69737Y58199D02*
X71487D01*
X69737D02*
Y59149D01*
X71487Y58199D02*
Y59149D01*
X70118Y71341D02*
X71868D01*
X70118Y70391D02*
X71868D01*
X70118D02*
Y71341D01*
X71868Y70391D02*
Y71341D01*
X73674Y77630D02*
X75424D01*
X73674Y78580D02*
X75424D01*
Y77630D02*
Y78580D01*
X73674Y77630D02*
Y78580D01*
X38941Y63467D02*
X40691D01*
X38941Y62517D02*
X40691D01*
X38941D02*
Y63467D01*
X40691Y62517D02*
Y63467D01*
X42624Y69629D02*
X44374D01*
X42624Y70579D02*
X44374D01*
Y69629D02*
Y70579D01*
X42624Y69629D02*
Y70579D01*
X27943Y72986D02*
Y74736D01*
X28893Y72986D02*
Y74736D01*
X27943Y72986D02*
X28893D01*
X27943Y74736D02*
X28893D01*
X35066Y70198D02*
X36816D01*
X35066Y69248D02*
X36816D01*
X35066D02*
Y70198D01*
X36816Y69248D02*
Y70198D01*
X36924Y64468D02*
Y66218D01*
X35974Y64468D02*
Y66218D01*
X36924D01*
X35974Y64468D02*
X36924D01*
X89724Y100209D02*
Y102359D01*
X91124Y100209D02*
Y102359D01*
X89724Y100209D02*
X91124D01*
X89724Y102359D02*
X91124D01*
X87057Y100336D02*
Y102486D01*
X88457Y100336D02*
Y102486D01*
X87057Y100336D02*
X88457D01*
X87057Y102486D02*
X88457D01*
X65213Y83318D02*
Y85468D01*
X66613Y83318D02*
Y85468D01*
X65213Y83318D02*
X66613D01*
X65213Y85468D02*
X66613D01*
X58218Y84263D02*
X60368D01*
X58218Y85663D02*
X60368D01*
Y84263D02*
Y85663D01*
X58218Y84263D02*
Y85663D01*
X84390Y100336D02*
Y102486D01*
X85790Y100336D02*
Y102486D01*
X84390Y100336D02*
X85790D01*
X84390Y102486D02*
X85790D01*
X47566Y88965D02*
X49716D01*
X47566Y87565D02*
X49716D01*
X47566D02*
Y88965D01*
X49716Y87565D02*
Y88965D01*
X31564Y90613D02*
X33714D01*
X31564Y92013D02*
X33714D01*
Y90613D02*
Y92013D01*
X31564Y90613D02*
Y92013D01*
X29659Y87946D02*
X31809D01*
X29659Y89346D02*
X31809D01*
Y87946D02*
Y89346D01*
X29659Y87946D02*
Y89346D01*
X83250Y100463D02*
Y102613D01*
X81850Y100463D02*
Y102613D01*
X83250D01*
X81850Y100463D02*
X83250D01*
X53180Y91454D02*
Y93204D01*
X52230Y91454D02*
Y93204D01*
X53180D01*
X52230Y91454D02*
X53180D01*
X54704D02*
Y93204D01*
X53754Y91454D02*
Y93204D01*
X54704D01*
X53754Y91454D02*
X54704D01*
X52103Y87136D02*
Y88886D01*
X53053Y87136D02*
Y88886D01*
X52103Y87136D02*
X53053D01*
X52103Y88886D02*
X53053D01*
X53754Y87136D02*
Y88886D01*
X54704Y87136D02*
Y88886D01*
X53754Y87136D02*
X54704D01*
X53754Y88886D02*
X54704D01*
X38464Y97240D02*
Y98990D01*
X37514Y97240D02*
Y98990D01*
X38464D01*
X37514Y97240D02*
X38464D01*
X36940D02*
Y98990D01*
X35990Y97240D02*
Y98990D01*
X36940D01*
X35990Y97240D02*
X36940D01*
X35416D02*
Y98990D01*
X34466Y97240D02*
Y98990D01*
X35416D01*
X34466Y97240D02*
X35416D01*
X69737Y83406D02*
X71487D01*
X69737Y82456D02*
X71487D01*
X69737D02*
Y83406D01*
X71487Y82456D02*
Y83406D01*
X70118Y95598D02*
X71868D01*
X70118Y94648D02*
X71868D01*
X70118D02*
Y95598D01*
X71868Y94648D02*
Y95598D01*
X73674Y101887D02*
X75424D01*
X73674Y102837D02*
X75424D01*
Y101887D02*
Y102837D01*
X73674Y101887D02*
Y102837D01*
X38941Y87724D02*
X40691D01*
X38941Y86774D02*
X40691D01*
X38941D02*
Y87724D01*
X40691Y86774D02*
Y87724D01*
X42624Y93886D02*
X44374D01*
X42624Y94836D02*
X44374D01*
Y93886D02*
Y94836D01*
X42624Y93886D02*
Y94836D01*
X27943Y97243D02*
Y98993D01*
X28893Y97243D02*
Y98993D01*
X27943Y97243D02*
X28893D01*
X27943Y98993D02*
X28893D01*
X35066Y94455D02*
X36816D01*
X35066Y93505D02*
X36816D01*
X35066D02*
Y94455D01*
X36816Y93505D02*
Y94455D01*
X36924Y88725D02*
Y90475D01*
X35974Y88725D02*
Y90475D01*
X36924D01*
X35974Y88725D02*
X36924D01*
X90232Y149420D02*
Y151570D01*
X91632Y149420D02*
Y151570D01*
X90232Y149420D02*
X91632D01*
X90232Y151570D02*
X91632D01*
X87565Y149547D02*
Y151697D01*
X88965Y149547D02*
Y151697D01*
X87565Y149547D02*
X88965D01*
X87565Y151697D02*
X88965D01*
X65721Y132529D02*
Y134679D01*
X67121Y132529D02*
Y134679D01*
X65721Y132529D02*
X67121D01*
X65721Y134679D02*
X67121D01*
X58726Y133474D02*
X60876D01*
X58726Y134874D02*
X60876D01*
Y133474D02*
Y134874D01*
X58726Y133474D02*
Y134874D01*
X84898Y149547D02*
Y151697D01*
X86298Y149547D02*
Y151697D01*
X84898Y149547D02*
X86298D01*
X84898Y151697D02*
X86298D01*
X47947Y138114D02*
X50097D01*
X47947Y136714D02*
X50097D01*
X47947D02*
Y138114D01*
X50097Y136714D02*
Y138114D01*
X32072Y139824D02*
X34222D01*
X32072Y141224D02*
X34222D01*
Y139824D02*
Y141224D01*
X32072Y139824D02*
Y141224D01*
X30167Y137157D02*
X32317D01*
X30167Y138557D02*
X32317D01*
Y137157D02*
Y138557D01*
X30167Y137157D02*
Y138557D01*
X83758Y149674D02*
Y151824D01*
X82358Y149674D02*
Y151824D01*
X83758D01*
X82358Y149674D02*
X83758D01*
X53688Y140665D02*
Y142415D01*
X52738Y140665D02*
Y142415D01*
X53688D01*
X52738Y140665D02*
X53688D01*
X55212D02*
Y142415D01*
X54262Y140665D02*
Y142415D01*
X55212D01*
X54262Y140665D02*
X55212D01*
X52611Y136347D02*
Y138097D01*
X53561Y136347D02*
Y138097D01*
X52611Y136347D02*
X53561D01*
X52611Y138097D02*
X53561D01*
X54262Y136347D02*
Y138097D01*
X55212Y136347D02*
Y138097D01*
X54262Y136347D02*
X55212D01*
X54262Y138097D02*
X55212D01*
X38972Y146451D02*
Y148201D01*
X38022Y146451D02*
Y148201D01*
X38972D01*
X38022Y146451D02*
X38972D01*
X37448D02*
Y148201D01*
X36498Y146451D02*
Y148201D01*
X37448D01*
X36498Y146451D02*
X37448D01*
X35924D02*
Y148201D01*
X34974Y146451D02*
Y148201D01*
X35924D01*
X34974Y146451D02*
X35924D01*
X70245Y132617D02*
X71995D01*
X70245Y131667D02*
X71995D01*
X70245D02*
Y132617D01*
X71995Y131667D02*
Y132617D01*
X70626Y144809D02*
X72376D01*
X70626Y143859D02*
X72376D01*
X70626D02*
Y144809D01*
X72376Y143859D02*
Y144809D01*
X74182Y151098D02*
X75932D01*
X74182Y152048D02*
X75932D01*
Y151098D02*
Y152048D01*
X74182Y151098D02*
Y152048D01*
X39449Y136935D02*
X41199D01*
X39449Y135985D02*
X41199D01*
X39449D02*
Y136935D01*
X41199Y135985D02*
Y136935D01*
X43132Y143097D02*
X44882D01*
X43132Y144047D02*
X44882D01*
Y143097D02*
Y144047D01*
X43132Y143097D02*
Y144047D01*
X28451Y146454D02*
Y148204D01*
X29401Y146454D02*
Y148204D01*
X28451Y146454D02*
X29401D01*
X28451Y148204D02*
X29401D01*
X35574Y143666D02*
X37324D01*
X35574Y142716D02*
X37324D01*
X35574D02*
Y143666D01*
X37324Y142716D02*
Y143666D01*
X37432Y137936D02*
Y139686D01*
X36482Y137936D02*
Y139686D01*
X37432D01*
X36482Y137936D02*
X37432D01*
X90232Y173550D02*
Y175700D01*
X91632Y173550D02*
Y175700D01*
X90232Y173550D02*
X91632D01*
X90232Y175700D02*
X91632D01*
X87565Y173677D02*
Y175827D01*
X88965Y173677D02*
Y175827D01*
X87565Y173677D02*
X88965D01*
X87565Y175827D02*
X88965D01*
X65721Y156659D02*
Y158809D01*
X67121Y156659D02*
Y158809D01*
X65721Y156659D02*
X67121D01*
X65721Y158809D02*
X67121D01*
X58726Y157604D02*
X60876D01*
X58726Y159004D02*
X60876D01*
Y157604D02*
Y159004D01*
X58726Y157604D02*
Y159004D01*
X84898Y173677D02*
Y175827D01*
X86298Y173677D02*
Y175827D01*
X84898Y173677D02*
X86298D01*
X84898Y175827D02*
X86298D01*
X47820Y162371D02*
X49970D01*
X47820Y160971D02*
X49970D01*
X47820D02*
Y162371D01*
X49970Y160971D02*
Y162371D01*
X32072Y163954D02*
X34222D01*
X32072Y165354D02*
X34222D01*
Y163954D02*
Y165354D01*
X32072Y163954D02*
Y165354D01*
X30167Y161287D02*
X32317D01*
X30167Y162687D02*
X32317D01*
Y161287D02*
Y162687D01*
X30167Y161287D02*
Y162687D01*
X83758Y173804D02*
Y175954D01*
X82358Y173804D02*
Y175954D01*
X83758D01*
X82358Y173804D02*
X83758D01*
X53688Y164795D02*
Y166545D01*
X52738Y164795D02*
Y166545D01*
X53688D01*
X52738Y164795D02*
X53688D01*
X55212D02*
Y166545D01*
X54262Y164795D02*
Y166545D01*
X55212D01*
X54262Y164795D02*
X55212D01*
X52611Y160477D02*
Y162227D01*
X53561Y160477D02*
Y162227D01*
X52611Y160477D02*
X53561D01*
X52611Y162227D02*
X53561D01*
X54262Y160477D02*
Y162227D01*
X55212Y160477D02*
Y162227D01*
X54262Y160477D02*
X55212D01*
X54262Y162227D02*
X55212D01*
X38972Y170581D02*
Y172331D01*
X38022Y170581D02*
Y172331D01*
X38972D01*
X38022Y170581D02*
X38972D01*
X37448D02*
Y172331D01*
X36498Y170581D02*
Y172331D01*
X37448D01*
X36498Y170581D02*
X37448D01*
X35924D02*
Y172331D01*
X34974Y170581D02*
Y172331D01*
X35924D01*
X34974Y170581D02*
X35924D01*
X70245Y156747D02*
X71995D01*
X70245Y155797D02*
X71995D01*
X70245D02*
Y156747D01*
X71995Y155797D02*
Y156747D01*
X70626Y168939D02*
X72376D01*
X70626Y167989D02*
X72376D01*
X70626D02*
Y168939D01*
X72376Y167989D02*
Y168939D01*
X74182Y175228D02*
X75932D01*
X74182Y176178D02*
X75932D01*
Y175228D02*
Y176178D01*
X74182Y175228D02*
Y176178D01*
X39449Y161065D02*
X41199D01*
X39449Y160115D02*
X41199D01*
X39449D02*
Y161065D01*
X41199Y160115D02*
Y161065D01*
X43132Y167227D02*
X44882D01*
X43132Y168177D02*
X44882D01*
Y167227D02*
Y168177D01*
X43132Y167227D02*
Y168177D01*
X28451Y170584D02*
Y172334D01*
X29401Y170584D02*
Y172334D01*
X28451Y170584D02*
X29401D01*
X28451Y172334D02*
X29401D01*
X35574Y167796D02*
X37324D01*
X35574Y166846D02*
X37324D01*
X35574D02*
Y167796D01*
X37324Y166846D02*
Y167796D01*
X37432Y162066D02*
Y163816D01*
X36482Y162066D02*
Y163816D01*
X37432D01*
X36482Y162066D02*
X37432D01*
X83758Y198188D02*
Y200338D01*
X82358Y198188D02*
Y200338D01*
X83758D01*
X82358Y198188D02*
X83758D01*
X84898Y198061D02*
Y200211D01*
X86298Y198061D02*
Y200211D01*
X84898Y198061D02*
X86298D01*
X84898Y200211D02*
X86298D01*
X87565D02*
X88965D01*
X87565Y198061D02*
X88965D01*
Y200211D01*
X87565Y198061D02*
Y200211D01*
X90232Y200084D02*
X91632D01*
X90232Y197934D02*
X91632D01*
Y200084D01*
X90232Y197934D02*
Y200084D01*
X70245Y181131D02*
X71995D01*
X70245Y180181D02*
X71995D01*
X70245D02*
Y181131D01*
X71995Y180181D02*
Y181131D01*
X74182Y199612D02*
X75932D01*
X74182Y200562D02*
X75932D01*
Y199612D02*
Y200562D01*
X74182Y199612D02*
Y200562D01*
X70626Y193323D02*
X72376D01*
X70626Y192373D02*
X72376D01*
X70626D02*
Y193323D01*
X72376Y192373D02*
Y193323D01*
X65721Y181043D02*
Y183193D01*
X67121Y181043D02*
Y183193D01*
X65721Y181043D02*
X67121D01*
X65721Y183193D02*
X67121D01*
X58726Y181988D02*
X60876D01*
X58726Y183388D02*
X60876D01*
Y181988D02*
Y183388D01*
X58726Y181988D02*
Y183388D01*
X55212Y189179D02*
Y190929D01*
X54262Y189179D02*
Y190929D01*
X55212D01*
X54262Y189179D02*
X55212D01*
X53688D02*
Y190929D01*
X52738Y189179D02*
Y190929D01*
X53688D01*
X52738Y189179D02*
X53688D01*
X52611Y184861D02*
Y186611D01*
X53561Y184861D02*
Y186611D01*
X52611Y184861D02*
X53561D01*
X52611Y186611D02*
X53561D01*
X54262Y184861D02*
Y186611D01*
X55212Y184861D02*
Y186611D01*
X54262Y184861D02*
X55212D01*
X54262Y186611D02*
X55212D01*
X43132Y191611D02*
X44882D01*
X43132Y192561D02*
X44882D01*
Y191611D02*
Y192561D01*
X43132Y191611D02*
Y192561D01*
X48201Y186755D02*
X50351D01*
X48201Y185355D02*
X50351D01*
X48201D02*
Y186755D01*
X50351Y185355D02*
Y186755D01*
X39449Y185449D02*
X41199D01*
X39449Y184499D02*
X41199D01*
X39449D02*
Y185449D01*
X41199Y184499D02*
Y185449D01*
X37432Y186450D02*
Y188200D01*
X36482Y186450D02*
Y188200D01*
X37432D01*
X36482Y186450D02*
X37432D01*
X30167Y185671D02*
X32317D01*
X30167Y187071D02*
X32317D01*
Y185671D02*
Y187071D01*
X30167Y185671D02*
Y187071D01*
X32072Y188338D02*
X34222D01*
X32072Y189738D02*
X34222D01*
Y188338D02*
Y189738D01*
X32072Y188338D02*
Y189738D01*
X35574Y192180D02*
X37324D01*
X35574Y191230D02*
X37324D01*
X35574D02*
Y192180D01*
X37324Y191230D02*
Y192180D01*
X38972Y194965D02*
Y196715D01*
X38022Y194965D02*
Y196715D01*
X38972D01*
X38022Y194965D02*
X38972D01*
X37448D02*
Y196715D01*
X36498Y194965D02*
Y196715D01*
X37448D01*
X36498Y194965D02*
X37448D01*
X35924D02*
Y196715D01*
X34974Y194965D02*
Y196715D01*
X35924D01*
X34974Y194965D02*
X35924D01*
X28451Y194968D02*
Y196718D01*
X29401Y194968D02*
Y196718D01*
X28451Y194968D02*
X29401D01*
X28451Y196718D02*
X29401D01*
X82231Y182939D02*
X83631D01*
X82231Y180789D02*
X83631D01*
Y182939D01*
X82231Y180789D02*
Y182939D01*
X84771Y180662D02*
X86171D01*
X84771Y182812D02*
X86171D01*
X84771Y180662D02*
Y182812D01*
X86171Y180662D02*
Y182812D01*
X87565Y180662D02*
X88965D01*
X87565Y182812D02*
X88965D01*
X87565Y180662D02*
Y182812D01*
X88965Y180662D02*
Y182812D01*
X90232Y180789D02*
X91632D01*
X90232Y182939D02*
X91632D01*
X90232Y180789D02*
Y182939D01*
X91632Y180789D02*
Y182939D01*
X58307Y111072D02*
Y113972D01*
X60057Y111072D02*
Y113972D01*
X58307D02*
X60057D01*
X58307Y111072D02*
X60057D01*
X64294Y118912D02*
Y123912D01*
X68294Y118912D02*
Y123912D01*
X64294D02*
X68294D01*
X64294Y118912D02*
X68294D01*
X96593Y107636D02*
Y115136D01*
X101593D01*
X101593Y107636D01*
X96593D02*
X101593D01*
X80056Y109890D02*
X81856D01*
X80056Y112990D02*
X81856D01*
Y109890D02*
Y112990D01*
X80056Y109890D02*
Y112990D01*
X90688Y119113D02*
X97488D01*
X90688D02*
Y119913D01*
X97488Y119113D02*
Y119613D01*
Y119613D02*
X98288D01*
Y119613D02*
Y126513D01*
X97488D02*
Y127013D01*
Y126513D02*
X98288D01*
X90688Y119913D02*
X92288D01*
Y119913D02*
Y126213D01*
X90688Y126213D02*
X92288D01*
X90688Y127013D02*
X97488D01*
X90688Y126213D02*
Y127013D01*
X70771Y181966D02*
Y186966D01*
X74771Y181966D02*
Y186966D01*
X70771D02*
X74771D01*
X70771Y181966D02*
X74771D01*
X40164Y186111D02*
Y191111D01*
X44164Y186111D02*
Y191111D01*
X40164D02*
X44164D01*
X40164Y186111D02*
X44164D01*
X71279Y193904D02*
Y198904D01*
X75279Y193904D02*
Y198904D01*
X71279D02*
X75279D01*
X71279Y193904D02*
X75279D01*
X30343Y194352D02*
Y197452D01*
X33443Y194352D02*
Y197452D01*
X30343Y194352D02*
X33443D01*
X30343Y197452D02*
X33443D01*
X78046Y180148D02*
X80196D01*
X78046Y181548D02*
X80196D01*
Y180148D02*
Y181548D01*
X78046Y180148D02*
Y181548D01*
X64076Y185417D02*
X66226D01*
X64076Y186817D02*
X66226D01*
Y185417D02*
Y186817D01*
X64076Y185417D02*
Y186817D01*
X64822Y195580D02*
X66972D01*
X64822Y194180D02*
X66972D01*
X64822D02*
Y195580D01*
X66972Y194180D02*
Y195580D01*
X58885Y194180D02*
X61035D01*
X58885Y195580D02*
X61035D01*
Y194180D02*
Y195580D01*
X58885Y194180D02*
Y195580D01*
X79567Y192281D02*
Y194431D01*
X78167Y192281D02*
Y194431D01*
X79567D01*
X78167Y192281D02*
X79567D01*
X64949Y197609D02*
X67099D01*
X64949Y199009D02*
X67099D01*
Y197609D02*
Y199009D01*
X64949Y197609D02*
Y199009D01*
X73674Y187674D02*
X75424D01*
X73674Y188624D02*
X75424D01*
Y187674D02*
Y188624D01*
X73674Y187674D02*
Y188624D01*
X73166Y41497D02*
X74916D01*
X73166Y42447D02*
X74916D01*
Y41497D02*
Y42447D01*
X73166Y41497D02*
Y42447D01*
X70263Y35789D02*
Y40789D01*
X74263Y35789D02*
Y40789D01*
X70263D02*
X74263D01*
X70263Y35789D02*
X74263D01*
X91124Y34485D02*
Y36635D01*
X89724Y34485D02*
Y36635D01*
X91124D01*
X89724Y34485D02*
X91124D01*
X88457D02*
Y36635D01*
X87057Y34485D02*
Y36635D01*
X88457D01*
X87057Y34485D02*
X88457D01*
X85663D02*
Y36635D01*
X84263Y34485D02*
Y36635D01*
X85663D01*
X84263Y34485D02*
X85663D01*
X81723Y34485D02*
Y36635D01*
X83123Y34485D02*
Y36635D01*
X81723Y34485D02*
X83123D01*
X81723Y36635D02*
X83123D01*
X63568Y39240D02*
X65718D01*
X63568Y40640D02*
X65718D01*
Y39240D02*
Y40640D01*
X63568Y39240D02*
Y40640D01*
X77538Y33971D02*
X79688D01*
X77538Y35371D02*
X79688D01*
Y33971D02*
Y35371D01*
X77538Y33971D02*
Y35371D01*
X29835Y48175D02*
Y51275D01*
X32935Y48175D02*
Y51275D01*
X29835Y48175D02*
X32935D01*
X29835Y51275D02*
X32935D01*
X58377Y48003D02*
X60527D01*
X58377Y49403D02*
X60527D01*
Y48003D02*
Y49403D01*
X58377Y48003D02*
Y49403D01*
X39656Y39934D02*
Y44934D01*
X43656Y39934D02*
Y44934D01*
X39656D02*
X43656D01*
X39656Y39934D02*
X43656D01*
X70771Y47727D02*
Y52727D01*
X74771Y47727D02*
Y52727D01*
X70771D02*
X74771D01*
X70771Y47727D02*
X74771D01*
X64441Y51432D02*
X66591D01*
X64441Y52832D02*
X66591D01*
Y51432D02*
Y52832D01*
X64441Y51432D02*
Y52832D01*
X79059Y46104D02*
Y48254D01*
X77659Y46104D02*
Y48254D01*
X79059D01*
X77659Y46104D02*
X79059D01*
X73166Y65692D02*
X74916D01*
X73166Y66642D02*
X74916D01*
Y65692D02*
Y66642D01*
X73166Y65692D02*
Y66642D01*
X70263Y59984D02*
Y64984D01*
X74263Y59984D02*
Y64984D01*
X70263D02*
X74263D01*
X70263Y59984D02*
X74263D01*
X91124Y58680D02*
Y60830D01*
X89724Y58680D02*
Y60830D01*
X91124D01*
X89724Y58680D02*
X91124D01*
X88457D02*
Y60830D01*
X87057Y58680D02*
Y60830D01*
X88457D01*
X87057Y58680D02*
X88457D01*
X85663D02*
Y60830D01*
X84263Y58680D02*
Y60830D01*
X85663D01*
X84263Y58680D02*
X85663D01*
X81723Y58680D02*
Y60830D01*
X83123Y58680D02*
Y60830D01*
X81723Y58680D02*
X83123D01*
X81723Y60830D02*
X83123D01*
X63568Y63435D02*
X65718D01*
X63568Y64835D02*
X65718D01*
Y63435D02*
Y64835D01*
X63568Y63435D02*
Y64835D01*
X77538Y58166D02*
X79688D01*
X77538Y59566D02*
X79688D01*
Y58166D02*
Y59566D01*
X77538Y58166D02*
Y59566D01*
X29835Y72370D02*
Y75470D01*
X32935Y72370D02*
Y75470D01*
X29835Y72370D02*
X32935D01*
X29835Y75470D02*
X32935D01*
X58377Y72198D02*
X60527D01*
X58377Y73598D02*
X60527D01*
Y72198D02*
Y73598D01*
X58377Y72198D02*
Y73598D01*
X64314Y73598D02*
X66464D01*
X64314Y72198D02*
X66464D01*
X64314D02*
Y73598D01*
X66464Y72198D02*
Y73598D01*
X39656Y64129D02*
Y69129D01*
X43656Y64129D02*
Y69129D01*
X39656D02*
X43656D01*
X39656Y64129D02*
X43656D01*
X70771Y71922D02*
Y76922D01*
X74771Y71922D02*
Y76922D01*
X70771D02*
X74771D01*
X70771Y71922D02*
X74771D01*
X64441Y75627D02*
X66591D01*
X64441Y77027D02*
X66591D01*
Y75627D02*
Y77027D01*
X64441Y75627D02*
Y77027D01*
X79059Y70299D02*
Y72449D01*
X77659Y70299D02*
Y72449D01*
X79059D01*
X77659Y70299D02*
X79059D01*
X73166Y89949D02*
X74916D01*
X73166Y90899D02*
X74916D01*
Y89949D02*
Y90899D01*
X73166Y89949D02*
Y90899D01*
X70263Y84241D02*
Y89241D01*
X74263Y84241D02*
Y89241D01*
X70263D02*
X74263D01*
X70263Y84241D02*
X74263D01*
X91124Y82937D02*
Y85087D01*
X89724Y82937D02*
Y85087D01*
X91124D01*
X89724Y82937D02*
X91124D01*
X88457D02*
Y85087D01*
X87057Y82937D02*
Y85087D01*
X88457D01*
X87057Y82937D02*
X88457D01*
X85663D02*
Y85087D01*
X84263Y82937D02*
Y85087D01*
X85663D01*
X84263Y82937D02*
X85663D01*
X81723Y82937D02*
Y85087D01*
X83123Y82937D02*
Y85087D01*
X81723Y82937D02*
X83123D01*
X81723Y85087D02*
X83123D01*
X63568Y87692D02*
X65718D01*
X63568Y89092D02*
X65718D01*
Y87692D02*
Y89092D01*
X63568Y87692D02*
Y89092D01*
X77538Y82423D02*
X79688D01*
X77538Y83823D02*
X79688D01*
Y82423D02*
Y83823D01*
X77538Y82423D02*
Y83823D01*
X29835Y96627D02*
Y99727D01*
X32935Y96627D02*
Y99727D01*
X29835Y96627D02*
X32935D01*
X29835Y99727D02*
X32935D01*
X58377Y96455D02*
X60527D01*
X58377Y97855D02*
X60527D01*
Y96455D02*
Y97855D01*
X58377Y96455D02*
Y97855D01*
X64314Y97855D02*
X66464D01*
X64314Y96455D02*
X66464D01*
X64314D02*
Y97855D01*
X66464Y96455D02*
Y97855D01*
X39656Y88386D02*
Y93386D01*
X43656Y88386D02*
Y93386D01*
X39656D02*
X43656D01*
X39656Y88386D02*
X43656D01*
X70771Y96179D02*
Y101179D01*
X74771Y96179D02*
Y101179D01*
X70771D02*
X74771D01*
X70771Y96179D02*
X74771D01*
X64441Y99884D02*
X66591D01*
X64441Y101284D02*
X66591D01*
Y99884D02*
Y101284D01*
X64441Y99884D02*
Y101284D01*
X79059Y94556D02*
Y96706D01*
X77659Y94556D02*
Y96706D01*
X79059D01*
X77659Y94556D02*
X79059D01*
X73674Y139160D02*
X75424D01*
X73674Y140110D02*
X75424D01*
Y139160D02*
Y140110D01*
X73674Y139160D02*
Y140110D01*
X70771Y133452D02*
Y138452D01*
X74771Y133452D02*
Y138452D01*
X70771D02*
X74771D01*
X70771Y133452D02*
X74771D01*
X91632Y132148D02*
Y134298D01*
X90232Y132148D02*
Y134298D01*
X91632D01*
X90232Y132148D02*
X91632D01*
X88965D02*
Y134298D01*
X87565Y132148D02*
Y134298D01*
X88965D01*
X87565Y132148D02*
X88965D01*
X86171D02*
Y134298D01*
X84771Y132148D02*
Y134298D01*
X86171D01*
X84771Y132148D02*
X86171D01*
X82231Y132148D02*
Y134298D01*
X83631Y132148D02*
Y134298D01*
X82231Y132148D02*
X83631D01*
X82231Y134298D02*
X83631D01*
X64076Y136903D02*
X66226D01*
X64076Y138303D02*
X66226D01*
Y136903D02*
Y138303D01*
X64076Y136903D02*
Y138303D01*
X78046Y131634D02*
X80196D01*
X78046Y133034D02*
X80196D01*
Y131634D02*
Y133034D01*
X78046Y131634D02*
Y133034D01*
X30343Y145838D02*
Y148938D01*
X33443Y145838D02*
Y148938D01*
X30343Y145838D02*
X33443D01*
X30343Y148938D02*
X33443D01*
X58885Y145666D02*
X61035D01*
X58885Y147066D02*
X61035D01*
Y145666D02*
Y147066D01*
X58885Y145666D02*
Y147066D01*
X64822Y147066D02*
X66972D01*
X64822Y145666D02*
X66972D01*
X64822D02*
Y147066D01*
X66972Y145666D02*
Y147066D01*
X40164Y137597D02*
Y142597D01*
X44164Y137597D02*
Y142597D01*
X40164D02*
X44164D01*
X40164Y137597D02*
X44164D01*
X71279Y145390D02*
Y150390D01*
X75279Y145390D02*
Y150390D01*
X71279D02*
X75279D01*
X71279Y145390D02*
X75279D01*
X64949Y149095D02*
X67099D01*
X64949Y150495D02*
X67099D01*
Y149095D02*
Y150495D01*
X64949Y149095D02*
Y150495D01*
X79567Y143767D02*
Y145917D01*
X78167Y143767D02*
Y145917D01*
X79567D01*
X78167Y143767D02*
X79567D01*
X73674Y163290D02*
X75424D01*
X73674Y164240D02*
X75424D01*
Y163290D02*
Y164240D01*
X73674Y163290D02*
Y164240D01*
X70771Y157582D02*
Y162582D01*
X74771Y157582D02*
Y162582D01*
X70771D02*
X74771D01*
X70771Y157582D02*
X74771D01*
X91632Y156278D02*
Y158428D01*
X90232Y156278D02*
Y158428D01*
X91632D01*
X90232Y156278D02*
X91632D01*
X88965D02*
Y158428D01*
X87565Y156278D02*
Y158428D01*
X88965D01*
X87565Y156278D02*
X88965D01*
X86171D02*
Y158428D01*
X84771Y156278D02*
Y158428D01*
X86171D01*
X84771Y156278D02*
X86171D01*
X82231Y156278D02*
Y158428D01*
X83631Y156278D02*
Y158428D01*
X82231Y156278D02*
X83631D01*
X82231Y158428D02*
X83631D01*
X64076Y161033D02*
X66226D01*
X64076Y162433D02*
X66226D01*
Y161033D02*
Y162433D01*
X64076Y161033D02*
Y162433D01*
X78046Y155764D02*
X80196D01*
X78046Y157164D02*
X80196D01*
Y155764D02*
Y157164D01*
X78046Y155764D02*
Y157164D01*
X30343Y169968D02*
Y173068D01*
X33443Y169968D02*
Y173068D01*
X30343Y169968D02*
X33443D01*
X30343Y173068D02*
X33443D01*
X58885Y169796D02*
X61035D01*
X58885Y171196D02*
X61035D01*
Y169796D02*
Y171196D01*
X58885Y169796D02*
Y171196D01*
X64822Y171196D02*
X66972D01*
X64822Y169796D02*
X66972D01*
X64822D02*
Y171196D01*
X66972Y169796D02*
Y171196D01*
X40164Y161727D02*
Y166727D01*
X44164Y161727D02*
Y166727D01*
X40164D02*
X44164D01*
X40164Y161727D02*
X44164D01*
X71279Y169520D02*
Y174520D01*
X75279Y169520D02*
Y174520D01*
X71279D02*
X75279D01*
X71279Y169520D02*
X75279D01*
X64949Y173225D02*
X67099D01*
X64949Y174625D02*
X67099D01*
Y173225D02*
Y174625D01*
X64949Y173225D02*
Y174625D01*
X79567Y167897D02*
Y170047D01*
X78167Y167897D02*
Y170047D01*
X79567D01*
X78167Y167897D02*
X79567D01*
X23684Y160231D02*
Y162381D01*
X25084Y160231D02*
Y162381D01*
X23684Y160231D02*
X25084D01*
X23684Y162381D02*
X25084D01*
X23684Y136101D02*
Y138251D01*
X25084Y136101D02*
Y138251D01*
X23684Y136101D02*
X25084D01*
X23684Y138251D02*
X25084D01*
X23176Y86890D02*
Y89040D01*
X24576Y86890D02*
Y89040D01*
X23176Y86890D02*
X24576D01*
X23176Y89040D02*
X24576D01*
X23176Y62633D02*
Y64783D01*
X24576Y62633D02*
Y64783D01*
X23176Y62633D02*
X24576D01*
X23176Y64783D02*
X24576D01*
X23176Y38438D02*
Y40588D01*
X24576Y38438D02*
Y40588D01*
X23176Y38438D02*
X24576D01*
X23176Y40588D02*
X24576D01*
X64314Y49403D02*
X66464D01*
X64314Y48003D02*
X66464D01*
X64314D02*
Y49403D01*
X66464Y48003D02*
Y49403D01*
X45760Y74836D02*
X50760D01*
X45760Y70836D02*
X50760D01*
Y74836D01*
X45760Y70836D02*
Y74836D01*
Y99093D02*
X50760D01*
X45760Y95093D02*
X50760D01*
Y99093D01*
X45760Y95093D02*
Y99093D01*
X46268Y148304D02*
X51268D01*
X46268Y144304D02*
X51268D01*
Y148304D01*
X46268Y144304D02*
Y148304D01*
Y172434D02*
X51268D01*
X46268Y168434D02*
X51268D01*
Y172434D01*
X46268Y168434D02*
Y172434D01*
Y196818D02*
X51268D01*
X46268Y192818D02*
X51268D01*
Y196818D01*
X46268Y192818D02*
Y196818D01*
X51830Y47211D02*
X53580D01*
X51830Y46261D02*
X53580D01*
X51830D02*
Y47211D01*
X53580Y46261D02*
Y47211D01*
X44925Y47512D02*
Y49262D01*
X43975Y47512D02*
Y49262D01*
X44925D01*
X43975Y47512D02*
X44925D01*
X45760Y50641D02*
X50760D01*
X45760Y46641D02*
X50760D01*
Y50641D01*
X45760Y46641D02*
Y50641D01*
X41724Y52008D02*
X43874D01*
X41724Y50608D02*
X43874D01*
X41724D02*
Y52008D01*
X43874Y50608D02*
Y52008D01*
X55313Y53024D02*
X57463D01*
X55313Y51624D02*
X57463D01*
X55313D02*
Y53024D01*
X57463Y51624D02*
Y53024D01*
X47439Y43369D02*
X49589D01*
X47439Y44769D02*
X49589D01*
Y43369D02*
Y44769D01*
X47439Y43369D02*
Y44769D01*
X47439Y67564D02*
X49589D01*
X47439Y68964D02*
X49589D01*
Y67564D02*
Y68964D01*
X47439Y67564D02*
Y68964D01*
X41724Y76203D02*
X43874D01*
X41724Y74803D02*
X43874D01*
X41724D02*
Y76203D01*
X43874Y74803D02*
Y76203D01*
X55440Y77154D02*
X57590D01*
X55440Y75754D02*
X57590D01*
X55440D02*
Y77154D01*
X57590Y75754D02*
Y77154D01*
X44925Y71707D02*
Y73457D01*
X43975Y71707D02*
Y73457D01*
X44925D01*
X43975Y71707D02*
X44925D01*
X51830Y71406D02*
X53580D01*
X51830Y70456D02*
X53580D01*
X51830D02*
Y71406D01*
X53580Y70456D02*
Y71406D01*
X47439Y91821D02*
X49589D01*
X47439Y93221D02*
X49589D01*
Y91821D02*
Y93221D01*
X47439Y91821D02*
Y93221D01*
X41724Y100460D02*
X43874D01*
X41724Y99060D02*
X43874D01*
X41724D02*
Y100460D01*
X43874Y99060D02*
Y100460D01*
X55440Y101411D02*
X57590D01*
X55440Y100011D02*
X57590D01*
X55440D02*
Y101411D01*
X57590Y100011D02*
Y101411D01*
X44925Y95964D02*
Y97714D01*
X43975Y95964D02*
Y97714D01*
X44925D01*
X43975Y95964D02*
X44925D01*
X51830Y95663D02*
X53580D01*
X51830Y94713D02*
X53580D01*
X51830D02*
Y95663D01*
X53580Y94713D02*
Y95663D01*
X47947Y141032D02*
X50097D01*
X47947Y142432D02*
X50097D01*
Y141032D02*
Y142432D01*
X47947Y141032D02*
Y142432D01*
X42232Y149671D02*
X44382D01*
X42232Y148271D02*
X44382D01*
X42232D02*
Y149671D01*
X44382Y148271D02*
Y149671D01*
X55948Y150687D02*
X58098D01*
X55948Y149287D02*
X58098D01*
X55948D02*
Y150687D01*
X58098Y149287D02*
Y150687D01*
X45433Y145175D02*
Y146925D01*
X44483Y145175D02*
Y146925D01*
X45433D01*
X44483Y145175D02*
X45433D01*
X52338Y144874D02*
X54088D01*
X52338Y143924D02*
X54088D01*
X52338D02*
Y144874D01*
X54088Y143924D02*
Y144874D01*
X47947Y165162D02*
X50097D01*
X47947Y166562D02*
X50097D01*
Y165162D02*
Y166562D01*
X47947Y165162D02*
Y166562D01*
X42232Y173801D02*
X44382D01*
X42232Y172401D02*
X44382D01*
X42232D02*
Y173801D01*
X44382Y172401D02*
Y173801D01*
X55948Y174944D02*
X58098D01*
X55948Y173544D02*
X58098D01*
X55948D02*
Y174944D01*
X58098Y173544D02*
Y174944D01*
X45433Y169305D02*
Y171055D01*
X44483Y169305D02*
Y171055D01*
X45433D01*
X44483Y169305D02*
X45433D01*
X52338Y169004D02*
X54088D01*
X52338Y168054D02*
X54088D01*
X52338D02*
Y169004D01*
X54088Y168054D02*
Y169004D01*
X47947Y189546D02*
X50097D01*
X47947Y190946D02*
X50097D01*
Y189546D02*
Y190946D01*
X47947Y189546D02*
Y190946D01*
X42232Y198185D02*
X44382D01*
X42232Y196785D02*
X44382D01*
X42232D02*
Y198185D01*
X44382Y196785D02*
Y198185D01*
X55948Y199201D02*
X58098D01*
X55948Y197801D02*
X58098D01*
X55948D02*
Y199201D01*
X58098Y197801D02*
Y199201D01*
X45433Y193689D02*
Y195439D01*
X44483Y193689D02*
Y195439D01*
X45433D01*
X44483Y193689D02*
X45433D01*
X52338Y193388D02*
X54088D01*
X52338Y192438D02*
X54088D01*
X52338D02*
Y193388D01*
X54088Y192438D02*
Y193388D01*
X23684Y184615D02*
Y186765D01*
X25084Y184615D02*
Y186765D01*
X23684Y184615D02*
X25084D01*
X23684Y186765D02*
X25084D01*
M02*
