G04 Layer_Physical_Order=1*
G04 Layer_Color=255*
%FSLAX43Y43*%
%MOMM*%
G71*
G01*
G75*
%ADD10R,0.800X0.900*%
%ADD11R,1.500X1.400*%
%ADD12R,1.400X1.500*%
%ADD13R,0.900X0.800*%
%ADD14R,0.600X0.800*%
%ADD15R,0.800X0.600*%
%ADD16R,1.220X0.620*%
%ADD17O,2.500X0.700*%
%ADD18R,1.350X0.400*%
%ADD19R,1.900X1.800*%
%ADD20R,1.300X0.700*%
%ADD21R,3.500X1.000*%
%ADD22R,3.400X1.500*%
G04:AMPARAMS|DCode=23|XSize=0.55mm|YSize=1.25mm|CornerRadius=0.05mm|HoleSize=0mm|Usage=FLASHONLY|Rotation=90.000|XOffset=0mm|YOffset=0mm|HoleType=Round|Shape=RoundedRectangle|*
%AMROUNDEDRECTD23*
21,1,0.550,1.151,0,0,90.0*
21,1,0.451,1.250,0,0,90.0*
1,1,0.099,0.576,0.226*
1,1,0.099,0.576,-0.226*
1,1,0.099,-0.576,-0.226*
1,1,0.099,-0.576,0.226*
%
%ADD23ROUNDEDRECTD23*%
%ADD24R,0.432X1.499*%
%ADD25O,0.300X2.000*%
G04:AMPARAMS|DCode=26|XSize=0.55mm|YSize=1.25mm|CornerRadius=0.05mm|HoleSize=0mm|Usage=FLASHONLY|Rotation=0.000|XOffset=0mm|YOffset=0mm|HoleType=Round|Shape=RoundedRectangle|*
%AMROUNDEDRECTD26*
21,1,0.550,1.151,0,0,0.0*
21,1,0.451,1.250,0,0,0.0*
1,1,0.099,0.226,-0.576*
1,1,0.099,-0.226,-0.576*
1,1,0.099,-0.226,0.576*
1,1,0.099,0.226,0.576*
%
%ADD26ROUNDEDRECTD26*%
%ADD27C,0.500*%
%ADD28C,0.254*%
%ADD29C,0.350*%
%ADD30C,0.381*%
%ADD31R,1.900X1.488*%
%ADD32R,6.096X5.461*%
%ADD33C,1.524*%
%ADD34C,1.500*%
%ADD35R,1.500X1.500*%
%ADD36C,1.778*%
%ADD37O,1.250X1.050*%
%ADD38O,1.900X1.225*%
%ADD39C,1.850*%
%ADD40R,1.850X1.850*%
%ADD41R,1.500X1.500*%
%ADD42C,0.700*%
%ADD43C,1.270*%
D10*
X45150Y38481D02*
D03*
X43750D02*
D03*
X45150Y62738D02*
D03*
X43750D02*
D03*
X45150Y86995D02*
D03*
X43750D02*
D03*
X45785Y136017D02*
D03*
X44385D02*
D03*
X45785Y160274D02*
D03*
X44385D02*
D03*
X45658Y184658D02*
D03*
X44258D02*
D03*
X68899Y116713D02*
D03*
X67499D02*
D03*
X59179Y115062D02*
D03*
X60579D02*
D03*
X69912Y34479D02*
D03*
X71312D02*
D03*
X70293Y46671D02*
D03*
X71693D02*
D03*
X75249Y53910D02*
D03*
X73849D02*
D03*
X39116Y38797D02*
D03*
X40516D02*
D03*
X44199Y45909D02*
D03*
X42799D02*
D03*
X35241Y45528D02*
D03*
X36641D02*
D03*
X69912Y58674D02*
D03*
X71312D02*
D03*
X70293Y70866D02*
D03*
X71693D02*
D03*
X75249Y78105D02*
D03*
X73849D02*
D03*
X39116Y62992D02*
D03*
X40516D02*
D03*
X44199Y70104D02*
D03*
X42799D02*
D03*
X35241Y69723D02*
D03*
X36641D02*
D03*
X69912Y82931D02*
D03*
X71312D02*
D03*
X70293Y95123D02*
D03*
X71693D02*
D03*
X75249Y102362D02*
D03*
X73849D02*
D03*
X39116Y87249D02*
D03*
X40516D02*
D03*
X44199Y94361D02*
D03*
X42799D02*
D03*
X35241Y93980D02*
D03*
X36641D02*
D03*
X70420Y132142D02*
D03*
X71820D02*
D03*
X70801Y144334D02*
D03*
X72201D02*
D03*
X75757Y151573D02*
D03*
X74357D02*
D03*
X39624Y136460D02*
D03*
X41024D02*
D03*
X44707Y143572D02*
D03*
X43307D02*
D03*
X35749Y143191D02*
D03*
X37149D02*
D03*
X70420Y156272D02*
D03*
X71820D02*
D03*
X70801Y168464D02*
D03*
X72201D02*
D03*
X75757Y175703D02*
D03*
X74357D02*
D03*
X39624Y160590D02*
D03*
X41024D02*
D03*
X44707Y167702D02*
D03*
X43307D02*
D03*
X35749Y167321D02*
D03*
X37149D02*
D03*
X70420Y180656D02*
D03*
X71820D02*
D03*
X75757Y200087D02*
D03*
X74357D02*
D03*
X70801Y192848D02*
D03*
X72201D02*
D03*
X44707Y192086D02*
D03*
X43307D02*
D03*
X39624Y184974D02*
D03*
X41024D02*
D03*
X35749Y191705D02*
D03*
X37149D02*
D03*
X75249Y188149D02*
D03*
X73849D02*
D03*
X74741Y41972D02*
D03*
X73341D02*
D03*
X74741Y66167D02*
D03*
X73341D02*
D03*
X74741Y90424D02*
D03*
X73341D02*
D03*
X75249Y139635D02*
D03*
X73849D02*
D03*
X75249Y163765D02*
D03*
X73849D02*
D03*
X52005Y46736D02*
D03*
X53405D02*
D03*
X52005Y70931D02*
D03*
X53405D02*
D03*
X52005Y95188D02*
D03*
X53405D02*
D03*
X52513Y144399D02*
D03*
X53913D02*
D03*
X52513Y168529D02*
D03*
X53913D02*
D03*
X52513Y192913D02*
D03*
X53913D02*
D03*
D11*
X56896Y194072D02*
D03*
Y196072D02*
D03*
Y170069D02*
D03*
Y172069D02*
D03*
Y145685D02*
D03*
Y147685D02*
D03*
X56261Y96663D02*
D03*
Y98663D02*
D03*
X56388Y72279D02*
D03*
Y74279D02*
D03*
X56261Y48022D02*
D03*
Y50022D02*
D03*
X85725Y111379D02*
D03*
Y109379D02*
D03*
X76454Y125841D02*
D03*
Y123841D02*
D03*
X54102Y111665D02*
D03*
Y113665D02*
D03*
X90424Y51832D02*
D03*
Y53832D02*
D03*
X87757Y51959D02*
D03*
Y53959D02*
D03*
X65913Y34941D02*
D03*
Y36941D02*
D03*
X85090Y51959D02*
D03*
Y53959D02*
D03*
X82550Y54086D02*
D03*
Y52086D02*
D03*
X90424Y76027D02*
D03*
Y78027D02*
D03*
X87757Y76154D02*
D03*
Y78154D02*
D03*
X65913Y59136D02*
D03*
Y61136D02*
D03*
X85090Y76154D02*
D03*
Y78154D02*
D03*
X82550Y78281D02*
D03*
Y76281D02*
D03*
X90424Y100284D02*
D03*
Y102284D02*
D03*
X87757Y100411D02*
D03*
Y102411D02*
D03*
X65913Y83393D02*
D03*
Y85393D02*
D03*
X85090Y100411D02*
D03*
Y102411D02*
D03*
X82550Y102538D02*
D03*
Y100538D02*
D03*
X90932Y149495D02*
D03*
Y151495D02*
D03*
X88265Y149622D02*
D03*
Y151622D02*
D03*
X66421Y132604D02*
D03*
Y134604D02*
D03*
X85598Y149622D02*
D03*
Y151622D02*
D03*
X83058Y151749D02*
D03*
Y149749D02*
D03*
X90932Y173625D02*
D03*
Y175625D02*
D03*
X88265Y173752D02*
D03*
Y175752D02*
D03*
X66421Y156734D02*
D03*
Y158734D02*
D03*
X85598Y173752D02*
D03*
Y175752D02*
D03*
X83058Y175879D02*
D03*
Y173879D02*
D03*
Y198263D02*
D03*
Y200263D02*
D03*
X85598Y198136D02*
D03*
Y200136D02*
D03*
X88265D02*
D03*
Y198136D02*
D03*
X90932Y200009D02*
D03*
Y198009D02*
D03*
X66421Y181118D02*
D03*
Y183118D02*
D03*
X82931Y182864D02*
D03*
Y180864D02*
D03*
X85471Y180737D02*
D03*
Y182737D02*
D03*
X88265Y180737D02*
D03*
Y182737D02*
D03*
X90932Y180864D02*
D03*
Y182864D02*
D03*
X78867Y192356D02*
D03*
Y194356D02*
D03*
X90424Y36560D02*
D03*
Y34560D02*
D03*
X87757Y36560D02*
D03*
Y34560D02*
D03*
X84963Y36560D02*
D03*
Y34560D02*
D03*
X82423D02*
D03*
Y36560D02*
D03*
X78359Y48179D02*
D03*
Y46179D02*
D03*
X90424Y60755D02*
D03*
Y58755D02*
D03*
X87757Y60755D02*
D03*
Y58755D02*
D03*
X84963Y60755D02*
D03*
Y58755D02*
D03*
X82423D02*
D03*
Y60755D02*
D03*
X78359Y72374D02*
D03*
Y70374D02*
D03*
X90424Y85012D02*
D03*
Y83012D02*
D03*
X87757Y85012D02*
D03*
Y83012D02*
D03*
X84963Y85012D02*
D03*
Y83012D02*
D03*
X82423D02*
D03*
Y85012D02*
D03*
X78359Y96631D02*
D03*
Y94631D02*
D03*
X90932Y134223D02*
D03*
Y132223D02*
D03*
X88265Y134223D02*
D03*
Y132223D02*
D03*
X85471Y134223D02*
D03*
Y132223D02*
D03*
X82931D02*
D03*
Y134223D02*
D03*
X78867Y145842D02*
D03*
Y143842D02*
D03*
X90932Y158353D02*
D03*
Y156353D02*
D03*
X88265Y158353D02*
D03*
Y156353D02*
D03*
X85471Y158353D02*
D03*
Y156353D02*
D03*
X82931D02*
D03*
Y158353D02*
D03*
X78867Y169972D02*
D03*
Y167972D02*
D03*
X24384Y160306D02*
D03*
Y162306D02*
D03*
Y136176D02*
D03*
Y138176D02*
D03*
X23876Y86965D02*
D03*
Y88965D02*
D03*
Y62708D02*
D03*
Y64708D02*
D03*
X23876Y38513D02*
D03*
Y40513D02*
D03*
X24384Y184690D02*
D03*
Y186690D02*
D03*
D12*
X47641Y39751D02*
D03*
X49641D02*
D03*
X81788Y115443D02*
D03*
X79788D02*
D03*
X60293Y36511D02*
D03*
X58293D02*
D03*
X33639Y42861D02*
D03*
X31639D02*
D03*
X31734Y40194D02*
D03*
X29734D02*
D03*
X60293Y60706D02*
D03*
X58293D02*
D03*
X47641Y64008D02*
D03*
X49641D02*
D03*
X33639Y67056D02*
D03*
X31639D02*
D03*
X31734Y64389D02*
D03*
X29734D02*
D03*
X60293Y84963D02*
D03*
X58293D02*
D03*
X47641Y88265D02*
D03*
X49641D02*
D03*
X33639Y91313D02*
D03*
X31639D02*
D03*
X31734Y88646D02*
D03*
X29734D02*
D03*
X60801Y134174D02*
D03*
X58801D02*
D03*
X48022Y137414D02*
D03*
X50022D02*
D03*
X34147Y140524D02*
D03*
X32147D02*
D03*
X32242Y137857D02*
D03*
X30242D02*
D03*
X60801Y158304D02*
D03*
X58801D02*
D03*
X47895Y161671D02*
D03*
X49895D02*
D03*
X34147Y164654D02*
D03*
X32147D02*
D03*
X32242Y161987D02*
D03*
X30242D02*
D03*
X60801Y182688D02*
D03*
X58801D02*
D03*
X48276Y186055D02*
D03*
X50276D02*
D03*
X32242Y186371D02*
D03*
X30242D02*
D03*
X34147Y189038D02*
D03*
X32147D02*
D03*
X78121Y180848D02*
D03*
X80121D02*
D03*
X66151Y186117D02*
D03*
X64151D02*
D03*
X64897Y194880D02*
D03*
X66897D02*
D03*
X60960D02*
D03*
X58960D02*
D03*
X67024Y198309D02*
D03*
X65024D02*
D03*
X65643Y39940D02*
D03*
X63643D02*
D03*
X79613Y34671D02*
D03*
X77613D02*
D03*
X60452Y48703D02*
D03*
X58452D02*
D03*
X66516Y52132D02*
D03*
X64516D02*
D03*
X65643Y64135D02*
D03*
X63643D02*
D03*
X79613Y58866D02*
D03*
X77613D02*
D03*
X60452Y72898D02*
D03*
X58452D02*
D03*
X64389D02*
D03*
X66389D02*
D03*
X66516Y76327D02*
D03*
X64516D02*
D03*
X65643Y88392D02*
D03*
X63643D02*
D03*
X79613Y83123D02*
D03*
X77613D02*
D03*
X60452Y97155D02*
D03*
X58452D02*
D03*
X64389D02*
D03*
X66389D02*
D03*
X66516Y100584D02*
D03*
X64516D02*
D03*
X66151Y137603D02*
D03*
X64151D02*
D03*
X80121Y132334D02*
D03*
X78121D02*
D03*
X60960Y146366D02*
D03*
X58960D02*
D03*
X64897D02*
D03*
X66897D02*
D03*
X67024Y149795D02*
D03*
X65024D02*
D03*
X66151Y161733D02*
D03*
X64151D02*
D03*
X80121Y156464D02*
D03*
X78121D02*
D03*
X60960Y170496D02*
D03*
X58960D02*
D03*
X64897D02*
D03*
X66897D02*
D03*
X67024Y173925D02*
D03*
X65024D02*
D03*
X64389Y48703D02*
D03*
X66389D02*
D03*
X41799Y51308D02*
D03*
X43799D02*
D03*
X55388Y52324D02*
D03*
X57388D02*
D03*
X49514Y44069D02*
D03*
X47514D02*
D03*
X49514Y68264D02*
D03*
X47514D02*
D03*
X41799Y75503D02*
D03*
X43799D02*
D03*
X55515Y76454D02*
D03*
X57515D02*
D03*
X49514Y92521D02*
D03*
X47514D02*
D03*
X41799Y99760D02*
D03*
X43799D02*
D03*
X55515Y100711D02*
D03*
X57515D02*
D03*
X50022Y141732D02*
D03*
X48022D02*
D03*
X42307Y148971D02*
D03*
X44307D02*
D03*
X56023Y149987D02*
D03*
X58023D02*
D03*
X50022Y165862D02*
D03*
X48022D02*
D03*
X42307Y173101D02*
D03*
X44307D02*
D03*
X56023Y174244D02*
D03*
X58023D02*
D03*
X50022Y190246D02*
D03*
X48022D02*
D03*
X42307Y197485D02*
D03*
X44307D02*
D03*
X56023Y198501D02*
D03*
X58023D02*
D03*
D13*
X77216Y109855D02*
D03*
Y111255D02*
D03*
X89027Y111376D02*
D03*
Y112776D02*
D03*
X60071Y121542D02*
D03*
Y120142D02*
D03*
X52705Y44577D02*
D03*
Y43177D02*
D03*
X54229Y44577D02*
D03*
Y43177D02*
D03*
X52578Y38859D02*
D03*
Y40259D02*
D03*
X54229Y38859D02*
D03*
Y40259D02*
D03*
X37989Y50363D02*
D03*
Y48963D02*
D03*
X36465Y50363D02*
D03*
Y48963D02*
D03*
X34941Y50363D02*
D03*
Y48963D02*
D03*
X28418Y48966D02*
D03*
Y50366D02*
D03*
X36449Y41848D02*
D03*
Y40448D02*
D03*
X52705Y68772D02*
D03*
Y67372D02*
D03*
X54229Y68772D02*
D03*
Y67372D02*
D03*
X52578Y63054D02*
D03*
Y64454D02*
D03*
X54229Y63054D02*
D03*
Y64454D02*
D03*
X37989Y74558D02*
D03*
Y73158D02*
D03*
X36465Y74558D02*
D03*
Y73158D02*
D03*
X34941Y74558D02*
D03*
Y73158D02*
D03*
X28418Y73161D02*
D03*
Y74561D02*
D03*
X36449Y66043D02*
D03*
Y64643D02*
D03*
X52705Y93029D02*
D03*
Y91629D02*
D03*
X54229Y93029D02*
D03*
Y91629D02*
D03*
X52578Y87311D02*
D03*
Y88711D02*
D03*
X54229Y87311D02*
D03*
Y88711D02*
D03*
X37989Y98815D02*
D03*
Y97415D02*
D03*
X36465Y98815D02*
D03*
Y97415D02*
D03*
X34941Y98815D02*
D03*
Y97415D02*
D03*
X28418Y97418D02*
D03*
Y98818D02*
D03*
X36449Y90300D02*
D03*
Y88900D02*
D03*
X53213Y142240D02*
D03*
Y140840D02*
D03*
X54737Y142240D02*
D03*
Y140840D02*
D03*
X53086Y136522D02*
D03*
Y137922D02*
D03*
X54737Y136522D02*
D03*
Y137922D02*
D03*
X38497Y148026D02*
D03*
Y146626D02*
D03*
X36973Y148026D02*
D03*
Y146626D02*
D03*
X35449Y148026D02*
D03*
Y146626D02*
D03*
X28926Y146629D02*
D03*
Y148029D02*
D03*
X36957Y139511D02*
D03*
Y138111D02*
D03*
X53213Y166370D02*
D03*
Y164970D02*
D03*
X54737Y166370D02*
D03*
Y164970D02*
D03*
X53086Y160652D02*
D03*
Y162052D02*
D03*
X54737Y160652D02*
D03*
Y162052D02*
D03*
X38497Y172156D02*
D03*
Y170756D02*
D03*
X36973Y172156D02*
D03*
Y170756D02*
D03*
X35449Y172156D02*
D03*
Y170756D02*
D03*
X28926Y170759D02*
D03*
Y172159D02*
D03*
X36957Y163641D02*
D03*
Y162241D02*
D03*
X54737Y190754D02*
D03*
Y189354D02*
D03*
X53213Y190754D02*
D03*
Y189354D02*
D03*
X53086Y185036D02*
D03*
Y186436D02*
D03*
X54737Y185036D02*
D03*
Y186436D02*
D03*
X36957Y188025D02*
D03*
Y186625D02*
D03*
X38497Y196540D02*
D03*
Y195140D02*
D03*
X36973Y196540D02*
D03*
Y195140D02*
D03*
X35449Y196540D02*
D03*
Y195140D02*
D03*
X28926Y195143D02*
D03*
Y196543D02*
D03*
X44450Y49087D02*
D03*
Y47687D02*
D03*
X44450Y73282D02*
D03*
Y71882D02*
D03*
Y97539D02*
D03*
Y96139D02*
D03*
X44958Y146750D02*
D03*
Y145350D02*
D03*
Y170880D02*
D03*
Y169480D02*
D03*
Y195264D02*
D03*
Y193864D02*
D03*
D14*
X74840Y107569D02*
D03*
X76290D02*
D03*
D15*
X76454Y119798D02*
D03*
Y121248D02*
D03*
D16*
X57872Y113472D02*
D03*
Y112522D02*
D03*
Y111572D02*
D03*
X60492D02*
D03*
Y113472D02*
D03*
D17*
X63844Y123317D02*
D03*
Y122047D02*
D03*
Y120777D02*
D03*
Y119507D02*
D03*
X68744Y123317D02*
D03*
Y122047D02*
D03*
Y120777D02*
D03*
Y119507D02*
D03*
D18*
X96768Y110086D02*
D03*
Y110736D02*
D03*
Y111386D02*
D03*
Y112036D02*
D03*
Y112686D02*
D03*
D19*
X99568Y112536D02*
D03*
Y110236D02*
D03*
D20*
X82156Y112390D02*
D03*
Y110490D02*
D03*
X79756D02*
D03*
Y111440D02*
D03*
Y112390D02*
D03*
D21*
X91038Y122063D02*
D03*
Y124063D02*
D03*
D22*
X96788Y119713D02*
D03*
Y126413D02*
D03*
D23*
X70146Y186371D02*
D03*
Y185101D02*
D03*
Y183831D02*
D03*
Y182561D02*
D03*
X75396Y186371D02*
D03*
Y185101D02*
D03*
Y183831D02*
D03*
Y182561D02*
D03*
X39539Y190516D02*
D03*
Y189246D02*
D03*
Y187976D02*
D03*
Y186706D02*
D03*
X44789Y190516D02*
D03*
Y189246D02*
D03*
Y187976D02*
D03*
Y186706D02*
D03*
X70654Y198309D02*
D03*
Y197039D02*
D03*
Y195769D02*
D03*
Y194499D02*
D03*
X75904Y198309D02*
D03*
Y197039D02*
D03*
Y195769D02*
D03*
Y194499D02*
D03*
X69638Y40194D02*
D03*
Y38924D02*
D03*
Y37654D02*
D03*
Y36384D02*
D03*
X74888Y40194D02*
D03*
Y38924D02*
D03*
Y37654D02*
D03*
Y36384D02*
D03*
X39031Y44339D02*
D03*
Y43069D02*
D03*
Y41799D02*
D03*
Y40529D02*
D03*
X44281Y44339D02*
D03*
Y43069D02*
D03*
Y41799D02*
D03*
Y40529D02*
D03*
X70146Y52132D02*
D03*
Y50862D02*
D03*
Y49592D02*
D03*
Y48322D02*
D03*
X75396Y52132D02*
D03*
Y50862D02*
D03*
Y49592D02*
D03*
Y48322D02*
D03*
X69638Y64389D02*
D03*
Y63119D02*
D03*
Y61849D02*
D03*
Y60579D02*
D03*
X74888Y64389D02*
D03*
Y63119D02*
D03*
Y61849D02*
D03*
Y60579D02*
D03*
X39031Y68534D02*
D03*
Y67264D02*
D03*
Y65994D02*
D03*
Y64724D02*
D03*
X44281Y68534D02*
D03*
Y67264D02*
D03*
Y65994D02*
D03*
Y64724D02*
D03*
X70146Y76327D02*
D03*
Y75057D02*
D03*
Y73787D02*
D03*
Y72517D02*
D03*
X75396Y76327D02*
D03*
Y75057D02*
D03*
Y73787D02*
D03*
Y72517D02*
D03*
X69638Y88646D02*
D03*
Y87376D02*
D03*
Y86106D02*
D03*
Y84836D02*
D03*
X74888Y88646D02*
D03*
Y87376D02*
D03*
Y86106D02*
D03*
Y84836D02*
D03*
X39031Y92791D02*
D03*
Y91521D02*
D03*
Y90251D02*
D03*
Y88981D02*
D03*
X44281Y92791D02*
D03*
Y91521D02*
D03*
Y90251D02*
D03*
Y88981D02*
D03*
X70146Y100584D02*
D03*
Y99314D02*
D03*
Y98044D02*
D03*
Y96774D02*
D03*
X75396Y100584D02*
D03*
Y99314D02*
D03*
Y98044D02*
D03*
Y96774D02*
D03*
X70146Y137857D02*
D03*
Y136587D02*
D03*
Y135317D02*
D03*
Y134047D02*
D03*
X75396Y137857D02*
D03*
Y136587D02*
D03*
Y135317D02*
D03*
Y134047D02*
D03*
X39539Y142002D02*
D03*
Y140732D02*
D03*
Y139462D02*
D03*
Y138192D02*
D03*
X44789Y142002D02*
D03*
Y140732D02*
D03*
Y139462D02*
D03*
Y138192D02*
D03*
X70654Y149795D02*
D03*
Y148525D02*
D03*
Y147255D02*
D03*
Y145985D02*
D03*
X75904Y149795D02*
D03*
Y148525D02*
D03*
Y147255D02*
D03*
Y145985D02*
D03*
X70146Y161987D02*
D03*
Y160717D02*
D03*
Y159447D02*
D03*
Y158177D02*
D03*
X75396Y161987D02*
D03*
Y160717D02*
D03*
Y159447D02*
D03*
Y158177D02*
D03*
X39539Y166132D02*
D03*
Y164862D02*
D03*
Y163592D02*
D03*
Y162322D02*
D03*
X44789Y166132D02*
D03*
Y164862D02*
D03*
Y163592D02*
D03*
Y162322D02*
D03*
X70654Y173925D02*
D03*
Y172655D02*
D03*
Y171385D02*
D03*
Y170115D02*
D03*
X75904Y173925D02*
D03*
Y172655D02*
D03*
Y171385D02*
D03*
Y170115D02*
D03*
D24*
X56312Y191476D02*
D03*
X56947D02*
D03*
X57607D02*
D03*
X58242D02*
D03*
Y187108D02*
D03*
X57607D02*
D03*
X56947D02*
D03*
X56312D02*
D03*
X55804Y45299D02*
D03*
X56439D02*
D03*
X57099D02*
D03*
X57734D02*
D03*
Y40931D02*
D03*
X57099D02*
D03*
X56439D02*
D03*
X55804D02*
D03*
X55804Y69494D02*
D03*
X56439D02*
D03*
X57099D02*
D03*
X57734D02*
D03*
Y65126D02*
D03*
X57099D02*
D03*
X56439D02*
D03*
X55804D02*
D03*
Y93751D02*
D03*
X56439D02*
D03*
X57099D02*
D03*
X57734D02*
D03*
Y89383D02*
D03*
X57099D02*
D03*
X56439D02*
D03*
X55804D02*
D03*
X56312Y142962D02*
D03*
X56947D02*
D03*
X57607D02*
D03*
X58242D02*
D03*
Y138594D02*
D03*
X57607D02*
D03*
X56947D02*
D03*
X56312D02*
D03*
Y167092D02*
D03*
X56947D02*
D03*
X57607D02*
D03*
X58242D02*
D03*
Y162724D02*
D03*
X57607D02*
D03*
X56947D02*
D03*
X56312D02*
D03*
D25*
X30893Y193802D02*
D03*
X31393D02*
D03*
X31893D02*
D03*
X32393D02*
D03*
X32893D02*
D03*
X30893Y198002D02*
D03*
X31393D02*
D03*
X31893D02*
D03*
X32393D02*
D03*
X32893D02*
D03*
X30385Y47625D02*
D03*
X30885D02*
D03*
X31385D02*
D03*
X31885D02*
D03*
X32385D02*
D03*
X30385Y51825D02*
D03*
X30885D02*
D03*
X31385D02*
D03*
X31885D02*
D03*
X32385D02*
D03*
X30385Y71820D02*
D03*
X30885D02*
D03*
X31385D02*
D03*
X31885D02*
D03*
X32385D02*
D03*
X30385Y76020D02*
D03*
X30885D02*
D03*
X31385D02*
D03*
X31885D02*
D03*
X32385D02*
D03*
X30385Y96077D02*
D03*
X30885D02*
D03*
X31385D02*
D03*
X31885D02*
D03*
X32385D02*
D03*
X30385Y100277D02*
D03*
X30885D02*
D03*
X31385D02*
D03*
X31885D02*
D03*
X32385D02*
D03*
X30893Y145288D02*
D03*
X31393D02*
D03*
X31893D02*
D03*
X32393D02*
D03*
X32893D02*
D03*
X30893Y149488D02*
D03*
X31393D02*
D03*
X31893D02*
D03*
X32393D02*
D03*
X32893D02*
D03*
X30893Y169418D02*
D03*
X31393D02*
D03*
X31893D02*
D03*
X32393D02*
D03*
X32893D02*
D03*
X30893Y173618D02*
D03*
X31393D02*
D03*
X31893D02*
D03*
X32393D02*
D03*
X32893D02*
D03*
D26*
X50165Y75461D02*
D03*
X48895D02*
D03*
X47625D02*
D03*
X46355D02*
D03*
X50165Y70211D02*
D03*
X48895D02*
D03*
X47625D02*
D03*
X46355D02*
D03*
X50165Y99718D02*
D03*
X48895D02*
D03*
X47625D02*
D03*
X46355D02*
D03*
X50165Y94468D02*
D03*
X48895D02*
D03*
X47625D02*
D03*
X46355D02*
D03*
X50673Y148929D02*
D03*
X49403D02*
D03*
X48133D02*
D03*
X46863D02*
D03*
X50673Y143679D02*
D03*
X49403D02*
D03*
X48133D02*
D03*
X46863D02*
D03*
X50673Y173059D02*
D03*
X49403D02*
D03*
X48133D02*
D03*
X46863D02*
D03*
X50673Y167809D02*
D03*
X49403D02*
D03*
X48133D02*
D03*
X46863D02*
D03*
X50673Y197443D02*
D03*
X49403D02*
D03*
X48133D02*
D03*
X46863D02*
D03*
X50673Y192193D02*
D03*
X49403D02*
D03*
X48133D02*
D03*
X46863D02*
D03*
X50165Y51266D02*
D03*
X48895D02*
D03*
X47625D02*
D03*
X46355D02*
D03*
X50165Y46016D02*
D03*
X48895D02*
D03*
X47625D02*
D03*
X46355D02*
D03*
D27*
X82868Y195898D02*
X83058Y196088D01*
X85471Y195834D02*
X85598Y195961D01*
X22352Y125730D02*
Y149860D01*
Y173990D01*
X21844Y52197D02*
Y76392D01*
X84963Y49657D02*
X85090Y49530D01*
X84963Y39116D02*
X85090Y39243D01*
X70146Y52132D02*
Y53763D01*
X71501Y55118D01*
X21844Y52197D02*
X21844Y52197D01*
X65659Y117475D02*
Y120523D01*
X65405Y120777D02*
X65659Y120523D01*
X63844Y120777D02*
X65405D01*
X68744Y123317D02*
X72390D01*
X87011Y124063D02*
X91038D01*
X86995Y124079D02*
X87011Y124063D01*
X81534Y120523D02*
X89498D01*
X91038Y122063D01*
X76454Y125841D02*
X78470D01*
X79756Y127127D01*
X76454Y121248D02*
Y123841D01*
Y119798D02*
X77470Y118782D01*
Y115443D02*
Y118782D01*
X86741Y114427D02*
Y117766D01*
X89498Y120523D01*
X79756Y110490D02*
X81407Y108839D01*
Y108712D02*
Y108839D01*
X68744Y119507D02*
X71120D01*
X68744Y118200D02*
X68834Y118110D01*
X68744Y118200D02*
Y119507D01*
X68834Y116778D02*
Y118110D01*
Y116778D02*
X68899Y116713D01*
X66421D02*
X67499D01*
X65659Y117475D02*
X66421Y116713D01*
X58857Y111837D02*
X60492Y113472D01*
X58857Y111107D02*
Y111837D01*
X57859Y110109D02*
X58857Y111107D01*
X21844Y100649D02*
Y105283D01*
X22854Y106293D02*
Y109214D01*
X23749Y110109D01*
X57859D01*
X21844Y76392D02*
Y100649D01*
X22352Y173990D02*
Y198374D01*
Y125730D02*
X22860Y125222D01*
Y110998D02*
Y125222D01*
Y110998D02*
X23749Y110109D01*
X27051Y114554D02*
X44958D01*
X46990Y116586D01*
Y123698D01*
X21844Y105283D02*
X22854Y106293D01*
X82550Y49911D02*
Y52086D01*
X85090Y49784D02*
Y51959D01*
X87757Y49657D02*
Y51959D01*
X87630Y49530D02*
X87757Y49657D01*
X90424Y49784D02*
Y51832D01*
X90170Y49530D02*
X90424Y49784D01*
X87884Y53832D02*
X90424D01*
X87757Y53959D02*
X87884Y53832D01*
X85090Y53959D02*
X87757D01*
X82677D02*
X85090D01*
X82550Y54086D02*
X82677Y53959D01*
X81518Y55118D02*
X82550Y54086D01*
X78359Y48179D02*
Y55118D01*
X78359Y55118D01*
X71501D02*
X78359D01*
X81518D01*
X42737Y49087D02*
X44450D01*
X82359Y49721D02*
X82550Y49911D01*
X84963Y49657D02*
X85090Y49784D01*
X42737Y73282D02*
X44450D01*
X70146Y76327D02*
Y77958D01*
X78359Y72374D02*
Y79313D01*
X78359Y79313D01*
X70146Y77958D02*
X71501Y79313D01*
X81518D02*
X82550Y78281D01*
X71501Y79313D02*
X78359D01*
X81518D01*
X21844Y76392D02*
X21844Y76392D01*
X84963Y63311D02*
X85090Y63438D01*
X90170Y73725D02*
X90424Y73979D01*
Y76027D01*
X87884Y78027D02*
X90424D01*
X87630Y73725D02*
X87757Y73852D01*
Y76154D01*
X85090Y78154D02*
X87757D01*
X87884Y78027D01*
X84963Y73852D02*
X85090Y73725D01*
Y73979D02*
Y76154D01*
X82677Y78154D02*
X85090D01*
X82550Y78281D02*
X82677Y78154D01*
X82359Y73915D02*
X82550Y74106D01*
Y76281D01*
X84963Y73852D02*
X85090Y73979D01*
X42737Y97539D02*
X44450D01*
X70146Y100584D02*
Y102215D01*
X78359Y96631D02*
Y103570D01*
X78359Y103570D01*
X70146Y102215D02*
X71501Y103570D01*
X81518D02*
X82550Y102538D01*
X71501Y103570D02*
X78359D01*
X81518D01*
X21844Y100649D02*
X21844Y100649D01*
X84963Y87568D02*
X85090Y87695D01*
X90170Y97982D02*
X90424Y98236D01*
Y100284D01*
X87884Y102284D02*
X90424D01*
X87630Y97982D02*
X87757Y98109D01*
Y100411D01*
X85090Y102411D02*
X87757D01*
X87884Y102284D01*
X84963Y98109D02*
X85090Y97982D01*
Y98236D02*
Y100411D01*
X82677Y102411D02*
X85090D01*
X82550Y102538D02*
X82677Y102411D01*
X82359Y98173D02*
X82550Y98363D01*
Y100538D01*
X84963Y98109D02*
X85090Y98236D01*
X43245Y146750D02*
X44958D01*
X70654Y149795D02*
Y151426D01*
X78867Y145842D02*
Y152781D01*
X78867Y152781D01*
X70654Y151426D02*
X72009Y152781D01*
X82026D02*
X83058Y151749D01*
X72009Y152781D02*
X78867D01*
X82026D01*
X22352Y149860D02*
X22352Y149860D01*
X85471Y136779D02*
X85598Y136906D01*
X90678Y147193D02*
X90932Y147447D01*
Y149495D01*
X88392Y151495D02*
X90932D01*
X88138Y147193D02*
X88265Y147320D01*
Y149622D01*
X85598Y151622D02*
X88265D01*
X88392Y151495D01*
X85471Y147320D02*
X85598Y147193D01*
Y147447D02*
Y149622D01*
X83185Y151622D02*
X85598D01*
X83058Y151749D02*
X83185Y151622D01*
X83058Y147574D02*
Y149749D01*
X43245Y170880D02*
X44958D01*
X70654Y173925D02*
Y175556D01*
X78867Y169972D02*
Y176911D01*
X78867Y176911D01*
X70654Y175556D02*
X72009Y176911D01*
X82026D02*
X83058Y175879D01*
X72009Y176911D02*
X78867D01*
X82026D01*
X22352Y173990D02*
X22352Y173990D01*
X85471Y160909D02*
X85598Y161036D01*
X90678Y171323D02*
X90932Y171577D01*
Y173625D01*
X88392Y175625D02*
X90932D01*
X88138Y171323D02*
X88265Y171450D01*
Y173752D01*
X85598Y175752D02*
X88265D01*
X88392Y175625D01*
X85471Y171450D02*
X85598Y171323D01*
Y171577D02*
Y173752D01*
X83185Y175752D02*
X85598D01*
X83058Y175879D02*
X83185Y175752D01*
X83058Y171704D02*
Y173879D01*
X43245Y195264D02*
X44958D01*
X70654Y198309D02*
Y199940D01*
X78867Y194356D02*
Y201295D01*
X78867Y201295D01*
X70654Y199940D02*
X72009Y201295D01*
X82026D02*
X83058Y200263D01*
X72009Y201295D02*
X78867D01*
X82026D01*
X22352Y198374D02*
X22352Y198374D01*
X85471Y185293D02*
X85598Y185420D01*
X90678Y195707D02*
X90932Y195961D01*
Y198009D01*
X88392Y200009D02*
X90932D01*
X88138Y195707D02*
X88265Y195834D01*
Y198136D01*
X85598Y200136D02*
X88265D01*
X88392Y200009D01*
X85471Y195834D02*
X85598Y195707D01*
Y195961D02*
Y198136D01*
X83185Y200136D02*
X85598D01*
X83058Y200263D02*
X83185Y200136D01*
X83058Y196088D02*
Y198263D01*
X82868Y171514D02*
X83058Y171704D01*
X82868Y147383D02*
X83058Y147574D01*
X85471Y171450D02*
X85598Y171577D01*
X85471Y147320D02*
X85598Y147447D01*
X34671Y136017D02*
X46990Y123698D01*
X34544Y136017D02*
X34671D01*
D28*
X36449Y38862D02*
Y40640D01*
X35260Y48836D02*
X38308D01*
X33498Y49031D02*
X35065D01*
X35012Y73279D02*
X35260Y73031D01*
X36449Y63057D02*
Y64835D01*
X35260Y73031D02*
X38308D01*
X33528Y73279D02*
X35012D01*
X36449Y87314D02*
Y89092D01*
X33498Y97483D02*
X35065D01*
X35260Y97288D02*
X38308D01*
X40643Y37722D02*
Y39116D01*
X40643Y61917D02*
Y63311D01*
Y86174D02*
Y87568D01*
X36957Y136525D02*
Y138303D01*
X34006Y146694D02*
X35573D01*
X34006Y170824D02*
X35573D01*
X36957Y160655D02*
Y162433D01*
Y185039D02*
Y186817D01*
X34006Y195208D02*
X35573D01*
X41151Y135385D02*
Y136779D01*
X35768Y146499D02*
X38816D01*
X41151Y159515D02*
Y160909D01*
X35768Y170629D02*
X38816D01*
X41151Y183899D02*
Y185293D01*
X35768Y195013D02*
X38816D01*
X50276Y183880D02*
Y186055D01*
X53021Y43307D02*
X54356D01*
X53021Y67502D02*
X54356D01*
X54356Y42291D02*
Y43307D01*
X55397Y41250D02*
X55880D01*
X54356Y66486D02*
Y67502D01*
X55397Y65445D02*
X55880D01*
X53021Y91759D02*
X54356D01*
Y90743D02*
Y91759D01*
X55397Y89702D02*
X55880D01*
X72009Y42291D02*
X73468D01*
X72644Y54229D02*
X73976D01*
X72009Y66486D02*
X73468D01*
X72644Y78424D02*
X73976D01*
X72009Y90743D02*
X73468D01*
X72644Y102681D02*
X73976D01*
X53529Y140970D02*
X54864D01*
X55905Y138913D02*
X56388D01*
X54864Y139954D02*
Y140970D01*
X55905Y163043D02*
X56388D01*
X53529Y165100D02*
X54864D01*
X53529Y189484D02*
X54864D01*
Y164084D02*
Y165100D01*
Y188468D02*
Y189484D01*
X55905Y187427D02*
X56388D01*
X72517Y139954D02*
X73976D01*
X73152Y151892D02*
X74484D01*
X72517Y164084D02*
X73976D01*
X72517Y188468D02*
X73976D01*
X73152Y176022D02*
X74484D01*
X73152Y200406D02*
X74484D01*
X49641Y37608D02*
X49657Y37592D01*
X49641Y37608D02*
Y39751D01*
X45059D02*
X45150Y39660D01*
Y38481D02*
Y39660D01*
X44281Y40529D02*
X45059Y39751D01*
X47641D01*
X39158Y43011D02*
Y44323D01*
X56261Y46863D02*
Y48022D01*
X55804Y46406D02*
X56261Y46863D01*
X55804Y45299D02*
Y46406D01*
X55388Y50911D02*
Y52324D01*
Y50911D02*
X56261Y50038D01*
Y50022D02*
Y50038D01*
X48895Y51562D02*
X49657Y52324D01*
X55388D01*
X49641Y61803D02*
X49657Y61787D01*
X49641Y61803D02*
Y64008D01*
X45150Y63855D02*
X45303Y64008D01*
X47641D01*
X44281Y64724D02*
X45150Y63855D01*
Y62738D02*
Y63855D01*
X39158Y67206D02*
Y68518D01*
Y67206D02*
X43688Y62676D01*
X56388Y71247D02*
Y72279D01*
X55804Y70663D02*
X56388Y71247D01*
X55804Y69494D02*
Y70663D01*
X55515Y75152D02*
Y76454D01*
Y75152D02*
X56388Y74279D01*
X48895Y75757D02*
X49592Y76454D01*
X55515D01*
X49641Y86060D02*
X49657Y86044D01*
X49641Y86060D02*
Y88265D01*
X44281Y88981D02*
X45150Y88112D01*
Y86995D02*
Y88112D01*
X44281Y88981D02*
X46925D01*
X47641Y88265D01*
X39158Y91463D02*
Y92775D01*
Y91463D02*
X43688Y86933D01*
X56261Y95377D02*
Y96663D01*
X55804Y94920D02*
X56261Y95377D01*
X55804Y93751D02*
Y94920D01*
X55356Y100552D02*
X55515Y100711D01*
X55356Y99568D02*
Y100552D01*
Y99568D02*
X56261Y98663D01*
X48895Y100014D02*
Y100330D01*
X49276Y100711D01*
X55515D01*
X45785Y137196D02*
X46003Y137414D01*
X48022D01*
X50022D02*
Y137795D01*
Y135398D02*
Y137414D01*
Y135398D02*
X50165Y135255D01*
X44789Y138192D02*
X45785Y137196D01*
Y136017D02*
Y137196D01*
X39666Y140674D02*
Y141986D01*
X56896Y144526D02*
Y145685D01*
X56312Y143942D02*
X56896Y144526D01*
X56312Y142962D02*
Y143942D01*
X55880Y149844D02*
X56023Y149987D01*
X55880Y148701D02*
Y149844D01*
Y148701D02*
X56896Y147685D01*
X49403Y148929D02*
Y149225D01*
X50165Y149987D01*
X56023D01*
X49895Y159655D02*
X50165Y159385D01*
X49895Y159655D02*
Y161671D01*
X45609D02*
X45785Y161495D01*
Y160274D02*
Y161495D01*
X44958Y162322D02*
X45609Y161671D01*
X47895D01*
X39666Y164804D02*
Y166116D01*
X56896Y169037D02*
Y170069D01*
X56312Y168453D02*
X56896Y169037D01*
X56312Y167092D02*
Y168453D01*
X56023Y172958D02*
Y174244D01*
Y172958D02*
X56896Y172085D01*
Y172069D02*
Y172085D01*
X49403Y173355D02*
X50292Y174244D01*
X56023D01*
X82931Y180737D02*
X85471D01*
X88265D02*
X90932D01*
X82820Y180848D02*
X82931Y180737D01*
X90932Y182864D02*
Y185166D01*
Y182737D02*
Y182864D01*
X82931D02*
Y185293D01*
Y182737D02*
Y182864D01*
X50165Y183769D02*
X50276Y183880D01*
X45658Y186006D02*
X45707Y186055D01*
X48276D01*
X44958Y186706D02*
X45658Y186006D01*
Y184658D02*
Y186006D01*
X39666Y189188D02*
Y190500D01*
X56896Y193294D02*
Y194072D01*
X56312Y192710D02*
X56896Y193294D01*
X56312Y191476D02*
Y192710D01*
X56023Y196945D02*
X56896Y196072D01*
X56023Y196945D02*
Y198501D01*
X49403Y197739D02*
X50165Y198501D01*
X56023D01*
X21844Y52197D02*
X30013D01*
X36449Y40640D02*
X36576Y40767D01*
X35036Y41910D02*
X36319D01*
X36449Y41848D02*
X38982D01*
X39031Y41799D01*
X37842Y45528D02*
X39031Y44339D01*
X36641Y45528D02*
X37842D01*
X31766Y43180D02*
X34433Y45847D01*
X30642Y50366D02*
X30885Y50609D01*
X26871Y50366D02*
X28418D01*
X30642D01*
X30885Y50609D02*
Y51825D01*
X28418Y48966D02*
X30004D01*
X31385Y50347D01*
Y51825D01*
X44199Y45909D02*
X44326D01*
X40640Y37719D02*
X40643Y37722D01*
X39116Y37719D02*
Y38797D01*
X72644Y54229D02*
X72644Y54229D01*
X75249Y53910D02*
X75376D01*
X77024D02*
X77089Y53975D01*
X75376Y53910D02*
X77024D01*
X71820Y46990D02*
X73152D01*
X73152Y46990D01*
X68453Y46609D02*
X68515Y46671D01*
X70146Y46818D02*
Y48322D01*
X68515Y46671D02*
X70293D01*
X70146Y46818D02*
X70293Y46671D01*
X72009Y42291D02*
X72009Y42291D01*
X74868Y40214D02*
X74888Y40194D01*
X71439Y34798D02*
X72771D01*
X72771Y34798D01*
X69638Y36384D02*
X70039D01*
X31885Y47625D02*
Y48815D01*
X32101Y49031D01*
X33498D01*
X35065D02*
X35260Y48836D01*
X32228Y50174D02*
X33498D01*
X31885Y50517D02*
X32228Y50174D01*
X31885Y50517D02*
Y51825D01*
X35198Y50174D02*
X35260Y50236D01*
X52864Y40418D02*
X53024Y40259D01*
X54037D01*
X54229D02*
X54483Y40513D01*
X54356Y42291D02*
X54483Y42164D01*
Y40513D02*
Y42164D01*
X55397Y41250D01*
X52578Y38859D02*
X53024D01*
X55753Y38862D02*
X56134Y39243D01*
X56388Y39497D01*
X52578Y40259D02*
Y41656D01*
Y43050D02*
X52705Y43177D01*
X52578Y41656D02*
Y43050D01*
X53021Y38862D02*
X53024Y38859D01*
X53151Y44577D02*
X53151Y44577D01*
X52705Y44577D02*
X53151D01*
X55205Y44577D02*
X55840Y43942D01*
X56007D01*
X56439Y44374D01*
Y45299D01*
X70993Y50800D02*
X75295Y46498D01*
X26924Y40259D02*
X26989Y40194D01*
X29734D01*
X29591Y40337D02*
Y43815D01*
Y40337D02*
X29734Y40194D01*
X29591Y43815D02*
X32385Y46609D01*
Y47625D01*
X31766Y40608D02*
X31861Y40513D01*
X39158Y43011D02*
X43688Y38481D01*
X44281Y40529D02*
X44727D01*
X60579Y49022D02*
X62230Y50673D01*
X66040D01*
X66516Y49022D02*
Y50197D01*
X66040Y50673D02*
X66516Y50197D01*
X66389Y48703D02*
X67278Y49592D01*
X70146D01*
X60420Y36830D02*
X61214D01*
X62611Y38227D02*
X65024D01*
X61214Y36830D02*
X62611Y38227D01*
X65024D02*
X65754Y37497D01*
X68622Y36830D02*
X69446Y37654D01*
X69638D01*
X25400Y43561D02*
X28448D01*
X30228Y45341D02*
X30256D01*
X28448Y43561D02*
X30228Y45341D01*
X30256D02*
X31385Y46470D01*
Y47625D01*
X24130Y46609D02*
X25019Y45720D01*
X30099D01*
X30885Y46506D01*
Y47625D01*
X24003Y49530D02*
X25908Y47625D01*
X22987Y49530D02*
X24003D01*
X25908Y47625D02*
X30385D01*
X30013Y52197D02*
X30385Y51825D01*
X44727Y40529D02*
X44775Y40481D01*
X44408Y41910D02*
Y43053D01*
X74888Y40194D02*
X76900D01*
X76962Y40132D01*
X70039Y36384D02*
X71312D01*
X71374Y36322D01*
X57872Y113472D02*
Y114721D01*
X57785Y114808D02*
X57872Y114721D01*
X57745Y112649D02*
X57872Y112522D01*
X56134Y112649D02*
X57745D01*
X54295Y113472D02*
X57872D01*
X54102Y113665D02*
X54295Y113472D01*
X54195Y111572D02*
X57872D01*
X54102Y111665D02*
X54195Y111572D01*
X60492D02*
X62037D01*
X62103Y111506D01*
X58039Y115062D02*
X59179D01*
X57785Y114808D02*
X58039Y115062D01*
X60579D02*
X61976D01*
X60576Y122047D02*
X63844D01*
X60071Y121542D02*
X60576Y122047D01*
X60706Y119507D02*
X63844D01*
X60071Y120142D02*
X60706Y119507D01*
X36703Y128778D02*
X36830Y128651D01*
Y123698D02*
Y128651D01*
X34417Y123825D02*
Y128778D01*
X34290Y123698D02*
X34417Y123825D01*
X32131Y134493D02*
Y135509D01*
X30861Y133223D02*
X32131Y134493D01*
X32385Y124333D02*
Y128778D01*
X31750Y123698D02*
X32385Y124333D01*
X34163Y103505D02*
Y108331D01*
X34290Y108458D01*
X90805Y112649D02*
X90865Y112709D01*
X23876Y40513D02*
Y42037D01*
X25400Y43561D01*
X23876Y38513D02*
X24162Y38227D01*
X30607D01*
X82423Y36560D02*
Y39116D01*
X82550Y39243D01*
X84963Y36560D02*
Y39116D01*
X87757Y36560D02*
Y39116D01*
X87630Y39243D02*
X87757Y39116D01*
X90424Y36560D02*
Y38989D01*
X90170Y39243D02*
X90424Y38989D01*
X87757Y34560D02*
X90424D01*
X84963D02*
X87757D01*
X82423D02*
X84963D01*
X69573Y40259D02*
X69638Y40194D01*
X79613Y34671D02*
X82312D01*
X82423Y34560D01*
X79613Y34671D02*
Y36560D01*
X79629Y36576D01*
X67818Y40132D02*
X67945Y40259D01*
X69573D01*
X71374Y38989D02*
X72263Y38100D01*
X76216Y33274D02*
X77613Y34671D01*
X75819Y33274D02*
X76216D01*
X35179Y130302D02*
X36703Y128778D01*
X44297Y44323D02*
X45720D01*
X44281Y44339D02*
X44297Y44323D01*
X44281Y41799D02*
X49419D01*
X49530Y41910D01*
Y44053D01*
X49514Y44069D02*
X49530Y44053D01*
X46355Y50992D02*
Y51266D01*
X44450Y49087D02*
X46355Y50992D01*
Y45228D02*
Y46016D01*
Y45228D02*
X47514Y44069D01*
X48895Y51266D02*
Y51562D01*
X43799Y51308D02*
X43815D01*
X44958Y52451D01*
X46736D01*
X47625Y51562D01*
Y51266D02*
Y51562D01*
X49514Y44069D02*
X50800D01*
X52030Y45299D01*
X55804D01*
X50165Y46016D02*
Y47244D01*
X50673Y47752D01*
X51243D01*
X53405Y46736D02*
X54737D01*
X33766Y43180D02*
X35036Y41910D01*
X34433Y45847D02*
X35368D01*
X31766Y40608D02*
Y43180D01*
X75295Y46498D02*
X78486D01*
X66643Y52451D02*
X68294Y50800D01*
X70993D01*
X65770Y40259D02*
X67040Y38989D01*
X71374D01*
X65754Y36830D02*
X68622D01*
X65754D02*
Y37497D01*
X48895Y75461D02*
Y75757D01*
X43799Y75503D02*
X43815D01*
X44958Y76646D01*
X47625Y75461D02*
Y75757D01*
X44958Y76646D02*
X46736D01*
X47625Y75757D01*
X44450Y73282D02*
X46355Y75187D01*
Y75461D01*
X50165Y70211D02*
Y71439D01*
X50673Y71947D02*
X51243D01*
X50165Y71439D02*
X50673Y71947D01*
X46355Y69423D02*
X47514Y68264D01*
X46355Y69423D02*
Y70211D01*
X49514Y68264D02*
X49530Y68248D01*
X49514Y68264D02*
X50800D01*
X49530Y66105D02*
Y68248D01*
X50800Y68264D02*
X52030Y69494D01*
X55804D01*
X53405Y70931D02*
X54737D01*
X60579Y73217D02*
X62230Y74868D01*
X66040D01*
X66516Y73217D02*
Y74392D01*
X66389Y72898D02*
X67278Y73787D01*
X66040Y74868D02*
X66516Y74392D01*
X67278Y73787D02*
X70146D01*
X23876Y62708D02*
X24162Y62422D01*
X30607D01*
X23876Y64708D02*
Y66232D01*
X25400Y67756D01*
X79613Y58866D02*
Y60755D01*
X67945Y64454D02*
X69573D01*
X67818Y64327D02*
X67945Y64454D01*
X69573D02*
X69638Y64389D01*
X79613Y60755D02*
X79629Y60771D01*
X71374Y63184D02*
X72263Y62295D01*
X75819Y57469D02*
X76216D01*
X77613Y58866D01*
X68622Y61025D02*
X69446Y61849D01*
X69638D01*
X70039Y60579D02*
X71312D01*
X69638D02*
X70039D01*
X71312D02*
X71374Y60517D01*
X74868Y64409D02*
X74888Y64389D01*
X76900D01*
X76962Y64327D01*
X53151Y68772D02*
X53151Y68772D01*
X52705Y68772D02*
X53151D01*
X55205Y68772D02*
X55840Y68137D01*
X56007D01*
X56439Y68569D01*
Y69494D01*
X52578Y63054D02*
X53024D01*
X55753Y63057D02*
X56134Y63438D01*
X56388Y63692D01*
X54229Y64454D02*
X54483Y64708D01*
X54356Y66486D02*
X54483Y66359D01*
Y64708D02*
Y66359D01*
X55397Y65445D01*
X37842Y69723D02*
X39031Y68534D01*
X36641Y69723D02*
X37842D01*
X36449Y66043D02*
X38982D01*
X39031Y65994D01*
X44281Y68534D02*
X44297Y68518D01*
X45720D01*
X44199Y70104D02*
X44326D01*
X44408Y66105D02*
Y67248D01*
X44281Y65994D02*
X49419D01*
X49530Y66105D01*
X44727Y64724D02*
X44775Y64676D01*
X44281Y64724D02*
X44727D01*
X70993Y74995D02*
X75295Y70693D01*
X70146Y71013D02*
Y72517D01*
X75249Y78105D02*
X75376D01*
X24003Y73725D02*
X25908Y71820D01*
X22987Y73725D02*
X24003D01*
X25908Y71820D02*
X30385D01*
X24130Y70804D02*
X25019Y69915D01*
X30099D01*
X30885Y70701D01*
Y71820D01*
X25400Y67756D02*
X28448D01*
X30228Y69536D01*
X30256D01*
X31385Y70665D01*
Y71820D01*
X31885D02*
Y73010D01*
X29591Y64532D02*
Y68010D01*
X32385Y70804D01*
Y71820D01*
X21844Y76392D02*
X30013D01*
X30385Y76020D01*
X28418Y74561D02*
X30642D01*
X30885Y74804D01*
Y76020D01*
X28418Y73161D02*
X30004D01*
X31385Y74542D01*
Y76020D01*
X26924Y64454D02*
X26989Y64389D01*
X29734D01*
X82423Y60755D02*
Y63311D01*
X82550Y63438D01*
X82312Y58866D02*
X82423Y58755D01*
X79613Y58866D02*
X82312D01*
X82423Y58755D02*
X84963D01*
Y60755D02*
Y63311D01*
Y58755D02*
X87757D01*
Y60755D02*
Y63311D01*
X87630Y63438D02*
X87757Y63311D01*
Y58755D02*
X90424D01*
Y60755D02*
Y63184D01*
X90170Y63438D02*
X90424Y63184D01*
X60420Y61025D02*
X61214D01*
X62611Y62422D01*
X65024D02*
X65754Y61692D01*
X62611Y62422D02*
X65024D01*
X35036Y66105D02*
X36319D01*
X31766Y64803D02*
X31861Y64708D01*
X31766Y67375D02*
X34433Y70042D01*
X29591Y64532D02*
X29734Y64389D01*
X52578Y64454D02*
Y65851D01*
Y67245D01*
X52705Y67372D01*
X53021Y63057D02*
X53024Y63054D01*
X52864Y64614D02*
X53024Y64454D01*
X54037D01*
X35198Y74369D02*
X35260Y74431D01*
X71439Y58993D02*
X72771D01*
X72771Y58993D01*
X72009Y66486D02*
X72009Y66486D01*
X68453Y70804D02*
X68515Y70866D01*
X70293D01*
X70146Y71013D02*
X70293Y70866D01*
X71820Y71185D02*
X73152D01*
X73152Y71185D01*
X75376Y78105D02*
X77024D01*
X77089Y78170D01*
X72644Y78424D02*
X72644Y78424D01*
X39116Y61914D02*
Y62992D01*
X40640Y61914D02*
X40643Y61917D01*
X26871Y74561D02*
X28418D01*
X36449Y64835D02*
X36576Y64962D01*
X43799Y99760D02*
X43815D01*
X44958Y100903D01*
X47625Y99718D02*
Y100014D01*
X44958Y100903D02*
X46736D01*
X47625Y100014D01*
X44450Y97539D02*
X46355Y99444D01*
Y99718D01*
X50165Y94468D02*
Y95696D01*
X50673Y96204D02*
X51243D01*
X50165Y95696D02*
X50673Y96204D01*
X46355Y93680D02*
X47514Y92521D01*
X46355Y93680D02*
Y94468D01*
X49514Y92521D02*
X49530Y92505D01*
X49514Y92521D02*
X50800D01*
X49530Y90362D02*
Y92505D01*
X50800Y92521D02*
X52030Y93751D01*
X55804D01*
X53405Y95188D02*
X54737D01*
X60579Y97474D02*
X62230Y99125D01*
X66040D01*
X66516Y97474D02*
Y98649D01*
X66389Y97155D02*
X67278Y98044D01*
X66040Y99125D02*
X66516Y98649D01*
X67278Y98044D02*
X70146D01*
X23876Y86965D02*
X24162Y86679D01*
X30607D01*
X23876Y88965D02*
Y90489D01*
X25400Y92013D01*
X79613Y83123D02*
Y85012D01*
X67945Y88711D02*
X69573D01*
X67818Y88584D02*
X67945Y88711D01*
X69573D02*
X69638Y88646D01*
X79613Y85012D02*
X79629Y85028D01*
X71374Y87441D02*
X72263Y86552D01*
X75819Y81726D02*
X76216D01*
X77613Y83123D01*
X68622Y85282D02*
X69446Y86106D01*
X69638D01*
X70039Y84836D02*
X71312D01*
X69638D02*
X70039D01*
X71312D02*
X71374Y84774D01*
X74868Y88666D02*
X74888Y88646D01*
X76900D01*
X76962Y88584D01*
X53151Y93029D02*
X53151Y93029D01*
X52705Y93029D02*
X53151D01*
X55205Y93029D02*
X55840Y92394D01*
X56007D01*
X56439Y92826D01*
Y93751D01*
X52578Y87311D02*
X53024D01*
X55753Y87314D02*
X56134Y87695D01*
X56388Y87949D01*
X54229Y88711D02*
X54483Y88965D01*
X54356Y90743D02*
X54483Y90616D01*
Y88965D02*
Y90616D01*
X55397Y89702D01*
X37842Y93980D02*
X39031Y92791D01*
X36641Y93980D02*
X37842D01*
X36449Y90300D02*
X38982D01*
X39031Y90251D01*
X44281Y92791D02*
X44297Y92775D01*
X45720D01*
X44199Y94361D02*
X44326D01*
X44408Y90362D02*
Y91505D01*
X44281Y90251D02*
X49419D01*
X49530Y90362D01*
X70993Y99252D02*
X75295Y94950D01*
X70146Y95270D02*
Y96774D01*
X75249Y102362D02*
X75376D01*
X24003Y97982D02*
X25908Y96077D01*
X22987Y97982D02*
X24003D01*
X25908Y96077D02*
X30385D01*
X24130Y95061D02*
X25019Y94172D01*
X30099D01*
X30885Y94958D01*
Y96077D01*
X25400Y92013D02*
X28448D01*
X30228Y93793D01*
X30256D01*
X31385Y94922D01*
Y96077D01*
X31885Y97267D02*
X32101Y97483D01*
X31885Y96077D02*
Y97267D01*
X32101Y97483D02*
X33498D01*
X29591Y88789D02*
Y92267D01*
X32385Y95061D01*
Y96077D01*
X21844Y100649D02*
X30013D01*
X30385Y100277D01*
X28418Y98818D02*
X30642D01*
X30885Y99061D01*
Y100277D01*
X28418Y97418D02*
X30004D01*
X31385Y98799D01*
Y100277D01*
X31885Y98969D02*
X32228Y98626D01*
X33498D01*
X31885Y98969D02*
Y100277D01*
X26924Y88711D02*
X26989Y88646D01*
X29734D01*
X82423Y85012D02*
Y87568D01*
X82550Y87695D01*
X82312Y83123D02*
X82423Y83012D01*
X79613Y83123D02*
X82312D01*
X82423Y83012D02*
X84963D01*
Y85012D02*
Y87568D01*
Y83012D02*
X87757D01*
Y85012D02*
Y87568D01*
X87630Y87695D02*
X87757Y87568D01*
Y83012D02*
X90424D01*
Y85012D02*
Y87441D01*
X90170Y87695D02*
X90424Y87441D01*
X60420Y85282D02*
X61214D01*
X62611Y86679D01*
X65024D02*
X65754Y85949D01*
X62611Y86679D02*
X65024D01*
X35036Y90362D02*
X36319D01*
X31766Y89060D02*
X31861Y88965D01*
X31766Y91632D02*
X34433Y94299D01*
X29591Y88789D02*
X29734Y88646D01*
X52578Y88711D02*
Y90108D01*
Y91502D01*
X52705Y91629D01*
X53021Y87314D02*
X53024Y87311D01*
X52864Y88870D02*
X53024Y88711D01*
X54037D01*
X35065Y97483D02*
X35260Y97288D01*
X35198Y98626D02*
X35260Y98688D01*
X71439Y83250D02*
X72771D01*
X72771Y83250D01*
X72009Y90743D02*
X72009Y90743D01*
X68453Y95061D02*
X68515Y95123D01*
X70293D01*
X70146Y95270D02*
X70293Y95123D01*
X71820Y95442D02*
X73152D01*
X73152Y95442D01*
X75376Y102362D02*
X77024D01*
X77089Y102427D01*
X72644Y102681D02*
X72644Y102681D01*
X39116Y86171D02*
Y87249D01*
X40640Y86171D02*
X40643Y86174D01*
X26871Y98818D02*
X28418D01*
X36449Y89092D02*
X36576Y89219D01*
X44307Y148971D02*
X44323D01*
X45466Y150114D01*
X48133Y148929D02*
Y149225D01*
X45466Y150114D02*
X47244D01*
X48133Y149225D01*
X44958Y146750D02*
X46863Y148655D01*
Y148929D01*
X50673Y143679D02*
Y144907D01*
X51181Y145415D02*
X51751D01*
X50673Y144907D02*
X51181Y145415D01*
X46863Y142891D02*
X48022Y141732D01*
X46863Y142891D02*
Y143679D01*
X50022Y141732D02*
X50038Y141716D01*
X50022Y141732D02*
X51308D01*
X50038Y139573D02*
Y141716D01*
X51308Y141732D02*
X52538Y142962D01*
X56312D01*
X53913Y144399D02*
X55245D01*
X61087Y146685D02*
X62738Y148336D01*
X66548D01*
X67024Y146685D02*
Y147860D01*
X66897Y146366D02*
X67786Y147255D01*
X66548Y148336D02*
X67024Y147860D01*
X67786Y147255D02*
X70654D01*
X24384Y136176D02*
X24670Y135890D01*
X24384Y138176D02*
Y139700D01*
X25908Y141224D01*
X80121Y132334D02*
Y134223D01*
X68453Y137922D02*
X70081D01*
X68326Y137795D02*
X68453Y137922D01*
X70081D02*
X70146Y137857D01*
X80121Y134223D02*
X80137Y134239D01*
X71882Y136652D02*
X72771Y135763D01*
X76327Y130937D02*
X76724D01*
X78121Y132334D01*
X69130Y134493D02*
X69954Y135317D01*
X70146D01*
X70547Y134047D02*
X71820D01*
X70146D02*
X70547D01*
X71820D02*
X71882Y133985D01*
X75376Y137877D02*
X75396Y137857D01*
X77408D01*
X77470Y137795D01*
X53659Y142240D02*
X53659Y142240D01*
X53213Y142240D02*
X53659D01*
X55713Y142240D02*
X56348Y141605D01*
X56515D01*
X56947Y142037D01*
Y142962D01*
X53086Y136522D02*
X53532D01*
X56261Y136525D02*
X56642Y136906D01*
X56896Y137160D01*
X54737Y137922D02*
X54991Y138176D01*
X54864Y139954D02*
X54991Y139827D01*
Y138176D02*
Y139827D01*
X55905Y138913D01*
X38350Y143191D02*
X39539Y142002D01*
X37149Y143191D02*
X38350D01*
X39666Y140674D02*
X44196Y136144D01*
X36957Y139511D02*
X39490D01*
X39539Y139462D01*
X44789Y142002D02*
X44805Y141986D01*
X46228D01*
X44707Y143572D02*
X44834D01*
X44916Y139573D02*
Y140716D01*
X44789Y139462D02*
X49927D01*
X50038Y139573D01*
X71501Y148463D02*
X75803Y144161D01*
X70654Y144481D02*
Y145985D01*
X75757Y151573D02*
X75884D01*
X24511Y147193D02*
X26416Y145288D01*
X23495Y147193D02*
X24511D01*
X24638Y144272D02*
X25527Y143383D01*
X30607D01*
X31393Y144169D01*
Y145288D01*
X25908Y141224D02*
X28956D01*
X30736Y143004D01*
X30764D01*
X31893Y144133D01*
Y145288D01*
X32393Y146478D02*
X32609Y146694D01*
X32393Y145288D02*
Y146478D01*
X32609Y146694D02*
X34006D01*
X30099Y138000D02*
Y141478D01*
X32893Y144272D01*
Y145288D01*
X22352Y149860D02*
X30521D01*
X30893Y149488D01*
X28926Y148029D02*
X31150D01*
X31393Y148272D01*
Y149488D01*
X28926Y146629D02*
X30512D01*
X31893Y148010D01*
Y149488D01*
X32393Y148180D02*
X32736Y147837D01*
X34006D01*
X32393Y148180D02*
Y149488D01*
X27432Y137922D02*
X27497Y137857D01*
X30242D01*
X82931Y134223D02*
Y136779D01*
X83058Y136906D01*
X82820Y132334D02*
X82931Y132223D01*
X80121Y132334D02*
X82820D01*
X82931Y132223D02*
X85471D01*
Y134223D02*
Y136779D01*
Y132223D02*
X88265D01*
Y134223D02*
Y136779D01*
X88138Y136906D02*
X88265Y136779D01*
Y132223D02*
X90932D01*
Y134223D02*
Y136652D01*
X90678Y136906D02*
X90932Y136652D01*
X60928Y134493D02*
X61722D01*
X63119Y135890D01*
X65532D02*
X66262Y135160D01*
X63119Y135890D02*
X65532D01*
X35544Y139573D02*
X36827D01*
X32274Y138271D02*
X32369Y138176D01*
X32274Y140843D02*
X34941Y143510D01*
X30099Y138000D02*
X30242Y137857D01*
X53086Y137922D02*
Y139319D01*
Y140713D01*
X53213Y140840D01*
X53529Y136525D02*
X53532Y136522D01*
X53373Y138081D02*
X53532Y137922D01*
X54545D01*
X35573Y146694D02*
X35768Y146499D01*
X35706Y147837D02*
X35768Y147899D01*
X71947Y132461D02*
X73279D01*
X73279Y132461D01*
X72517Y139954D02*
X72517Y139954D01*
X68961Y144272D02*
X69023Y144334D01*
X70801D01*
X70654Y144481D02*
X70801Y144334D01*
X72328Y144653D02*
X73660D01*
X73660Y144653D01*
X75884Y151573D02*
X77532D01*
X77597Y151638D01*
X73152Y151892D02*
X73152Y151892D01*
X39624Y135382D02*
Y136460D01*
X41148Y135382D02*
X41151Y135385D01*
X27379Y148029D02*
X28926D01*
X36957Y138303D02*
X37084Y138430D01*
X49403Y173059D02*
Y173355D01*
X44307Y173101D02*
X44323D01*
X45466Y174244D01*
X48133Y173059D02*
Y173355D01*
X45466Y174244D02*
X47244D01*
X48133Y173355D01*
X44958Y170880D02*
X46863Y172785D01*
Y173059D01*
X50673Y167809D02*
Y169037D01*
X51181Y169545D02*
X51751D01*
X50673Y169037D02*
X51181Y169545D01*
X46863Y167021D02*
X48022Y165862D01*
X46863Y167021D02*
Y167809D01*
X50022Y165862D02*
X50038Y165846D01*
X50022Y165862D02*
X51308D01*
X50038Y163703D02*
Y165846D01*
X51308Y165862D02*
X52538Y167092D01*
X56312D01*
X53913Y168529D02*
X55245D01*
X61087Y170815D02*
X62738Y172466D01*
X66548D01*
X67024Y170815D02*
Y171990D01*
X66897Y170496D02*
X67786Y171385D01*
X66548Y172466D02*
X67024Y171990D01*
X67786Y171385D02*
X70654D01*
X24384Y160306D02*
X24670Y160020D01*
X31115D01*
X24384Y162306D02*
Y163830D01*
X25908Y165354D01*
X80121Y156464D02*
Y158353D01*
X68453Y162052D02*
X70081D01*
X68326Y161925D02*
X68453Y162052D01*
X70081D02*
X70146Y161987D01*
X80121Y158353D02*
X80137Y158369D01*
X71882Y160782D02*
X72771Y159893D01*
X76327Y155067D02*
X76724D01*
X78121Y156464D01*
X69130Y158623D02*
X69954Y159447D01*
X70146D01*
X70547Y158177D02*
X71820D01*
X70146D02*
X70547D01*
X71820D02*
X71882Y158115D01*
X75376Y162007D02*
X75396Y161987D01*
X77408D01*
X77470Y161925D01*
X53659Y166370D02*
X53659Y166370D01*
X53213Y166370D02*
X53659D01*
X55713Y166370D02*
X56348Y165735D01*
X56515D01*
X56947Y166167D01*
Y167092D01*
X53086Y160652D02*
X53532D01*
X56261Y160655D02*
X56642Y161036D01*
X56896Y161290D01*
X54737Y162052D02*
X54991Y162306D01*
X54864Y164084D02*
X54991Y163957D01*
Y162306D02*
Y163957D01*
X55905Y163043D01*
X38350Y167321D02*
X39539Y166132D01*
X37149Y167321D02*
X38350D01*
X39666Y164804D02*
X44196Y160274D01*
X36957Y163641D02*
X39490D01*
X39539Y163592D01*
X44789Y166132D02*
X44805Y166116D01*
X46228D01*
X44707Y167702D02*
X44834D01*
X44916Y163703D02*
Y164846D01*
X44789Y163592D02*
X49927D01*
X50038Y163703D01*
X71501Y172593D02*
X75803Y168291D01*
X70654Y168611D02*
Y170115D01*
X75757Y175703D02*
X75884D01*
X24511Y171323D02*
X26416Y169418D01*
X23495Y171323D02*
X24511D01*
X26416Y169418D02*
X30893D01*
X24638Y168402D02*
X25527Y167513D01*
X30607D01*
X31393Y168299D01*
Y169418D01*
X25908Y165354D02*
X28956D01*
X30736Y167134D01*
X30764D01*
X31893Y168263D01*
Y169418D01*
X32393Y170608D02*
X32609Y170824D01*
X32393Y169418D02*
Y170608D01*
X32609Y170824D02*
X34006D01*
X30099Y162130D02*
Y165608D01*
X32893Y168402D01*
Y169418D01*
X22352Y173990D02*
X30521D01*
X30893Y173618D01*
X28926Y172159D02*
X31150D01*
X31393Y172402D01*
Y173618D01*
X28926Y170759D02*
X30512D01*
X31893Y172140D01*
Y173618D01*
X32393Y172310D02*
X32736Y171967D01*
X34006D01*
X32393Y172310D02*
Y173618D01*
X27432Y162052D02*
X27497Y161987D01*
X30242D01*
X82931Y158353D02*
Y160909D01*
X83058Y161036D01*
X82820Y156464D02*
X82931Y156353D01*
X80121Y156464D02*
X82820D01*
X82931Y156353D02*
X85471D01*
Y158353D02*
Y160909D01*
Y156353D02*
X88265D01*
Y158353D02*
Y160909D01*
X88138Y161036D02*
X88265Y160909D01*
Y156353D02*
X90932D01*
Y158353D02*
Y160782D01*
X90678Y161036D02*
X90932Y160782D01*
X60928Y158623D02*
X61722D01*
X63119Y160020D01*
X65532D02*
X66262Y159290D01*
X63119Y160020D02*
X65532D01*
X35544Y163703D02*
X36827D01*
X32274Y162401D02*
X32369Y162306D01*
X32274Y164973D02*
X34941Y167640D01*
X30099Y162130D02*
X30242Y161987D01*
X53086Y162052D02*
Y163449D01*
Y164843D01*
X53213Y164970D01*
X53529Y160655D02*
X53532Y160652D01*
X53373Y162212D02*
X53532Y162052D01*
X54545D01*
X35573Y170824D02*
X35768Y170629D01*
X35706Y171967D02*
X35768Y172029D01*
X71947Y156591D02*
X73279D01*
X73279Y156591D01*
X72517Y164084D02*
X72517Y164084D01*
X68961Y168402D02*
X69023Y168464D01*
X70801D01*
X70654Y168611D02*
X70801Y168464D01*
X72328Y168783D02*
X73660D01*
X73660Y168783D01*
X75884Y175703D02*
X77532D01*
X77597Y175768D01*
X73152Y176022D02*
X73152Y176022D01*
X39624Y159512D02*
Y160590D01*
X41148Y159512D02*
X41151Y159515D01*
X27379Y172159D02*
X28926D01*
X36957Y162433D02*
X37084Y162560D01*
X49403Y197443D02*
Y197739D01*
X44307Y197485D02*
X44323D01*
X45466Y198628D01*
X48133Y197443D02*
Y197739D01*
X45466Y198628D02*
X47244D01*
X48133Y197739D01*
X44958Y195264D02*
X46863Y197169D01*
Y197443D01*
X50673Y192193D02*
Y193421D01*
X51181Y193929D02*
X51751D01*
X50673Y193421D02*
X51181Y193929D01*
X46863Y191405D02*
X48022Y190246D01*
X46863Y191405D02*
Y192193D01*
X50022Y190246D02*
X50038Y190230D01*
X50022Y190246D02*
X51308D01*
X50038Y188087D02*
Y190230D01*
X51308Y190246D02*
X52538Y191476D01*
X56312D01*
X53913Y192913D02*
X55245D01*
X61087Y195199D02*
X62738Y196850D01*
X66548D01*
X67024Y195199D02*
Y196374D01*
X66897Y194880D02*
X67786Y195769D01*
X66548Y196850D02*
X67024Y196374D01*
X67786Y195769D02*
X70654D01*
X24384Y184690D02*
X24670Y184404D01*
X31115D01*
X24384Y186690D02*
Y188214D01*
X25908Y189738D01*
X80121Y180848D02*
Y182737D01*
X68453Y186436D02*
X70081D01*
X68326Y186309D02*
X68453Y186436D01*
X70081D02*
X70146Y186371D01*
X80121Y182737D02*
X80137Y182753D01*
X71882Y185166D02*
X72771Y184277D01*
X76327Y179451D02*
X76724D01*
X78121Y180848D01*
X69130Y183007D02*
X69954Y183831D01*
X70146D01*
X70547Y182561D02*
X71820D01*
X70146D02*
X70547D01*
X71820D02*
X71882Y182499D01*
X75376Y186391D02*
X75396Y186371D01*
X77408D01*
X77470Y186309D01*
X53659Y190754D02*
X53659Y190754D01*
X53213Y190754D02*
X53659D01*
X55713Y190754D02*
X56348Y190119D01*
X56515D01*
X56947Y190551D01*
Y191476D01*
X53086Y185036D02*
X53532D01*
X56261Y185039D02*
X56642Y185420D01*
X56896Y185674D01*
X54737Y186436D02*
X54991Y186690D01*
X54864Y188468D02*
X54991Y188341D01*
Y186690D02*
Y188341D01*
X55905Y187427D01*
X38350Y191705D02*
X39539Y190516D01*
X37149Y191705D02*
X38350D01*
X39666Y189188D02*
X44196Y184658D01*
X36957Y188025D02*
X39490D01*
X39539Y187976D01*
X44789Y190516D02*
X44805Y190500D01*
X46228D01*
X44707Y192086D02*
X44834D01*
X44916Y188087D02*
Y189230D01*
X44789Y187976D02*
X49927D01*
X50038Y188087D01*
X71501Y196977D02*
X75803Y192675D01*
X70654Y192995D02*
Y194499D01*
X75757Y200087D02*
X75884D01*
X24511Y195707D02*
X26416Y193802D01*
X23495Y195707D02*
X24511D01*
X26416Y193802D02*
X30893D01*
X24638Y192786D02*
X25527Y191897D01*
X30607D01*
X31393Y192683D01*
Y193802D01*
X25908Y189738D02*
X28956D01*
X30736Y191518D01*
X30764D01*
X31893Y192647D01*
Y193802D01*
X32393Y194992D02*
X32609Y195208D01*
X32393Y193802D02*
Y194992D01*
X32609Y195208D02*
X34006D01*
X30099Y186514D02*
Y189992D01*
X32893Y192786D01*
Y193802D01*
X22352Y198374D02*
X30521D01*
X30893Y198002D01*
X28926Y196543D02*
X31150D01*
X31393Y196786D01*
Y198002D01*
X28926Y195143D02*
X30512D01*
X31893Y196524D01*
Y198002D01*
X32393Y196694D02*
X32736Y196351D01*
X34006D01*
X32393Y196694D02*
Y198002D01*
X27432Y186436D02*
X27497Y186371D01*
X30242D01*
X82931Y185293D02*
X83058Y185420D01*
X80121Y180848D02*
X82820D01*
X85471Y182737D02*
Y185293D01*
Y180737D02*
X88265D01*
Y182737D02*
Y185293D01*
X88138Y185420D02*
X88265Y185293D01*
X90678Y185420D02*
X90932Y185166D01*
X60928Y183007D02*
X61722D01*
X63119Y184404D01*
X65532D02*
X66262Y183674D01*
X63119Y184404D02*
X65532D01*
X35544Y188087D02*
X36827D01*
X32274Y186785D02*
X32369Y186690D01*
X32274Y189357D02*
X34941Y192024D01*
X30099Y186514D02*
X30242Y186371D01*
X53086Y186436D02*
Y187833D01*
Y189227D01*
X53213Y189354D01*
X53529Y185039D02*
X53532Y185036D01*
X53373Y186596D02*
X53532Y186436D01*
X54545D01*
X35573Y195208D02*
X35768Y195013D01*
X35706Y196351D02*
X35768Y196413D01*
X71947Y180975D02*
X73279D01*
X73279Y180975D01*
X72517Y188468D02*
X72517Y188468D01*
X68961Y192786D02*
X69023Y192848D01*
X70801D01*
X70654Y192995D02*
X70801Y192848D01*
X72328Y193167D02*
X73660D01*
X73660Y193167D01*
X75884Y200087D02*
X77532D01*
X77597Y200152D01*
X73152Y200406D02*
X73152Y200406D01*
X39624Y183896D02*
Y184974D01*
X41148Y183896D02*
X41151Y183899D01*
X27379Y196543D02*
X28926D01*
X36957Y186817D02*
X37084Y186944D01*
X67548Y185166D02*
X71882D01*
X66278Y186436D02*
X67548Y185166D01*
Y136652D02*
X71882D01*
X66278Y137922D02*
X67548Y136652D01*
X34274Y140843D02*
X35544Y139573D01*
X31766Y89060D02*
Y91632D01*
X34433Y94299D02*
X35368D01*
X65754Y85282D02*
Y85949D01*
Y85282D02*
X68622D01*
X33766Y67375D02*
X35036Y66105D01*
X68802Y172593D02*
X71501D01*
X67151Y174244D02*
X68802Y172593D01*
X75803Y168291D02*
X78994D01*
X34274Y189357D02*
X35544Y188087D01*
X67040Y63184D02*
X71374D01*
X65770Y64454D02*
X67040Y63184D01*
Y87441D02*
X71374D01*
X65770Y88711D02*
X67040Y87441D01*
X68802Y148463D02*
X71501D01*
X67151Y150114D02*
X68802Y148463D01*
X75803Y144161D02*
X78994D01*
X65754Y61025D02*
Y61692D01*
Y61025D02*
X68622D01*
X33766Y91632D02*
X35036Y90362D01*
X32274Y162401D02*
Y164973D01*
X34941Y167640D02*
X35876D01*
X66262Y158623D02*
Y159290D01*
Y158623D02*
X69130D01*
X31766Y64803D02*
Y67375D01*
X34433Y70042D02*
X35368D01*
X68802Y196977D02*
X71501D01*
X67151Y198628D02*
X68802Y196977D01*
X75803Y192675D02*
X78994D01*
X67548Y160782D02*
X71882D01*
X66278Y162052D02*
X67548Y160782D01*
X32274Y138271D02*
Y140843D01*
X34941Y143510D02*
X35876D01*
X34274Y164973D02*
X35544Y163703D01*
X68294Y74995D02*
X70993D01*
X66643Y76646D02*
X68294Y74995D01*
X75295Y70693D02*
X78486D01*
X68294Y99252D02*
X70993D01*
X66643Y100903D02*
X68294Y99252D01*
X75295Y94950D02*
X78486D01*
X32274Y186785D02*
Y189357D01*
X34941Y192024D02*
X35876D01*
X66262Y134493D02*
Y135160D01*
Y134493D02*
X69130D01*
X66262Y183007D02*
Y183674D01*
Y183007D02*
X69130D01*
X31885Y73010D02*
X32154Y73279D01*
X33528D01*
X35018Y74549D02*
X35198Y74369D01*
X32258Y74549D02*
X33528D01*
X31885Y74922D02*
X32258Y74549D01*
X31885Y74922D02*
Y76020D01*
X24797Y136017D02*
X26067Y134747D01*
X27051D01*
X31242Y130302D02*
X35179D01*
X28321Y133223D02*
X31242Y130302D01*
X28321Y133223D02*
Y135382D01*
X27051Y136652D02*
X28321Y135382D01*
X25908Y136652D02*
X27051D01*
X24384Y138176D02*
X25908Y136652D01*
X29591Y144272D02*
Y145288D01*
X26416D02*
X29591D01*
X30893D01*
X39243Y39116D02*
Y40640D01*
X39243Y63311D02*
Y64835D01*
Y87568D02*
Y89092D01*
X53151Y44577D02*
X55205D01*
X53151Y68772D02*
X55205D01*
X53151Y93029D02*
X55205D01*
X39751Y136779D02*
Y138303D01*
Y160909D02*
Y162433D01*
Y185293D02*
Y186817D01*
X53659Y142240D02*
X55713D01*
X53659Y166370D02*
X55713D01*
X53659Y190754D02*
X55713D01*
X70039Y34798D02*
Y36384D01*
X70039Y58993D02*
Y60579D01*
Y83250D02*
Y84836D01*
X70547Y132461D02*
Y134047D01*
Y156591D02*
Y158177D01*
Y180975D02*
Y182561D01*
X33498Y50174D02*
X35198D01*
X35260Y50236D02*
X38308D01*
X35260Y74431D02*
X38308D01*
X33528Y74549D02*
X35018D01*
X33498Y98626D02*
X35198D01*
X35260Y98688D02*
X38308D01*
X44326Y44339D02*
Y45909D01*
X44326Y68534D02*
Y70104D01*
X51243Y47752D02*
X52259Y46736D01*
X44326Y92791D02*
Y94361D01*
X51243Y71947D02*
X52259Y70931D01*
X51243Y96204D02*
X52259Y95188D01*
X24670Y135890D02*
X24797Y136017D01*
X34006Y147837D02*
X35706D01*
X34006Y171967D02*
X35706D01*
X34006Y196351D02*
X35706D01*
X35768Y147899D02*
X38816D01*
X44834Y142002D02*
Y143572D01*
Y166132D02*
Y167702D01*
X35768Y172029D02*
X38816D01*
X35768Y196413D02*
X38816D01*
X44834Y190516D02*
Y192086D01*
X53021Y38862D02*
X55753D01*
X53021Y63057D02*
X55753D01*
X56388Y39497D02*
Y41275D01*
X56388Y63692D02*
Y65470D01*
X74868Y40214D02*
Y42291D01*
X53021Y87314D02*
X55753D01*
X56388Y87949D02*
Y89727D01*
X74868Y64409D02*
Y66486D01*
X75376Y52132D02*
Y53910D01*
X75376Y76327D02*
Y78105D01*
X74868Y88666D02*
Y90743D01*
X75376Y100584D02*
Y102362D01*
X53529Y136525D02*
X56261D01*
X51751Y145415D02*
X52767Y144399D01*
X53529Y160655D02*
X56261D01*
X56896Y137160D02*
Y138938D01*
X75376Y137877D02*
Y139954D01*
X51751Y169545D02*
X52767Y168529D01*
X51751Y193929D02*
X52767Y192913D01*
X53529Y185039D02*
X56261D01*
X56896Y161290D02*
Y163068D01*
X75376Y162007D02*
Y164084D01*
X56896Y185674D02*
Y187452D01*
X75376Y186391D02*
Y188468D01*
X75884Y149795D02*
Y151573D01*
Y173925D02*
Y175703D01*
Y198309D02*
Y200087D01*
D29*
X98806Y117221D02*
X99568Y116459D01*
Y115474D02*
Y116459D01*
X85728Y111376D02*
X89027D01*
X85725Y111379D02*
X85728Y111376D01*
X90865Y112709D02*
X96393D01*
X77216Y111255D02*
X77401Y111440D01*
X77216Y109855D02*
X79121D01*
X76290Y107569D02*
X83915D01*
X85725Y109379D01*
X81788Y115443D02*
X82156Y115075D01*
X77470Y115443D02*
X79788D01*
X74803Y107606D02*
Y108966D01*
Y107606D02*
X74840Y107569D01*
X89027Y111376D02*
X90294Y110109D01*
X96393D01*
X89027Y112776D02*
X89154Y112649D01*
X90805D01*
X79121Y109855D02*
X79756Y110490D01*
X77401Y111440D02*
X79756D01*
X77343Y112776D02*
X77729Y112390D01*
X79756D01*
X82156Y110490D02*
X83045Y111379D01*
X85725D01*
X75822Y111255D02*
X77216D01*
X82156Y112390D02*
Y115075D01*
X74803Y108966D02*
Y111760D01*
X75819Y112776D01*
X77343D01*
X41340Y45909D02*
X42799D01*
X41275Y45974D02*
X41340Y45909D01*
X42988Y47687D02*
X44450D01*
X41275Y45974D02*
X42988Y47687D01*
X40275Y49784D02*
X41799Y51308D01*
X40275Y73979D02*
X41799Y75503D01*
X41275Y70169D02*
X41340Y70104D01*
X42799D01*
X41275Y70169D02*
X42988Y71882D01*
X44450D01*
X40275Y98236D02*
X41799Y99760D01*
X41275Y94426D02*
X41340Y94361D01*
X42799D01*
X41275Y94426D02*
X42988Y96139D01*
X44450D01*
X40783Y147447D02*
X42307Y148971D01*
X41783Y143637D02*
X41848Y143572D01*
X43307D01*
X41783Y143637D02*
X43496Y145350D01*
X44958D01*
X40783Y171577D02*
X42307Y173101D01*
X41783Y167767D02*
X41848Y167702D01*
X43307D01*
X41783Y167767D02*
X43496Y169480D01*
X44958D01*
X40783Y195961D02*
X42307Y197485D01*
X41783Y192151D02*
X41848Y192086D01*
X43307D01*
X41783Y192151D02*
X43496Y193864D01*
X44958D01*
D30*
X91567Y46990D02*
X92964Y45593D01*
X94107D01*
X90170Y46990D02*
X91567D01*
X92456Y47879D01*
X96139D01*
X91694Y41783D02*
X92329Y41148D01*
X96139D01*
X91694Y41783D02*
X92964Y43053D01*
X94107D01*
X82550Y46990D02*
X85090D01*
X87630D01*
X90170D01*
X57734Y45299D02*
Y47985D01*
X58452Y48703D01*
X58284Y45299D02*
X59768Y43815D01*
X57734Y45299D02*
X58284D01*
X59768Y43815D02*
X63643Y39940D01*
X59768Y43815D02*
X63627D01*
X57734Y39040D02*
Y40931D01*
Y39040D02*
X57785Y38989D01*
X58293Y36511D02*
Y38481D01*
X57785Y38989D02*
X58293Y38481D01*
X82550Y41783D02*
X85090D01*
X87630D01*
X90170D01*
X91694D01*
X65913Y34941D02*
X66278D01*
X65913D02*
X67707Y33147D01*
X73406D01*
X82042Y41783D01*
X82550D01*
X80264Y44704D02*
X82550Y46990D01*
X66675Y44704D02*
X80264D01*
X64389Y46990D02*
X66675Y44704D01*
X64389Y46990D02*
Y48703D01*
X50165Y51266D02*
X50181Y51282D01*
X47625Y46016D02*
X48895D01*
X61660Y52132D02*
X64516D01*
X61595Y52197D02*
X61660Y52132D01*
X59436Y46482D02*
X60960D01*
X63627Y43815D01*
X57515Y52197D02*
X61595D01*
X48895Y46016D02*
Y47752D01*
X50038Y48895D01*
X53975D01*
X50165Y51266D02*
X53001D01*
X50165Y75461D02*
X53001D01*
X50165D02*
X50181Y75477D01*
X48895Y70211D02*
Y71947D01*
X47625Y70211D02*
X48895D01*
Y71947D02*
X50038Y73090D01*
X53975D01*
X60960Y70677D02*
X63627Y68010D01*
X59436Y70677D02*
X60960D01*
X57515Y76392D02*
X61595D01*
X66675Y68899D02*
X80264D01*
X64389Y71185D02*
X66675Y68899D01*
X80264D02*
X82550Y71185D01*
X64389Y71185D02*
Y72898D01*
X57734Y69494D02*
X58284D01*
X59768Y68010D02*
X63627D01*
X58284Y69494D02*
X59768Y68010D01*
X63643Y64135D01*
X57734Y69494D02*
Y72180D01*
X58452Y72898D01*
X57734Y63235D02*
Y65126D01*
X57785Y63184D02*
X58293Y62676D01*
X57734Y63235D02*
X57785Y63184D01*
X58293Y60706D02*
Y62676D01*
X61595Y76392D02*
X61660Y76327D01*
X64516D01*
X92329Y65343D02*
X96139D01*
X91694Y65978D02*
X92329Y65343D01*
X90170Y65978D02*
X91694D01*
X92964Y67248D01*
X94107D01*
X92964Y69788D02*
X94107D01*
X91567Y71185D02*
X92964Y69788D01*
X91567Y71185D02*
X92456Y72074D01*
X96139D01*
X65913Y59136D02*
X66278D01*
X67707Y57342D02*
X73406D01*
X65913Y59136D02*
X67707Y57342D01*
X73406D02*
X82042Y65978D01*
X82550D01*
X85090D01*
X87630D01*
X90170D01*
X82550Y71185D02*
X91567D01*
X50165Y99718D02*
X53001D01*
X50165D02*
X50181Y99734D01*
X48895Y94468D02*
Y96204D01*
X47625Y94468D02*
X48895D01*
Y96204D02*
X50038Y97347D01*
X53975D01*
X60960Y94934D02*
X63627Y92267D01*
X59436Y94934D02*
X60960D01*
X57515Y100649D02*
X61595D01*
X66675Y93156D02*
X80264D01*
X64389Y95442D02*
X66675Y93156D01*
X80264D02*
X82550Y95442D01*
X64389Y95442D02*
Y97155D01*
X57734Y93751D02*
X58284D01*
X59768Y92267D02*
X63627D01*
X58284Y93751D02*
X59768Y92267D01*
X63643Y88392D01*
X57734Y93751D02*
Y96437D01*
X58452Y97155D01*
X57734Y87492D02*
Y89383D01*
X57785Y87441D02*
X58293Y86933D01*
X57734Y87492D02*
X57785Y87441D01*
X58293Y84963D02*
Y86933D01*
X61595Y100649D02*
X61660Y100584D01*
X64516D01*
X92329Y89600D02*
X96139D01*
X91694Y90235D02*
X92329Y89600D01*
X90170Y90235D02*
X91694D01*
X92964Y91505D01*
X94107D01*
X92964Y94045D02*
X94107D01*
X91567Y95442D02*
X92964Y94045D01*
X91567Y95442D02*
X92456Y96331D01*
X96139D01*
X65913Y83393D02*
X66278D01*
X67707Y81599D02*
X73406D01*
X65913Y83393D02*
X67707Y81599D01*
X73406D02*
X82042Y90235D01*
X82550D01*
X85090D01*
X87630D01*
X90170D01*
X82550Y95442D02*
X91567D01*
X50673Y148929D02*
X53509D01*
X50673D02*
X50689Y148945D01*
X49403Y143679D02*
Y145415D01*
X48133Y143679D02*
X49403D01*
Y145415D02*
X50546Y146558D01*
X54483D01*
X61468Y144145D02*
X64135Y141478D01*
X59944Y144145D02*
X61468D01*
X67183Y142367D02*
X80772D01*
X64897Y144653D02*
X67183Y142367D01*
X80772D02*
X83058Y144653D01*
X64897Y144653D02*
Y146366D01*
X58242Y142962D02*
X58792D01*
X60276Y141478D02*
X64135D01*
X58792Y142962D02*
X60276Y141478D01*
X64151Y137603D01*
X58242Y142962D02*
Y145648D01*
X58960Y146366D01*
X58242Y136703D02*
Y138594D01*
X58293Y136652D02*
X58801Y136144D01*
X58242Y136703D02*
X58293Y136652D01*
X58801Y134174D02*
Y136144D01*
X62103Y149860D02*
X62168Y149795D01*
X65024D01*
X92837Y138811D02*
X96647D01*
X92202Y139446D02*
X92837Y138811D01*
X90678Y139446D02*
X92202D01*
X93472Y140716D01*
X94615D01*
X93472Y143256D02*
X94615D01*
X92075Y144653D02*
X93472Y143256D01*
X90678Y144653D02*
X92075D01*
X92964Y145542D01*
X96647D01*
X66421Y132604D02*
X66786D01*
X68215Y130810D02*
X73914D01*
X66421Y132604D02*
X68215Y130810D01*
X73914D02*
X82550Y139446D01*
X83058D01*
X85598D01*
X88138D01*
X90678D01*
X88138Y144653D02*
X90678D01*
X85598D02*
X88138D01*
X83058D02*
X85598D01*
X50673Y173059D02*
X53509D01*
X50673D02*
X50689Y173075D01*
X49403Y167809D02*
Y169545D01*
X48133Y167809D02*
X49403D01*
Y169545D02*
X50546Y170688D01*
X54483D01*
X61468Y168275D02*
X64135Y165608D01*
X59944Y168275D02*
X61468D01*
X67183Y166497D02*
X80772D01*
X64897Y168783D02*
X67183Y166497D01*
X80772D02*
X83058Y168783D01*
X64897Y168783D02*
Y170496D01*
X58242Y167092D02*
X58792D01*
X60276Y165608D02*
X64135D01*
X58792Y167092D02*
X60276Y165608D01*
X64151Y161733D01*
X58242Y167092D02*
Y169778D01*
X58960Y170496D01*
X58242Y160833D02*
Y162724D01*
X58293Y160782D02*
X58801Y160274D01*
X58242Y160833D02*
X58293Y160782D01*
X58801Y158304D02*
Y160274D01*
X62103Y173990D02*
X62168Y173925D01*
X65024D01*
X92837Y162941D02*
X96647D01*
X92202Y163576D02*
X92837Y162941D01*
X90678Y163576D02*
X92202D01*
X93472Y164846D01*
X94615D01*
X93472Y167386D02*
X94615D01*
X92075Y168783D02*
X93472Y167386D01*
X90678Y168783D02*
X92075D01*
X92964Y169672D01*
X96647D01*
X66421Y156734D02*
X66786D01*
X68215Y154940D02*
X73914D01*
X66421Y156734D02*
X68215Y154940D01*
X73914D02*
X82550Y163576D01*
X83058D01*
X85598D01*
X88138D01*
X90678D01*
X88138Y168783D02*
X90678D01*
X85598D02*
X88138D01*
X83058D02*
X85598D01*
X50673Y197443D02*
X53509D01*
X50673D02*
X50689Y197459D01*
X49403Y192193D02*
Y193929D01*
X48133Y192193D02*
X49403D01*
Y193929D02*
X50546Y195072D01*
X54483D01*
X61468Y192659D02*
X64135Y189992D01*
X59944Y192659D02*
X61468D01*
X67183Y190881D02*
X80772D01*
X64897Y193167D02*
X67183Y190881D01*
X80772D02*
X83058Y193167D01*
X64897Y193167D02*
Y194880D01*
X58242Y191476D02*
X58792D01*
X60276Y189992D02*
X64135D01*
X58792Y191476D02*
X60276Y189992D01*
X64151Y186117D01*
X58242Y191476D02*
Y194162D01*
X58960Y194880D01*
X58242Y185217D02*
Y187108D01*
X58293Y185166D02*
X58801Y184658D01*
X58242Y185217D02*
X58293Y185166D01*
X58801Y182688D02*
Y184658D01*
X62103Y198374D02*
X62168Y198309D01*
X65024D01*
X92837Y187325D02*
X96647D01*
X92202Y187960D02*
X92837Y187325D01*
X90678Y187960D02*
X92202D01*
X93472Y189230D01*
X94615D01*
X93472Y191770D02*
X94615D01*
X92075Y193167D02*
X93472Y191770D01*
X90678Y193167D02*
X92075D01*
X92964Y194056D01*
X96647D01*
X66421Y181118D02*
X66786D01*
X68215Y179324D02*
X73914D01*
X66421Y181118D02*
X68215Y179324D01*
X73914D02*
X82550Y187960D01*
X83058D01*
X85598D01*
X88138D01*
X90678D01*
X88138Y193167D02*
X90678D01*
X85598D02*
X88138D01*
X83058D02*
X85598D01*
X58023Y173990D02*
X62103D01*
X58023Y198374D02*
X62103D01*
X58023Y149860D02*
X62103D01*
D31*
X99568Y114730D02*
D03*
X99568Y108042D02*
D03*
D32*
X81661Y125539D02*
D03*
D33*
X63627Y43815D02*
D03*
X49530Y41910D02*
D03*
X63627Y68010D02*
D03*
X49530Y66105D02*
D03*
X63627Y92267D02*
D03*
X49530Y90362D02*
D03*
X64135Y141478D02*
D03*
X50038Y139573D02*
D03*
X64135Y165608D02*
D03*
X50038Y163703D02*
D03*
X64135Y189992D02*
D03*
X50038Y188087D02*
D03*
X62992Y127000D02*
D03*
X58547D02*
D03*
X53975Y127127D02*
D03*
X62103Y198374D02*
D03*
X97282Y187325D02*
D03*
Y194056D02*
D03*
X22352Y198374D02*
D03*
X23495Y195707D02*
D03*
X24638Y192786D02*
D03*
X27432Y186436D02*
D03*
X25908Y189738D02*
D03*
X61595Y52197D02*
D03*
X96774Y41148D02*
D03*
Y47879D02*
D03*
X21844Y52197D02*
D03*
X22987Y49530D02*
D03*
X24130Y46609D02*
D03*
X26924Y40259D02*
D03*
X25400Y43561D02*
D03*
X61595Y76392D02*
D03*
X96774Y65343D02*
D03*
Y72074D02*
D03*
X21844Y76392D02*
D03*
X22987Y73725D02*
D03*
X24130Y70804D02*
D03*
X26924Y64454D02*
D03*
X25400Y67756D02*
D03*
X61595Y100649D02*
D03*
X96774Y89600D02*
D03*
Y96331D02*
D03*
X21844Y100649D02*
D03*
X22987Y97982D02*
D03*
X24130Y95061D02*
D03*
X26924Y88711D02*
D03*
X25400Y92013D02*
D03*
X62103Y149860D02*
D03*
X97282Y138811D02*
D03*
Y145542D02*
D03*
X22352Y149860D02*
D03*
X23495Y147193D02*
D03*
X24638Y144272D02*
D03*
X27432Y137922D02*
D03*
X25908Y141224D02*
D03*
X62103Y173990D02*
D03*
X97282Y162941D02*
D03*
Y169672D02*
D03*
X22352Y173990D02*
D03*
X23495Y171323D02*
D03*
X24638Y168402D02*
D03*
X27432Y162052D02*
D03*
X25908Y165354D02*
D03*
D34*
X83058Y193167D02*
D03*
Y195707D02*
D03*
X85598Y193167D02*
D03*
Y195707D02*
D03*
X88138Y193167D02*
D03*
Y195707D02*
D03*
X90678Y193167D02*
D03*
Y187960D02*
D03*
Y185420D02*
D03*
X88138Y187960D02*
D03*
Y185420D02*
D03*
X85598Y187960D02*
D03*
Y185420D02*
D03*
X83058Y187960D02*
D03*
X94615Y189230D02*
D03*
X82550Y41783D02*
D03*
X85090Y39243D02*
D03*
Y41783D02*
D03*
X87630Y39243D02*
D03*
Y41783D02*
D03*
X90170Y39243D02*
D03*
Y41783D02*
D03*
X94107Y43053D02*
D03*
X90170Y46990D02*
D03*
X87630Y49530D02*
D03*
Y46990D02*
D03*
X85090Y49530D02*
D03*
Y46990D02*
D03*
X82550Y49530D02*
D03*
Y46990D02*
D03*
X82550Y65978D02*
D03*
X85090Y63438D02*
D03*
Y65978D02*
D03*
X87630Y63438D02*
D03*
Y65978D02*
D03*
X90170Y63438D02*
D03*
Y65978D02*
D03*
X94107Y67248D02*
D03*
X90170Y71185D02*
D03*
X87630Y73725D02*
D03*
Y71185D02*
D03*
X85090Y73725D02*
D03*
Y71185D02*
D03*
X82550Y73725D02*
D03*
Y71185D02*
D03*
X82550Y90235D02*
D03*
X85090Y87695D02*
D03*
Y90235D02*
D03*
X87630Y87695D02*
D03*
Y90235D02*
D03*
X90170Y87695D02*
D03*
Y90235D02*
D03*
X94107Y91505D02*
D03*
X90170Y95442D02*
D03*
X87630Y97982D02*
D03*
Y95442D02*
D03*
X85090Y97982D02*
D03*
Y95442D02*
D03*
X82550Y97982D02*
D03*
Y95442D02*
D03*
X83058Y139446D02*
D03*
X85598Y136906D02*
D03*
Y139446D02*
D03*
X88138Y136906D02*
D03*
Y139446D02*
D03*
X90678Y136906D02*
D03*
Y139446D02*
D03*
X94615Y140716D02*
D03*
X90678Y144653D02*
D03*
X88138Y147193D02*
D03*
Y144653D02*
D03*
X85598Y147193D02*
D03*
Y144653D02*
D03*
X83058Y147193D02*
D03*
Y144653D02*
D03*
Y163576D02*
D03*
X85598Y161036D02*
D03*
Y163576D02*
D03*
X88138Y161036D02*
D03*
Y163576D02*
D03*
X90678Y161036D02*
D03*
Y163576D02*
D03*
X94615Y164846D02*
D03*
X90678Y168783D02*
D03*
X88138Y171323D02*
D03*
Y168783D02*
D03*
X85598Y171323D02*
D03*
Y168783D02*
D03*
X83058Y171323D02*
D03*
Y168783D02*
D03*
X79756Y127127D02*
D03*
X83439D02*
D03*
X83566Y123952D02*
D03*
X79756D02*
D03*
X86741Y114427D02*
D03*
X81407Y108712D02*
D03*
D35*
X90678Y195707D02*
D03*
X83058Y185420D02*
D03*
X82550Y39243D02*
D03*
X90170Y49530D02*
D03*
X82550Y63438D02*
D03*
X90170Y73725D02*
D03*
X82550Y87695D02*
D03*
X90170Y97982D02*
D03*
X83058Y136906D02*
D03*
X90678Y147193D02*
D03*
X83058Y161036D02*
D03*
X90678Y171323D02*
D03*
D36*
X49530Y123698D02*
D03*
X46990D02*
D03*
X44450D02*
D03*
X41910D02*
D03*
X39370D02*
D03*
X36830D02*
D03*
X34290D02*
D03*
X31750D02*
D03*
X29210D02*
D03*
X26670D02*
D03*
X24130D02*
D03*
X21590D02*
D03*
X49530Y108458D02*
D03*
X46990D02*
D03*
X44450D02*
D03*
X41910D02*
D03*
X39370D02*
D03*
X36830D02*
D03*
X34290D02*
D03*
X31750D02*
D03*
X29210D02*
D03*
X26670D02*
D03*
X24130D02*
D03*
X21590D02*
D03*
D37*
X96443Y113611D02*
D03*
Y109161D02*
D03*
D38*
X99568Y115474D02*
D03*
Y107299D02*
D03*
D39*
X81534Y125603D02*
D03*
D40*
Y120523D02*
D03*
D41*
X94615Y191770D02*
D03*
X94107Y45593D02*
D03*
X94107Y69788D02*
D03*
Y94045D02*
D03*
X94615Y143256D02*
D03*
Y167386D02*
D03*
D42*
X98806Y117221D02*
D03*
X36449Y38862D02*
D03*
X49657Y37592D02*
D03*
X26871Y50366D02*
D03*
X41275Y45974D02*
D03*
X40640Y37719D02*
D03*
X39116Y37719D02*
D03*
X72644Y54229D02*
D03*
X77089Y53975D02*
D03*
X73152Y46990D02*
D03*
X68453Y46609D02*
D03*
X72009Y42291D02*
D03*
X72771Y34798D02*
D03*
X33498Y49031D02*
D03*
Y50174D02*
D03*
X54483Y42164D02*
D03*
X56134Y39243D02*
D03*
X52578Y41656D02*
D03*
X56007Y43942D02*
D03*
X57785Y38989D02*
D03*
X76962Y40132D02*
D03*
X71374Y36322D02*
D03*
X57785Y114808D02*
D03*
X56134Y112649D02*
D03*
X62103Y111506D02*
D03*
X61976Y115062D02*
D03*
X90805Y112649D02*
D03*
X77470Y115443D02*
D03*
X77343Y112776D02*
D03*
X74803Y108966D02*
D03*
X75822Y111255D02*
D03*
X45720Y44323D02*
D03*
X41275Y70169D02*
D03*
X71374Y60517D02*
D03*
X76962Y64327D02*
D03*
X56007Y68137D02*
D03*
X57785Y63184D02*
D03*
X56134Y63438D02*
D03*
X54483Y66359D02*
D03*
X45720Y68518D02*
D03*
X52578Y65851D02*
D03*
X72771Y58993D02*
D03*
X72009Y66486D02*
D03*
X68453Y70804D02*
D03*
X73152Y71185D02*
D03*
X77089Y78170D02*
D03*
X72644Y78424D02*
D03*
X39116Y61914D02*
D03*
X40640Y61914D02*
D03*
X26871Y74561D02*
D03*
X49657Y61787D02*
D03*
X36449Y63057D02*
D03*
X41275Y94426D02*
D03*
X71374Y84774D02*
D03*
X76962Y88584D02*
D03*
X56007Y92394D02*
D03*
X57785Y87441D02*
D03*
X56134Y87695D02*
D03*
X54483Y90616D02*
D03*
X45720Y92775D02*
D03*
X33498Y97483D02*
D03*
Y98626D02*
D03*
X52578Y90108D02*
D03*
X72771Y83250D02*
D03*
X72009Y90743D02*
D03*
X68453Y95061D02*
D03*
X73152Y95442D02*
D03*
X77089Y102427D02*
D03*
X72644Y102681D02*
D03*
X39116Y86171D02*
D03*
X40640Y86171D02*
D03*
X26871Y98818D02*
D03*
X49657Y86044D02*
D03*
X36449Y87314D02*
D03*
X41783Y143637D02*
D03*
X71882Y133985D02*
D03*
X77470Y137795D02*
D03*
X56515Y141605D02*
D03*
X58293Y136652D02*
D03*
X56642Y136906D02*
D03*
X54991Y139827D02*
D03*
X46228Y141986D02*
D03*
X34006Y146694D02*
D03*
Y147837D02*
D03*
X53086Y139319D02*
D03*
X73279Y132461D02*
D03*
X72517Y139954D02*
D03*
X68961Y144272D02*
D03*
X73660Y144653D02*
D03*
X77597Y151638D02*
D03*
X73152Y151892D02*
D03*
X39624Y135382D02*
D03*
X41148Y135382D02*
D03*
X27379Y148029D02*
D03*
X50165Y135255D02*
D03*
X36957Y136525D02*
D03*
X41783Y167767D02*
D03*
X71882Y158115D02*
D03*
X77470Y161925D02*
D03*
X56515Y165735D02*
D03*
X58293Y160782D02*
D03*
X56642Y161036D02*
D03*
X54991Y163957D02*
D03*
X46228Y166116D02*
D03*
X34006Y170824D02*
D03*
Y171967D02*
D03*
X53086Y163449D02*
D03*
X73279Y156591D02*
D03*
X72517Y164084D02*
D03*
X68961Y168402D02*
D03*
X73660Y168783D02*
D03*
X77597Y175768D02*
D03*
X73152Y176022D02*
D03*
X39624Y159512D02*
D03*
X41148Y159512D02*
D03*
X27379Y172159D02*
D03*
X50165Y159385D02*
D03*
X36957Y160655D02*
D03*
X41783Y192151D02*
D03*
X71882Y182499D02*
D03*
X77470Y186309D02*
D03*
X56515Y190119D02*
D03*
X58293Y185166D02*
D03*
X56642Y185420D02*
D03*
X54991Y188341D02*
D03*
X46228Y190500D02*
D03*
X34006Y195208D02*
D03*
Y196351D02*
D03*
X53086Y187833D02*
D03*
X73279Y180975D02*
D03*
X72517Y188468D02*
D03*
X68961Y192786D02*
D03*
X73660Y193167D02*
D03*
X77597Y200152D02*
D03*
X73152Y200406D02*
D03*
X39624Y183896D02*
D03*
X41148Y183896D02*
D03*
X27379Y196543D02*
D03*
X50165Y183769D02*
D03*
X36957Y185039D02*
D03*
X33528Y73279D02*
D03*
Y74549D02*
D03*
X29591Y144272D02*
D03*
D43*
X65659Y117475D02*
D03*
X72390Y123317D02*
D03*
X86995Y124079D02*
D03*
X71120Y119507D02*
D03*
X68834Y118110D02*
D03*
X27051Y114554D02*
D03*
X36703Y128778D02*
D03*
X34417D02*
D03*
X32131Y135509D02*
D03*
X30861Y133223D02*
D03*
X32385Y128778D02*
D03*
X34163Y103505D02*
D03*
X30607Y38227D02*
D03*
X79629Y36576D02*
D03*
X67818Y40132D02*
D03*
X72263Y38100D02*
D03*
X75819Y33274D02*
D03*
X42737Y49087D02*
D03*
X40275Y49784D02*
D03*
X59436Y46482D02*
D03*
X53975Y48895D02*
D03*
X50673Y47752D02*
D03*
X54737Y46736D02*
D03*
X53001Y51266D02*
D03*
X53001Y75461D02*
D03*
X50673Y71947D02*
D03*
X53975Y73090D02*
D03*
X59436Y70677D02*
D03*
X40275Y73979D02*
D03*
X42737Y73282D02*
D03*
X54737Y70931D02*
D03*
X30607Y62422D02*
D03*
X67818Y64327D02*
D03*
X79629Y60771D02*
D03*
X72263Y62295D02*
D03*
X75819Y57469D02*
D03*
X53001Y99718D02*
D03*
X50673Y96204D02*
D03*
X53975Y97347D02*
D03*
X59436Y94934D02*
D03*
X40275Y98236D02*
D03*
X42737Y97539D02*
D03*
X54737Y95188D02*
D03*
X30607Y86679D02*
D03*
X67818Y88584D02*
D03*
X79629Y85028D02*
D03*
X72263Y86552D02*
D03*
X75819Y81726D02*
D03*
X53509Y148929D02*
D03*
X51181Y145415D02*
D03*
X54483Y146558D02*
D03*
X59944Y144145D02*
D03*
X40783Y147447D02*
D03*
X43245Y146750D02*
D03*
X55245Y144399D02*
D03*
X68326Y137795D02*
D03*
X80137Y134239D02*
D03*
X72771Y135763D02*
D03*
X76327Y130937D02*
D03*
X53509Y173059D02*
D03*
X51181Y169545D02*
D03*
X54483Y170688D02*
D03*
X59944Y168275D02*
D03*
X40783Y171577D02*
D03*
X43245Y170880D02*
D03*
X55245Y168529D02*
D03*
X31115Y160020D02*
D03*
X68326Y161925D02*
D03*
X80137Y158369D02*
D03*
X72771Y159893D02*
D03*
X76327Y155067D02*
D03*
X53509Y197443D02*
D03*
X51181Y193929D02*
D03*
X54483Y195072D02*
D03*
X59944Y192659D02*
D03*
X40783Y195961D02*
D03*
X43245Y195264D02*
D03*
X55245Y192913D02*
D03*
X31115Y184404D02*
D03*
X68326Y186309D02*
D03*
X80137Y182753D02*
D03*
X72771Y184277D02*
D03*
X76327Y179451D02*
D03*
X27051Y134747D02*
D03*
X34544Y136017D02*
D03*
M02*
