G04 Layer_Color=255*
%FSLAX43Y43*%
%MOMM*%
G71*
G01*
G75*
%ADD33C,1.524*%
%ADD34C,1.500*%
%ADD35R,1.500X1.500*%
%ADD36C,1.778*%
%ADD37O,1.250X1.050*%
%ADD38O,1.900X1.225*%
%ADD39C,1.850*%
%ADD40R,1.850X1.850*%
%ADD41R,1.500X1.500*%
D33*
X63627Y43815D02*
D03*
X49530Y41910D02*
D03*
X63627Y68010D02*
D03*
X49530Y66105D02*
D03*
X63627Y92267D02*
D03*
X49530Y90362D02*
D03*
X64135Y141478D02*
D03*
X50038Y139573D02*
D03*
X64135Y165608D02*
D03*
X50038Y163703D02*
D03*
X64135Y189992D02*
D03*
X50038Y188087D02*
D03*
X62992Y127000D02*
D03*
X58547D02*
D03*
X53975Y127127D02*
D03*
X62103Y198374D02*
D03*
X97282Y187325D02*
D03*
Y194056D02*
D03*
X22352Y198374D02*
D03*
X23495Y195707D02*
D03*
X24638Y192786D02*
D03*
X27432Y186436D02*
D03*
X25908Y189738D02*
D03*
X61595Y52197D02*
D03*
X96774Y41148D02*
D03*
Y47879D02*
D03*
X21844Y52197D02*
D03*
X22987Y49530D02*
D03*
X24130Y46609D02*
D03*
X26924Y40259D02*
D03*
X25400Y43561D02*
D03*
X61595Y76392D02*
D03*
X96774Y65343D02*
D03*
Y72074D02*
D03*
X21844Y76392D02*
D03*
X22987Y73725D02*
D03*
X24130Y70804D02*
D03*
X26924Y64454D02*
D03*
X25400Y67756D02*
D03*
X61595Y100649D02*
D03*
X96774Y89600D02*
D03*
Y96331D02*
D03*
X21844Y100649D02*
D03*
X22987Y97982D02*
D03*
X24130Y95061D02*
D03*
X26924Y88711D02*
D03*
X25400Y92013D02*
D03*
X62103Y149860D02*
D03*
X97282Y138811D02*
D03*
Y145542D02*
D03*
X22352Y149860D02*
D03*
X23495Y147193D02*
D03*
X24638Y144272D02*
D03*
X27432Y137922D02*
D03*
X25908Y141224D02*
D03*
X62103Y173990D02*
D03*
X97282Y162941D02*
D03*
Y169672D02*
D03*
X22352Y173990D02*
D03*
X23495Y171323D02*
D03*
X24638Y168402D02*
D03*
X27432Y162052D02*
D03*
X25908Y165354D02*
D03*
D34*
X83058Y193167D02*
D03*
Y195707D02*
D03*
X85598Y193167D02*
D03*
Y195707D02*
D03*
X88138Y193167D02*
D03*
Y195707D02*
D03*
X90678Y193167D02*
D03*
Y187960D02*
D03*
Y185420D02*
D03*
X88138Y187960D02*
D03*
Y185420D02*
D03*
X85598Y187960D02*
D03*
Y185420D02*
D03*
X83058Y187960D02*
D03*
X94615Y189230D02*
D03*
X82550Y41783D02*
D03*
X85090Y39243D02*
D03*
Y41783D02*
D03*
X87630Y39243D02*
D03*
Y41783D02*
D03*
X90170Y39243D02*
D03*
Y41783D02*
D03*
X94107Y43053D02*
D03*
X90170Y46990D02*
D03*
X87630Y49530D02*
D03*
Y46990D02*
D03*
X85090Y49530D02*
D03*
Y46990D02*
D03*
X82550Y49530D02*
D03*
Y46990D02*
D03*
X82550Y65978D02*
D03*
X85090Y63438D02*
D03*
Y65978D02*
D03*
X87630Y63438D02*
D03*
Y65978D02*
D03*
X90170Y63438D02*
D03*
Y65978D02*
D03*
X94107Y67248D02*
D03*
X90170Y71185D02*
D03*
X87630Y73725D02*
D03*
Y71185D02*
D03*
X85090Y73725D02*
D03*
Y71185D02*
D03*
X82550Y73725D02*
D03*
Y71185D02*
D03*
X82550Y90235D02*
D03*
X85090Y87695D02*
D03*
Y90235D02*
D03*
X87630Y87695D02*
D03*
Y90235D02*
D03*
X90170Y87695D02*
D03*
Y90235D02*
D03*
X94107Y91505D02*
D03*
X90170Y95442D02*
D03*
X87630Y97982D02*
D03*
Y95442D02*
D03*
X85090Y97982D02*
D03*
Y95442D02*
D03*
X82550Y97982D02*
D03*
Y95442D02*
D03*
X83058Y139446D02*
D03*
X85598Y136906D02*
D03*
Y139446D02*
D03*
X88138Y136906D02*
D03*
Y139446D02*
D03*
X90678Y136906D02*
D03*
Y139446D02*
D03*
X94615Y140716D02*
D03*
X90678Y144653D02*
D03*
X88138Y147193D02*
D03*
Y144653D02*
D03*
X85598Y147193D02*
D03*
Y144653D02*
D03*
X83058Y147193D02*
D03*
Y144653D02*
D03*
Y163576D02*
D03*
X85598Y161036D02*
D03*
Y163576D02*
D03*
X88138Y161036D02*
D03*
Y163576D02*
D03*
X90678Y161036D02*
D03*
Y163576D02*
D03*
X94615Y164846D02*
D03*
X90678Y168783D02*
D03*
X88138Y171323D02*
D03*
Y168783D02*
D03*
X85598Y171323D02*
D03*
Y168783D02*
D03*
X83058Y171323D02*
D03*
Y168783D02*
D03*
D35*
X90678Y195707D02*
D03*
X83058Y185420D02*
D03*
X82550Y39243D02*
D03*
X90170Y49530D02*
D03*
X82550Y63438D02*
D03*
X90170Y73725D02*
D03*
X82550Y87695D02*
D03*
X90170Y97982D02*
D03*
X83058Y136906D02*
D03*
X90678Y147193D02*
D03*
X83058Y161036D02*
D03*
X90678Y171323D02*
D03*
D36*
X49530Y123698D02*
D03*
X46990D02*
D03*
X44450D02*
D03*
X41910D02*
D03*
X39370D02*
D03*
X36830D02*
D03*
X34290D02*
D03*
X31750D02*
D03*
X29210D02*
D03*
X26670D02*
D03*
X24130D02*
D03*
X21590D02*
D03*
X49530Y108458D02*
D03*
X46990D02*
D03*
X44450D02*
D03*
X41910D02*
D03*
X39370D02*
D03*
X36830D02*
D03*
X34290D02*
D03*
X31750D02*
D03*
X29210D02*
D03*
X26670D02*
D03*
X24130D02*
D03*
X21590D02*
D03*
D37*
X96443Y113611D02*
D03*
Y109161D02*
D03*
D38*
X99568Y115474D02*
D03*
Y107299D02*
D03*
D39*
X81534Y125603D02*
D03*
D40*
Y120523D02*
D03*
D41*
X94615Y191770D02*
D03*
X94107Y45593D02*
D03*
X94107Y69788D02*
D03*
Y94045D02*
D03*
X94615Y143256D02*
D03*
Y167386D02*
D03*
M02*
