G04 Layer_Color=32768*
%FSLAX43Y43*%
%MOMM*%
G71*
G01*
G75*
%ADD98C,0.100*%
%ADD99C,0.050*%
D98*
X44450Y38006D02*
Y38956D01*
X43975Y38481D02*
X44925D01*
X43250Y37931D02*
X45650D01*
X43250Y39031D02*
X45650D01*
Y37931D02*
Y39031D01*
X43250Y37931D02*
Y39031D01*
X44450Y62263D02*
Y63213D01*
X43975Y62738D02*
X44925D01*
X43250Y62188D02*
X45650D01*
X43250Y63288D02*
X45650D01*
Y62188D02*
Y63288D01*
X43250Y62188D02*
Y63288D01*
X44450Y86520D02*
Y87470D01*
X43975Y86995D02*
X44925D01*
X43250Y86445D02*
X45650D01*
X43250Y87545D02*
X45650D01*
Y86445D02*
Y87545D01*
X43250Y86445D02*
Y87545D01*
X45085Y135542D02*
Y136492D01*
X44610Y136017D02*
X45560D01*
X43885Y135467D02*
X46285D01*
X43885Y136567D02*
X46285D01*
Y135467D02*
Y136567D01*
X43885Y135467D02*
Y136567D01*
X45085Y159799D02*
Y160749D01*
X44610Y160274D02*
X45560D01*
X43885Y159724D02*
X46285D01*
X43885Y160824D02*
X46285D01*
Y159724D02*
Y160824D01*
X43885Y159724D02*
Y160824D01*
X44958Y184183D02*
Y185133D01*
X44483Y184658D02*
X45433D01*
X43758Y184108D02*
X46158D01*
X43758Y185208D02*
X46158D01*
Y184108D02*
Y185208D01*
X43758Y184108D02*
Y185208D01*
X56396Y195072D02*
X57396D01*
X56896Y194572D02*
Y195572D01*
X55646Y192872D02*
Y197272D01*
X58146Y192872D02*
Y197272D01*
X55646Y192872D02*
X58146D01*
X55646Y197272D02*
X58146D01*
X56396Y171069D02*
X57396D01*
X56896Y170569D02*
Y171569D01*
X55646Y168869D02*
Y173269D01*
X58146Y168869D02*
Y173269D01*
X55646Y168869D02*
X58146D01*
X55646Y173269D02*
X58146D01*
X56396Y146685D02*
X57396D01*
X56896Y146185D02*
Y147185D01*
X55646Y144485D02*
Y148885D01*
X58146Y144485D02*
Y148885D01*
X55646Y144485D02*
X58146D01*
X55646Y148885D02*
X58146D01*
X55761Y97663D02*
X56761D01*
X56261Y97163D02*
Y98163D01*
X55011Y95463D02*
Y99863D01*
X57511Y95463D02*
Y99863D01*
X55011Y95463D02*
X57511D01*
X55011Y99863D02*
X57511D01*
X55888Y73279D02*
X56888D01*
X56388Y72779D02*
Y73779D01*
X55138Y71079D02*
Y75479D01*
X57638Y71079D02*
Y75479D01*
X55138Y71079D02*
X57638D01*
X55138Y75479D02*
X57638D01*
X55761Y49022D02*
X56761D01*
X56261Y48522D02*
Y49522D01*
X55011Y46822D02*
Y51222D01*
X57511Y46822D02*
Y51222D01*
X55011Y46822D02*
X57511D01*
X55011Y51222D02*
X57511D01*
X48641Y39251D02*
Y40251D01*
X48141Y39751D02*
X49141D01*
X46441Y41001D02*
X50841D01*
X46441Y38501D02*
X50841D01*
X46441D02*
Y41001D01*
X50841Y38501D02*
Y41001D01*
X76741Y110555D02*
X77691D01*
X77216Y110080D02*
Y111030D01*
X76666Y109355D02*
Y111755D01*
X77766Y109355D02*
Y111755D01*
X76666Y109355D02*
X77766D01*
X76666Y111755D02*
X77766D01*
X75315Y107569D02*
X75815D01*
X75565Y107319D02*
Y107819D01*
X80788Y114943D02*
Y115943D01*
X80288Y115443D02*
X81288D01*
X78588Y114193D02*
X82988D01*
X78588Y116693D02*
X82988D01*
Y114193D02*
Y116693D01*
X78588Y114193D02*
Y116693D01*
X85225Y110379D02*
X86225D01*
X85725Y109879D02*
Y110879D01*
X86975Y108179D02*
Y112579D01*
X84475Y108179D02*
Y112579D01*
X86975D01*
X84475Y108179D02*
X86975D01*
X88552Y112076D02*
X89502D01*
X89027Y111601D02*
Y112551D01*
X88477Y110876D02*
Y113276D01*
X89577Y110876D02*
Y113276D01*
X88477Y110876D02*
X89577D01*
X88477Y113276D02*
X89577D01*
X76454Y120273D02*
Y120773D01*
X76204Y120523D02*
X76704D01*
X75954Y124841D02*
X76954D01*
X76454Y124341D02*
Y125341D01*
X77704Y122641D02*
Y127041D01*
X75204Y122641D02*
Y127041D01*
X77704D01*
X75204Y122641D02*
X77704D01*
X68199Y116238D02*
Y117188D01*
X67724Y116713D02*
X68674D01*
X66999Y116163D02*
X69399D01*
X66999Y117263D02*
X69399D01*
Y116163D02*
Y117263D01*
X66999Y116163D02*
Y117263D01*
X59596Y120842D02*
X60546D01*
X60071Y120367D02*
Y121317D01*
X60621Y119642D02*
Y122042D01*
X59521Y119642D02*
Y122042D01*
X60621D01*
X59521Y119642D02*
X60621D01*
X59879Y114587D02*
Y115537D01*
X59404Y115062D02*
X60354D01*
X58679Y115612D02*
X61079D01*
X58679Y114512D02*
X61079D01*
X58679D02*
Y115612D01*
X61079Y114512D02*
Y115612D01*
X53602Y112665D02*
X54602D01*
X54102Y112165D02*
Y113165D01*
X52852Y110465D02*
Y114865D01*
X55352Y110465D02*
Y114865D01*
X52852Y110465D02*
X55352D01*
X52852Y114865D02*
X55352D01*
X89924Y52832D02*
X90924D01*
X90424Y52332D02*
Y53332D01*
X89174Y50632D02*
Y55032D01*
X91674Y50632D02*
Y55032D01*
X89174Y50632D02*
X91674D01*
X89174Y55032D02*
X91674D01*
X87257Y52959D02*
X88257D01*
X87757Y52459D02*
Y53459D01*
X86507Y50759D02*
Y55159D01*
X89007Y50759D02*
Y55159D01*
X86507Y50759D02*
X89007D01*
X86507Y55159D02*
X89007D01*
X65413Y35941D02*
X66413D01*
X65913Y35441D02*
Y36441D01*
X64663Y33741D02*
Y38141D01*
X67163Y33741D02*
Y38141D01*
X64663Y33741D02*
X67163D01*
X64663Y38141D02*
X67163D01*
X59293Y36011D02*
Y37011D01*
X58793Y36511D02*
X59793D01*
X57093Y35261D02*
X61493D01*
X57093Y37761D02*
X61493D01*
Y35261D02*
Y37761D01*
X57093Y35261D02*
Y37761D01*
X84590Y52959D02*
X85590D01*
X85090Y52459D02*
Y53459D01*
X83840Y50759D02*
Y55159D01*
X86340Y50759D02*
Y55159D01*
X83840Y50759D02*
X86340D01*
X83840Y55159D02*
X86340D01*
X32639Y42361D02*
Y43361D01*
X32139Y42861D02*
X33139D01*
X30439Y41611D02*
X34839D01*
X30439Y44111D02*
X34839D01*
Y41611D02*
Y44111D01*
X30439Y41611D02*
Y44111D01*
X30734Y39694D02*
Y40694D01*
X30234Y40194D02*
X31234D01*
X28534Y38944D02*
X32934D01*
X28534Y41444D02*
X32934D01*
Y38944D02*
Y41444D01*
X28534Y38944D02*
Y41444D01*
X82050Y53086D02*
X83050D01*
X82550Y52586D02*
Y53586D01*
X83800Y50886D02*
Y55286D01*
X81300Y50886D02*
Y55286D01*
X83800D01*
X81300Y50886D02*
X83800D01*
X52230Y43877D02*
X53180D01*
X52705Y43402D02*
Y44352D01*
X53255Y42677D02*
Y45077D01*
X52155Y42677D02*
Y45077D01*
X53255D01*
X52155Y42677D02*
X53255D01*
X53754Y43877D02*
X54704D01*
X54229Y43402D02*
Y44352D01*
X54779Y42677D02*
Y45077D01*
X53679Y42677D02*
Y45077D01*
X54779D01*
X53679Y42677D02*
X54779D01*
X52103Y39559D02*
X53053D01*
X52578Y39084D02*
Y40034D01*
X52028Y38359D02*
Y40759D01*
X53128Y38359D02*
Y40759D01*
X52028Y38359D02*
X53128D01*
X52028Y40759D02*
X53128D01*
X53754Y39559D02*
X54704D01*
X54229Y39084D02*
Y40034D01*
X53679Y38359D02*
Y40759D01*
X54779Y38359D02*
Y40759D01*
X53679Y38359D02*
X54779D01*
X53679Y40759D02*
X54779D01*
X37514Y49663D02*
X38464D01*
X37989Y49188D02*
Y50138D01*
X38539Y48463D02*
Y50863D01*
X37439Y48463D02*
Y50863D01*
X38539D01*
X37439Y48463D02*
X38539D01*
X35990Y49663D02*
X36940D01*
X36465Y49188D02*
Y50138D01*
X37015Y48463D02*
Y50863D01*
X35915Y48463D02*
Y50863D01*
X37015D01*
X35915Y48463D02*
X37015D01*
X34466Y49663D02*
X35416D01*
X34941Y49188D02*
Y50138D01*
X35491Y48463D02*
Y50863D01*
X34391Y48463D02*
Y50863D01*
X35491D01*
X34391Y48463D02*
X35491D01*
X70612Y34004D02*
Y34954D01*
X70137Y34479D02*
X71087D01*
X69412Y35029D02*
X71812D01*
X69412Y33929D02*
X71812D01*
X69412D02*
Y35029D01*
X71812Y33929D02*
Y35029D01*
X70993Y46196D02*
Y47146D01*
X70518Y46671D02*
X71468D01*
X69793Y47221D02*
X72193D01*
X69793Y46121D02*
X72193D01*
X69793D02*
Y47221D01*
X72193Y46121D02*
Y47221D01*
X74549Y53435D02*
Y54385D01*
X74074Y53910D02*
X75024D01*
X73349Y53360D02*
X75749D01*
X73349Y54460D02*
X75749D01*
Y53360D02*
Y54460D01*
X73349Y53360D02*
Y54460D01*
X39816Y38322D02*
Y39272D01*
X39341Y38797D02*
X40291D01*
X38616Y39347D02*
X41016D01*
X38616Y38247D02*
X41016D01*
X38616D02*
Y39347D01*
X41016Y38247D02*
Y39347D01*
X43499Y45434D02*
Y46384D01*
X43024Y45909D02*
X43974D01*
X42299Y45359D02*
X44699D01*
X42299Y46459D02*
X44699D01*
Y45359D02*
Y46459D01*
X42299Y45359D02*
Y46459D01*
X27943Y49666D02*
X28893D01*
X28418Y49191D02*
Y50141D01*
X27868Y48466D02*
Y50866D01*
X28968Y48466D02*
Y50866D01*
X27868Y48466D02*
X28968D01*
X27868Y50866D02*
X28968D01*
X35941Y45053D02*
Y46003D01*
X35466Y45528D02*
X36416D01*
X34741Y46078D02*
X37141D01*
X34741Y44978D02*
X37141D01*
X34741D02*
Y46078D01*
X37141Y44978D02*
Y46078D01*
X35974Y41148D02*
X36924D01*
X36449Y40673D02*
Y41623D01*
X36999Y39948D02*
Y42348D01*
X35899Y39948D02*
Y42348D01*
X36999D01*
X35899Y39948D02*
X36999D01*
X89924Y77027D02*
X90924D01*
X90424Y76527D02*
Y77527D01*
X89174Y74827D02*
Y79227D01*
X91674Y74827D02*
Y79227D01*
X89174Y74827D02*
X91674D01*
X89174Y79227D02*
X91674D01*
X87257Y77154D02*
X88257D01*
X87757Y76654D02*
Y77654D01*
X86507Y74954D02*
Y79354D01*
X89007Y74954D02*
Y79354D01*
X86507Y74954D02*
X89007D01*
X86507Y79354D02*
X89007D01*
X65413Y60136D02*
X66413D01*
X65913Y59636D02*
Y60636D01*
X64663Y57936D02*
Y62336D01*
X67163Y57936D02*
Y62336D01*
X64663Y57936D02*
X67163D01*
X64663Y62336D02*
X67163D01*
X59293Y60206D02*
Y61206D01*
X58793Y60706D02*
X59793D01*
X57093Y59456D02*
X61493D01*
X57093Y61956D02*
X61493D01*
Y59456D02*
Y61956D01*
X57093Y59456D02*
Y61956D01*
X84590Y77154D02*
X85590D01*
X85090Y76654D02*
Y77654D01*
X83840Y74954D02*
Y79354D01*
X86340Y74954D02*
Y79354D01*
X83840Y74954D02*
X86340D01*
X83840Y79354D02*
X86340D01*
X48641Y63508D02*
Y64508D01*
X48141Y64008D02*
X49141D01*
X46441Y65258D02*
X50841D01*
X46441Y62758D02*
X50841D01*
X46441D02*
Y65258D01*
X50841Y62758D02*
Y65258D01*
X32639Y66556D02*
Y67556D01*
X32139Y67056D02*
X33139D01*
X30439Y65806D02*
X34839D01*
X30439Y68306D02*
X34839D01*
Y65806D02*
Y68306D01*
X30439Y65806D02*
Y68306D01*
X30734Y63889D02*
Y64889D01*
X30234Y64389D02*
X31234D01*
X28534Y63139D02*
X32934D01*
X28534Y65639D02*
X32934D01*
Y63139D02*
Y65639D01*
X28534Y63139D02*
Y65639D01*
X82050Y77281D02*
X83050D01*
X82550Y76781D02*
Y77781D01*
X83800Y75081D02*
Y79481D01*
X81300Y75081D02*
Y79481D01*
X83800D01*
X81300Y75081D02*
X83800D01*
X52230Y68072D02*
X53180D01*
X52705Y67597D02*
Y68547D01*
X53255Y66872D02*
Y69272D01*
X52155Y66872D02*
Y69272D01*
X53255D01*
X52155Y66872D02*
X53255D01*
X53754Y68072D02*
X54704D01*
X54229Y67597D02*
Y68547D01*
X54779Y66872D02*
Y69272D01*
X53679Y66872D02*
Y69272D01*
X54779D01*
X53679Y66872D02*
X54779D01*
X52103Y63754D02*
X53053D01*
X52578Y63279D02*
Y64229D01*
X52028Y62554D02*
Y64954D01*
X53128Y62554D02*
Y64954D01*
X52028Y62554D02*
X53128D01*
X52028Y64954D02*
X53128D01*
X53754Y63754D02*
X54704D01*
X54229Y63279D02*
Y64229D01*
X53679Y62554D02*
Y64954D01*
X54779Y62554D02*
Y64954D01*
X53679Y62554D02*
X54779D01*
X53679Y64954D02*
X54779D01*
X37514Y73858D02*
X38464D01*
X37989Y73383D02*
Y74333D01*
X38539Y72658D02*
Y75058D01*
X37439Y72658D02*
Y75058D01*
X38539D01*
X37439Y72658D02*
X38539D01*
X35990Y73858D02*
X36940D01*
X36465Y73383D02*
Y74333D01*
X37015Y72658D02*
Y75058D01*
X35915Y72658D02*
Y75058D01*
X37015D01*
X35915Y72658D02*
X37015D01*
X34466Y73858D02*
X35416D01*
X34941Y73383D02*
Y74333D01*
X35491Y72658D02*
Y75058D01*
X34391Y72658D02*
Y75058D01*
X35491D01*
X34391Y72658D02*
X35491D01*
X70612Y58199D02*
Y59149D01*
X70137Y58674D02*
X71087D01*
X69412Y59224D02*
X71812D01*
X69412Y58124D02*
X71812D01*
X69412D02*
Y59224D01*
X71812Y58124D02*
Y59224D01*
X70993Y70391D02*
Y71341D01*
X70518Y70866D02*
X71468D01*
X69793Y71416D02*
X72193D01*
X69793Y70316D02*
X72193D01*
X69793D02*
Y71416D01*
X72193Y70316D02*
Y71416D01*
X74549Y77630D02*
Y78580D01*
X74074Y78105D02*
X75024D01*
X73349Y77555D02*
X75749D01*
X73349Y78655D02*
X75749D01*
Y77555D02*
Y78655D01*
X73349Y77555D02*
Y78655D01*
X39816Y62517D02*
Y63467D01*
X39341Y62992D02*
X40291D01*
X38616Y63542D02*
X41016D01*
X38616Y62442D02*
X41016D01*
X38616D02*
Y63542D01*
X41016Y62442D02*
Y63542D01*
X43499Y69629D02*
Y70579D01*
X43024Y70104D02*
X43974D01*
X42299Y69554D02*
X44699D01*
X42299Y70654D02*
X44699D01*
Y69554D02*
Y70654D01*
X42299Y69554D02*
Y70654D01*
X27943Y73861D02*
X28893D01*
X28418Y73386D02*
Y74336D01*
X27868Y72661D02*
Y75061D01*
X28968Y72661D02*
Y75061D01*
X27868Y72661D02*
X28968D01*
X27868Y75061D02*
X28968D01*
X35941Y69248D02*
Y70198D01*
X35466Y69723D02*
X36416D01*
X34741Y70273D02*
X37141D01*
X34741Y69173D02*
X37141D01*
X34741D02*
Y70273D01*
X37141Y69173D02*
Y70273D01*
X35974Y65343D02*
X36924D01*
X36449Y64868D02*
Y65818D01*
X36999Y64143D02*
Y66543D01*
X35899Y64143D02*
Y66543D01*
X36999D01*
X35899Y64143D02*
X36999D01*
X89924Y101284D02*
X90924D01*
X90424Y100784D02*
Y101784D01*
X89174Y99084D02*
Y103484D01*
X91674Y99084D02*
Y103484D01*
X89174Y99084D02*
X91674D01*
X89174Y103484D02*
X91674D01*
X87257Y101411D02*
X88257D01*
X87757Y100911D02*
Y101911D01*
X86507Y99211D02*
Y103611D01*
X89007Y99211D02*
Y103611D01*
X86507Y99211D02*
X89007D01*
X86507Y103611D02*
X89007D01*
X65413Y84393D02*
X66413D01*
X65913Y83893D02*
Y84893D01*
X64663Y82193D02*
Y86593D01*
X67163Y82193D02*
Y86593D01*
X64663Y82193D02*
X67163D01*
X64663Y86593D02*
X67163D01*
X59293Y84463D02*
Y85463D01*
X58793Y84963D02*
X59793D01*
X57093Y83713D02*
X61493D01*
X57093Y86213D02*
X61493D01*
Y83713D02*
Y86213D01*
X57093Y83713D02*
Y86213D01*
X84590Y101411D02*
X85590D01*
X85090Y100911D02*
Y101911D01*
X83840Y99211D02*
Y103611D01*
X86340Y99211D02*
Y103611D01*
X83840Y99211D02*
X86340D01*
X83840Y103611D02*
X86340D01*
X48641Y87765D02*
Y88765D01*
X48141Y88265D02*
X49141D01*
X46441Y89515D02*
X50841D01*
X46441Y87015D02*
X50841D01*
X46441D02*
Y89515D01*
X50841Y87015D02*
Y89515D01*
X32639Y90813D02*
Y91813D01*
X32139Y91313D02*
X33139D01*
X30439Y90063D02*
X34839D01*
X30439Y92563D02*
X34839D01*
Y90063D02*
Y92563D01*
X30439Y90063D02*
Y92563D01*
X30734Y88146D02*
Y89146D01*
X30234Y88646D02*
X31234D01*
X28534Y87396D02*
X32934D01*
X28534Y89896D02*
X32934D01*
Y87396D02*
Y89896D01*
X28534Y87396D02*
Y89896D01*
X82050Y101538D02*
X83050D01*
X82550Y101038D02*
Y102038D01*
X83800Y99338D02*
Y103738D01*
X81300Y99338D02*
Y103738D01*
X83800D01*
X81300Y99338D02*
X83800D01*
X52230Y92329D02*
X53180D01*
X52705Y91854D02*
Y92804D01*
X53255Y91129D02*
Y93529D01*
X52155Y91129D02*
Y93529D01*
X53255D01*
X52155Y91129D02*
X53255D01*
X53754Y92329D02*
X54704D01*
X54229Y91854D02*
Y92804D01*
X54779Y91129D02*
Y93529D01*
X53679Y91129D02*
Y93529D01*
X54779D01*
X53679Y91129D02*
X54779D01*
X52103Y88011D02*
X53053D01*
X52578Y87536D02*
Y88486D01*
X52028Y86811D02*
Y89211D01*
X53128Y86811D02*
Y89211D01*
X52028Y86811D02*
X53128D01*
X52028Y89211D02*
X53128D01*
X53754Y88011D02*
X54704D01*
X54229Y87536D02*
Y88486D01*
X53679Y86811D02*
Y89211D01*
X54779Y86811D02*
Y89211D01*
X53679Y86811D02*
X54779D01*
X53679Y89211D02*
X54779D01*
X37514Y98115D02*
X38464D01*
X37989Y97640D02*
Y98590D01*
X38539Y96915D02*
Y99315D01*
X37439Y96915D02*
Y99315D01*
X38539D01*
X37439Y96915D02*
X38539D01*
X35990Y98115D02*
X36940D01*
X36465Y97640D02*
Y98590D01*
X37015Y96915D02*
Y99315D01*
X35915Y96915D02*
Y99315D01*
X37015D01*
X35915Y96915D02*
X37015D01*
X34466Y98115D02*
X35416D01*
X34941Y97640D02*
Y98590D01*
X35491Y96915D02*
Y99315D01*
X34391Y96915D02*
Y99315D01*
X35491D01*
X34391Y96915D02*
X35491D01*
X70612Y82456D02*
Y83406D01*
X70137Y82931D02*
X71087D01*
X69412Y83481D02*
X71812D01*
X69412Y82381D02*
X71812D01*
X69412D02*
Y83481D01*
X71812Y82381D02*
Y83481D01*
X70993Y94648D02*
Y95598D01*
X70518Y95123D02*
X71468D01*
X69793Y95673D02*
X72193D01*
X69793Y94573D02*
X72193D01*
X69793D02*
Y95673D01*
X72193Y94573D02*
Y95673D01*
X74549Y101887D02*
Y102837D01*
X74074Y102362D02*
X75024D01*
X73349Y101812D02*
X75749D01*
X73349Y102912D02*
X75749D01*
Y101812D02*
Y102912D01*
X73349Y101812D02*
Y102912D01*
X39816Y86774D02*
Y87724D01*
X39341Y87249D02*
X40291D01*
X38616Y87799D02*
X41016D01*
X38616Y86699D02*
X41016D01*
X38616D02*
Y87799D01*
X41016Y86699D02*
Y87799D01*
X43499Y93886D02*
Y94836D01*
X43024Y94361D02*
X43974D01*
X42299Y93811D02*
X44699D01*
X42299Y94911D02*
X44699D01*
Y93811D02*
Y94911D01*
X42299Y93811D02*
Y94911D01*
X27943Y98118D02*
X28893D01*
X28418Y97643D02*
Y98593D01*
X27868Y96918D02*
Y99318D01*
X28968Y96918D02*
Y99318D01*
X27868Y96918D02*
X28968D01*
X27868Y99318D02*
X28968D01*
X35941Y93505D02*
Y94455D01*
X35466Y93980D02*
X36416D01*
X34741Y94530D02*
X37141D01*
X34741Y93430D02*
X37141D01*
X34741D02*
Y94530D01*
X37141Y93430D02*
Y94530D01*
X35974Y89600D02*
X36924D01*
X36449Y89125D02*
Y90075D01*
X36999Y88400D02*
Y90800D01*
X35899Y88400D02*
Y90800D01*
X36999D01*
X35899Y88400D02*
X36999D01*
X90432Y150495D02*
X91432D01*
X90932Y149995D02*
Y150995D01*
X89682Y148295D02*
Y152695D01*
X92182Y148295D02*
Y152695D01*
X89682Y148295D02*
X92182D01*
X89682Y152695D02*
X92182D01*
X87765Y150622D02*
X88765D01*
X88265Y150122D02*
Y151122D01*
X87015Y148422D02*
Y152822D01*
X89515Y148422D02*
Y152822D01*
X87015Y148422D02*
X89515D01*
X87015Y152822D02*
X89515D01*
X65921Y133604D02*
X66921D01*
X66421Y133104D02*
Y134104D01*
X65171Y131404D02*
Y135804D01*
X67671Y131404D02*
Y135804D01*
X65171Y131404D02*
X67671D01*
X65171Y135804D02*
X67671D01*
X59801Y133674D02*
Y134674D01*
X59301Y134174D02*
X60301D01*
X57601Y132924D02*
X62001D01*
X57601Y135424D02*
X62001D01*
Y132924D02*
Y135424D01*
X57601Y132924D02*
Y135424D01*
X85098Y150622D02*
X86098D01*
X85598Y150122D02*
Y151122D01*
X84348Y148422D02*
Y152822D01*
X86848Y148422D02*
Y152822D01*
X84348Y148422D02*
X86848D01*
X84348Y152822D02*
X86848D01*
X49022Y136914D02*
Y137914D01*
X48522Y137414D02*
X49522D01*
X46822Y138664D02*
X51222D01*
X46822Y136164D02*
X51222D01*
X46822D02*
Y138664D01*
X51222Y136164D02*
Y138664D01*
X33147Y140024D02*
Y141024D01*
X32647Y140524D02*
X33647D01*
X30947Y139274D02*
X35347D01*
X30947Y141774D02*
X35347D01*
Y139274D02*
Y141774D01*
X30947Y139274D02*
Y141774D01*
X31242Y137357D02*
Y138357D01*
X30742Y137857D02*
X31742D01*
X29042Y136607D02*
X33442D01*
X29042Y139107D02*
X33442D01*
Y136607D02*
Y139107D01*
X29042Y136607D02*
Y139107D01*
X82558Y150749D02*
X83558D01*
X83058Y150249D02*
Y151249D01*
X84308Y148549D02*
Y152949D01*
X81808Y148549D02*
Y152949D01*
X84308D01*
X81808Y148549D02*
X84308D01*
X52738Y141540D02*
X53688D01*
X53213Y141065D02*
Y142015D01*
X53763Y140340D02*
Y142740D01*
X52663Y140340D02*
Y142740D01*
X53763D01*
X52663Y140340D02*
X53763D01*
X54262Y141540D02*
X55212D01*
X54737Y141065D02*
Y142015D01*
X55287Y140340D02*
Y142740D01*
X54187Y140340D02*
Y142740D01*
X55287D01*
X54187Y140340D02*
X55287D01*
X52611Y137222D02*
X53561D01*
X53086Y136747D02*
Y137697D01*
X52536Y136022D02*
Y138422D01*
X53636Y136022D02*
Y138422D01*
X52536Y136022D02*
X53636D01*
X52536Y138422D02*
X53636D01*
X54262Y137222D02*
X55212D01*
X54737Y136747D02*
Y137697D01*
X54187Y136022D02*
Y138422D01*
X55287Y136022D02*
Y138422D01*
X54187Y136022D02*
X55287D01*
X54187Y138422D02*
X55287D01*
X38022Y147326D02*
X38972D01*
X38497Y146851D02*
Y147801D01*
X39047Y146126D02*
Y148526D01*
X37947Y146126D02*
Y148526D01*
X39047D01*
X37947Y146126D02*
X39047D01*
X36498Y147326D02*
X37448D01*
X36973Y146851D02*
Y147801D01*
X37523Y146126D02*
Y148526D01*
X36423Y146126D02*
Y148526D01*
X37523D01*
X36423Y146126D02*
X37523D01*
X34974Y147326D02*
X35924D01*
X35449Y146851D02*
Y147801D01*
X35999Y146126D02*
Y148526D01*
X34899Y146126D02*
Y148526D01*
X35999D01*
X34899Y146126D02*
X35999D01*
X71120Y131667D02*
Y132617D01*
X70645Y132142D02*
X71595D01*
X69920Y132692D02*
X72320D01*
X69920Y131592D02*
X72320D01*
X69920D02*
Y132692D01*
X72320Y131592D02*
Y132692D01*
X71501Y143859D02*
Y144809D01*
X71026Y144334D02*
X71976D01*
X70301Y144884D02*
X72701D01*
X70301Y143784D02*
X72701D01*
X70301D02*
Y144884D01*
X72701Y143784D02*
Y144884D01*
X75057Y151098D02*
Y152048D01*
X74582Y151573D02*
X75532D01*
X73857Y151023D02*
X76257D01*
X73857Y152123D02*
X76257D01*
Y151023D02*
Y152123D01*
X73857Y151023D02*
Y152123D01*
X40324Y135985D02*
Y136935D01*
X39849Y136460D02*
X40799D01*
X39124Y137010D02*
X41524D01*
X39124Y135910D02*
X41524D01*
X39124D02*
Y137010D01*
X41524Y135910D02*
Y137010D01*
X44007Y143097D02*
Y144047D01*
X43532Y143572D02*
X44482D01*
X42807Y143022D02*
X45207D01*
X42807Y144122D02*
X45207D01*
Y143022D02*
Y144122D01*
X42807Y143022D02*
Y144122D01*
X28451Y147329D02*
X29401D01*
X28926Y146854D02*
Y147804D01*
X28376Y146129D02*
Y148529D01*
X29476Y146129D02*
Y148529D01*
X28376Y146129D02*
X29476D01*
X28376Y148529D02*
X29476D01*
X36449Y142716D02*
Y143666D01*
X35974Y143191D02*
X36924D01*
X35249Y143741D02*
X37649D01*
X35249Y142641D02*
X37649D01*
X35249D02*
Y143741D01*
X37649Y142641D02*
Y143741D01*
X36482Y138811D02*
X37432D01*
X36957Y138336D02*
Y139286D01*
X37507Y137611D02*
Y140011D01*
X36407Y137611D02*
Y140011D01*
X37507D01*
X36407Y137611D02*
X37507D01*
X90432Y174625D02*
X91432D01*
X90932Y174125D02*
Y175125D01*
X89682Y172425D02*
Y176825D01*
X92182Y172425D02*
Y176825D01*
X89682Y172425D02*
X92182D01*
X89682Y176825D02*
X92182D01*
X87765Y174752D02*
X88765D01*
X88265Y174252D02*
Y175252D01*
X87015Y172552D02*
Y176952D01*
X89515Y172552D02*
Y176952D01*
X87015Y172552D02*
X89515D01*
X87015Y176952D02*
X89515D01*
X65921Y157734D02*
X66921D01*
X66421Y157234D02*
Y158234D01*
X65171Y155534D02*
Y159934D01*
X67671Y155534D02*
Y159934D01*
X65171Y155534D02*
X67671D01*
X65171Y159934D02*
X67671D01*
X59801Y157804D02*
Y158804D01*
X59301Y158304D02*
X60301D01*
X57601Y157054D02*
X62001D01*
X57601Y159554D02*
X62001D01*
Y157054D02*
Y159554D01*
X57601Y157054D02*
Y159554D01*
X85098Y174752D02*
X86098D01*
X85598Y174252D02*
Y175252D01*
X84348Y172552D02*
Y176952D01*
X86848Y172552D02*
Y176952D01*
X84348Y172552D02*
X86848D01*
X84348Y176952D02*
X86848D01*
X48895Y161171D02*
Y162171D01*
X48395Y161671D02*
X49395D01*
X46695Y162921D02*
X51095D01*
X46695Y160421D02*
X51095D01*
X46695D02*
Y162921D01*
X51095Y160421D02*
Y162921D01*
X33147Y164154D02*
Y165154D01*
X32647Y164654D02*
X33647D01*
X30947Y163404D02*
X35347D01*
X30947Y165904D02*
X35347D01*
Y163404D02*
Y165904D01*
X30947Y163404D02*
Y165904D01*
X31242Y161487D02*
Y162487D01*
X30742Y161987D02*
X31742D01*
X29042Y160737D02*
X33442D01*
X29042Y163237D02*
X33442D01*
Y160737D02*
Y163237D01*
X29042Y160737D02*
Y163237D01*
X82558Y174879D02*
X83558D01*
X83058Y174379D02*
Y175379D01*
X84308Y172679D02*
Y177079D01*
X81808Y172679D02*
Y177079D01*
X84308D01*
X81808Y172679D02*
X84308D01*
X52738Y165670D02*
X53688D01*
X53213Y165195D02*
Y166145D01*
X53763Y164470D02*
Y166870D01*
X52663Y164470D02*
Y166870D01*
X53763D01*
X52663Y164470D02*
X53763D01*
X54262Y165670D02*
X55212D01*
X54737Y165195D02*
Y166145D01*
X55287Y164470D02*
Y166870D01*
X54187Y164470D02*
Y166870D01*
X55287D01*
X54187Y164470D02*
X55287D01*
X52611Y161352D02*
X53561D01*
X53086Y160877D02*
Y161827D01*
X52536Y160152D02*
Y162552D01*
X53636Y160152D02*
Y162552D01*
X52536Y160152D02*
X53636D01*
X52536Y162552D02*
X53636D01*
X54262Y161352D02*
X55212D01*
X54737Y160877D02*
Y161827D01*
X54187Y160152D02*
Y162552D01*
X55287Y160152D02*
Y162552D01*
X54187Y160152D02*
X55287D01*
X54187Y162552D02*
X55287D01*
X38022Y171456D02*
X38972D01*
X38497Y170981D02*
Y171931D01*
X39047Y170256D02*
Y172656D01*
X37947Y170256D02*
Y172656D01*
X39047D01*
X37947Y170256D02*
X39047D01*
X36498Y171456D02*
X37448D01*
X36973Y170981D02*
Y171931D01*
X37523Y170256D02*
Y172656D01*
X36423Y170256D02*
Y172656D01*
X37523D01*
X36423Y170256D02*
X37523D01*
X34974Y171456D02*
X35924D01*
X35449Y170981D02*
Y171931D01*
X35999Y170256D02*
Y172656D01*
X34899Y170256D02*
Y172656D01*
X35999D01*
X34899Y170256D02*
X35999D01*
X71120Y155797D02*
Y156747D01*
X70645Y156272D02*
X71595D01*
X69920Y156822D02*
X72320D01*
X69920Y155722D02*
X72320D01*
X69920D02*
Y156822D01*
X72320Y155722D02*
Y156822D01*
X71501Y167989D02*
Y168939D01*
X71026Y168464D02*
X71976D01*
X70301Y169014D02*
X72701D01*
X70301Y167914D02*
X72701D01*
X70301D02*
Y169014D01*
X72701Y167914D02*
Y169014D01*
X75057Y175228D02*
Y176178D01*
X74582Y175703D02*
X75532D01*
X73857Y175153D02*
X76257D01*
X73857Y176253D02*
X76257D01*
Y175153D02*
Y176253D01*
X73857Y175153D02*
Y176253D01*
X40324Y160115D02*
Y161065D01*
X39849Y160590D02*
X40799D01*
X39124Y161140D02*
X41524D01*
X39124Y160040D02*
X41524D01*
X39124D02*
Y161140D01*
X41524Y160040D02*
Y161140D01*
X44007Y167227D02*
Y168177D01*
X43532Y167702D02*
X44482D01*
X42807Y167152D02*
X45207D01*
X42807Y168252D02*
X45207D01*
Y167152D02*
Y168252D01*
X42807Y167152D02*
Y168252D01*
X28451Y171459D02*
X29401D01*
X28926Y170984D02*
Y171934D01*
X28376Y170259D02*
Y172659D01*
X29476Y170259D02*
Y172659D01*
X28376Y170259D02*
X29476D01*
X28376Y172659D02*
X29476D01*
X36449Y166846D02*
Y167796D01*
X35974Y167321D02*
X36924D01*
X35249Y167871D02*
X37649D01*
X35249Y166771D02*
X37649D01*
X35249D02*
Y167871D01*
X37649Y166771D02*
Y167871D01*
X36482Y162941D02*
X37432D01*
X36957Y162466D02*
Y163416D01*
X37507Y161741D02*
Y164141D01*
X36407Y161741D02*
Y164141D01*
X37507D01*
X36407Y161741D02*
X37507D01*
X82558Y199263D02*
X83558D01*
X83058Y198763D02*
Y199763D01*
X84308Y197063D02*
Y201463D01*
X81808Y197063D02*
Y201463D01*
X84308D01*
X81808Y197063D02*
X84308D01*
X85098Y199136D02*
X86098D01*
X85598Y198636D02*
Y199636D01*
X84348Y196936D02*
Y201336D01*
X86848Y196936D02*
Y201336D01*
X84348Y196936D02*
X86848D01*
X84348Y201336D02*
X86848D01*
X87015D02*
X89515D01*
X87015Y196936D02*
X89515D01*
Y201336D01*
X87015Y196936D02*
Y201336D01*
X88265Y198636D02*
Y199636D01*
X87765Y199136D02*
X88765D01*
X89682Y201209D02*
X92182D01*
X89682Y196809D02*
X92182D01*
Y201209D01*
X89682Y196809D02*
Y201209D01*
X90932Y198509D02*
Y199509D01*
X90432Y199009D02*
X91432D01*
X71120Y180181D02*
Y181131D01*
X70645Y180656D02*
X71595D01*
X69920Y181206D02*
X72320D01*
X69920Y180106D02*
X72320D01*
X69920D02*
Y181206D01*
X72320Y180106D02*
Y181206D01*
X75057Y199612D02*
Y200562D01*
X74582Y200087D02*
X75532D01*
X73857Y199537D02*
X76257D01*
X73857Y200637D02*
X76257D01*
Y199537D02*
Y200637D01*
X73857Y199537D02*
Y200637D01*
X71501Y192373D02*
Y193323D01*
X71026Y192848D02*
X71976D01*
X70301Y193398D02*
X72701D01*
X70301Y192298D02*
X72701D01*
X70301D02*
Y193398D01*
X72701Y192298D02*
Y193398D01*
X65921Y182118D02*
X66921D01*
X66421Y181618D02*
Y182618D01*
X65171Y179918D02*
Y184318D01*
X67671Y179918D02*
Y184318D01*
X65171Y179918D02*
X67671D01*
X65171Y184318D02*
X67671D01*
X59801Y182188D02*
Y183188D01*
X59301Y182688D02*
X60301D01*
X57601Y181438D02*
X62001D01*
X57601Y183938D02*
X62001D01*
Y181438D02*
Y183938D01*
X57601Y181438D02*
Y183938D01*
X54262Y190054D02*
X55212D01*
X54737Y189579D02*
Y190529D01*
X55287Y188854D02*
Y191254D01*
X54187Y188854D02*
Y191254D01*
X55287D01*
X54187Y188854D02*
X55287D01*
X52738Y190054D02*
X53688D01*
X53213Y189579D02*
Y190529D01*
X53763Y188854D02*
Y191254D01*
X52663Y188854D02*
Y191254D01*
X53763D01*
X52663Y188854D02*
X53763D01*
X52611Y185736D02*
X53561D01*
X53086Y185261D02*
Y186211D01*
X52536Y184536D02*
Y186936D01*
X53636Y184536D02*
Y186936D01*
X52536Y184536D02*
X53636D01*
X52536Y186936D02*
X53636D01*
X54262Y185736D02*
X55212D01*
X54737Y185261D02*
Y186211D01*
X54187Y184536D02*
Y186936D01*
X55287Y184536D02*
Y186936D01*
X54187Y184536D02*
X55287D01*
X54187Y186936D02*
X55287D01*
X44007Y191611D02*
Y192561D01*
X43532Y192086D02*
X44482D01*
X42807Y191536D02*
X45207D01*
X42807Y192636D02*
X45207D01*
Y191536D02*
Y192636D01*
X42807Y191536D02*
Y192636D01*
X49276Y185555D02*
Y186555D01*
X48776Y186055D02*
X49776D01*
X47076Y187305D02*
X51476D01*
X47076Y184805D02*
X51476D01*
X47076D02*
Y187305D01*
X51476Y184805D02*
Y187305D01*
X40324Y184499D02*
Y185449D01*
X39849Y184974D02*
X40799D01*
X39124Y185524D02*
X41524D01*
X39124Y184424D02*
X41524D01*
X39124D02*
Y185524D01*
X41524Y184424D02*
Y185524D01*
X36482Y187325D02*
X37432D01*
X36957Y186850D02*
Y187800D01*
X37507Y186125D02*
Y188525D01*
X36407Y186125D02*
Y188525D01*
X37507D01*
X36407Y186125D02*
X37507D01*
X31242Y185871D02*
Y186871D01*
X30742Y186371D02*
X31742D01*
X29042Y185121D02*
X33442D01*
X29042Y187621D02*
X33442D01*
Y185121D02*
Y187621D01*
X29042Y185121D02*
Y187621D01*
X33147Y188538D02*
Y189538D01*
X32647Y189038D02*
X33647D01*
X30947Y187788D02*
X35347D01*
X30947Y190288D02*
X35347D01*
Y187788D02*
Y190288D01*
X30947Y187788D02*
Y190288D01*
X36449Y191230D02*
Y192180D01*
X35974Y191705D02*
X36924D01*
X35249Y192255D02*
X37649D01*
X35249Y191155D02*
X37649D01*
X35249D02*
Y192255D01*
X37649Y191155D02*
Y192255D01*
X38022Y195840D02*
X38972D01*
X38497Y195365D02*
Y196315D01*
X39047Y194640D02*
Y197040D01*
X37947Y194640D02*
Y197040D01*
X39047D01*
X37947Y194640D02*
X39047D01*
X36498Y195840D02*
X37448D01*
X36973Y195365D02*
Y196315D01*
X37523Y194640D02*
Y197040D01*
X36423Y194640D02*
Y197040D01*
X37523D01*
X36423Y194640D02*
X37523D01*
X34974Y195840D02*
X35924D01*
X35449Y195365D02*
Y196315D01*
X35999Y194640D02*
Y197040D01*
X34899Y194640D02*
Y197040D01*
X35999D01*
X34899Y194640D02*
X35999D01*
X28451Y195843D02*
X29401D01*
X28926Y195368D02*
Y196318D01*
X28376Y194643D02*
Y197043D01*
X29476Y194643D02*
Y197043D01*
X28376Y194643D02*
X29476D01*
X28376Y197043D02*
X29476D01*
X81681Y184064D02*
X84181D01*
X81681Y179664D02*
X84181D01*
Y184064D01*
X81681Y179664D02*
Y184064D01*
X82931Y181364D02*
Y182364D01*
X82431Y181864D02*
X83431D01*
X84221Y179537D02*
X86721D01*
X84221Y183937D02*
X86721D01*
X84221Y179537D02*
Y183937D01*
X86721Y179537D02*
Y183937D01*
X85471Y181237D02*
Y182237D01*
X84971Y181737D02*
X85971D01*
X87015Y179537D02*
X89515D01*
X87015Y183937D02*
X89515D01*
X87015Y179537D02*
Y183937D01*
X89515Y179537D02*
Y183937D01*
X88265Y181237D02*
Y182237D01*
X87765Y181737D02*
X88765D01*
X89682Y179664D02*
X92182D01*
X89682Y184064D02*
X92182D01*
X89682Y179664D02*
Y184064D01*
X92182Y179664D02*
Y184064D01*
X90932Y181364D02*
Y182364D01*
X90432Y181864D02*
X91432D01*
X58682Y112522D02*
X59682D01*
X59182Y112022D02*
Y113022D01*
X65794Y121412D02*
X66794D01*
X66294Y120912D02*
Y121912D01*
X97506Y111386D02*
X98506D01*
X98006Y110886D02*
Y111886D01*
X80956Y110940D02*
Y111940D01*
X80456Y111440D02*
X81456D01*
X93988Y123063D02*
X94988D01*
X94488Y122563D02*
Y123563D01*
X72271Y184466D02*
X73271D01*
X72771Y183966D02*
Y184966D01*
X41664Y188611D02*
X42664D01*
X42164Y188111D02*
Y189111D01*
X72779Y196404D02*
X73779D01*
X73279Y195904D02*
Y196904D01*
X31393Y195902D02*
X32393D01*
X31893Y195402D02*
Y196402D01*
X79121Y180348D02*
Y181348D01*
X78621Y180848D02*
X79621D01*
X76921Y179598D02*
X81321D01*
X76921Y182098D02*
X81321D01*
Y179598D02*
Y182098D01*
X76921Y179598D02*
Y182098D01*
X65151Y185617D02*
Y186617D01*
X64651Y186117D02*
X65651D01*
X62951Y184867D02*
X67351D01*
X62951Y187367D02*
X67351D01*
Y184867D02*
Y187367D01*
X62951Y184867D02*
Y187367D01*
X65897Y194380D02*
Y195380D01*
X65397Y194880D02*
X66397D01*
X63697Y196130D02*
X68097D01*
X63697Y193630D02*
X68097D01*
X63697D02*
Y196130D01*
X68097Y193630D02*
Y196130D01*
X59960Y194380D02*
Y195380D01*
X59460Y194880D02*
X60460D01*
X57760Y193630D02*
X62160D01*
X57760Y196130D02*
X62160D01*
Y193630D02*
Y196130D01*
X57760Y193630D02*
Y196130D01*
X78367Y193356D02*
X79367D01*
X78867Y192856D02*
Y193856D01*
X80117Y191156D02*
Y195556D01*
X77617Y191156D02*
Y195556D01*
X80117D01*
X77617Y191156D02*
X80117D01*
X66024Y197809D02*
Y198809D01*
X65524Y198309D02*
X66524D01*
X63824Y197059D02*
X68224D01*
X63824Y199559D02*
X68224D01*
Y197059D02*
Y199559D01*
X63824Y197059D02*
Y199559D01*
X74549Y187674D02*
Y188624D01*
X74074Y188149D02*
X75024D01*
X73349Y187599D02*
X75749D01*
X73349Y188699D02*
X75749D01*
Y187599D02*
Y188699D01*
X73349Y187599D02*
Y188699D01*
X74041Y41497D02*
Y42447D01*
X73566Y41972D02*
X74516D01*
X72841Y41422D02*
X75241D01*
X72841Y42522D02*
X75241D01*
Y41422D02*
Y42522D01*
X72841Y41422D02*
Y42522D01*
X71763Y38289D02*
X72763D01*
X72263Y37789D02*
Y38789D01*
X89924Y35560D02*
X90924D01*
X90424Y35060D02*
Y36060D01*
X91674Y33360D02*
Y37760D01*
X89174Y33360D02*
Y37760D01*
X91674D01*
X89174Y33360D02*
X91674D01*
X87257Y35560D02*
X88257D01*
X87757Y35060D02*
Y36060D01*
X89007Y33360D02*
Y37760D01*
X86507Y33360D02*
Y37760D01*
X89007D01*
X86507Y33360D02*
X89007D01*
X84463Y35560D02*
X85463D01*
X84963Y35060D02*
Y36060D01*
X86213Y33360D02*
Y37760D01*
X83713Y33360D02*
Y37760D01*
X86213D01*
X83713Y33360D02*
X86213D01*
X81923Y35560D02*
X82923D01*
X82423Y35060D02*
Y36060D01*
X81173Y33360D02*
Y37760D01*
X83673Y33360D02*
Y37760D01*
X81173Y33360D02*
X83673D01*
X81173Y37760D02*
X83673D01*
X64643Y39440D02*
Y40440D01*
X64143Y39940D02*
X65143D01*
X62443Y38690D02*
X66843D01*
X62443Y41190D02*
X66843D01*
Y38690D02*
Y41190D01*
X62443Y38690D02*
Y41190D01*
X78613Y34171D02*
Y35171D01*
X78113Y34671D02*
X79113D01*
X76413Y33421D02*
X80813D01*
X76413Y35921D02*
X80813D01*
Y33421D02*
Y35921D01*
X76413Y33421D02*
Y35921D01*
X30885Y49725D02*
X31885D01*
X31385Y49225D02*
Y50225D01*
X59452Y48203D02*
Y49203D01*
X58952Y48703D02*
X59952D01*
X57252Y47453D02*
X61652D01*
X57252Y49953D02*
X61652D01*
Y47453D02*
Y49953D01*
X57252Y47453D02*
Y49953D01*
X41156Y42434D02*
X42156D01*
X41656Y41934D02*
Y42934D01*
X72271Y50227D02*
X73271D01*
X72771Y49727D02*
Y50727D01*
X65516Y51632D02*
Y52632D01*
X65016Y52132D02*
X66016D01*
X63316Y50882D02*
X67716D01*
X63316Y53382D02*
X67716D01*
Y50882D02*
Y53382D01*
X63316Y50882D02*
Y53382D01*
X77859Y47179D02*
X78859D01*
X78359Y46679D02*
Y47679D01*
X79609Y44979D02*
Y49379D01*
X77109Y44979D02*
Y49379D01*
X79609D01*
X77109Y44979D02*
X79609D01*
X74041Y65692D02*
Y66642D01*
X73566Y66167D02*
X74516D01*
X72841Y65617D02*
X75241D01*
X72841Y66717D02*
X75241D01*
Y65617D02*
Y66717D01*
X72841Y65617D02*
Y66717D01*
X71763Y62484D02*
X72763D01*
X72263Y61984D02*
Y62984D01*
X89924Y59755D02*
X90924D01*
X90424Y59255D02*
Y60255D01*
X91674Y57555D02*
Y61955D01*
X89174Y57555D02*
Y61955D01*
X91674D01*
X89174Y57555D02*
X91674D01*
X87257Y59755D02*
X88257D01*
X87757Y59255D02*
Y60255D01*
X89007Y57555D02*
Y61955D01*
X86507Y57555D02*
Y61955D01*
X89007D01*
X86507Y57555D02*
X89007D01*
X84463Y59755D02*
X85463D01*
X84963Y59255D02*
Y60255D01*
X86213Y57555D02*
Y61955D01*
X83713Y57555D02*
Y61955D01*
X86213D01*
X83713Y57555D02*
X86213D01*
X81923Y59755D02*
X82923D01*
X82423Y59255D02*
Y60255D01*
X81173Y57555D02*
Y61955D01*
X83673Y57555D02*
Y61955D01*
X81173Y57555D02*
X83673D01*
X81173Y61955D02*
X83673D01*
X64643Y63635D02*
Y64635D01*
X64143Y64135D02*
X65143D01*
X62443Y62885D02*
X66843D01*
X62443Y65385D02*
X66843D01*
Y62885D02*
Y65385D01*
X62443Y62885D02*
Y65385D01*
X78613Y58366D02*
Y59366D01*
X78113Y58866D02*
X79113D01*
X76413Y57616D02*
X80813D01*
X76413Y60116D02*
X80813D01*
Y57616D02*
Y60116D01*
X76413Y57616D02*
Y60116D01*
X30885Y73920D02*
X31885D01*
X31385Y73420D02*
Y74420D01*
X59452Y72398D02*
Y73398D01*
X58952Y72898D02*
X59952D01*
X57252Y71648D02*
X61652D01*
X57252Y74148D02*
X61652D01*
Y71648D02*
Y74148D01*
X57252Y71648D02*
Y74148D01*
X65389Y72398D02*
Y73398D01*
X64889Y72898D02*
X65889D01*
X63189Y74148D02*
X67589D01*
X63189Y71648D02*
X67589D01*
X63189D02*
Y74148D01*
X67589Y71648D02*
Y74148D01*
X41156Y66629D02*
X42156D01*
X41656Y66129D02*
Y67129D01*
X72271Y74422D02*
X73271D01*
X72771Y73922D02*
Y74922D01*
X65516Y75827D02*
Y76827D01*
X65016Y76327D02*
X66016D01*
X63316Y75077D02*
X67716D01*
X63316Y77577D02*
X67716D01*
Y75077D02*
Y77577D01*
X63316Y75077D02*
Y77577D01*
X77859Y71374D02*
X78859D01*
X78359Y70874D02*
Y71874D01*
X79609Y69174D02*
Y73574D01*
X77109Y69174D02*
Y73574D01*
X79609D01*
X77109Y69174D02*
X79609D01*
X74041Y89949D02*
Y90899D01*
X73566Y90424D02*
X74516D01*
X72841Y89874D02*
X75241D01*
X72841Y90974D02*
X75241D01*
Y89874D02*
Y90974D01*
X72841Y89874D02*
Y90974D01*
X71763Y86741D02*
X72763D01*
X72263Y86241D02*
Y87241D01*
X89924Y84012D02*
X90924D01*
X90424Y83512D02*
Y84512D01*
X91674Y81812D02*
Y86212D01*
X89174Y81812D02*
Y86212D01*
X91674D01*
X89174Y81812D02*
X91674D01*
X87257Y84012D02*
X88257D01*
X87757Y83512D02*
Y84512D01*
X89007Y81812D02*
Y86212D01*
X86507Y81812D02*
Y86212D01*
X89007D01*
X86507Y81812D02*
X89007D01*
X84463Y84012D02*
X85463D01*
X84963Y83512D02*
Y84512D01*
X86213Y81812D02*
Y86212D01*
X83713Y81812D02*
Y86212D01*
X86213D01*
X83713Y81812D02*
X86213D01*
X81923Y84012D02*
X82923D01*
X82423Y83512D02*
Y84512D01*
X81173Y81812D02*
Y86212D01*
X83673Y81812D02*
Y86212D01*
X81173Y81812D02*
X83673D01*
X81173Y86212D02*
X83673D01*
X64643Y87892D02*
Y88892D01*
X64143Y88392D02*
X65143D01*
X62443Y87142D02*
X66843D01*
X62443Y89642D02*
X66843D01*
Y87142D02*
Y89642D01*
X62443Y87142D02*
Y89642D01*
X78613Y82623D02*
Y83623D01*
X78113Y83123D02*
X79113D01*
X76413Y81873D02*
X80813D01*
X76413Y84373D02*
X80813D01*
Y81873D02*
Y84373D01*
X76413Y81873D02*
Y84373D01*
X30885Y98177D02*
X31885D01*
X31385Y97677D02*
Y98677D01*
X59452Y96655D02*
Y97655D01*
X58952Y97155D02*
X59952D01*
X57252Y95905D02*
X61652D01*
X57252Y98405D02*
X61652D01*
Y95905D02*
Y98405D01*
X57252Y95905D02*
Y98405D01*
X65389Y96655D02*
Y97655D01*
X64889Y97155D02*
X65889D01*
X63189Y98405D02*
X67589D01*
X63189Y95905D02*
X67589D01*
X63189D02*
Y98405D01*
X67589Y95905D02*
Y98405D01*
X41156Y90886D02*
X42156D01*
X41656Y90386D02*
Y91386D01*
X72271Y98679D02*
X73271D01*
X72771Y98179D02*
Y99179D01*
X65516Y100084D02*
Y101084D01*
X65016Y100584D02*
X66016D01*
X63316Y99334D02*
X67716D01*
X63316Y101834D02*
X67716D01*
Y99334D02*
Y101834D01*
X63316Y99334D02*
Y101834D01*
X77859Y95631D02*
X78859D01*
X78359Y95131D02*
Y96131D01*
X79609Y93431D02*
Y97831D01*
X77109Y93431D02*
Y97831D01*
X79609D01*
X77109Y93431D02*
X79609D01*
X74549Y139160D02*
Y140110D01*
X74074Y139635D02*
X75024D01*
X73349Y139085D02*
X75749D01*
X73349Y140185D02*
X75749D01*
Y139085D02*
Y140185D01*
X73349Y139085D02*
Y140185D01*
X72271Y135952D02*
X73271D01*
X72771Y135452D02*
Y136452D01*
X90432Y133223D02*
X91432D01*
X90932Y132723D02*
Y133723D01*
X92182Y131023D02*
Y135423D01*
X89682Y131023D02*
Y135423D01*
X92182D01*
X89682Y131023D02*
X92182D01*
X87765Y133223D02*
X88765D01*
X88265Y132723D02*
Y133723D01*
X89515Y131023D02*
Y135423D01*
X87015Y131023D02*
Y135423D01*
X89515D01*
X87015Y131023D02*
X89515D01*
X84971Y133223D02*
X85971D01*
X85471Y132723D02*
Y133723D01*
X86721Y131023D02*
Y135423D01*
X84221Y131023D02*
Y135423D01*
X86721D01*
X84221Y131023D02*
X86721D01*
X82431Y133223D02*
X83431D01*
X82931Y132723D02*
Y133723D01*
X81681Y131023D02*
Y135423D01*
X84181Y131023D02*
Y135423D01*
X81681Y131023D02*
X84181D01*
X81681Y135423D02*
X84181D01*
X65151Y137103D02*
Y138103D01*
X64651Y137603D02*
X65651D01*
X62951Y136353D02*
X67351D01*
X62951Y138853D02*
X67351D01*
Y136353D02*
Y138853D01*
X62951Y136353D02*
Y138853D01*
X79121Y131834D02*
Y132834D01*
X78621Y132334D02*
X79621D01*
X76921Y131084D02*
X81321D01*
X76921Y133584D02*
X81321D01*
Y131084D02*
Y133584D01*
X76921Y131084D02*
Y133584D01*
X31393Y147388D02*
X32393D01*
X31893Y146888D02*
Y147888D01*
X59960Y145866D02*
Y146866D01*
X59460Y146366D02*
X60460D01*
X57760Y145116D02*
X62160D01*
X57760Y147616D02*
X62160D01*
Y145116D02*
Y147616D01*
X57760Y145116D02*
Y147616D01*
X65897Y145866D02*
Y146866D01*
X65397Y146366D02*
X66397D01*
X63697Y147616D02*
X68097D01*
X63697Y145116D02*
X68097D01*
X63697D02*
Y147616D01*
X68097Y145116D02*
Y147616D01*
X41664Y140097D02*
X42664D01*
X42164Y139597D02*
Y140597D01*
X72779Y147890D02*
X73779D01*
X73279Y147390D02*
Y148390D01*
X66024Y149295D02*
Y150295D01*
X65524Y149795D02*
X66524D01*
X63824Y148545D02*
X68224D01*
X63824Y151045D02*
X68224D01*
Y148545D02*
Y151045D01*
X63824Y148545D02*
Y151045D01*
X78367Y144842D02*
X79367D01*
X78867Y144342D02*
Y145342D01*
X80117Y142642D02*
Y147042D01*
X77617Y142642D02*
Y147042D01*
X80117D01*
X77617Y142642D02*
X80117D01*
X74549Y163290D02*
Y164240D01*
X74074Y163765D02*
X75024D01*
X73349Y163215D02*
X75749D01*
X73349Y164315D02*
X75749D01*
Y163215D02*
Y164315D01*
X73349Y163215D02*
Y164315D01*
X72271Y160082D02*
X73271D01*
X72771Y159582D02*
Y160582D01*
X90432Y157353D02*
X91432D01*
X90932Y156853D02*
Y157853D01*
X92182Y155153D02*
Y159553D01*
X89682Y155153D02*
Y159553D01*
X92182D01*
X89682Y155153D02*
X92182D01*
X87765Y157353D02*
X88765D01*
X88265Y156853D02*
Y157853D01*
X89515Y155153D02*
Y159553D01*
X87015Y155153D02*
Y159553D01*
X89515D01*
X87015Y155153D02*
X89515D01*
X84971Y157353D02*
X85971D01*
X85471Y156853D02*
Y157853D01*
X86721Y155153D02*
Y159553D01*
X84221Y155153D02*
Y159553D01*
X86721D01*
X84221Y155153D02*
X86721D01*
X82431Y157353D02*
X83431D01*
X82931Y156853D02*
Y157853D01*
X81681Y155153D02*
Y159553D01*
X84181Y155153D02*
Y159553D01*
X81681Y155153D02*
X84181D01*
X81681Y159553D02*
X84181D01*
X65151Y161233D02*
Y162233D01*
X64651Y161733D02*
X65651D01*
X62951Y160483D02*
X67351D01*
X62951Y162983D02*
X67351D01*
Y160483D02*
Y162983D01*
X62951Y160483D02*
Y162983D01*
X79121Y155964D02*
Y156964D01*
X78621Y156464D02*
X79621D01*
X76921Y155214D02*
X81321D01*
X76921Y157714D02*
X81321D01*
Y155214D02*
Y157714D01*
X76921Y155214D02*
Y157714D01*
X31393Y171518D02*
X32393D01*
X31893Y171018D02*
Y172018D01*
X59960Y169996D02*
Y170996D01*
X59460Y170496D02*
X60460D01*
X57760Y169246D02*
X62160D01*
X57760Y171746D02*
X62160D01*
Y169246D02*
Y171746D01*
X57760Y169246D02*
Y171746D01*
X65897Y169996D02*
Y170996D01*
X65397Y170496D02*
X66397D01*
X63697Y171746D02*
X68097D01*
X63697Y169246D02*
X68097D01*
X63697D02*
Y171746D01*
X68097Y169246D02*
Y171746D01*
X41664Y164227D02*
X42664D01*
X42164Y163727D02*
Y164727D01*
X72779Y172020D02*
X73779D01*
X73279Y171520D02*
Y172520D01*
X66024Y173425D02*
Y174425D01*
X65524Y173925D02*
X66524D01*
X63824Y172675D02*
X68224D01*
X63824Y175175D02*
X68224D01*
Y172675D02*
Y175175D01*
X63824Y172675D02*
Y175175D01*
X78367Y168972D02*
X79367D01*
X78867Y168472D02*
Y169472D01*
X80117Y166772D02*
Y171172D01*
X77617Y166772D02*
Y171172D01*
X80117D01*
X77617Y166772D02*
X80117D01*
X23884Y161306D02*
X24884D01*
X24384Y160806D02*
Y161806D01*
X23134Y159106D02*
Y163506D01*
X25634Y159106D02*
Y163506D01*
X23134Y159106D02*
X25634D01*
X23134Y163506D02*
X25634D01*
X23884Y137176D02*
X24884D01*
X24384Y136676D02*
Y137676D01*
X23134Y134976D02*
Y139376D01*
X25634Y134976D02*
Y139376D01*
X23134Y134976D02*
X25634D01*
X23134Y139376D02*
X25634D01*
X23376Y87965D02*
X24376D01*
X23876Y87465D02*
Y88465D01*
X22626Y85765D02*
Y90165D01*
X25126Y85765D02*
Y90165D01*
X22626Y85765D02*
X25126D01*
X22626Y90165D02*
X25126D01*
X23376Y63708D02*
X24376D01*
X23876Y63208D02*
Y64208D01*
X22626Y61508D02*
Y65908D01*
X25126Y61508D02*
Y65908D01*
X22626Y61508D02*
X25126D01*
X22626Y65908D02*
X25126D01*
X23376Y39513D02*
X24376D01*
X23876Y39013D02*
Y40013D01*
X22626Y37313D02*
Y41713D01*
X25126Y37313D02*
Y41713D01*
X22626Y37313D02*
X25126D01*
X22626Y41713D02*
X25126D01*
X65389Y48203D02*
Y49203D01*
X64889Y48703D02*
X65889D01*
X63189Y49953D02*
X67589D01*
X63189Y47453D02*
X67589D01*
X63189D02*
Y49953D01*
X67589Y47453D02*
Y49953D01*
X48260Y72336D02*
Y73336D01*
X47760Y72836D02*
X48760D01*
X48260Y96593D02*
Y97593D01*
X47760Y97093D02*
X48760D01*
X48768Y145804D02*
Y146804D01*
X48268Y146304D02*
X49268D01*
X48768Y169934D02*
Y170934D01*
X48268Y170434D02*
X49268D01*
X48768Y194318D02*
Y195318D01*
X48268Y194818D02*
X49268D01*
X52705Y46261D02*
Y47211D01*
X52230Y46736D02*
X53180D01*
X51505Y47286D02*
X53905D01*
X51505Y46186D02*
X53905D01*
X51505D02*
Y47286D01*
X53905Y46186D02*
Y47286D01*
X43975Y48387D02*
X44925D01*
X44450Y47912D02*
Y48862D01*
X45000Y47187D02*
Y49587D01*
X43900Y47187D02*
Y49587D01*
X45000D01*
X43900Y47187D02*
X45000D01*
X48260Y48141D02*
Y49141D01*
X47760Y48641D02*
X48760D01*
X42799Y50808D02*
Y51808D01*
X42299Y51308D02*
X43299D01*
X40599Y52558D02*
X44999D01*
X40599Y50058D02*
X44999D01*
X40599D02*
Y52558D01*
X44999Y50058D02*
Y52558D01*
X56388Y51824D02*
Y52824D01*
X55888Y52324D02*
X56888D01*
X54188Y53574D02*
X58588D01*
X54188Y51074D02*
X58588D01*
X54188D02*
Y53574D01*
X58588Y51074D02*
Y53574D01*
X48514Y43569D02*
Y44569D01*
X48014Y44069D02*
X49014D01*
X46314Y42819D02*
X50714D01*
X46314Y45319D02*
X50714D01*
Y42819D02*
Y45319D01*
X46314Y42819D02*
Y45319D01*
X48514Y67764D02*
Y68764D01*
X48014Y68264D02*
X49014D01*
X46314Y67014D02*
X50714D01*
X46314Y69514D02*
X50714D01*
Y67014D02*
Y69514D01*
X46314Y67014D02*
Y69514D01*
X42799Y75003D02*
Y76003D01*
X42299Y75503D02*
X43299D01*
X40599Y76753D02*
X44999D01*
X40599Y74253D02*
X44999D01*
X40599D02*
Y76753D01*
X44999Y74253D02*
Y76753D01*
X56515Y75954D02*
Y76954D01*
X56015Y76454D02*
X57015D01*
X54315Y77704D02*
X58715D01*
X54315Y75204D02*
X58715D01*
X54315D02*
Y77704D01*
X58715Y75204D02*
Y77704D01*
X43975Y72582D02*
X44925D01*
X44450Y72107D02*
Y73057D01*
X45000Y71382D02*
Y73782D01*
X43900Y71382D02*
Y73782D01*
X45000D01*
X43900Y71382D02*
X45000D01*
X52705Y70456D02*
Y71406D01*
X52230Y70931D02*
X53180D01*
X51505Y71481D02*
X53905D01*
X51505Y70381D02*
X53905D01*
X51505D02*
Y71481D01*
X53905Y70381D02*
Y71481D01*
X48514Y92021D02*
Y93021D01*
X48014Y92521D02*
X49014D01*
X46314Y91271D02*
X50714D01*
X46314Y93771D02*
X50714D01*
Y91271D02*
Y93771D01*
X46314Y91271D02*
Y93771D01*
X42799Y99260D02*
Y100260D01*
X42299Y99760D02*
X43299D01*
X40599Y101010D02*
X44999D01*
X40599Y98510D02*
X44999D01*
X40599D02*
Y101010D01*
X44999Y98510D02*
Y101010D01*
X56515Y100211D02*
Y101211D01*
X56015Y100711D02*
X57015D01*
X54315Y101961D02*
X58715D01*
X54315Y99461D02*
X58715D01*
X54315D02*
Y101961D01*
X58715Y99461D02*
Y101961D01*
X43975Y96839D02*
X44925D01*
X44450Y96364D02*
Y97314D01*
X45000Y95639D02*
Y98039D01*
X43900Y95639D02*
Y98039D01*
X45000D01*
X43900Y95639D02*
X45000D01*
X52705Y94713D02*
Y95663D01*
X52230Y95188D02*
X53180D01*
X51505Y95738D02*
X53905D01*
X51505Y94638D02*
X53905D01*
X51505D02*
Y95738D01*
X53905Y94638D02*
Y95738D01*
X49022Y141232D02*
Y142232D01*
X48522Y141732D02*
X49522D01*
X46822Y140482D02*
X51222D01*
X46822Y142982D02*
X51222D01*
Y140482D02*
Y142982D01*
X46822Y140482D02*
Y142982D01*
X43307Y148471D02*
Y149471D01*
X42807Y148971D02*
X43807D01*
X41107Y150221D02*
X45507D01*
X41107Y147721D02*
X45507D01*
X41107D02*
Y150221D01*
X45507Y147721D02*
Y150221D01*
X57023Y149487D02*
Y150487D01*
X56523Y149987D02*
X57523D01*
X54823Y151237D02*
X59223D01*
X54823Y148737D02*
X59223D01*
X54823D02*
Y151237D01*
X59223Y148737D02*
Y151237D01*
X44483Y146050D02*
X45433D01*
X44958Y145575D02*
Y146525D01*
X45508Y144850D02*
Y147250D01*
X44408Y144850D02*
Y147250D01*
X45508D01*
X44408Y144850D02*
X45508D01*
X53213Y143924D02*
Y144874D01*
X52738Y144399D02*
X53688D01*
X52013Y144949D02*
X54413D01*
X52013Y143849D02*
X54413D01*
X52013D02*
Y144949D01*
X54413Y143849D02*
Y144949D01*
X49022Y165362D02*
Y166362D01*
X48522Y165862D02*
X49522D01*
X46822Y164612D02*
X51222D01*
X46822Y167112D02*
X51222D01*
Y164612D02*
Y167112D01*
X46822Y164612D02*
Y167112D01*
X43307Y172601D02*
Y173601D01*
X42807Y173101D02*
X43807D01*
X41107Y174351D02*
X45507D01*
X41107Y171851D02*
X45507D01*
X41107D02*
Y174351D01*
X45507Y171851D02*
Y174351D01*
X57023Y173744D02*
Y174744D01*
X56523Y174244D02*
X57523D01*
X54823Y175494D02*
X59223D01*
X54823Y172994D02*
X59223D01*
X54823D02*
Y175494D01*
X59223Y172994D02*
Y175494D01*
X44483Y170180D02*
X45433D01*
X44958Y169705D02*
Y170655D01*
X45508Y168980D02*
Y171380D01*
X44408Y168980D02*
Y171380D01*
X45508D01*
X44408Y168980D02*
X45508D01*
X53213Y168054D02*
Y169004D01*
X52738Y168529D02*
X53688D01*
X52013Y169079D02*
X54413D01*
X52013Y167979D02*
X54413D01*
X52013D02*
Y169079D01*
X54413Y167979D02*
Y169079D01*
X49022Y189746D02*
Y190746D01*
X48522Y190246D02*
X49522D01*
X46822Y188996D02*
X51222D01*
X46822Y191496D02*
X51222D01*
Y188996D02*
Y191496D01*
X46822Y188996D02*
Y191496D01*
X43307Y196985D02*
Y197985D01*
X42807Y197485D02*
X43807D01*
X41107Y198735D02*
X45507D01*
X41107Y196235D02*
X45507D01*
X41107D02*
Y198735D01*
X45507Y196235D02*
Y198735D01*
X57023Y198001D02*
Y199001D01*
X56523Y198501D02*
X57523D01*
X54823Y199751D02*
X59223D01*
X54823Y197251D02*
X59223D01*
X54823D02*
Y199751D01*
X59223Y197251D02*
Y199751D01*
X44483Y194564D02*
X45433D01*
X44958Y194089D02*
Y195039D01*
X45508Y193364D02*
Y195764D01*
X44408Y193364D02*
Y195764D01*
X45508D01*
X44408Y193364D02*
X45508D01*
X53213Y192438D02*
Y193388D01*
X52738Y192913D02*
X53688D01*
X52013Y193463D02*
X54413D01*
X52013Y192363D02*
X54413D01*
X52013D02*
Y193463D01*
X54413Y192363D02*
Y193463D01*
X23884Y185690D02*
X24884D01*
X24384Y185190D02*
Y186190D01*
X23134Y183490D02*
Y187890D01*
X25634Y183490D02*
Y187890D01*
X23134Y183490D02*
X25634D01*
X23134Y187890D02*
X25634D01*
D99*
X74440Y108069D02*
X76690D01*
X74440Y107069D02*
Y108069D01*
Y107069D02*
X76690D01*
Y108069D01*
X75954Y119398D02*
Y121648D01*
Y119398D02*
X76954D01*
Y121648D01*
X75954D02*
X76954D01*
X57157Y110972D02*
Y114072D01*
X61207Y110972D02*
Y114072D01*
X57157D02*
X61207D01*
X57157Y110972D02*
X61207D01*
X62094Y118362D02*
Y124462D01*
X70494Y118362D02*
Y124462D01*
X62094D02*
X70494D01*
X62094Y118362D02*
X70494D01*
X95718Y106586D02*
Y116186D01*
X102292Y106586D02*
Y116186D01*
X95718Y106587D02*
X102292Y106586D01*
X95718Y116186D02*
X102292D01*
X78606Y109390D02*
X83306D01*
X78606Y113490D02*
X83306D01*
Y109390D02*
Y113490D01*
X78606Y109390D02*
Y113490D01*
X98588Y118863D02*
Y127263D01*
X89188D02*
X98588D01*
X89188Y118863D02*
Y127263D01*
Y118863D02*
X98588D01*
X69421Y181866D02*
Y187066D01*
X76121Y181866D02*
Y187066D01*
X69421D02*
X76121D01*
X69421Y181866D02*
X76121D01*
X38814Y186011D02*
Y191211D01*
X45514Y186011D02*
Y191211D01*
X38814D02*
X45514D01*
X38814Y186011D02*
X45514D01*
X69929Y193804D02*
Y199004D01*
X76629Y193804D02*
Y199004D01*
X69929D02*
X76629D01*
X69929Y193804D02*
X76629D01*
X29843Y192302D02*
Y199502D01*
X33943Y192302D02*
Y199502D01*
X29843Y192302D02*
X33943D01*
X29843Y199502D02*
X33943D01*
X68913Y35689D02*
Y40889D01*
X75613Y35689D02*
Y40889D01*
X68913D02*
X75613D01*
X68913Y35689D02*
X75613D01*
X29335Y46125D02*
Y53325D01*
X33435Y46125D02*
Y53325D01*
X29335Y46125D02*
X33435D01*
X29335Y53325D02*
X33435D01*
X38306Y39834D02*
Y45034D01*
X45006Y39834D02*
Y45034D01*
X38306D02*
X45006D01*
X38306Y39834D02*
X45006D01*
X69421Y47627D02*
Y52827D01*
X76121Y47627D02*
Y52827D01*
X69421D02*
X76121D01*
X69421Y47627D02*
X76121D01*
X68913Y59884D02*
Y65084D01*
X75613Y59884D02*
Y65084D01*
X68913D02*
X75613D01*
X68913Y59884D02*
X75613D01*
X29335Y70320D02*
Y77520D01*
X33435Y70320D02*
Y77520D01*
X29335Y70320D02*
X33435D01*
X29335Y77520D02*
X33435D01*
X38306Y64029D02*
Y69229D01*
X45006Y64029D02*
Y69229D01*
X38306D02*
X45006D01*
X38306Y64029D02*
X45006D01*
X69421Y71822D02*
Y77022D01*
X76121Y71822D02*
Y77022D01*
X69421D02*
X76121D01*
X69421Y71822D02*
X76121D01*
X68913Y84141D02*
Y89341D01*
X75613Y84141D02*
Y89341D01*
X68913D02*
X75613D01*
X68913Y84141D02*
X75613D01*
X29335Y94577D02*
Y101777D01*
X33435Y94577D02*
Y101777D01*
X29335Y94577D02*
X33435D01*
X29335Y101777D02*
X33435D01*
X38306Y88286D02*
Y93486D01*
X45006Y88286D02*
Y93486D01*
X38306D02*
X45006D01*
X38306Y88286D02*
X45006D01*
X69421Y96079D02*
Y101279D01*
X76121Y96079D02*
Y101279D01*
X69421D02*
X76121D01*
X69421Y96079D02*
X76121D01*
X69421Y133352D02*
Y138552D01*
X76121Y133352D02*
Y138552D01*
X69421D02*
X76121D01*
X69421Y133352D02*
X76121D01*
X29843Y143788D02*
Y150988D01*
X33943Y143788D02*
Y150988D01*
X29843Y143788D02*
X33943D01*
X29843Y150988D02*
X33943D01*
X38814Y137497D02*
Y142697D01*
X45514Y137497D02*
Y142697D01*
X38814D02*
X45514D01*
X38814Y137497D02*
X45514D01*
X69929Y145290D02*
Y150490D01*
X76629Y145290D02*
Y150490D01*
X69929D02*
X76629D01*
X69929Y145290D02*
X76629D01*
X69421Y157482D02*
Y162682D01*
X76121Y157482D02*
Y162682D01*
X69421D02*
X76121D01*
X69421Y157482D02*
X76121D01*
X29843Y167918D02*
Y175118D01*
X33943Y167918D02*
Y175118D01*
X29843Y167918D02*
X33943D01*
X29843Y175118D02*
X33943D01*
X38814Y161627D02*
Y166827D01*
X45514Y161627D02*
Y166827D01*
X38814D02*
X45514D01*
X38814Y161627D02*
X45514D01*
X69929Y169420D02*
Y174620D01*
X76629Y169420D02*
Y174620D01*
X69929D02*
X76629D01*
X69929Y169420D02*
X76629D01*
X45660Y76186D02*
X50860D01*
X45660Y69486D02*
X50860D01*
Y76186D01*
X45660Y69486D02*
Y76186D01*
Y100443D02*
X50860D01*
X45660Y93743D02*
X50860D01*
Y100443D01*
X45660Y93743D02*
Y100443D01*
X46168Y149654D02*
X51368D01*
X46168Y142954D02*
X51368D01*
Y149654D01*
X46168Y142954D02*
Y149654D01*
Y173784D02*
X51368D01*
X46168Y167084D02*
X51368D01*
Y173784D01*
X46168Y167084D02*
Y173784D01*
Y198168D02*
X51368D01*
X46168Y191468D02*
X51368D01*
Y198168D01*
X46168Y191468D02*
Y198168D01*
X45660Y51991D02*
X50860D01*
X45660Y45291D02*
X50860D01*
Y51991D01*
X45660Y45291D02*
Y51991D01*
M02*
