G04 Layer_Physical_Order=4*
G04 Layer_Color=16711680*
%FSLAX43Y43*%
%MOMM*%
G71*
G01*
G75*
%ADD27C,0.500*%
%ADD28C,0.254*%
%ADD30C,0.381*%
%ADD33C,1.524*%
%ADD34C,1.500*%
%ADD35R,1.500X1.500*%
%ADD36C,1.778*%
%ADD37O,1.250X1.050*%
%ADD38O,1.900X1.225*%
%ADD39C,1.850*%
%ADD40R,1.850X1.850*%
%ADD41R,1.500X1.500*%
%ADD42C,0.700*%
%ADD43C,1.270*%
G36*
X100715Y115777D02*
X100588Y115752D01*
X100550Y115845D01*
X100431Y115999D01*
X100277Y116118D01*
X100098Y116192D01*
X99906Y116217D01*
X99230D01*
X99038Y116192D01*
X98859Y116118D01*
X98705Y115999D01*
X98586Y115845D01*
X98512Y115666D01*
X98487Y115474D01*
X98512Y115281D01*
X98586Y115102D01*
X98705Y114948D01*
X98859Y114829D01*
X99038Y114755D01*
X99230Y114730D01*
X99906D01*
X100098Y114755D01*
X100277Y114829D01*
X100431Y114948D01*
X100550Y115102D01*
X100590Y115199D01*
X100717Y115174D01*
X100740Y107543D01*
X100613Y107518D01*
X100550Y107670D01*
X100431Y107824D01*
X100277Y107943D01*
X100098Y108017D01*
X99906Y108042D01*
X99230D01*
X99038Y108017D01*
X98859Y107943D01*
X98705Y107824D01*
X98586Y107670D01*
X98512Y107491D01*
X98487Y107299D01*
X98512Y107106D01*
X98586Y106927D01*
X98705Y106773D01*
X98859Y106654D01*
X99038Y106580D01*
X99230Y106555D01*
X99906D01*
X100098Y106580D01*
X100277Y106654D01*
X100431Y106773D01*
X100550Y106927D01*
X100614Y107083D01*
X100715Y107082D01*
X100741Y107075D01*
X100965Y32416D01*
X100875Y32326D01*
X20574D01*
X20541Y32326D01*
X20447Y32365D01*
X20504Y108099D01*
X20631Y108124D01*
X20704Y107947D01*
X20867Y107735D01*
X21079Y107572D01*
X21325Y107470D01*
X21590Y107435D01*
X21855Y107470D01*
X22101Y107572D01*
X22313Y107735D01*
X22476Y107947D01*
X22578Y108193D01*
X22613Y108458D01*
X22578Y108723D01*
X22476Y108969D01*
X22313Y109181D01*
X22101Y109344D01*
X21855Y109446D01*
X21590Y109481D01*
X21325Y109446D01*
X21079Y109344D01*
X20867Y109181D01*
X20704Y108969D01*
X20631Y108793D01*
X20504Y108818D01*
X20515Y123311D01*
X20642Y123337D01*
X20704Y123187D01*
X20867Y122975D01*
X21079Y122812D01*
X21325Y122710D01*
X21590Y122675D01*
X21855Y122710D01*
X22101Y122812D01*
X22313Y122975D01*
X22476Y123187D01*
X22578Y123433D01*
X22613Y123698D01*
X22578Y123963D01*
X22476Y124209D01*
X22313Y124421D01*
X22101Y124584D01*
X21855Y124686D01*
X21590Y124721D01*
X21325Y124686D01*
X21079Y124584D01*
X20867Y124421D01*
X20704Y124209D01*
X20643Y124061D01*
X20516Y124086D01*
X20574Y202125D01*
X100457D01*
X100715Y115777D01*
D02*
G37*
%LPC*%
G36*
X82550Y91118D02*
X82322Y91087D01*
X82109Y90999D01*
X81926Y90859D01*
X81786Y90676D01*
X81698Y90463D01*
X81667Y90235D01*
X81698Y90007D01*
X81786Y89794D01*
X81926Y89611D01*
X82109Y89471D01*
X82322Y89383D01*
X82550Y89352D01*
X82778Y89383D01*
X82991Y89471D01*
X83174Y89611D01*
X83314Y89794D01*
X83402Y90007D01*
X83433Y90235D01*
X83402Y90463D01*
X83314Y90676D01*
X83174Y90859D01*
X82991Y90999D01*
X82778Y91087D01*
X82550Y91118D01*
D02*
G37*
G36*
X96774Y90495D02*
X96542Y90464D01*
X96327Y90375D01*
X96141Y90233D01*
X95999Y90047D01*
X95910Y89832D01*
X95879Y89600D01*
X95910Y89368D01*
X95999Y89153D01*
X96141Y88967D01*
X96327Y88825D01*
X96542Y88736D01*
X96774Y88705D01*
X97006Y88736D01*
X97221Y88825D01*
X97407Y88967D01*
X97549Y89153D01*
X97638Y89368D01*
X97669Y89600D01*
X97638Y89832D01*
X97549Y90047D01*
X97407Y90233D01*
X97221Y90375D01*
X97006Y90464D01*
X96774Y90495D01*
D02*
G37*
G36*
X56134Y88179D02*
X55949Y88142D01*
X55792Y88037D01*
X55687Y87880D01*
X55650Y87695D01*
X55687Y87510D01*
X55792Y87353D01*
X55949Y87248D01*
X56134Y87211D01*
X56319Y87248D01*
X56476Y87353D01*
X56581Y87510D01*
X56618Y87695D01*
X56581Y87880D01*
X56476Y88037D01*
X56319Y88142D01*
X56134Y88179D01*
D02*
G37*
G36*
X85090Y91118D02*
X84862Y91087D01*
X84649Y90999D01*
X84466Y90859D01*
X84326Y90676D01*
X84238Y90463D01*
X84207Y90235D01*
X84238Y90007D01*
X84326Y89794D01*
X84466Y89611D01*
X84649Y89471D01*
X84862Y89383D01*
X85090Y89352D01*
X85318Y89383D01*
X85531Y89471D01*
X85714Y89611D01*
X85854Y89794D01*
X85942Y90007D01*
X85973Y90235D01*
X85942Y90463D01*
X85854Y90676D01*
X85714Y90859D01*
X85531Y90999D01*
X85318Y91087D01*
X85090Y91118D01*
D02*
G37*
G36*
X49530Y91257D02*
X49298Y91226D01*
X49083Y91137D01*
X48897Y90995D01*
X48755Y90809D01*
X48666Y90594D01*
X48635Y90362D01*
X48666Y90130D01*
X48755Y89915D01*
X48897Y89729D01*
X49083Y89587D01*
X49298Y89498D01*
X49530Y89467D01*
X49762Y89498D01*
X49977Y89587D01*
X50163Y89729D01*
X50305Y89915D01*
X50394Y90130D01*
X50425Y90362D01*
X50394Y90594D01*
X50305Y90809D01*
X50163Y90995D01*
X49977Y91137D01*
X49762Y91226D01*
X49530Y91257D01*
D02*
G37*
G36*
X90170Y91118D02*
X89942Y91087D01*
X89729Y90999D01*
X89546Y90859D01*
X89406Y90676D01*
X89318Y90463D01*
X89287Y90235D01*
X89318Y90007D01*
X89406Y89794D01*
X89546Y89611D01*
X89729Y89471D01*
X89942Y89383D01*
X90170Y89352D01*
X90398Y89383D01*
X90611Y89471D01*
X90794Y89611D01*
X90934Y89794D01*
X91022Y90007D01*
X91053Y90235D01*
X91022Y90463D01*
X90934Y90676D01*
X90794Y90859D01*
X90611Y90999D01*
X90398Y91087D01*
X90170Y91118D01*
D02*
G37*
G36*
X87630D02*
X87402Y91087D01*
X87189Y90999D01*
X87006Y90859D01*
X86866Y90676D01*
X86778Y90463D01*
X86747Y90235D01*
X86778Y90007D01*
X86866Y89794D01*
X87006Y89611D01*
X87189Y89471D01*
X87402Y89383D01*
X87630Y89352D01*
X87858Y89383D01*
X88071Y89471D01*
X88254Y89611D01*
X88394Y89794D01*
X88482Y90007D01*
X88513Y90235D01*
X88482Y90463D01*
X88394Y90676D01*
X88254Y90859D01*
X88071Y90999D01*
X87858Y91087D01*
X87630Y91118D01*
D02*
G37*
G36*
X39243Y86762D02*
Y86298D01*
X39707D01*
X39685Y86407D01*
X39551Y86606D01*
X39352Y86740D01*
X39243Y86762D01*
D02*
G37*
G36*
X38989D02*
X38880Y86740D01*
X38681Y86606D01*
X38547Y86407D01*
X38525Y86298D01*
X38989D01*
Y86762D01*
D02*
G37*
G36*
X40640Y86655D02*
X40455Y86618D01*
X40298Y86513D01*
X40193Y86356D01*
X40156Y86171D01*
X40193Y85986D01*
X40298Y85829D01*
X40455Y85724D01*
X40640Y85687D01*
X40825Y85724D01*
X40982Y85829D01*
X41087Y85986D01*
X41124Y86171D01*
X41087Y86356D01*
X40982Y86513D01*
X40825Y86618D01*
X40640Y86655D01*
D02*
G37*
G36*
X85090Y88578D02*
X84862Y88547D01*
X84649Y88459D01*
X84466Y88319D01*
X84326Y88136D01*
X84238Y87923D01*
X84207Y87695D01*
X84238Y87467D01*
X84326Y87254D01*
X84466Y87071D01*
X84649Y86931D01*
X84862Y86843D01*
X85090Y86812D01*
X85318Y86843D01*
X85531Y86931D01*
X85714Y87071D01*
X85854Y87254D01*
X85942Y87467D01*
X85973Y87695D01*
X85942Y87923D01*
X85854Y88136D01*
X85714Y88319D01*
X85531Y88459D01*
X85318Y88547D01*
X85090Y88578D01*
D02*
G37*
G36*
X83425Y88570D02*
X81675D01*
Y86820D01*
X83425D01*
Y88570D01*
D02*
G37*
G36*
X90170Y88578D02*
X89942Y88547D01*
X89729Y88459D01*
X89546Y88319D01*
X89406Y88136D01*
X89318Y87923D01*
X89287Y87695D01*
X89318Y87467D01*
X89406Y87254D01*
X89546Y87071D01*
X89729Y86931D01*
X89942Y86843D01*
X90170Y86812D01*
X90398Y86843D01*
X90611Y86931D01*
X90794Y87071D01*
X90934Y87254D01*
X91022Y87467D01*
X91053Y87695D01*
X91022Y87923D01*
X90934Y88136D01*
X90794Y88319D01*
X90611Y88459D01*
X90398Y88547D01*
X90170Y88578D01*
D02*
G37*
G36*
X87630D02*
X87402Y88547D01*
X87189Y88459D01*
X87006Y88319D01*
X86866Y88136D01*
X86778Y87923D01*
X86747Y87695D01*
X86778Y87467D01*
X86866Y87254D01*
X87006Y87071D01*
X87189Y86931D01*
X87402Y86843D01*
X87630Y86812D01*
X87858Y86843D01*
X88071Y86931D01*
X88254Y87071D01*
X88394Y87254D01*
X88482Y87467D01*
X88513Y87695D01*
X88482Y87923D01*
X88394Y88136D01*
X88254Y88319D01*
X88071Y88459D01*
X87858Y88547D01*
X87630Y88578D01*
D02*
G37*
G36*
X56134Y92985D02*
Y92521D01*
X56598D01*
X56576Y92630D01*
X56442Y92829D01*
X56243Y92963D01*
X56134Y92985D01*
D02*
G37*
G36*
X55880D02*
X55771Y92963D01*
X55572Y92829D01*
X55438Y92630D01*
X55416Y92521D01*
X55880D01*
Y92985D01*
D02*
G37*
G36*
X45720Y93259D02*
X45535Y93222D01*
X45378Y93117D01*
X45273Y92960D01*
X45236Y92775D01*
X45273Y92590D01*
X45378Y92433D01*
X45535Y92328D01*
X45720Y92291D01*
X45905Y92328D01*
X46062Y92433D01*
X46167Y92590D01*
X46204Y92775D01*
X46167Y92960D01*
X46062Y93117D01*
X45905Y93222D01*
X45720Y93259D01*
D02*
G37*
G36*
X94982Y94920D02*
X93232D01*
Y93170D01*
X94982D01*
Y94920D01*
D02*
G37*
G36*
X54737Y95955D02*
X54539Y95928D01*
X54354Y95852D01*
X54195Y95730D01*
X54073Y95571D01*
X53997Y95386D01*
X53970Y95188D01*
X53997Y94990D01*
X54073Y94805D01*
X54195Y94646D01*
X54354Y94524D01*
X54539Y94448D01*
X54737Y94421D01*
X54935Y94448D01*
X55120Y94524D01*
X55279Y94646D01*
X55401Y94805D01*
X55477Y94990D01*
X55504Y95188D01*
X55477Y95386D01*
X55401Y95571D01*
X55279Y95730D01*
X55120Y95852D01*
X54935Y95928D01*
X54737Y95955D01*
D02*
G37*
G36*
X53975Y98114D02*
X53777Y98087D01*
X53592Y98011D01*
X53433Y97889D01*
X53311Y97730D01*
X53235Y97545D01*
X53208Y97347D01*
X53235Y97149D01*
X53311Y96964D01*
X53433Y96805D01*
X53592Y96683D01*
X53777Y96607D01*
X53975Y96580D01*
X54173Y96607D01*
X54358Y96683D01*
X54517Y96805D01*
X54639Y96964D01*
X54664Y97025D01*
X56890D01*
X58721Y95194D01*
X58696Y95132D01*
X58669Y94934D01*
X58696Y94736D01*
X58772Y94551D01*
X58894Y94392D01*
X59053Y94270D01*
X59238Y94194D01*
X59436Y94167D01*
X59634Y94194D01*
X59819Y94270D01*
X59978Y94392D01*
X60100Y94551D01*
X60176Y94736D01*
X60203Y94934D01*
X60176Y95132D01*
X60100Y95317D01*
X59978Y95476D01*
X59819Y95598D01*
X59634Y95674D01*
X59436Y95701D01*
X59238Y95674D01*
X59176Y95649D01*
X57250Y97574D01*
X57146Y97644D01*
X57023Y97669D01*
X54664D01*
X54639Y97730D01*
X54517Y97889D01*
X54358Y98011D01*
X54173Y98087D01*
X53975Y98114D01*
D02*
G37*
G36*
X41275Y94910D02*
X41090Y94873D01*
X40933Y94768D01*
X40828Y94611D01*
X40791Y94426D01*
X40828Y94241D01*
X40933Y94084D01*
X41090Y93979D01*
X41275Y93942D01*
X41460Y93979D01*
X41617Y94084D01*
X41722Y94241D01*
X41759Y94426D01*
X41722Y94611D01*
X41617Y94768D01*
X41460Y94873D01*
X41275Y94910D01*
D02*
G37*
G36*
X72009Y91227D02*
X71824Y91190D01*
X71667Y91085D01*
X71562Y90928D01*
X71525Y90743D01*
X71562Y90558D01*
X71667Y90401D01*
X71824Y90296D01*
X72009Y90259D01*
X72194Y90296D01*
X72351Y90401D01*
X72456Y90558D01*
X72493Y90743D01*
X72456Y90928D01*
X72351Y91085D01*
X72194Y91190D01*
X72009Y91227D01*
D02*
G37*
G36*
X54483Y91100D02*
X54298Y91063D01*
X54141Y90958D01*
X54036Y90801D01*
X53999Y90616D01*
X54036Y90431D01*
X54141Y90274D01*
X54298Y90169D01*
X54483Y90132D01*
X54668Y90169D01*
X54825Y90274D01*
X54930Y90431D01*
X54967Y90616D01*
X54930Y90801D01*
X54825Y90958D01*
X54668Y91063D01*
X54483Y91100D01*
D02*
G37*
G36*
X52578Y90592D02*
X52393Y90555D01*
X52236Y90450D01*
X52131Y90293D01*
X52094Y90108D01*
X52131Y89923D01*
X52236Y89766D01*
X52393Y89661D01*
X52578Y89624D01*
X52763Y89661D01*
X52920Y89766D01*
X53025Y89923D01*
X53062Y90108D01*
X53025Y90293D01*
X52920Y90450D01*
X52763Y90555D01*
X52578Y90592D01*
D02*
G37*
G36*
X94107Y92388D02*
X93879Y92357D01*
X93666Y92269D01*
X93483Y92129D01*
X93343Y91946D01*
X93255Y91733D01*
X93224Y91505D01*
X93255Y91277D01*
X93343Y91064D01*
X93483Y90881D01*
X93666Y90741D01*
X93879Y90653D01*
X94107Y90622D01*
X94335Y90653D01*
X94548Y90741D01*
X94731Y90881D01*
X94871Y91064D01*
X94959Y91277D01*
X94990Y91505D01*
X94959Y91733D01*
X94871Y91946D01*
X94731Y92129D01*
X94548Y92269D01*
X94335Y92357D01*
X94107Y92388D01*
D02*
G37*
G36*
X56598Y92267D02*
X56134D01*
Y91803D01*
X56243Y91825D01*
X56442Y91959D01*
X56576Y92158D01*
X56598Y92267D01*
D02*
G37*
G36*
X55880D02*
X55416D01*
X55438Y92158D01*
X55572Y91959D01*
X55771Y91825D01*
X55880Y91803D01*
Y92267D01*
D02*
G37*
G36*
X63627Y93162D02*
X63395Y93131D01*
X63180Y93042D01*
X62994Y92900D01*
X62852Y92714D01*
X62763Y92499D01*
X62732Y92267D01*
X62763Y92035D01*
X62852Y91820D01*
X62994Y91634D01*
X63180Y91492D01*
X63395Y91403D01*
X63627Y91372D01*
X63859Y91403D01*
X64074Y91492D01*
X64260Y91634D01*
X64402Y91820D01*
X64491Y92035D01*
X64522Y92267D01*
X64491Y92499D01*
X64402Y92714D01*
X64260Y92900D01*
X64074Y93042D01*
X63859Y93131D01*
X63627Y93162D01*
D02*
G37*
G36*
X85090Y74608D02*
X84862Y74577D01*
X84649Y74489D01*
X84466Y74349D01*
X84326Y74166D01*
X84238Y73953D01*
X84207Y73725D01*
X84238Y73497D01*
X84326Y73284D01*
X84466Y73101D01*
X84649Y72961D01*
X84862Y72873D01*
X85090Y72842D01*
X85318Y72873D01*
X85531Y72961D01*
X85714Y73101D01*
X85854Y73284D01*
X85942Y73497D01*
X85973Y73725D01*
X85942Y73953D01*
X85854Y74166D01*
X85714Y74349D01*
X85531Y74489D01*
X85318Y74577D01*
X85090Y74608D01*
D02*
G37*
G36*
X82550D02*
X82322Y74577D01*
X82109Y74489D01*
X81926Y74349D01*
X81786Y74166D01*
X81698Y73953D01*
X81667Y73725D01*
X81698Y73497D01*
X81786Y73284D01*
X81926Y73101D01*
X82109Y72961D01*
X82322Y72873D01*
X82550Y72842D01*
X82778Y72873D01*
X82991Y72961D01*
X83174Y73101D01*
X83314Y73284D01*
X83402Y73497D01*
X83433Y73725D01*
X83402Y73953D01*
X83314Y74166D01*
X83174Y74349D01*
X82991Y74489D01*
X82778Y74577D01*
X82550Y74608D01*
D02*
G37*
G36*
X43617Y73155D02*
X42864D01*
Y72402D01*
X42969Y72416D01*
X43185Y72505D01*
X43371Y72648D01*
X43514Y72834D01*
X43603Y73050D01*
X43617Y73155D01*
D02*
G37*
G36*
X87630Y74608D02*
X87402Y74577D01*
X87189Y74489D01*
X87006Y74349D01*
X86866Y74166D01*
X86778Y73953D01*
X86747Y73725D01*
X86778Y73497D01*
X86866Y73284D01*
X87006Y73101D01*
X87189Y72961D01*
X87402Y72873D01*
X87630Y72842D01*
X87858Y72873D01*
X88071Y72961D01*
X88254Y73101D01*
X88394Y73284D01*
X88482Y73497D01*
X88513Y73725D01*
X88482Y73953D01*
X88394Y74166D01*
X88254Y74349D01*
X88071Y74489D01*
X87858Y74577D01*
X87630Y74608D01*
D02*
G37*
G36*
X42610Y74162D02*
X42505Y74148D01*
X42289Y74059D01*
X42103Y73916D01*
X41960Y73730D01*
X41871Y73514D01*
X41857Y73409D01*
X42610D01*
Y74162D01*
D02*
G37*
G36*
X40275Y74746D02*
X40077Y74719D01*
X39892Y74643D01*
X39733Y74521D01*
X39611Y74362D01*
X39535Y74177D01*
X39508Y73979D01*
X39535Y73781D01*
X39611Y73596D01*
X39733Y73437D01*
X39892Y73315D01*
X40077Y73239D01*
X40275Y73212D01*
X40473Y73239D01*
X40658Y73315D01*
X40817Y73437D01*
X40939Y73596D01*
X41015Y73781D01*
X41042Y73979D01*
X41015Y74177D01*
X40939Y74362D01*
X40817Y74521D01*
X40658Y74643D01*
X40473Y74719D01*
X40275Y74746D01*
D02*
G37*
G36*
X91045Y74600D02*
X89295D01*
Y72850D01*
X91045D01*
Y74600D01*
D02*
G37*
G36*
X68326Y71395D02*
X68217Y71373D01*
X68018Y71239D01*
X67884Y71040D01*
X67862Y70931D01*
X68326D01*
Y71395D01*
D02*
G37*
G36*
X73152Y71669D02*
X72967Y71632D01*
X72810Y71527D01*
X72705Y71370D01*
X72668Y71185D01*
X72705Y71000D01*
X72810Y70843D01*
X72967Y70738D01*
X73152Y70701D01*
X73337Y70738D01*
X73494Y70843D01*
X73599Y71000D01*
X73636Y71185D01*
X73599Y71370D01*
X73494Y71527D01*
X73337Y71632D01*
X73152Y71669D01*
D02*
G37*
G36*
X90170Y72068D02*
X89942Y72037D01*
X89729Y71949D01*
X89546Y71809D01*
X89406Y71626D01*
X89318Y71413D01*
X89287Y71185D01*
X89318Y70957D01*
X89406Y70744D01*
X89546Y70561D01*
X89729Y70421D01*
X89942Y70333D01*
X90170Y70302D01*
X90398Y70333D01*
X90611Y70421D01*
X90794Y70561D01*
X90934Y70744D01*
X91022Y70957D01*
X91053Y71185D01*
X91022Y71413D01*
X90934Y71626D01*
X90794Y71809D01*
X90611Y71949D01*
X90398Y72037D01*
X90170Y72068D01*
D02*
G37*
G36*
X68580Y71395D02*
Y70931D01*
X69044D01*
X69022Y71040D01*
X68888Y71239D01*
X68689Y71373D01*
X68580Y71395D01*
D02*
G37*
G36*
X42610Y73155D02*
X41857D01*
X41871Y73050D01*
X41960Y72834D01*
X42103Y72648D01*
X42289Y72505D01*
X42505Y72416D01*
X42610Y72402D01*
Y73155D01*
D02*
G37*
G36*
X50673Y72714D02*
X50475Y72687D01*
X50290Y72611D01*
X50131Y72489D01*
X50009Y72330D01*
X49933Y72145D01*
X49906Y71947D01*
X49933Y71749D01*
X50009Y71564D01*
X50131Y71405D01*
X50290Y71283D01*
X50475Y71207D01*
X50673Y71180D01*
X50871Y71207D01*
X51056Y71283D01*
X51215Y71405D01*
X51337Y71564D01*
X51413Y71749D01*
X51440Y71947D01*
X51413Y72145D01*
X51337Y72330D01*
X51215Y72489D01*
X51056Y72611D01*
X50871Y72687D01*
X50673Y72714D01*
D02*
G37*
G36*
X96774Y72969D02*
X96542Y72938D01*
X96327Y72849D01*
X96141Y72707D01*
X95999Y72521D01*
X95910Y72306D01*
X95879Y72074D01*
X95910Y71842D01*
X95999Y71627D01*
X96141Y71441D01*
X96327Y71299D01*
X96542Y71210D01*
X96774Y71179D01*
X97006Y71210D01*
X97221Y71299D01*
X97407Y71441D01*
X97549Y71627D01*
X97638Y71842D01*
X97669Y72074D01*
X97638Y72306D01*
X97549Y72521D01*
X97407Y72707D01*
X97221Y72849D01*
X97006Y72938D01*
X96774Y72969D01*
D02*
G37*
G36*
X71247Y85365D02*
X71138Y85343D01*
X70939Y85209D01*
X70805Y85010D01*
X70783Y84901D01*
X71247D01*
Y85365D01*
D02*
G37*
G36*
X67818Y89351D02*
X67620Y89324D01*
X67435Y89248D01*
X67276Y89126D01*
X67154Y88967D01*
X67078Y88782D01*
X67051Y88584D01*
X67078Y88386D01*
X67154Y88201D01*
X67276Y88042D01*
X67435Y87920D01*
X67620Y87844D01*
X67818Y87817D01*
X68016Y87844D01*
X68201Y87920D01*
X68360Y88042D01*
X68482Y88201D01*
X68534Y88327D01*
X75967D01*
X78941Y85353D01*
X78889Y85226D01*
X78862Y85028D01*
X78889Y84830D01*
X78965Y84645D01*
X79087Y84486D01*
X79246Y84364D01*
X79431Y84288D01*
X79629Y84261D01*
X79827Y84288D01*
X80012Y84364D01*
X80171Y84486D01*
X80293Y84645D01*
X80369Y84830D01*
X80396Y85028D01*
X80369Y85226D01*
X80293Y85411D01*
X80171Y85570D01*
X80012Y85692D01*
X79827Y85768D01*
X79629Y85795D01*
X79431Y85768D01*
X79304Y85716D01*
X77036Y87985D01*
X77077Y88123D01*
X77147Y88137D01*
X77304Y88242D01*
X77409Y88399D01*
X77446Y88584D01*
X77409Y88769D01*
X77304Y88926D01*
X77147Y89031D01*
X76962Y89068D01*
X76777Y89031D01*
X76620Y88926D01*
X76515Y88769D01*
X76501Y88699D01*
X76363Y88658D01*
X76255Y88766D01*
X76171Y88821D01*
X76073Y88841D01*
X68534D01*
X68482Y88967D01*
X68360Y89126D01*
X68201Y89248D01*
X68016Y89324D01*
X67818Y89351D01*
D02*
G37*
G36*
X71965Y84647D02*
X71501D01*
Y84183D01*
X71610Y84205D01*
X71809Y84339D01*
X71943Y84538D01*
X71965Y84647D01*
D02*
G37*
G36*
X71501Y85365D02*
Y84901D01*
X71965D01*
X71943Y85010D01*
X71809Y85209D01*
X71610Y85343D01*
X71501Y85365D01*
D02*
G37*
G36*
X39707Y86044D02*
X39243D01*
Y85580D01*
X39352Y85602D01*
X39551Y85736D01*
X39685Y85935D01*
X39707Y86044D01*
D02*
G37*
G36*
X38989D02*
X38525D01*
X38547Y85935D01*
X38681Y85736D01*
X38880Y85602D01*
X38989Y85580D01*
Y86044D01*
D02*
G37*
G36*
X49657Y86528D02*
X49472Y86491D01*
X49315Y86386D01*
X49210Y86229D01*
X49173Y86044D01*
X49210Y85859D01*
X49315Y85702D01*
X49472Y85597D01*
X49657Y85560D01*
X49842Y85597D01*
X49999Y85702D01*
X50104Y85859D01*
X50141Y86044D01*
X50104Y86229D01*
X49999Y86386D01*
X49842Y86491D01*
X49657Y86528D01*
D02*
G37*
G36*
X77089Y78654D02*
X76904Y78617D01*
X76747Y78512D01*
X76642Y78355D01*
X76605Y78170D01*
X76642Y77985D01*
X76747Y77828D01*
X76904Y77723D01*
X77089Y77686D01*
X77274Y77723D01*
X77431Y77828D01*
X77536Y77985D01*
X77573Y78170D01*
X77536Y78355D01*
X77431Y78512D01*
X77274Y78617D01*
X77089Y78654D01*
D02*
G37*
G36*
X61595Y77287D02*
X61363Y77256D01*
X61148Y77167D01*
X60962Y77025D01*
X60820Y76839D01*
X60731Y76624D01*
X60700Y76392D01*
X60731Y76160D01*
X60783Y76035D01*
X60531Y75783D01*
X53690D01*
X53665Y75844D01*
X53543Y76003D01*
X53384Y76125D01*
X53199Y76201D01*
X53001Y76228D01*
X52803Y76201D01*
X52618Y76125D01*
X52459Y76003D01*
X52337Y75844D01*
X52261Y75659D01*
X52234Y75461D01*
X52261Y75263D01*
X52337Y75078D01*
X52459Y74919D01*
X52618Y74797D01*
X52803Y74721D01*
X53001Y74694D01*
X53199Y74721D01*
X53384Y74797D01*
X53543Y74919D01*
X53665Y75078D01*
X53690Y75139D01*
X60664D01*
X60787Y75164D01*
X60891Y75234D01*
X61029Y75371D01*
X61146Y75322D01*
Y67000D01*
X57810Y63663D01*
X57785Y63668D01*
X57600Y63631D01*
X57443Y63526D01*
X57338Y63369D01*
X57301Y63184D01*
X57338Y62999D01*
X57443Y62842D01*
X57600Y62737D01*
X57785Y62700D01*
X57970Y62737D01*
X58127Y62842D01*
X58232Y62999D01*
X58269Y63184D01*
X58264Y63209D01*
X61695Y66640D01*
X61765Y66744D01*
X61790Y66867D01*
Y75523D01*
X61827Y75528D01*
X62042Y75617D01*
X62228Y75759D01*
X62370Y75945D01*
X62459Y76160D01*
X62490Y76392D01*
X62459Y76624D01*
X62370Y76839D01*
X62228Y77025D01*
X62042Y77167D01*
X61827Y77256D01*
X61595Y77287D01*
D02*
G37*
G36*
X42864Y74162D02*
Y73409D01*
X43617D01*
X43603Y73514D01*
X43514Y73730D01*
X43371Y73916D01*
X43185Y74059D01*
X42969Y74148D01*
X42864Y74162D01*
D02*
G37*
G36*
X72644Y78908D02*
X72459Y78871D01*
X72302Y78766D01*
X72197Y78609D01*
X72160Y78424D01*
X72197Y78239D01*
X72302Y78082D01*
X72459Y77977D01*
X72644Y77940D01*
X72829Y77977D01*
X72986Y78082D01*
X73091Y78239D01*
X73128Y78424D01*
X73091Y78609D01*
X72986Y78766D01*
X72829Y78871D01*
X72644Y78908D01*
D02*
G37*
G36*
X71247Y84647D02*
X70783D01*
X70805Y84538D01*
X70939Y84339D01*
X71138Y84205D01*
X71247Y84183D01*
Y84647D01*
D02*
G37*
G36*
X72771Y83734D02*
X72586Y83697D01*
X72429Y83592D01*
X72324Y83435D01*
X72287Y83250D01*
X72324Y83065D01*
X72429Y82908D01*
X72586Y82803D01*
X72771Y82766D01*
X72956Y82803D01*
X73113Y82908D01*
X73218Y83065D01*
X73255Y83250D01*
X73218Y83435D01*
X73113Y83592D01*
X72956Y83697D01*
X72771Y83734D01*
D02*
G37*
G36*
X72263Y87319D02*
X72065Y87292D01*
X71880Y87216D01*
X71721Y87094D01*
X71599Y86935D01*
X71523Y86750D01*
X71496Y86552D01*
X71523Y86354D01*
X71599Y86169D01*
X71721Y86010D01*
X71880Y85888D01*
X72065Y85812D01*
X72263Y85785D01*
X72461Y85812D01*
X72588Y85864D01*
X75562Y82890D01*
Y82442D01*
X75436Y82390D01*
X75277Y82268D01*
X75155Y82109D01*
X75079Y81924D01*
X75052Y81726D01*
X75079Y81528D01*
X75155Y81343D01*
X75277Y81184D01*
X75436Y81062D01*
X75621Y80986D01*
X75819Y80959D01*
X76017Y80986D01*
X76202Y81062D01*
X76361Y81184D01*
X76483Y81343D01*
X76559Y81528D01*
X76586Y81726D01*
X76559Y81924D01*
X76483Y82109D01*
X76361Y82268D01*
X76202Y82390D01*
X76076Y82442D01*
Y82996D01*
X76056Y83094D01*
X76001Y83178D01*
X72951Y86227D01*
X73003Y86354D01*
X73030Y86552D01*
X73003Y86750D01*
X72927Y86935D01*
X72805Y87094D01*
X72646Y87216D01*
X72461Y87292D01*
X72263Y87319D01*
D02*
G37*
G36*
X57785Y115292D02*
X57600Y115255D01*
X57443Y115150D01*
X57338Y114993D01*
X57301Y114808D01*
X57338Y114623D01*
X57443Y114466D01*
X57600Y114361D01*
X57785Y114324D01*
X57970Y114361D01*
X58127Y114466D01*
X58232Y114623D01*
X58269Y114808D01*
X58232Y114993D01*
X58127Y115150D01*
X57970Y115255D01*
X57785Y115292D01*
D02*
G37*
G36*
X96543Y114267D02*
X96343D01*
X96173Y114244D01*
X96015Y114179D01*
X95879Y114075D01*
X95775Y113939D01*
X95710Y113781D01*
X95687Y113611D01*
X95710Y113441D01*
X95775Y113283D01*
X95879Y113147D01*
X96015Y113043D01*
X96173Y112978D01*
X96343Y112955D01*
X96543D01*
X96713Y112978D01*
X96871Y113043D01*
X97007Y113147D01*
X97111Y113283D01*
X97176Y113441D01*
X97199Y113611D01*
X97176Y113781D01*
X97111Y113939D01*
X97007Y114075D01*
X96871Y114179D01*
X96713Y114244D01*
X96543Y114267D01*
D02*
G37*
G36*
X77343Y113260D02*
X77158Y113223D01*
X77001Y113118D01*
X76896Y112961D01*
X76859Y112776D01*
X76896Y112591D01*
X77001Y112434D01*
X77158Y112329D01*
X77343Y112292D01*
X77528Y112329D01*
X77685Y112434D01*
X77790Y112591D01*
X77827Y112776D01*
X77790Y112961D01*
X77685Y113118D01*
X77528Y113223D01*
X77343Y113260D01*
D02*
G37*
G36*
X61976Y115546D02*
X61791Y115509D01*
X61634Y115404D01*
X61529Y115247D01*
X61492Y115062D01*
X61529Y114877D01*
X61634Y114720D01*
X61791Y114615D01*
X61976Y114578D01*
X62161Y114615D01*
X62318Y114720D01*
X62423Y114877D01*
X62460Y115062D01*
X62423Y115247D01*
X62318Y115404D01*
X62161Y115509D01*
X61976Y115546D01*
D02*
G37*
G36*
X98806Y117705D02*
X98621Y117668D01*
X98464Y117563D01*
X98359Y117406D01*
X98322Y117221D01*
X98359Y117036D01*
X98464Y116879D01*
X98621Y116774D01*
X98806Y116737D01*
X98991Y116774D01*
X99148Y116879D01*
X99253Y117036D01*
X99290Y117221D01*
X99253Y117406D01*
X99148Y117563D01*
X98991Y117668D01*
X98806Y117705D01*
D02*
G37*
G36*
X65659Y118242D02*
X65461Y118215D01*
X65276Y118139D01*
X65117Y118017D01*
X64995Y117858D01*
X64919Y117673D01*
X64892Y117475D01*
X64919Y117277D01*
X64995Y117092D01*
X65117Y116933D01*
X65276Y116811D01*
X65461Y116735D01*
X65659Y116708D01*
X65857Y116735D01*
X66042Y116811D01*
X66201Y116933D01*
X66323Y117092D01*
X66399Y117277D01*
X66426Y117475D01*
X66399Y117673D01*
X66323Y117858D01*
X66201Y118017D01*
X66042Y118139D01*
X65857Y118215D01*
X65659Y118242D01*
D02*
G37*
G36*
X77470Y115927D02*
X77285Y115890D01*
X77128Y115785D01*
X77023Y115628D01*
X76986Y115443D01*
X77023Y115258D01*
X77128Y115101D01*
X77285Y114996D01*
X77470Y114959D01*
X77655Y114996D01*
X77812Y115101D01*
X77917Y115258D01*
X77954Y115443D01*
X77917Y115628D01*
X77812Y115785D01*
X77655Y115890D01*
X77470Y115927D01*
D02*
G37*
G36*
X86741Y115310D02*
X86513Y115279D01*
X86300Y115191D01*
X86117Y115051D01*
X85977Y114868D01*
X85889Y114655D01*
X85858Y114427D01*
X85889Y114199D01*
X85977Y113986D01*
X86048Y113893D01*
X81694Y109540D01*
X81635Y109564D01*
X81407Y109595D01*
X81179Y109564D01*
X80966Y109476D01*
X80783Y109336D01*
X80643Y109153D01*
X80555Y108940D01*
X80524Y108712D01*
X80555Y108484D01*
X80643Y108271D01*
X80783Y108088D01*
X80966Y107948D01*
X81179Y107860D01*
X81407Y107829D01*
X81635Y107860D01*
X81848Y107948D01*
X82031Y108088D01*
X82171Y108271D01*
X82259Y108484D01*
X82290Y108712D01*
X82259Y108940D01*
X82235Y108999D01*
X86786Y113550D01*
X86969Y113575D01*
X87182Y113663D01*
X87365Y113803D01*
X87505Y113986D01*
X87593Y114199D01*
X87624Y114427D01*
X87593Y114655D01*
X87505Y114868D01*
X87365Y115051D01*
X87182Y115191D01*
X86969Y115279D01*
X86741Y115310D01*
D02*
G37*
G36*
X96543Y109817D02*
X96343D01*
X96173Y109794D01*
X96015Y109729D01*
X95879Y109625D01*
X95775Y109489D01*
X95710Y109331D01*
X95687Y109161D01*
X95710Y108991D01*
X95775Y108833D01*
X95879Y108697D01*
X96015Y108593D01*
X96173Y108528D01*
X96343Y108505D01*
X96543D01*
X96713Y108528D01*
X96871Y108593D01*
X97007Y108697D01*
X97111Y108833D01*
X97176Y108991D01*
X97199Y109161D01*
X97176Y109331D01*
X97111Y109489D01*
X97007Y109625D01*
X96871Y109729D01*
X96713Y109794D01*
X96543Y109817D01*
D02*
G37*
G36*
X74803Y109450D02*
X74618Y109413D01*
X74461Y109308D01*
X74356Y109151D01*
X74319Y108966D01*
X74356Y108781D01*
X74461Y108624D01*
X74618Y108519D01*
X74803Y108482D01*
X74988Y108519D01*
X75145Y108624D01*
X75250Y108781D01*
X75287Y108966D01*
X75250Y109151D01*
X75145Y109308D01*
X74988Y109413D01*
X74803Y109450D01*
D02*
G37*
G36*
X75822Y111739D02*
X75637Y111702D01*
X75480Y111597D01*
X75375Y111440D01*
X75338Y111255D01*
X75375Y111070D01*
X75480Y110913D01*
X75637Y110808D01*
X75822Y110771D01*
X76007Y110808D01*
X76164Y110913D01*
X76269Y111070D01*
X76306Y111255D01*
X76269Y111440D01*
X76164Y111597D01*
X76007Y111702D01*
X75822Y111739D01*
D02*
G37*
G36*
X90805Y113133D02*
X90620Y113096D01*
X90463Y112991D01*
X90358Y112834D01*
X90321Y112649D01*
X90358Y112464D01*
X90463Y112307D01*
X90620Y112202D01*
X90805Y112165D01*
X90990Y112202D01*
X91147Y112307D01*
X91252Y112464D01*
X91289Y112649D01*
X91252Y112834D01*
X91147Y112991D01*
X90990Y113096D01*
X90805Y113133D01*
D02*
G37*
G36*
X56134D02*
X55949Y113096D01*
X55792Y112991D01*
X55687Y112834D01*
X55650Y112649D01*
X55687Y112464D01*
X55792Y112307D01*
X55949Y112202D01*
X56134Y112165D01*
X56319Y112202D01*
X56476Y112307D01*
X56581Y112464D01*
X56618Y112649D01*
X56581Y112834D01*
X56476Y112991D01*
X56319Y113096D01*
X56134Y113133D01*
D02*
G37*
G36*
X62103Y111990D02*
X61918Y111953D01*
X61761Y111848D01*
X61656Y111691D01*
X61619Y111506D01*
X61656Y111321D01*
X61761Y111164D01*
X61918Y111059D01*
X62103Y111022D01*
X62288Y111059D01*
X62445Y111164D01*
X62550Y111321D01*
X62587Y111506D01*
X62550Y111691D01*
X62445Y111848D01*
X62288Y111953D01*
X62103Y111990D01*
D02*
G37*
G36*
X72390Y124084D02*
X72192Y124057D01*
X72007Y123981D01*
X71848Y123859D01*
X71726Y123700D01*
X71650Y123515D01*
X71623Y123317D01*
X71650Y123119D01*
X71726Y122934D01*
X71848Y122775D01*
X72007Y122653D01*
X72192Y122577D01*
X72390Y122550D01*
X72588Y122577D01*
X72773Y122653D01*
X72932Y122775D01*
X73054Y122934D01*
X73130Y123119D01*
X73157Y123317D01*
X73130Y123515D01*
X73054Y123700D01*
X72932Y123859D01*
X72773Y123981D01*
X72588Y124057D01*
X72390Y124084D01*
D02*
G37*
G36*
X71247Y120387D02*
Y119634D01*
X72000D01*
X71986Y119739D01*
X71897Y119955D01*
X71754Y120141D01*
X71568Y120284D01*
X71352Y120373D01*
X71247Y120387D01*
D02*
G37*
G36*
X70993D02*
X70888Y120373D01*
X70672Y120284D01*
X70486Y120141D01*
X70343Y119955D01*
X70254Y119739D01*
X70240Y119634D01*
X70993D01*
Y120387D01*
D02*
G37*
G36*
X73152Y200890D02*
X72967Y200853D01*
X72810Y200748D01*
X72705Y200591D01*
X72668Y200406D01*
X72705Y200221D01*
X72810Y200064D01*
X72967Y199959D01*
X73152Y199922D01*
X73337Y199959D01*
X73494Y200064D01*
X73599Y200221D01*
X73636Y200406D01*
X73599Y200591D01*
X73494Y200748D01*
X73337Y200853D01*
X73152Y200890D01*
D02*
G37*
G36*
X29210Y124721D02*
X28945Y124686D01*
X28699Y124584D01*
X28487Y124421D01*
X28324Y124209D01*
X28222Y123963D01*
X28187Y123698D01*
X28222Y123433D01*
X28324Y123187D01*
X28487Y122975D01*
X28699Y122812D01*
X28945Y122710D01*
X29210Y122675D01*
X29475Y122710D01*
X29721Y122812D01*
X29933Y122975D01*
X30096Y123187D01*
X30198Y123433D01*
X30233Y123698D01*
X30198Y123963D01*
X30096Y124209D01*
X29933Y124421D01*
X29721Y124584D01*
X29475Y124686D01*
X29210Y124721D01*
D02*
G37*
G36*
X26670D02*
X26405Y124686D01*
X26159Y124584D01*
X25947Y124421D01*
X25784Y124209D01*
X25682Y123963D01*
X25647Y123698D01*
X25682Y123433D01*
X25784Y123187D01*
X25947Y122975D01*
X26159Y122812D01*
X26405Y122710D01*
X26670Y122675D01*
X26935Y122710D01*
X27181Y122812D01*
X27393Y122975D01*
X27556Y123187D01*
X27658Y123433D01*
X27693Y123698D01*
X27658Y123963D01*
X27556Y124209D01*
X27393Y124421D01*
X27181Y124584D01*
X26935Y124686D01*
X26670Y124721D01*
D02*
G37*
G36*
X24130D02*
X23865Y124686D01*
X23619Y124584D01*
X23407Y124421D01*
X23244Y124209D01*
X23142Y123963D01*
X23107Y123698D01*
X23142Y123433D01*
X23244Y123187D01*
X23407Y122975D01*
X23619Y122812D01*
X23865Y122710D01*
X24130Y122675D01*
X24395Y122710D01*
X24641Y122812D01*
X24853Y122975D01*
X25016Y123187D01*
X25118Y123433D01*
X25153Y123698D01*
X25118Y123963D01*
X25016Y124209D01*
X24853Y124421D01*
X24641Y124584D01*
X24395Y124686D01*
X24130Y124721D01*
D02*
G37*
G36*
X68707Y118990D02*
X68602Y118976D01*
X68386Y118887D01*
X68200Y118744D01*
X68057Y118558D01*
X67968Y118342D01*
X67954Y118237D01*
X68707D01*
Y118990D01*
D02*
G37*
G36*
X69714Y117983D02*
X68961D01*
Y117230D01*
X69066Y117244D01*
X69282Y117333D01*
X69468Y117476D01*
X69611Y117662D01*
X69700Y117878D01*
X69714Y117983D01*
D02*
G37*
G36*
X68707D02*
X67954D01*
X67968Y117878D01*
X68057Y117662D01*
X68200Y117476D01*
X68386Y117333D01*
X68602Y117244D01*
X68707Y117230D01*
Y117983D01*
D02*
G37*
G36*
X68961Y118990D02*
Y118237D01*
X69714D01*
X69700Y118342D01*
X69611Y118558D01*
X69468Y118744D01*
X69282Y118887D01*
X69066Y118976D01*
X68961Y118990D01*
D02*
G37*
G36*
X82584Y121573D02*
X80484D01*
Y119473D01*
X82584D01*
Y121573D01*
D02*
G37*
G36*
X72000Y119380D02*
X71247D01*
Y118627D01*
X71352Y118641D01*
X71568Y118730D01*
X71754Y118873D01*
X71897Y119059D01*
X71986Y119275D01*
X72000Y119380D01*
D02*
G37*
G36*
X70993D02*
X70240D01*
X70254Y119275D01*
X70343Y119059D01*
X70486Y118873D01*
X70672Y118730D01*
X70888Y118641D01*
X70993Y118627D01*
Y119380D01*
D02*
G37*
G36*
X96774Y97226D02*
X96542Y97195D01*
X96327Y97106D01*
X96141Y96964D01*
X95999Y96778D01*
X95910Y96563D01*
X95879Y96331D01*
X95910Y96099D01*
X95999Y95884D01*
X96141Y95698D01*
X96327Y95556D01*
X96542Y95467D01*
X96774Y95436D01*
X97006Y95467D01*
X97221Y95556D01*
X97407Y95698D01*
X97549Y95884D01*
X97638Y96099D01*
X97669Y96331D01*
X97638Y96563D01*
X97549Y96778D01*
X97407Y96964D01*
X97221Y97106D01*
X97006Y97195D01*
X96774Y97226D01*
D02*
G37*
G36*
X68580Y95652D02*
Y95188D01*
X69044D01*
X69022Y95297D01*
X68888Y95496D01*
X68689Y95630D01*
X68580Y95652D01*
D02*
G37*
G36*
X68326D02*
X68217Y95630D01*
X68018Y95496D01*
X67884Y95297D01*
X67862Y95188D01*
X68326D01*
Y95652D01*
D02*
G37*
G36*
X50673Y96971D02*
X50475Y96944D01*
X50290Y96868D01*
X50131Y96746D01*
X50009Y96587D01*
X49933Y96402D01*
X49906Y96204D01*
X49933Y96006D01*
X50009Y95821D01*
X50131Y95662D01*
X50290Y95540D01*
X50475Y95464D01*
X50673Y95437D01*
X50871Y95464D01*
X51056Y95540D01*
X51215Y95662D01*
X51337Y95821D01*
X51413Y96006D01*
X51440Y96204D01*
X51413Y96402D01*
X51337Y96587D01*
X51215Y96746D01*
X51056Y96868D01*
X50871Y96944D01*
X50673Y96971D01*
D02*
G37*
G36*
X82550Y98865D02*
X82322Y98834D01*
X82109Y98746D01*
X81926Y98606D01*
X81786Y98423D01*
X81698Y98210D01*
X81667Y97982D01*
X81698Y97754D01*
X81786Y97541D01*
X81926Y97358D01*
X82109Y97218D01*
X82322Y97130D01*
X82550Y97099D01*
X82778Y97130D01*
X82991Y97218D01*
X83174Y97358D01*
X83314Y97541D01*
X83402Y97754D01*
X83433Y97982D01*
X83402Y98210D01*
X83314Y98423D01*
X83174Y98606D01*
X82991Y98746D01*
X82778Y98834D01*
X82550Y98865D01*
D02*
G37*
G36*
X43617Y97412D02*
X42864D01*
Y96659D01*
X42969Y96673D01*
X43185Y96762D01*
X43371Y96905D01*
X43514Y97091D01*
X43603Y97307D01*
X43617Y97412D01*
D02*
G37*
G36*
X42610D02*
X41857D01*
X41871Y97307D01*
X41960Y97091D01*
X42103Y96905D01*
X42289Y96762D01*
X42505Y96673D01*
X42610Y96659D01*
Y97412D01*
D02*
G37*
G36*
X82550Y96325D02*
X82322Y96294D01*
X82109Y96206D01*
X81926Y96066D01*
X81786Y95883D01*
X81698Y95670D01*
X81667Y95442D01*
X81698Y95214D01*
X81786Y95001D01*
X81926Y94818D01*
X82109Y94678D01*
X82322Y94590D01*
X82550Y94559D01*
X82778Y94590D01*
X82991Y94678D01*
X83174Y94818D01*
X83314Y95001D01*
X83402Y95214D01*
X83433Y95442D01*
X83402Y95670D01*
X83314Y95883D01*
X83174Y96066D01*
X82991Y96206D01*
X82778Y96294D01*
X82550Y96325D01*
D02*
G37*
G36*
X69044Y94934D02*
X68580D01*
Y94470D01*
X68689Y94492D01*
X68888Y94626D01*
X69022Y94825D01*
X69044Y94934D01*
D02*
G37*
G36*
X68326D02*
X67862D01*
X67884Y94825D01*
X68018Y94626D01*
X68217Y94492D01*
X68326Y94470D01*
Y94934D01*
D02*
G37*
G36*
X85090Y96325D02*
X84862Y96294D01*
X84649Y96206D01*
X84466Y96066D01*
X84326Y95883D01*
X84238Y95670D01*
X84207Y95442D01*
X84238Y95214D01*
X84326Y95001D01*
X84466Y94818D01*
X84649Y94678D01*
X84862Y94590D01*
X85090Y94559D01*
X85318Y94590D01*
X85531Y94678D01*
X85714Y94818D01*
X85854Y95001D01*
X85942Y95214D01*
X85973Y95442D01*
X85942Y95670D01*
X85854Y95883D01*
X85714Y96066D01*
X85531Y96206D01*
X85318Y96294D01*
X85090Y96325D01*
D02*
G37*
G36*
X73152Y95926D02*
X72967Y95889D01*
X72810Y95784D01*
X72705Y95627D01*
X72668Y95442D01*
X72705Y95257D01*
X72810Y95100D01*
X72967Y94995D01*
X73152Y94958D01*
X73337Y94995D01*
X73494Y95100D01*
X73599Y95257D01*
X73636Y95442D01*
X73599Y95627D01*
X73494Y95784D01*
X73337Y95889D01*
X73152Y95926D01*
D02*
G37*
G36*
X90170Y96325D02*
X89942Y96294D01*
X89729Y96206D01*
X89546Y96066D01*
X89406Y95883D01*
X89318Y95670D01*
X89287Y95442D01*
X89318Y95214D01*
X89406Y95001D01*
X89546Y94818D01*
X89729Y94678D01*
X89942Y94590D01*
X90170Y94559D01*
X90398Y94590D01*
X90611Y94678D01*
X90794Y94818D01*
X90934Y95001D01*
X91022Y95214D01*
X91053Y95442D01*
X91022Y95670D01*
X90934Y95883D01*
X90794Y96066D01*
X90611Y96206D01*
X90398Y96294D01*
X90170Y96325D01*
D02*
G37*
G36*
X87630D02*
X87402Y96294D01*
X87189Y96206D01*
X87006Y96066D01*
X86866Y95883D01*
X86778Y95670D01*
X86747Y95442D01*
X86778Y95214D01*
X86866Y95001D01*
X87006Y94818D01*
X87189Y94678D01*
X87402Y94590D01*
X87630Y94559D01*
X87858Y94590D01*
X88071Y94678D01*
X88254Y94818D01*
X88394Y95001D01*
X88482Y95214D01*
X88513Y95442D01*
X88482Y95670D01*
X88394Y95883D01*
X88254Y96066D01*
X88071Y96206D01*
X87858Y96294D01*
X87630Y96325D01*
D02*
G37*
G36*
X34290Y109481D02*
X34025Y109446D01*
X33779Y109344D01*
X33567Y109181D01*
X33404Y108969D01*
X33302Y108723D01*
X33267Y108458D01*
X33302Y108193D01*
X33404Y107947D01*
X33567Y107735D01*
X33779Y107572D01*
X34025Y107470D01*
X34290Y107435D01*
X34555Y107470D01*
X34801Y107572D01*
X35013Y107735D01*
X35176Y107947D01*
X35278Y108193D01*
X35313Y108458D01*
X35278Y108723D01*
X35176Y108969D01*
X35013Y109181D01*
X34801Y109344D01*
X34555Y109446D01*
X34290Y109481D01*
D02*
G37*
G36*
X72644Y103165D02*
X72459Y103128D01*
X72302Y103023D01*
X72197Y102866D01*
X72160Y102681D01*
X72197Y102496D01*
X72302Y102339D01*
X72459Y102234D01*
X72644Y102197D01*
X72829Y102234D01*
X72986Y102339D01*
X73091Y102496D01*
X73128Y102681D01*
X73091Y102866D01*
X72986Y103023D01*
X72829Y103128D01*
X72644Y103165D01*
D02*
G37*
G36*
X77089Y102911D02*
X76904Y102874D01*
X76747Y102769D01*
X76642Y102612D01*
X76605Y102427D01*
X76642Y102242D01*
X76747Y102085D01*
X76904Y101980D01*
X77089Y101943D01*
X77274Y101980D01*
X77431Y102085D01*
X77536Y102242D01*
X77573Y102427D01*
X77536Y102612D01*
X77431Y102769D01*
X77274Y102874D01*
X77089Y102911D01*
D02*
G37*
G36*
X41910Y109481D02*
X41645Y109446D01*
X41399Y109344D01*
X41187Y109181D01*
X41024Y108969D01*
X40922Y108723D01*
X40887Y108458D01*
X40922Y108193D01*
X41024Y107947D01*
X41187Y107735D01*
X41399Y107572D01*
X41645Y107470D01*
X41910Y107435D01*
X42175Y107470D01*
X42421Y107572D01*
X42633Y107735D01*
X42796Y107947D01*
X42898Y108193D01*
X42933Y108458D01*
X42898Y108723D01*
X42796Y108969D01*
X42633Y109181D01*
X42421Y109344D01*
X42175Y109446D01*
X41910Y109481D01*
D02*
G37*
G36*
X49530D02*
X49265Y109446D01*
X49019Y109344D01*
X48807Y109181D01*
X48644Y108969D01*
X48542Y108723D01*
X48507Y108458D01*
X48542Y108193D01*
X48644Y107947D01*
X48807Y107735D01*
X49019Y107572D01*
X49265Y107470D01*
X49530Y107435D01*
X49795Y107470D01*
X50041Y107572D01*
X50253Y107735D01*
X50416Y107947D01*
X50518Y108193D01*
X50553Y108458D01*
X50518Y108723D01*
X50416Y108969D01*
X50253Y109181D01*
X50041Y109344D01*
X49795Y109446D01*
X49530Y109481D01*
D02*
G37*
G36*
X46990D02*
X46725Y109446D01*
X46479Y109344D01*
X46267Y109181D01*
X46104Y108969D01*
X46002Y108723D01*
X45967Y108458D01*
X46002Y108193D01*
X46104Y107947D01*
X46267Y107735D01*
X46479Y107572D01*
X46725Y107470D01*
X46990Y107435D01*
X47255Y107470D01*
X47501Y107572D01*
X47713Y107735D01*
X47876Y107947D01*
X47978Y108193D01*
X48013Y108458D01*
X47978Y108723D01*
X47876Y108969D01*
X47713Y109181D01*
X47501Y109344D01*
X47255Y109446D01*
X46990Y109481D01*
D02*
G37*
G36*
X44450D02*
X44185Y109446D01*
X43939Y109344D01*
X43727Y109181D01*
X43564Y108969D01*
X43462Y108723D01*
X43427Y108458D01*
X43462Y108193D01*
X43564Y107947D01*
X43727Y107735D01*
X43939Y107572D01*
X44185Y107470D01*
X44450Y107435D01*
X44715Y107470D01*
X44961Y107572D01*
X45173Y107735D01*
X45336Y107947D01*
X45438Y108193D01*
X45473Y108458D01*
X45438Y108723D01*
X45336Y108969D01*
X45173Y109181D01*
X44961Y109344D01*
X44715Y109446D01*
X44450Y109481D01*
D02*
G37*
G36*
X91045Y98857D02*
X89295D01*
Y97107D01*
X91045D01*
Y98857D01*
D02*
G37*
G36*
X87630Y98865D02*
X87402Y98834D01*
X87189Y98746D01*
X87006Y98606D01*
X86866Y98423D01*
X86778Y98210D01*
X86747Y97982D01*
X86778Y97754D01*
X86866Y97541D01*
X87006Y97358D01*
X87189Y97218D01*
X87402Y97130D01*
X87630Y97099D01*
X87858Y97130D01*
X88071Y97218D01*
X88254Y97358D01*
X88394Y97541D01*
X88482Y97754D01*
X88513Y97982D01*
X88482Y98210D01*
X88394Y98423D01*
X88254Y98606D01*
X88071Y98746D01*
X87858Y98834D01*
X87630Y98865D01*
D02*
G37*
G36*
X85090D02*
X84862Y98834D01*
X84649Y98746D01*
X84466Y98606D01*
X84326Y98423D01*
X84238Y98210D01*
X84207Y97982D01*
X84238Y97754D01*
X84326Y97541D01*
X84466Y97358D01*
X84649Y97218D01*
X84862Y97130D01*
X85090Y97099D01*
X85318Y97130D01*
X85531Y97218D01*
X85714Y97358D01*
X85854Y97541D01*
X85942Y97754D01*
X85973Y97982D01*
X85942Y98210D01*
X85854Y98423D01*
X85714Y98606D01*
X85531Y98746D01*
X85318Y98834D01*
X85090Y98865D01*
D02*
G37*
G36*
X40275Y99003D02*
X40077Y98976D01*
X39892Y98900D01*
X39733Y98778D01*
X39611Y98619D01*
X39535Y98434D01*
X39508Y98236D01*
X39535Y98038D01*
X39611Y97853D01*
X39733Y97694D01*
X39892Y97572D01*
X40077Y97496D01*
X40275Y97469D01*
X40473Y97496D01*
X40658Y97572D01*
X40817Y97694D01*
X40939Y97853D01*
X41015Y98038D01*
X41042Y98236D01*
X41015Y98434D01*
X40939Y98619D01*
X40817Y98778D01*
X40658Y98900D01*
X40473Y98976D01*
X40275Y99003D01*
D02*
G37*
G36*
X61595Y101544D02*
X61363Y101513D01*
X61148Y101424D01*
X60962Y101282D01*
X60820Y101096D01*
X60731Y100881D01*
X60700Y100649D01*
X60731Y100417D01*
X60783Y100292D01*
X60531Y100040D01*
X53690D01*
X53665Y100101D01*
X53543Y100260D01*
X53384Y100382D01*
X53199Y100458D01*
X53001Y100485D01*
X52803Y100458D01*
X52618Y100382D01*
X52459Y100260D01*
X52337Y100101D01*
X52261Y99916D01*
X52234Y99718D01*
X52261Y99520D01*
X52337Y99335D01*
X52459Y99176D01*
X52618Y99054D01*
X52803Y98978D01*
X53001Y98951D01*
X53199Y98978D01*
X53384Y99054D01*
X53543Y99176D01*
X53665Y99335D01*
X53690Y99396D01*
X60664D01*
X60787Y99421D01*
X60891Y99491D01*
X61029Y99628D01*
X61146Y99579D01*
Y91257D01*
X57810Y87920D01*
X57785Y87925D01*
X57600Y87888D01*
X57443Y87783D01*
X57338Y87626D01*
X57301Y87441D01*
X57338Y87256D01*
X57443Y87099D01*
X57600Y86994D01*
X57785Y86957D01*
X57970Y86994D01*
X58127Y87099D01*
X58232Y87256D01*
X58269Y87441D01*
X58264Y87466D01*
X61695Y90897D01*
X61765Y91001D01*
X61790Y91124D01*
Y99780D01*
X61827Y99785D01*
X62042Y99874D01*
X62228Y100016D01*
X62370Y100202D01*
X62459Y100417D01*
X62490Y100649D01*
X62459Y100881D01*
X62370Y101096D01*
X62228Y101282D01*
X62042Y101424D01*
X61827Y101513D01*
X61595Y101544D01*
D02*
G37*
G36*
X42864Y98419D02*
Y97666D01*
X43617D01*
X43603Y97771D01*
X43514Y97987D01*
X43371Y98173D01*
X43185Y98316D01*
X42969Y98405D01*
X42864Y98419D01*
D02*
G37*
G36*
X42610D02*
X42505Y98405D01*
X42289Y98316D01*
X42103Y98173D01*
X41960Y97987D01*
X41871Y97771D01*
X41857Y97666D01*
X42610D01*
Y98419D01*
D02*
G37*
G36*
X87630Y72068D02*
X87402Y72037D01*
X87189Y71949D01*
X87006Y71809D01*
X86866Y71626D01*
X86778Y71413D01*
X86747Y71185D01*
X86778Y70957D01*
X86866Y70744D01*
X87006Y70561D01*
X87189Y70421D01*
X87402Y70333D01*
X87630Y70302D01*
X87858Y70333D01*
X88071Y70421D01*
X88254Y70561D01*
X88394Y70744D01*
X88482Y70957D01*
X88513Y71185D01*
X88482Y71413D01*
X88394Y71626D01*
X88254Y71809D01*
X88071Y71949D01*
X87858Y72037D01*
X87630Y72068D01*
D02*
G37*
G36*
X94982Y46468D02*
X93232D01*
Y44718D01*
X94982D01*
Y46468D01*
D02*
G37*
G36*
X56134Y44533D02*
Y44069D01*
X56598D01*
X56576Y44178D01*
X56442Y44377D01*
X56243Y44511D01*
X56134Y44533D01*
D02*
G37*
G36*
X55880D02*
X55771Y44511D01*
X55572Y44377D01*
X55438Y44178D01*
X55416Y44069D01*
X55880D01*
Y44533D01*
D02*
G37*
G36*
X41275Y46458D02*
X41090Y46421D01*
X40933Y46316D01*
X40828Y46159D01*
X40791Y45974D01*
X40828Y45789D01*
X40933Y45632D01*
X41090Y45527D01*
X41275Y45490D01*
X41460Y45527D01*
X41617Y45632D01*
X41722Y45789D01*
X41759Y45974D01*
X41722Y46159D01*
X41617Y46316D01*
X41460Y46421D01*
X41275Y46458D01*
D02*
G37*
G36*
X68326Y46482D02*
X67862D01*
X67884Y46373D01*
X68018Y46174D01*
X68217Y46040D01*
X68326Y46018D01*
Y46482D01*
D02*
G37*
G36*
X54737Y47503D02*
X54539Y47476D01*
X54354Y47400D01*
X54195Y47278D01*
X54073Y47119D01*
X53997Y46934D01*
X53970Y46736D01*
X53997Y46538D01*
X54073Y46353D01*
X54195Y46194D01*
X54354Y46072D01*
X54539Y45996D01*
X54737Y45969D01*
X54935Y45996D01*
X55120Y46072D01*
X55279Y46194D01*
X55401Y46353D01*
X55477Y46538D01*
X55504Y46736D01*
X55477Y46934D01*
X55401Y47119D01*
X55279Y47278D01*
X55120Y47400D01*
X54935Y47476D01*
X54737Y47503D01*
D02*
G37*
G36*
X53975Y49662D02*
X53777Y49635D01*
X53592Y49559D01*
X53433Y49437D01*
X53311Y49278D01*
X53235Y49093D01*
X53208Y48895D01*
X53235Y48697D01*
X53311Y48512D01*
X53433Y48353D01*
X53592Y48231D01*
X53777Y48155D01*
X53975Y48128D01*
X54173Y48155D01*
X54358Y48231D01*
X54517Y48353D01*
X54639Y48512D01*
X54664Y48573D01*
X56890D01*
X58721Y46742D01*
X58696Y46680D01*
X58669Y46482D01*
X58696Y46284D01*
X58772Y46099D01*
X58894Y45940D01*
X59053Y45818D01*
X59238Y45742D01*
X59436Y45715D01*
X59634Y45742D01*
X59819Y45818D01*
X59978Y45940D01*
X60100Y46099D01*
X60176Y46284D01*
X60203Y46482D01*
X60176Y46680D01*
X60100Y46865D01*
X59978Y47024D01*
X59819Y47146D01*
X59634Y47222D01*
X59436Y47249D01*
X59238Y47222D01*
X59176Y47197D01*
X57250Y49122D01*
X57146Y49192D01*
X57023Y49217D01*
X54664D01*
X54639Y49278D01*
X54517Y49437D01*
X54358Y49559D01*
X54173Y49635D01*
X53975Y49662D01*
D02*
G37*
G36*
X94107Y43936D02*
X93879Y43905D01*
X93666Y43817D01*
X93483Y43677D01*
X93343Y43494D01*
X93255Y43281D01*
X93224Y43053D01*
X93255Y42825D01*
X93343Y42612D01*
X93483Y42429D01*
X93666Y42289D01*
X93879Y42201D01*
X94107Y42170D01*
X94335Y42201D01*
X94548Y42289D01*
X94731Y42429D01*
X94871Y42612D01*
X94959Y42825D01*
X94990Y43053D01*
X94959Y43281D01*
X94871Y43494D01*
X94731Y43677D01*
X94548Y43817D01*
X94335Y43905D01*
X94107Y43936D01*
D02*
G37*
G36*
X72009Y42775D02*
X71824Y42738D01*
X71667Y42633D01*
X71562Y42476D01*
X71525Y42291D01*
X71562Y42106D01*
X71667Y41949D01*
X71824Y41844D01*
X72009Y41807D01*
X72194Y41844D01*
X72351Y41949D01*
X72456Y42106D01*
X72493Y42291D01*
X72456Y42476D01*
X72351Y42633D01*
X72194Y42738D01*
X72009Y42775D01*
D02*
G37*
G36*
X54483Y42648D02*
X54298Y42611D01*
X54141Y42506D01*
X54036Y42349D01*
X53999Y42164D01*
X54036Y41979D01*
X54141Y41822D01*
X54298Y41717D01*
X54483Y41680D01*
X54668Y41717D01*
X54825Y41822D01*
X54930Y41979D01*
X54967Y42164D01*
X54930Y42349D01*
X54825Y42506D01*
X54668Y42611D01*
X54483Y42648D01*
D02*
G37*
G36*
X63627Y44710D02*
X63395Y44679D01*
X63180Y44590D01*
X62994Y44448D01*
X62852Y44262D01*
X62763Y44047D01*
X62732Y43815D01*
X62763Y43583D01*
X62852Y43368D01*
X62994Y43182D01*
X63180Y43040D01*
X63395Y42951D01*
X63627Y42920D01*
X63859Y42951D01*
X64074Y43040D01*
X64260Y43182D01*
X64402Y43368D01*
X64491Y43583D01*
X64522Y43815D01*
X64491Y44047D01*
X64402Y44262D01*
X64260Y44448D01*
X64074Y44590D01*
X63859Y44679D01*
X63627Y44710D01*
D02*
G37*
G36*
X45720Y44807D02*
X45535Y44770D01*
X45378Y44665D01*
X45273Y44508D01*
X45236Y44323D01*
X45273Y44138D01*
X45378Y43981D01*
X45535Y43876D01*
X45720Y43839D01*
X45905Y43876D01*
X46062Y43981D01*
X46167Y44138D01*
X46204Y44323D01*
X46167Y44508D01*
X46062Y44665D01*
X45905Y44770D01*
X45720Y44807D01*
D02*
G37*
G36*
X56598Y43815D02*
X56134D01*
Y43351D01*
X56243Y43373D01*
X56442Y43507D01*
X56576Y43706D01*
X56598Y43815D01*
D02*
G37*
G36*
X55880D02*
X55416D01*
X55438Y43706D01*
X55572Y43507D01*
X55771Y43373D01*
X55880Y43351D01*
Y43815D01*
D02*
G37*
G36*
X50673Y48519D02*
X50475Y48492D01*
X50290Y48416D01*
X50131Y48294D01*
X50009Y48135D01*
X49933Y47950D01*
X49906Y47752D01*
X49933Y47554D01*
X50009Y47369D01*
X50131Y47210D01*
X50290Y47088D01*
X50475Y47012D01*
X50673Y46985D01*
X50871Y47012D01*
X51056Y47088D01*
X51215Y47210D01*
X51337Y47369D01*
X51413Y47554D01*
X51440Y47752D01*
X51413Y47950D01*
X51337Y48135D01*
X51215Y48294D01*
X51056Y48416D01*
X50871Y48492D01*
X50673Y48519D01*
D02*
G37*
G36*
X96774Y48774D02*
X96542Y48743D01*
X96327Y48654D01*
X96141Y48512D01*
X95999Y48326D01*
X95910Y48111D01*
X95879Y47879D01*
X95910Y47647D01*
X95999Y47432D01*
X96141Y47246D01*
X96327Y47104D01*
X96542Y47015D01*
X96774Y46984D01*
X97006Y47015D01*
X97221Y47104D01*
X97407Y47246D01*
X97549Y47432D01*
X97638Y47647D01*
X97669Y47879D01*
X97638Y48111D01*
X97549Y48326D01*
X97407Y48512D01*
X97221Y48654D01*
X97006Y48743D01*
X96774Y48774D01*
D02*
G37*
G36*
X68580Y47200D02*
Y46736D01*
X69044D01*
X69022Y46845D01*
X68888Y47044D01*
X68689Y47178D01*
X68580Y47200D01*
D02*
G37*
G36*
X42610Y48960D02*
X41857D01*
X41871Y48855D01*
X41960Y48639D01*
X42103Y48453D01*
X42289Y48310D01*
X42505Y48221D01*
X42610Y48207D01*
Y48960D01*
D02*
G37*
G36*
X82550Y50413D02*
X82322Y50382D01*
X82109Y50294D01*
X81926Y50154D01*
X81786Y49971D01*
X81698Y49758D01*
X81667Y49530D01*
X81698Y49302D01*
X81786Y49089D01*
X81926Y48906D01*
X82109Y48766D01*
X82322Y48678D01*
X82550Y48647D01*
X82778Y48678D01*
X82991Y48766D01*
X83174Y48906D01*
X83314Y49089D01*
X83402Y49302D01*
X83433Y49530D01*
X83402Y49758D01*
X83314Y49971D01*
X83174Y50154D01*
X82991Y50294D01*
X82778Y50382D01*
X82550Y50413D01*
D02*
G37*
G36*
X33498Y49515D02*
X33313Y49478D01*
X33156Y49373D01*
X33051Y49216D01*
X33014Y49031D01*
X33051Y48846D01*
X33156Y48689D01*
X33313Y48584D01*
X33498Y48547D01*
X33683Y48584D01*
X33840Y48689D01*
X33945Y48846D01*
X33982Y49031D01*
X33945Y49216D01*
X33840Y49373D01*
X33683Y49478D01*
X33498Y49515D01*
D02*
G37*
G36*
X43617Y48960D02*
X42864D01*
Y48207D01*
X42969Y48221D01*
X43185Y48310D01*
X43371Y48453D01*
X43514Y48639D01*
X43603Y48855D01*
X43617Y48960D01*
D02*
G37*
G36*
X85090Y47873D02*
X84862Y47842D01*
X84649Y47754D01*
X84466Y47614D01*
X84326Y47431D01*
X84238Y47218D01*
X84207Y46990D01*
X84238Y46762D01*
X84326Y46549D01*
X84466Y46366D01*
X84649Y46226D01*
X84862Y46138D01*
X85090Y46107D01*
X85318Y46138D01*
X85531Y46226D01*
X85714Y46366D01*
X85854Y46549D01*
X85942Y46762D01*
X85973Y46990D01*
X85942Y47218D01*
X85854Y47431D01*
X85714Y47614D01*
X85531Y47754D01*
X85318Y47842D01*
X85090Y47873D01*
D02*
G37*
G36*
X82550D02*
X82322Y47842D01*
X82109Y47754D01*
X81926Y47614D01*
X81786Y47431D01*
X81698Y47218D01*
X81667Y46990D01*
X81698Y46762D01*
X81786Y46549D01*
X81926Y46366D01*
X82109Y46226D01*
X82322Y46138D01*
X82550Y46107D01*
X82778Y46138D01*
X82991Y46226D01*
X83174Y46366D01*
X83314Y46549D01*
X83402Y46762D01*
X83433Y46990D01*
X83402Y47218D01*
X83314Y47431D01*
X83174Y47614D01*
X82991Y47754D01*
X82778Y47842D01*
X82550Y47873D01*
D02*
G37*
G36*
X69044Y46482D02*
X68580D01*
Y46018D01*
X68689Y46040D01*
X68888Y46174D01*
X69022Y46373D01*
X69044Y46482D01*
D02*
G37*
G36*
X87630Y47873D02*
X87402Y47842D01*
X87189Y47754D01*
X87006Y47614D01*
X86866Y47431D01*
X86778Y47218D01*
X86747Y46990D01*
X86778Y46762D01*
X86866Y46549D01*
X87006Y46366D01*
X87189Y46226D01*
X87402Y46138D01*
X87630Y46107D01*
X87858Y46138D01*
X88071Y46226D01*
X88254Y46366D01*
X88394Y46549D01*
X88482Y46762D01*
X88513Y46990D01*
X88482Y47218D01*
X88394Y47431D01*
X88254Y47614D01*
X88071Y47754D01*
X87858Y47842D01*
X87630Y47873D01*
D02*
G37*
G36*
X68326Y47200D02*
X68217Y47178D01*
X68018Y47044D01*
X67884Y46845D01*
X67862Y46736D01*
X68326D01*
Y47200D01*
D02*
G37*
G36*
X73152Y47474D02*
X72967Y47437D01*
X72810Y47332D01*
X72705Y47175D01*
X72668Y46990D01*
X72705Y46805D01*
X72810Y46648D01*
X72967Y46543D01*
X73152Y46506D01*
X73337Y46543D01*
X73494Y46648D01*
X73599Y46805D01*
X73636Y46990D01*
X73599Y47175D01*
X73494Y47332D01*
X73337Y47437D01*
X73152Y47474D01*
D02*
G37*
G36*
X90170Y47873D02*
X89942Y47842D01*
X89729Y47754D01*
X89546Y47614D01*
X89406Y47431D01*
X89318Y47218D01*
X89287Y46990D01*
X89318Y46762D01*
X89406Y46549D01*
X89546Y46366D01*
X89729Y46226D01*
X89942Y46138D01*
X90170Y46107D01*
X90398Y46138D01*
X90611Y46226D01*
X90794Y46366D01*
X90934Y46549D01*
X91022Y46762D01*
X91053Y46990D01*
X91022Y47218D01*
X90934Y47431D01*
X90794Y47614D01*
X90611Y47754D01*
X90398Y47842D01*
X90170Y47873D01*
D02*
G37*
G36*
X39707Y37592D02*
X39243D01*
Y37128D01*
X39352Y37150D01*
X39551Y37284D01*
X39685Y37483D01*
X39707Y37592D01*
D02*
G37*
G36*
X38989D02*
X38525D01*
X38547Y37483D01*
X38681Y37284D01*
X38880Y37150D01*
X38989Y37128D01*
Y37592D01*
D02*
G37*
G36*
X49657Y38076D02*
X49472Y38039D01*
X49315Y37934D01*
X49210Y37777D01*
X49173Y37592D01*
X49210Y37407D01*
X49315Y37250D01*
X49472Y37145D01*
X49657Y37108D01*
X49842Y37145D01*
X49999Y37250D01*
X50104Y37407D01*
X50141Y37592D01*
X50104Y37777D01*
X49999Y37934D01*
X49842Y38039D01*
X49657Y38076D01*
D02*
G37*
G36*
X40640Y38203D02*
X40455Y38166D01*
X40298Y38061D01*
X40193Y37904D01*
X40156Y37719D01*
X40193Y37534D01*
X40298Y37377D01*
X40455Y37272D01*
X40640Y37235D01*
X40825Y37272D01*
X40982Y37377D01*
X41087Y37534D01*
X41124Y37719D01*
X41087Y37904D01*
X40982Y38061D01*
X40825Y38166D01*
X40640Y38203D01*
D02*
G37*
G36*
X39243Y38310D02*
Y37846D01*
X39707D01*
X39685Y37955D01*
X39551Y38154D01*
X39352Y38288D01*
X39243Y38310D01*
D02*
G37*
G36*
X38989D02*
X38880Y38288D01*
X38681Y38154D01*
X38547Y37955D01*
X38525Y37846D01*
X38989D01*
Y38310D01*
D02*
G37*
G36*
X30607Y38994D02*
X30409Y38967D01*
X30224Y38891D01*
X30065Y38769D01*
X29943Y38610D01*
X29867Y38425D01*
X29840Y38227D01*
X29867Y38029D01*
X29943Y37844D01*
X30065Y37685D01*
X30224Y37563D01*
X30409Y37487D01*
X30607Y37460D01*
X30805Y37487D01*
X30990Y37563D01*
X31149Y37685D01*
X31271Y37844D01*
X31347Y38029D01*
X31374Y38227D01*
X31347Y38425D01*
X31271Y38610D01*
X31149Y38769D01*
X30990Y38891D01*
X30805Y38967D01*
X30607Y38994D01*
D02*
G37*
G36*
X71247Y36195D02*
X70783D01*
X70805Y36086D01*
X70939Y35887D01*
X71138Y35753D01*
X71247Y35731D01*
Y36195D01*
D02*
G37*
G36*
X72771Y35282D02*
X72586Y35245D01*
X72429Y35140D01*
X72324Y34983D01*
X72287Y34798D01*
X72324Y34613D01*
X72429Y34456D01*
X72586Y34351D01*
X72771Y34314D01*
X72956Y34351D01*
X73113Y34456D01*
X73218Y34613D01*
X73255Y34798D01*
X73218Y34983D01*
X73113Y35140D01*
X72956Y35245D01*
X72771Y35282D01*
D02*
G37*
G36*
X72263Y38867D02*
X72065Y38840D01*
X71880Y38764D01*
X71721Y38642D01*
X71599Y38483D01*
X71523Y38298D01*
X71496Y38100D01*
X71523Y37902D01*
X71599Y37717D01*
X71721Y37558D01*
X71880Y37436D01*
X72065Y37360D01*
X72263Y37333D01*
X72461Y37360D01*
X72588Y37412D01*
X75562Y34438D01*
Y33990D01*
X75436Y33938D01*
X75277Y33816D01*
X75155Y33657D01*
X75079Y33472D01*
X75052Y33274D01*
X75079Y33076D01*
X75155Y32891D01*
X75277Y32732D01*
X75436Y32610D01*
X75621Y32534D01*
X75819Y32507D01*
X76017Y32534D01*
X76202Y32610D01*
X76361Y32732D01*
X76483Y32891D01*
X76559Y33076D01*
X76586Y33274D01*
X76559Y33472D01*
X76483Y33657D01*
X76361Y33816D01*
X76202Y33938D01*
X76076Y33990D01*
Y34544D01*
X76056Y34642D01*
X76001Y34726D01*
X72951Y37775D01*
X73003Y37902D01*
X73030Y38100D01*
X73003Y38298D01*
X72927Y38483D01*
X72805Y38642D01*
X72646Y38764D01*
X72461Y38840D01*
X72263Y38867D01*
D02*
G37*
G36*
X71965Y36195D02*
X71501D01*
Y35731D01*
X71610Y35753D01*
X71809Y35887D01*
X71943Y36086D01*
X71965Y36195D01*
D02*
G37*
G36*
X71501Y36913D02*
Y36449D01*
X71965D01*
X71943Y36558D01*
X71809Y36757D01*
X71610Y36891D01*
X71501Y36913D01*
D02*
G37*
G36*
X71247D02*
X71138Y36891D01*
X70939Y36757D01*
X70805Y36558D01*
X70783Y36449D01*
X71247D01*
Y36913D01*
D02*
G37*
G36*
X67818Y40899D02*
X67620Y40872D01*
X67435Y40796D01*
X67276Y40674D01*
X67154Y40515D01*
X67078Y40330D01*
X67051Y40132D01*
X67078Y39934D01*
X67154Y39749D01*
X67276Y39590D01*
X67435Y39468D01*
X67620Y39392D01*
X67818Y39365D01*
X68016Y39392D01*
X68201Y39468D01*
X68360Y39590D01*
X68482Y39749D01*
X68534Y39875D01*
X75967D01*
X78941Y36901D01*
X78889Y36774D01*
X78862Y36576D01*
X78889Y36378D01*
X78965Y36193D01*
X79087Y36034D01*
X79246Y35912D01*
X79431Y35836D01*
X79629Y35809D01*
X79827Y35836D01*
X80012Y35912D01*
X80171Y36034D01*
X80293Y36193D01*
X80369Y36378D01*
X80396Y36576D01*
X80369Y36774D01*
X80293Y36959D01*
X80171Y37118D01*
X80012Y37240D01*
X79827Y37316D01*
X79629Y37343D01*
X79431Y37316D01*
X79304Y37264D01*
X77036Y39533D01*
X77077Y39671D01*
X77147Y39685D01*
X77304Y39790D01*
X77409Y39947D01*
X77446Y40132D01*
X77409Y40317D01*
X77304Y40474D01*
X77147Y40579D01*
X76962Y40616D01*
X76777Y40579D01*
X76620Y40474D01*
X76515Y40317D01*
X76501Y40247D01*
X76363Y40206D01*
X76255Y40314D01*
X76171Y40369D01*
X76073Y40389D01*
X68534D01*
X68482Y40515D01*
X68360Y40674D01*
X68201Y40796D01*
X68016Y40872D01*
X67818Y40899D01*
D02*
G37*
G36*
X85090Y42666D02*
X84862Y42635D01*
X84649Y42547D01*
X84466Y42407D01*
X84326Y42224D01*
X84238Y42011D01*
X84207Y41783D01*
X84238Y41555D01*
X84326Y41342D01*
X84466Y41159D01*
X84649Y41019D01*
X84862Y40931D01*
X85090Y40900D01*
X85318Y40931D01*
X85531Y41019D01*
X85714Y41159D01*
X85854Y41342D01*
X85942Y41555D01*
X85973Y41783D01*
X85942Y42011D01*
X85854Y42224D01*
X85714Y42407D01*
X85531Y42547D01*
X85318Y42635D01*
X85090Y42666D01*
D02*
G37*
G36*
X82550D02*
X82322Y42635D01*
X82109Y42547D01*
X81926Y42407D01*
X81786Y42224D01*
X81698Y42011D01*
X81667Y41783D01*
X81698Y41555D01*
X81786Y41342D01*
X81926Y41159D01*
X82109Y41019D01*
X82322Y40931D01*
X82550Y40900D01*
X82778Y40931D01*
X82991Y41019D01*
X83174Y41159D01*
X83314Y41342D01*
X83402Y41555D01*
X83433Y41783D01*
X83402Y42011D01*
X83314Y42224D01*
X83174Y42407D01*
X82991Y42547D01*
X82778Y42635D01*
X82550Y42666D01*
D02*
G37*
G36*
X96774Y42043D02*
X96542Y42012D01*
X96327Y41923D01*
X96141Y41781D01*
X95999Y41595D01*
X95910Y41380D01*
X95879Y41148D01*
X95910Y40916D01*
X95999Y40701D01*
X96141Y40515D01*
X96327Y40373D01*
X96542Y40284D01*
X96774Y40253D01*
X97006Y40284D01*
X97221Y40373D01*
X97407Y40515D01*
X97549Y40701D01*
X97638Y40916D01*
X97669Y41148D01*
X97638Y41380D01*
X97549Y41595D01*
X97407Y41781D01*
X97221Y41923D01*
X97006Y42012D01*
X96774Y42043D01*
D02*
G37*
G36*
X87630Y42666D02*
X87402Y42635D01*
X87189Y42547D01*
X87006Y42407D01*
X86866Y42224D01*
X86778Y42011D01*
X86747Y41783D01*
X86778Y41555D01*
X86866Y41342D01*
X87006Y41159D01*
X87189Y41019D01*
X87402Y40931D01*
X87630Y40900D01*
X87858Y40931D01*
X88071Y41019D01*
X88254Y41159D01*
X88394Y41342D01*
X88482Y41555D01*
X88513Y41783D01*
X88482Y42011D01*
X88394Y42224D01*
X88254Y42407D01*
X88071Y42547D01*
X87858Y42635D01*
X87630Y42666D01*
D02*
G37*
G36*
X52578Y42140D02*
X52393Y42103D01*
X52236Y41998D01*
X52131Y41841D01*
X52094Y41656D01*
X52131Y41471D01*
X52236Y41314D01*
X52393Y41209D01*
X52578Y41172D01*
X52763Y41209D01*
X52920Y41314D01*
X53025Y41471D01*
X53062Y41656D01*
X53025Y41841D01*
X52920Y41998D01*
X52763Y42103D01*
X52578Y42140D01*
D02*
G37*
G36*
X49530Y42805D02*
X49298Y42774D01*
X49083Y42685D01*
X48897Y42543D01*
X48755Y42357D01*
X48666Y42142D01*
X48635Y41910D01*
X48666Y41678D01*
X48755Y41463D01*
X48897Y41277D01*
X49083Y41135D01*
X49298Y41046D01*
X49530Y41015D01*
X49762Y41046D01*
X49977Y41135D01*
X50163Y41277D01*
X50305Y41463D01*
X50394Y41678D01*
X50425Y41910D01*
X50394Y42142D01*
X50305Y42357D01*
X50163Y42543D01*
X49977Y42685D01*
X49762Y42774D01*
X49530Y42805D01*
D02*
G37*
G36*
X90170Y42666D02*
X89942Y42635D01*
X89729Y42547D01*
X89546Y42407D01*
X89406Y42224D01*
X89318Y42011D01*
X89287Y41783D01*
X89318Y41555D01*
X89406Y41342D01*
X89546Y41159D01*
X89729Y41019D01*
X89942Y40931D01*
X90170Y40900D01*
X90398Y40931D01*
X90611Y41019D01*
X90794Y41159D01*
X90934Y41342D01*
X91022Y41555D01*
X91053Y41783D01*
X91022Y42011D01*
X90934Y42224D01*
X90794Y42407D01*
X90611Y42547D01*
X90398Y42635D01*
X90170Y42666D01*
D02*
G37*
G36*
Y40126D02*
X89942Y40095D01*
X89729Y40007D01*
X89546Y39867D01*
X89406Y39684D01*
X89318Y39471D01*
X89287Y39243D01*
X89318Y39015D01*
X89406Y38802D01*
X89546Y38619D01*
X89729Y38479D01*
X89942Y38391D01*
X90170Y38360D01*
X90398Y38391D01*
X90611Y38479D01*
X90794Y38619D01*
X90934Y38802D01*
X91022Y39015D01*
X91053Y39243D01*
X91022Y39471D01*
X90934Y39684D01*
X90794Y39867D01*
X90611Y40007D01*
X90398Y40095D01*
X90170Y40126D01*
D02*
G37*
G36*
X87630D02*
X87402Y40095D01*
X87189Y40007D01*
X87006Y39867D01*
X86866Y39684D01*
X86778Y39471D01*
X86747Y39243D01*
X86778Y39015D01*
X86866Y38802D01*
X87006Y38619D01*
X87189Y38479D01*
X87402Y38391D01*
X87630Y38360D01*
X87858Y38391D01*
X88071Y38479D01*
X88254Y38619D01*
X88394Y38802D01*
X88482Y39015D01*
X88513Y39243D01*
X88482Y39471D01*
X88394Y39684D01*
X88254Y39867D01*
X88071Y40007D01*
X87858Y40095D01*
X87630Y40126D01*
D02*
G37*
G36*
X85090D02*
X84862Y40095D01*
X84649Y40007D01*
X84466Y39867D01*
X84326Y39684D01*
X84238Y39471D01*
X84207Y39243D01*
X84238Y39015D01*
X84326Y38802D01*
X84466Y38619D01*
X84649Y38479D01*
X84862Y38391D01*
X85090Y38360D01*
X85318Y38391D01*
X85531Y38479D01*
X85714Y38619D01*
X85854Y38802D01*
X85942Y39015D01*
X85973Y39243D01*
X85942Y39471D01*
X85854Y39684D01*
X85714Y39867D01*
X85531Y40007D01*
X85318Y40095D01*
X85090Y40126D01*
D02*
G37*
G36*
X83425Y40118D02*
X81675D01*
Y38368D01*
X83425D01*
Y40118D01*
D02*
G37*
G36*
X26924Y41154D02*
X26692Y41123D01*
X26477Y41034D01*
X26291Y40892D01*
X26149Y40706D01*
X26060Y40491D01*
X26029Y40259D01*
X26060Y40027D01*
X26149Y39812D01*
X26291Y39626D01*
X26477Y39484D01*
X26692Y39395D01*
X26924Y39364D01*
X27156Y39395D01*
X27371Y39484D01*
X27557Y39626D01*
X27699Y39812D01*
X27788Y40027D01*
X27819Y40259D01*
X27788Y40491D01*
X27699Y40706D01*
X27557Y40892D01*
X27371Y41034D01*
X27156Y41123D01*
X26924Y41154D01*
D02*
G37*
G36*
X56134Y39727D02*
X55949Y39690D01*
X55792Y39585D01*
X55687Y39428D01*
X55650Y39243D01*
X55687Y39058D01*
X55792Y38901D01*
X55949Y38796D01*
X56134Y38759D01*
X56319Y38796D01*
X56476Y38901D01*
X56581Y39058D01*
X56618Y39243D01*
X56581Y39428D01*
X56476Y39585D01*
X56319Y39690D01*
X56134Y39727D01*
D02*
G37*
G36*
X36449Y39346D02*
X36264Y39309D01*
X36107Y39204D01*
X36002Y39047D01*
X35965Y38862D01*
X36002Y38677D01*
X36107Y38520D01*
X36264Y38415D01*
X36449Y38378D01*
X36634Y38415D01*
X36791Y38520D01*
X36896Y38677D01*
X36933Y38862D01*
X36896Y39047D01*
X36791Y39204D01*
X36634Y39309D01*
X36449Y39346D01*
D02*
G37*
G36*
X49530Y67000D02*
X49298Y66969D01*
X49083Y66880D01*
X48897Y66738D01*
X48755Y66552D01*
X48666Y66337D01*
X48635Y66105D01*
X48666Y65873D01*
X48755Y65658D01*
X48897Y65472D01*
X49083Y65330D01*
X49298Y65241D01*
X49530Y65210D01*
X49762Y65241D01*
X49977Y65330D01*
X50163Y65472D01*
X50305Y65658D01*
X50394Y65873D01*
X50425Y66105D01*
X50394Y66337D01*
X50305Y66552D01*
X50163Y66738D01*
X49977Y66880D01*
X49762Y66969D01*
X49530Y67000D01*
D02*
G37*
G36*
X90170Y66861D02*
X89942Y66830D01*
X89729Y66742D01*
X89546Y66602D01*
X89406Y66419D01*
X89318Y66206D01*
X89287Y65978D01*
X89318Y65750D01*
X89406Y65537D01*
X89546Y65354D01*
X89729Y65214D01*
X89942Y65126D01*
X90170Y65095D01*
X90398Y65126D01*
X90611Y65214D01*
X90794Y65354D01*
X90934Y65537D01*
X91022Y65750D01*
X91053Y65978D01*
X91022Y66206D01*
X90934Y66419D01*
X90794Y66602D01*
X90611Y66742D01*
X90398Y66830D01*
X90170Y66861D01*
D02*
G37*
G36*
X87630D02*
X87402Y66830D01*
X87189Y66742D01*
X87006Y66602D01*
X86866Y66419D01*
X86778Y66206D01*
X86747Y65978D01*
X86778Y65750D01*
X86866Y65537D01*
X87006Y65354D01*
X87189Y65214D01*
X87402Y65126D01*
X87630Y65095D01*
X87858Y65126D01*
X88071Y65214D01*
X88254Y65354D01*
X88394Y65537D01*
X88482Y65750D01*
X88513Y65978D01*
X88482Y66206D01*
X88394Y66419D01*
X88254Y66602D01*
X88071Y66742D01*
X87858Y66830D01*
X87630Y66861D01*
D02*
G37*
G36*
X52578Y66335D02*
X52393Y66298D01*
X52236Y66193D01*
X52131Y66036D01*
X52094Y65851D01*
X52131Y65666D01*
X52236Y65509D01*
X52393Y65404D01*
X52578Y65367D01*
X52763Y65404D01*
X52920Y65509D01*
X53025Y65666D01*
X53062Y65851D01*
X53025Y66036D01*
X52920Y66193D01*
X52763Y66298D01*
X52578Y66335D01*
D02*
G37*
G36*
X94107Y68131D02*
X93879Y68100D01*
X93666Y68012D01*
X93483Y67872D01*
X93343Y67689D01*
X93255Y67476D01*
X93224Y67248D01*
X93255Y67020D01*
X93343Y66807D01*
X93483Y66624D01*
X93666Y66484D01*
X93879Y66396D01*
X94107Y66365D01*
X94335Y66396D01*
X94548Y66484D01*
X94731Y66624D01*
X94871Y66807D01*
X94959Y67020D01*
X94990Y67248D01*
X94959Y67476D01*
X94871Y67689D01*
X94731Y67872D01*
X94548Y68012D01*
X94335Y68100D01*
X94107Y68131D01*
D02*
G37*
G36*
X72009Y66970D02*
X71824Y66933D01*
X71667Y66828D01*
X71562Y66671D01*
X71525Y66486D01*
X71562Y66301D01*
X71667Y66144D01*
X71824Y66039D01*
X72009Y66002D01*
X72194Y66039D01*
X72351Y66144D01*
X72456Y66301D01*
X72493Y66486D01*
X72456Y66671D01*
X72351Y66828D01*
X72194Y66933D01*
X72009Y66970D01*
D02*
G37*
G36*
X54483Y66843D02*
X54298Y66806D01*
X54141Y66701D01*
X54036Y66544D01*
X53999Y66359D01*
X54036Y66174D01*
X54141Y66017D01*
X54298Y65912D01*
X54483Y65875D01*
X54668Y65912D01*
X54825Y66017D01*
X54930Y66174D01*
X54967Y66359D01*
X54930Y66544D01*
X54825Y66701D01*
X54668Y66806D01*
X54483Y66843D01*
D02*
G37*
G36*
X56134Y63922D02*
X55949Y63885D01*
X55792Y63780D01*
X55687Y63623D01*
X55650Y63438D01*
X55687Y63253D01*
X55792Y63096D01*
X55949Y62991D01*
X56134Y62954D01*
X56319Y62991D01*
X56476Y63096D01*
X56581Y63253D01*
X56618Y63438D01*
X56581Y63623D01*
X56476Y63780D01*
X56319Y63885D01*
X56134Y63922D01*
D02*
G37*
G36*
X36449Y63541D02*
X36264Y63504D01*
X36107Y63399D01*
X36002Y63242D01*
X35965Y63057D01*
X36002Y62872D01*
X36107Y62715D01*
X36264Y62610D01*
X36449Y62573D01*
X36634Y62610D01*
X36791Y62715D01*
X36896Y62872D01*
X36933Y63057D01*
X36896Y63242D01*
X36791Y63399D01*
X36634Y63504D01*
X36449Y63541D01*
D02*
G37*
G36*
X83425Y64313D02*
X81675D01*
Y62563D01*
X83425D01*
Y64313D01*
D02*
G37*
G36*
X26924Y65349D02*
X26692Y65318D01*
X26477Y65229D01*
X26291Y65087D01*
X26149Y64901D01*
X26060Y64686D01*
X26029Y64454D01*
X26060Y64222D01*
X26149Y64007D01*
X26291Y63821D01*
X26477Y63679D01*
X26692Y63590D01*
X26924Y63559D01*
X27156Y63590D01*
X27371Y63679D01*
X27557Y63821D01*
X27699Y64007D01*
X27788Y64222D01*
X27819Y64454D01*
X27788Y64686D01*
X27699Y64901D01*
X27557Y65087D01*
X27371Y65229D01*
X27156Y65318D01*
X26924Y65349D01*
D02*
G37*
G36*
X85090Y66861D02*
X84862Y66830D01*
X84649Y66742D01*
X84466Y66602D01*
X84326Y66419D01*
X84238Y66206D01*
X84207Y65978D01*
X84238Y65750D01*
X84326Y65537D01*
X84466Y65354D01*
X84649Y65214D01*
X84862Y65126D01*
X85090Y65095D01*
X85318Y65126D01*
X85531Y65214D01*
X85714Y65354D01*
X85854Y65537D01*
X85942Y65750D01*
X85973Y65978D01*
X85942Y66206D01*
X85854Y66419D01*
X85714Y66602D01*
X85531Y66742D01*
X85318Y66830D01*
X85090Y66861D01*
D02*
G37*
G36*
X82550D02*
X82322Y66830D01*
X82109Y66742D01*
X81926Y66602D01*
X81786Y66419D01*
X81698Y66206D01*
X81667Y65978D01*
X81698Y65750D01*
X81786Y65537D01*
X81926Y65354D01*
X82109Y65214D01*
X82322Y65126D01*
X82550Y65095D01*
X82778Y65126D01*
X82991Y65214D01*
X83174Y65354D01*
X83314Y65537D01*
X83402Y65750D01*
X83433Y65978D01*
X83402Y66206D01*
X83314Y66419D01*
X83174Y66602D01*
X82991Y66742D01*
X82778Y66830D01*
X82550Y66861D01*
D02*
G37*
G36*
X96774Y66238D02*
X96542Y66207D01*
X96327Y66118D01*
X96141Y65976D01*
X95999Y65790D01*
X95910Y65575D01*
X95879Y65343D01*
X95910Y65111D01*
X95999Y64896D01*
X96141Y64710D01*
X96327Y64568D01*
X96542Y64479D01*
X96774Y64448D01*
X97006Y64479D01*
X97221Y64568D01*
X97407Y64710D01*
X97549Y64896D01*
X97638Y65111D01*
X97669Y65343D01*
X97638Y65575D01*
X97549Y65790D01*
X97407Y65976D01*
X97221Y66118D01*
X97006Y66207D01*
X96774Y66238D01*
D02*
G37*
G36*
X54737Y71698D02*
X54539Y71671D01*
X54354Y71595D01*
X54195Y71473D01*
X54073Y71314D01*
X53997Y71129D01*
X53970Y70931D01*
X53997Y70733D01*
X54073Y70548D01*
X54195Y70389D01*
X54354Y70267D01*
X54539Y70191D01*
X54737Y70164D01*
X54935Y70191D01*
X55120Y70267D01*
X55279Y70389D01*
X55401Y70548D01*
X55477Y70733D01*
X55504Y70931D01*
X55477Y71129D01*
X55401Y71314D01*
X55279Y71473D01*
X55120Y71595D01*
X54935Y71671D01*
X54737Y71698D01*
D02*
G37*
G36*
X53975Y73857D02*
X53777Y73830D01*
X53592Y73754D01*
X53433Y73632D01*
X53311Y73473D01*
X53235Y73288D01*
X53208Y73090D01*
X53235Y72892D01*
X53311Y72707D01*
X53433Y72548D01*
X53592Y72426D01*
X53777Y72350D01*
X53975Y72323D01*
X54173Y72350D01*
X54358Y72426D01*
X54517Y72548D01*
X54639Y72707D01*
X54664Y72768D01*
X56890D01*
X58721Y70937D01*
X58696Y70875D01*
X58669Y70677D01*
X58696Y70479D01*
X58772Y70294D01*
X58894Y70135D01*
X59053Y70013D01*
X59238Y69937D01*
X59436Y69910D01*
X59634Y69937D01*
X59819Y70013D01*
X59978Y70135D01*
X60100Y70294D01*
X60176Y70479D01*
X60203Y70677D01*
X60176Y70875D01*
X60100Y71060D01*
X59978Y71219D01*
X59819Y71341D01*
X59634Y71417D01*
X59436Y71444D01*
X59238Y71417D01*
X59176Y71392D01*
X57250Y73317D01*
X57146Y73387D01*
X57023Y73412D01*
X54664D01*
X54639Y73473D01*
X54517Y73632D01*
X54358Y73754D01*
X54173Y73830D01*
X53975Y73857D01*
D02*
G37*
G36*
X41275Y70653D02*
X41090Y70616D01*
X40933Y70511D01*
X40828Y70354D01*
X40791Y70169D01*
X40828Y69984D01*
X40933Y69827D01*
X41090Y69722D01*
X41275Y69685D01*
X41460Y69722D01*
X41617Y69827D01*
X41722Y69984D01*
X41759Y70169D01*
X41722Y70354D01*
X41617Y70511D01*
X41460Y70616D01*
X41275Y70653D01*
D02*
G37*
G36*
X68326Y70677D02*
X67862D01*
X67884Y70568D01*
X68018Y70369D01*
X68217Y70235D01*
X68326Y70213D01*
Y70677D01*
D02*
G37*
G36*
X85090Y72068D02*
X84862Y72037D01*
X84649Y71949D01*
X84466Y71809D01*
X84326Y71626D01*
X84238Y71413D01*
X84207Y71185D01*
X84238Y70957D01*
X84326Y70744D01*
X84466Y70561D01*
X84649Y70421D01*
X84862Y70333D01*
X85090Y70302D01*
X85318Y70333D01*
X85531Y70421D01*
X85714Y70561D01*
X85854Y70744D01*
X85942Y70957D01*
X85973Y71185D01*
X85942Y71413D01*
X85854Y71626D01*
X85714Y71809D01*
X85531Y71949D01*
X85318Y72037D01*
X85090Y72068D01*
D02*
G37*
G36*
X82550D02*
X82322Y72037D01*
X82109Y71949D01*
X81926Y71809D01*
X81786Y71626D01*
X81698Y71413D01*
X81667Y71185D01*
X81698Y70957D01*
X81786Y70744D01*
X81926Y70561D01*
X82109Y70421D01*
X82322Y70333D01*
X82550Y70302D01*
X82778Y70333D01*
X82991Y70421D01*
X83174Y70561D01*
X83314Y70744D01*
X83402Y70957D01*
X83433Y71185D01*
X83402Y71413D01*
X83314Y71626D01*
X83174Y71809D01*
X82991Y71949D01*
X82778Y72037D01*
X82550Y72068D01*
D02*
G37*
G36*
X69044Y70677D02*
X68580D01*
Y70213D01*
X68689Y70235D01*
X68888Y70369D01*
X69022Y70568D01*
X69044Y70677D01*
D02*
G37*
G36*
X56598Y68010D02*
X56134D01*
Y67546D01*
X56243Y67568D01*
X56442Y67702D01*
X56576Y67901D01*
X56598Y68010D01*
D02*
G37*
G36*
X55880D02*
X55416D01*
X55438Y67901D01*
X55572Y67702D01*
X55771Y67568D01*
X55880Y67546D01*
Y68010D01*
D02*
G37*
G36*
X63627Y68905D02*
X63395Y68874D01*
X63180Y68785D01*
X62994Y68643D01*
X62852Y68457D01*
X62763Y68242D01*
X62732Y68010D01*
X62763Y67778D01*
X62852Y67563D01*
X62994Y67377D01*
X63180Y67235D01*
X63395Y67146D01*
X63627Y67115D01*
X63859Y67146D01*
X64074Y67235D01*
X64260Y67377D01*
X64402Y67563D01*
X64491Y67778D01*
X64522Y68010D01*
X64491Y68242D01*
X64402Y68457D01*
X64260Y68643D01*
X64074Y68785D01*
X63859Y68874D01*
X63627Y68905D01*
D02*
G37*
G36*
X45720Y69002D02*
X45535Y68965D01*
X45378Y68860D01*
X45273Y68703D01*
X45236Y68518D01*
X45273Y68333D01*
X45378Y68176D01*
X45535Y68071D01*
X45720Y68034D01*
X45905Y68071D01*
X46062Y68176D01*
X46167Y68333D01*
X46204Y68518D01*
X46167Y68703D01*
X46062Y68860D01*
X45905Y68965D01*
X45720Y69002D01*
D02*
G37*
G36*
X94982Y70663D02*
X93232D01*
Y68913D01*
X94982D01*
Y70663D01*
D02*
G37*
G36*
X56134Y68728D02*
Y68264D01*
X56598D01*
X56576Y68373D01*
X56442Y68572D01*
X56243Y68706D01*
X56134Y68728D01*
D02*
G37*
G36*
X55880D02*
X55771Y68706D01*
X55572Y68572D01*
X55438Y68373D01*
X55416Y68264D01*
X55880D01*
Y68728D01*
D02*
G37*
G36*
X77089Y54459D02*
X76904Y54422D01*
X76747Y54317D01*
X76642Y54160D01*
X76605Y53975D01*
X76642Y53790D01*
X76747Y53633D01*
X76904Y53528D01*
X77089Y53491D01*
X77274Y53528D01*
X77431Y53633D01*
X77536Y53790D01*
X77573Y53975D01*
X77536Y54160D01*
X77431Y54317D01*
X77274Y54422D01*
X77089Y54459D01*
D02*
G37*
G36*
X61595Y53092D02*
X61363Y53061D01*
X61148Y52972D01*
X60962Y52830D01*
X60820Y52644D01*
X60731Y52429D01*
X60700Y52197D01*
X60731Y51965D01*
X60783Y51840D01*
X60531Y51588D01*
X53690D01*
X53665Y51649D01*
X53543Y51808D01*
X53384Y51930D01*
X53199Y52006D01*
X53001Y52033D01*
X52803Y52006D01*
X52618Y51930D01*
X52459Y51808D01*
X52337Y51649D01*
X52261Y51464D01*
X52234Y51266D01*
X52261Y51068D01*
X52337Y50883D01*
X52459Y50724D01*
X52618Y50602D01*
X52803Y50526D01*
X53001Y50499D01*
X53199Y50526D01*
X53384Y50602D01*
X53543Y50724D01*
X53665Y50883D01*
X53690Y50944D01*
X60664D01*
X60787Y50969D01*
X60891Y51039D01*
X61029Y51176D01*
X61146Y51127D01*
Y42805D01*
X57810Y39468D01*
X57785Y39473D01*
X57600Y39436D01*
X57443Y39331D01*
X57338Y39174D01*
X57301Y38989D01*
X57338Y38804D01*
X57443Y38647D01*
X57600Y38542D01*
X57785Y38505D01*
X57970Y38542D01*
X58127Y38647D01*
X58232Y38804D01*
X58269Y38989D01*
X58264Y39014D01*
X61695Y42445D01*
X61765Y42549D01*
X61790Y42672D01*
Y51328D01*
X61827Y51333D01*
X62042Y51422D01*
X62228Y51564D01*
X62370Y51750D01*
X62459Y51965D01*
X62490Y52197D01*
X62459Y52429D01*
X62370Y52644D01*
X62228Y52830D01*
X62042Y52972D01*
X61827Y53061D01*
X61595Y53092D01*
D02*
G37*
G36*
X26871Y50850D02*
X26686Y50813D01*
X26529Y50708D01*
X26424Y50551D01*
X26387Y50366D01*
X26424Y50181D01*
X26529Y50024D01*
X26686Y49919D01*
X26871Y49882D01*
X27056Y49919D01*
X27213Y50024D01*
X27318Y50181D01*
X27355Y50366D01*
X27318Y50551D01*
X27213Y50708D01*
X27056Y50813D01*
X26871Y50850D01*
D02*
G37*
G36*
X72644Y54713D02*
X72459Y54676D01*
X72302Y54571D01*
X72197Y54414D01*
X72160Y54229D01*
X72197Y54044D01*
X72302Y53887D01*
X72459Y53782D01*
X72644Y53745D01*
X72829Y53782D01*
X72986Y53887D01*
X73091Y54044D01*
X73128Y54229D01*
X73091Y54414D01*
X72986Y54571D01*
X72829Y54676D01*
X72644Y54713D01*
D02*
G37*
G36*
X71247Y60390D02*
X70783D01*
X70805Y60281D01*
X70939Y60082D01*
X71138Y59948D01*
X71247Y59926D01*
Y60390D01*
D02*
G37*
G36*
X72771Y59477D02*
X72586Y59440D01*
X72429Y59335D01*
X72324Y59178D01*
X72287Y58993D01*
X72324Y58808D01*
X72429Y58651D01*
X72586Y58546D01*
X72771Y58509D01*
X72956Y58546D01*
X73113Y58651D01*
X73218Y58808D01*
X73255Y58993D01*
X73218Y59178D01*
X73113Y59335D01*
X72956Y59440D01*
X72771Y59477D01*
D02*
G37*
G36*
X72263Y63062D02*
X72065Y63035D01*
X71880Y62959D01*
X71721Y62837D01*
X71599Y62678D01*
X71523Y62493D01*
X71496Y62295D01*
X71523Y62097D01*
X71599Y61912D01*
X71721Y61753D01*
X71880Y61631D01*
X72065Y61555D01*
X72263Y61528D01*
X72461Y61555D01*
X72588Y61607D01*
X75562Y58633D01*
Y58185D01*
X75436Y58133D01*
X75277Y58011D01*
X75155Y57852D01*
X75079Y57667D01*
X75052Y57469D01*
X75079Y57271D01*
X75155Y57086D01*
X75277Y56927D01*
X75436Y56805D01*
X75621Y56729D01*
X75819Y56702D01*
X76017Y56729D01*
X76202Y56805D01*
X76361Y56927D01*
X76483Y57086D01*
X76559Y57271D01*
X76586Y57469D01*
X76559Y57667D01*
X76483Y57852D01*
X76361Y58011D01*
X76202Y58133D01*
X76076Y58185D01*
Y58739D01*
X76056Y58837D01*
X76001Y58921D01*
X72951Y61970D01*
X73003Y62097D01*
X73030Y62295D01*
X73003Y62493D01*
X72927Y62678D01*
X72805Y62837D01*
X72646Y62959D01*
X72461Y63035D01*
X72263Y63062D01*
D02*
G37*
G36*
X91045Y50405D02*
X89295D01*
Y48655D01*
X91045D01*
Y50405D01*
D02*
G37*
G36*
X87630Y50413D02*
X87402Y50382D01*
X87189Y50294D01*
X87006Y50154D01*
X86866Y49971D01*
X86778Y49758D01*
X86747Y49530D01*
X86778Y49302D01*
X86866Y49089D01*
X87006Y48906D01*
X87189Y48766D01*
X87402Y48678D01*
X87630Y48647D01*
X87858Y48678D01*
X88071Y48766D01*
X88254Y48906D01*
X88394Y49089D01*
X88482Y49302D01*
X88513Y49530D01*
X88482Y49758D01*
X88394Y49971D01*
X88254Y50154D01*
X88071Y50294D01*
X87858Y50382D01*
X87630Y50413D01*
D02*
G37*
G36*
X85090D02*
X84862Y50382D01*
X84649Y50294D01*
X84466Y50154D01*
X84326Y49971D01*
X84238Y49758D01*
X84207Y49530D01*
X84238Y49302D01*
X84326Y49089D01*
X84466Y48906D01*
X84649Y48766D01*
X84862Y48678D01*
X85090Y48647D01*
X85318Y48678D01*
X85531Y48766D01*
X85714Y48906D01*
X85854Y49089D01*
X85942Y49302D01*
X85973Y49530D01*
X85942Y49758D01*
X85854Y49971D01*
X85714Y50154D01*
X85531Y50294D01*
X85318Y50382D01*
X85090Y50413D01*
D02*
G37*
G36*
X40275Y50551D02*
X40077Y50524D01*
X39892Y50448D01*
X39733Y50326D01*
X39611Y50167D01*
X39535Y49982D01*
X39508Y49784D01*
X39535Y49586D01*
X39611Y49401D01*
X39733Y49242D01*
X39892Y49120D01*
X40077Y49044D01*
X40275Y49017D01*
X40473Y49044D01*
X40658Y49120D01*
X40817Y49242D01*
X40939Y49401D01*
X41015Y49586D01*
X41042Y49784D01*
X41015Y49982D01*
X40939Y50167D01*
X40817Y50326D01*
X40658Y50448D01*
X40473Y50524D01*
X40275Y50551D01*
D02*
G37*
G36*
X33498Y50658D02*
X33313Y50621D01*
X33156Y50516D01*
X33051Y50359D01*
X33014Y50174D01*
X33051Y49989D01*
X33156Y49832D01*
X33313Y49727D01*
X33498Y49690D01*
X33683Y49727D01*
X33840Y49832D01*
X33945Y49989D01*
X33982Y50174D01*
X33945Y50359D01*
X33840Y50516D01*
X33683Y50621D01*
X33498Y50658D01*
D02*
G37*
G36*
X42864Y49967D02*
Y49214D01*
X43617D01*
X43603Y49319D01*
X43514Y49535D01*
X43371Y49721D01*
X43185Y49864D01*
X42969Y49953D01*
X42864Y49967D01*
D02*
G37*
G36*
X42610D02*
X42505Y49953D01*
X42289Y49864D01*
X42103Y49721D01*
X41960Y49535D01*
X41871Y49319D01*
X41857Y49214D01*
X42610D01*
Y49967D01*
D02*
G37*
G36*
X38989Y62505D02*
X38880Y62483D01*
X38681Y62349D01*
X38547Y62150D01*
X38525Y62041D01*
X38989D01*
Y62505D01*
D02*
G37*
G36*
X30607Y63189D02*
X30409Y63162D01*
X30224Y63086D01*
X30065Y62964D01*
X29943Y62805D01*
X29867Y62620D01*
X29840Y62422D01*
X29867Y62224D01*
X29943Y62039D01*
X30065Y61880D01*
X30224Y61758D01*
X30409Y61682D01*
X30607Y61655D01*
X30805Y61682D01*
X30990Y61758D01*
X31149Y61880D01*
X31271Y62039D01*
X31347Y62224D01*
X31374Y62422D01*
X31347Y62620D01*
X31271Y62805D01*
X31149Y62964D01*
X30990Y63086D01*
X30805Y63162D01*
X30607Y63189D01*
D02*
G37*
G36*
X40640Y62398D02*
X40455Y62361D01*
X40298Y62256D01*
X40193Y62099D01*
X40156Y61914D01*
X40193Y61729D01*
X40298Y61572D01*
X40455Y61467D01*
X40640Y61430D01*
X40825Y61467D01*
X40982Y61572D01*
X41087Y61729D01*
X41124Y61914D01*
X41087Y62099D01*
X40982Y62256D01*
X40825Y62361D01*
X40640Y62398D01*
D02*
G37*
G36*
X39243Y62505D02*
Y62041D01*
X39707D01*
X39685Y62150D01*
X39551Y62349D01*
X39352Y62483D01*
X39243Y62505D01*
D02*
G37*
G36*
X90170Y64321D02*
X89942Y64290D01*
X89729Y64202D01*
X89546Y64062D01*
X89406Y63879D01*
X89318Y63666D01*
X89287Y63438D01*
X89318Y63210D01*
X89406Y62997D01*
X89546Y62814D01*
X89729Y62674D01*
X89942Y62586D01*
X90170Y62555D01*
X90398Y62586D01*
X90611Y62674D01*
X90794Y62814D01*
X90934Y62997D01*
X91022Y63210D01*
X91053Y63438D01*
X91022Y63666D01*
X90934Y63879D01*
X90794Y64062D01*
X90611Y64202D01*
X90398Y64290D01*
X90170Y64321D01*
D02*
G37*
G36*
X87630D02*
X87402Y64290D01*
X87189Y64202D01*
X87006Y64062D01*
X86866Y63879D01*
X86778Y63666D01*
X86747Y63438D01*
X86778Y63210D01*
X86866Y62997D01*
X87006Y62814D01*
X87189Y62674D01*
X87402Y62586D01*
X87630Y62555D01*
X87858Y62586D01*
X88071Y62674D01*
X88254Y62814D01*
X88394Y62997D01*
X88482Y63210D01*
X88513Y63438D01*
X88482Y63666D01*
X88394Y63879D01*
X88254Y64062D01*
X88071Y64202D01*
X87858Y64290D01*
X87630Y64321D01*
D02*
G37*
G36*
X85090D02*
X84862Y64290D01*
X84649Y64202D01*
X84466Y64062D01*
X84326Y63879D01*
X84238Y63666D01*
X84207Y63438D01*
X84238Y63210D01*
X84326Y62997D01*
X84466Y62814D01*
X84649Y62674D01*
X84862Y62586D01*
X85090Y62555D01*
X85318Y62586D01*
X85531Y62674D01*
X85714Y62814D01*
X85854Y62997D01*
X85942Y63210D01*
X85973Y63438D01*
X85942Y63666D01*
X85854Y63879D01*
X85714Y64062D01*
X85531Y64202D01*
X85318Y64290D01*
X85090Y64321D01*
D02*
G37*
G36*
X71247Y61108D02*
X71138Y61086D01*
X70939Y60952D01*
X70805Y60753D01*
X70783Y60644D01*
X71247D01*
Y61108D01*
D02*
G37*
G36*
X67818Y65094D02*
X67620Y65067D01*
X67435Y64991D01*
X67276Y64869D01*
X67154Y64710D01*
X67078Y64525D01*
X67051Y64327D01*
X67078Y64129D01*
X67154Y63944D01*
X67276Y63785D01*
X67435Y63663D01*
X67620Y63587D01*
X67818Y63560D01*
X68016Y63587D01*
X68201Y63663D01*
X68360Y63785D01*
X68482Y63944D01*
X68534Y64070D01*
X75967D01*
X78941Y61096D01*
X78889Y60969D01*
X78862Y60771D01*
X78889Y60573D01*
X78965Y60388D01*
X79087Y60229D01*
X79246Y60107D01*
X79431Y60031D01*
X79629Y60004D01*
X79827Y60031D01*
X80012Y60107D01*
X80171Y60229D01*
X80293Y60388D01*
X80369Y60573D01*
X80396Y60771D01*
X80369Y60969D01*
X80293Y61154D01*
X80171Y61313D01*
X80012Y61435D01*
X79827Y61511D01*
X79629Y61538D01*
X79431Y61511D01*
X79304Y61459D01*
X77036Y63728D01*
X77077Y63866D01*
X77147Y63880D01*
X77304Y63985D01*
X77409Y64142D01*
X77446Y64327D01*
X77409Y64512D01*
X77304Y64669D01*
X77147Y64774D01*
X76962Y64811D01*
X76777Y64774D01*
X76620Y64669D01*
X76515Y64512D01*
X76501Y64442D01*
X76363Y64401D01*
X76255Y64509D01*
X76171Y64564D01*
X76073Y64584D01*
X68534D01*
X68482Y64710D01*
X68360Y64869D01*
X68201Y64991D01*
X68016Y65067D01*
X67818Y65094D01*
D02*
G37*
G36*
X71965Y60390D02*
X71501D01*
Y59926D01*
X71610Y59948D01*
X71809Y60082D01*
X71943Y60281D01*
X71965Y60390D01*
D02*
G37*
G36*
X71501Y61108D02*
Y60644D01*
X71965D01*
X71943Y60753D01*
X71809Y60952D01*
X71610Y61086D01*
X71501Y61108D01*
D02*
G37*
G36*
X39707Y61787D02*
X39243D01*
Y61323D01*
X39352Y61345D01*
X39551Y61479D01*
X39685Y61678D01*
X39707Y61787D01*
D02*
G37*
G36*
X38989D02*
X38525D01*
X38547Y61678D01*
X38681Y61479D01*
X38880Y61345D01*
X38989Y61323D01*
Y61787D01*
D02*
G37*
G36*
X49657Y62271D02*
X49472Y62234D01*
X49315Y62129D01*
X49210Y61972D01*
X49173Y61787D01*
X49210Y61602D01*
X49315Y61445D01*
X49472Y61340D01*
X49657Y61303D01*
X49842Y61340D01*
X49999Y61445D01*
X50104Y61602D01*
X50141Y61787D01*
X50104Y61972D01*
X49999Y62129D01*
X49842Y62234D01*
X49657Y62271D01*
D02*
G37*
G36*
X31750Y124721D02*
X31485Y124686D01*
X31239Y124584D01*
X31027Y124421D01*
X30864Y124209D01*
X30762Y123963D01*
X30727Y123698D01*
X30762Y123433D01*
X30864Y123187D01*
X31027Y122975D01*
X31239Y122812D01*
X31485Y122710D01*
X31750Y122675D01*
X32015Y122710D01*
X32261Y122812D01*
X32473Y122975D01*
X32636Y123187D01*
X32738Y123433D01*
X32773Y123698D01*
X32738Y123963D01*
X32636Y124209D01*
X32473Y124421D01*
X32261Y124584D01*
X32015Y124686D01*
X31750Y124721D01*
D02*
G37*
G36*
X91553Y172198D02*
X89803D01*
Y170448D01*
X91553D01*
Y172198D01*
D02*
G37*
G36*
X88138Y172206D02*
X87910Y172175D01*
X87697Y172087D01*
X87514Y171947D01*
X87374Y171764D01*
X87286Y171551D01*
X87255Y171323D01*
X87286Y171095D01*
X87374Y170882D01*
X87514Y170699D01*
X87697Y170559D01*
X87910Y170471D01*
X88138Y170440D01*
X88366Y170471D01*
X88579Y170559D01*
X88762Y170699D01*
X88902Y170882D01*
X88990Y171095D01*
X89021Y171323D01*
X88990Y171551D01*
X88902Y171764D01*
X88762Y171947D01*
X88579Y172087D01*
X88366Y172175D01*
X88138Y172206D01*
D02*
G37*
G36*
X85598D02*
X85370Y172175D01*
X85157Y172087D01*
X84974Y171947D01*
X84834Y171764D01*
X84746Y171551D01*
X84715Y171323D01*
X84746Y171095D01*
X84834Y170882D01*
X84974Y170699D01*
X85157Y170559D01*
X85370Y170471D01*
X85598Y170440D01*
X85826Y170471D01*
X86039Y170559D01*
X86222Y170699D01*
X86362Y170882D01*
X86450Y171095D01*
X86481Y171323D01*
X86450Y171551D01*
X86362Y171764D01*
X86222Y171947D01*
X86039Y172087D01*
X85826Y172175D01*
X85598Y172206D01*
D02*
G37*
G36*
X40783Y172344D02*
X40585Y172317D01*
X40400Y172241D01*
X40241Y172119D01*
X40119Y171960D01*
X40043Y171775D01*
X40016Y171577D01*
X40043Y171379D01*
X40119Y171194D01*
X40241Y171035D01*
X40400Y170913D01*
X40585Y170837D01*
X40783Y170810D01*
X40981Y170837D01*
X41166Y170913D01*
X41325Y171035D01*
X41447Y171194D01*
X41523Y171379D01*
X41550Y171577D01*
X41523Y171775D01*
X41447Y171960D01*
X41325Y172119D01*
X41166Y172241D01*
X40981Y172317D01*
X40783Y172344D01*
D02*
G37*
G36*
X34006Y172451D02*
X33821Y172414D01*
X33664Y172309D01*
X33559Y172152D01*
X33522Y171967D01*
X33559Y171782D01*
X33664Y171625D01*
X33821Y171520D01*
X34006Y171483D01*
X34191Y171520D01*
X34348Y171625D01*
X34453Y171782D01*
X34490Y171967D01*
X34453Y172152D01*
X34348Y172309D01*
X34191Y172414D01*
X34006Y172451D01*
D02*
G37*
G36*
X43372Y171760D02*
Y171007D01*
X44125D01*
X44111Y171112D01*
X44022Y171328D01*
X43879Y171514D01*
X43693Y171657D01*
X43477Y171746D01*
X43372Y171760D01*
D02*
G37*
G36*
X43118D02*
X43013Y171746D01*
X42797Y171657D01*
X42611Y171514D01*
X42468Y171328D01*
X42379Y171112D01*
X42365Y171007D01*
X43118D01*
Y171760D01*
D02*
G37*
G36*
X51181Y170312D02*
X50983Y170285D01*
X50798Y170209D01*
X50639Y170087D01*
X50517Y169928D01*
X50441Y169743D01*
X50414Y169545D01*
X50441Y169347D01*
X50517Y169162D01*
X50639Y169003D01*
X50798Y168881D01*
X50983Y168805D01*
X51181Y168778D01*
X51379Y168805D01*
X51564Y168881D01*
X51723Y169003D01*
X51845Y169162D01*
X51921Y169347D01*
X51948Y169545D01*
X51921Y169743D01*
X51845Y169928D01*
X51723Y170087D01*
X51564Y170209D01*
X51379Y170285D01*
X51181Y170312D01*
D02*
G37*
G36*
X97282Y170567D02*
X97050Y170536D01*
X96835Y170447D01*
X96649Y170305D01*
X96507Y170119D01*
X96418Y169904D01*
X96387Y169672D01*
X96418Y169440D01*
X96507Y169225D01*
X96649Y169039D01*
X96835Y168897D01*
X97050Y168808D01*
X97282Y168777D01*
X97514Y168808D01*
X97729Y168897D01*
X97915Y169039D01*
X98057Y169225D01*
X98146Y169440D01*
X98177Y169672D01*
X98146Y169904D01*
X98057Y170119D01*
X97915Y170305D01*
X97729Y170447D01*
X97514Y170536D01*
X97282Y170567D01*
D02*
G37*
G36*
X69088Y168993D02*
Y168529D01*
X69552D01*
X69530Y168638D01*
X69396Y168837D01*
X69197Y168971D01*
X69088Y168993D01*
D02*
G37*
G36*
X43118Y170753D02*
X42365D01*
X42379Y170648D01*
X42468Y170432D01*
X42611Y170246D01*
X42797Y170103D01*
X43013Y170014D01*
X43118Y170000D01*
Y170753D01*
D02*
G37*
G36*
X83058Y172206D02*
X82830Y172175D01*
X82617Y172087D01*
X82434Y171947D01*
X82294Y171764D01*
X82206Y171551D01*
X82175Y171323D01*
X82206Y171095D01*
X82294Y170882D01*
X82434Y170699D01*
X82617Y170559D01*
X82830Y170471D01*
X83058Y170440D01*
X83286Y170471D01*
X83499Y170559D01*
X83682Y170699D01*
X83822Y170882D01*
X83910Y171095D01*
X83941Y171323D01*
X83910Y171551D01*
X83822Y171764D01*
X83682Y171947D01*
X83499Y172087D01*
X83286Y172175D01*
X83058Y172206D01*
D02*
G37*
G36*
X34006Y171308D02*
X33821Y171271D01*
X33664Y171166D01*
X33559Y171009D01*
X33522Y170824D01*
X33559Y170639D01*
X33664Y170482D01*
X33821Y170377D01*
X34006Y170340D01*
X34191Y170377D01*
X34348Y170482D01*
X34453Y170639D01*
X34490Y170824D01*
X34453Y171009D01*
X34348Y171166D01*
X34191Y171271D01*
X34006Y171308D01*
D02*
G37*
G36*
X44125Y170753D02*
X43372D01*
Y170000D01*
X43477Y170014D01*
X43693Y170103D01*
X43879Y170246D01*
X44022Y170432D01*
X44111Y170648D01*
X44125Y170753D01*
D02*
G37*
G36*
X68326Y187076D02*
X68128Y187049D01*
X67943Y186973D01*
X67784Y186851D01*
X67662Y186692D01*
X67586Y186507D01*
X67559Y186309D01*
X67586Y186111D01*
X67662Y185926D01*
X67784Y185767D01*
X67943Y185645D01*
X68128Y185569D01*
X68326Y185542D01*
X68524Y185569D01*
X68709Y185645D01*
X68868Y185767D01*
X68990Y185926D01*
X69042Y186052D01*
X76475D01*
X79449Y183078D01*
X79397Y182951D01*
X79370Y182753D01*
X79397Y182555D01*
X79473Y182370D01*
X79595Y182211D01*
X79754Y182089D01*
X79939Y182013D01*
X80137Y181986D01*
X80335Y182013D01*
X80520Y182089D01*
X80679Y182211D01*
X80801Y182370D01*
X80877Y182555D01*
X80904Y182753D01*
X80877Y182951D01*
X80801Y183136D01*
X80679Y183295D01*
X80520Y183417D01*
X80335Y183493D01*
X80137Y183520D01*
X79939Y183493D01*
X79812Y183441D01*
X77544Y185710D01*
X77585Y185848D01*
X77655Y185862D01*
X77812Y185967D01*
X77917Y186124D01*
X77954Y186309D01*
X77917Y186494D01*
X77812Y186651D01*
X77655Y186756D01*
X77470Y186793D01*
X77285Y186756D01*
X77128Y186651D01*
X77023Y186494D01*
X77009Y186424D01*
X76871Y186383D01*
X76763Y186491D01*
X76679Y186546D01*
X76581Y186566D01*
X69042D01*
X68990Y186692D01*
X68868Y186851D01*
X68709Y186973D01*
X68524Y187049D01*
X68326Y187076D01*
D02*
G37*
G36*
X72473Y182372D02*
X72009D01*
Y181908D01*
X72118Y181930D01*
X72317Y182064D01*
X72451Y182263D01*
X72473Y182372D01*
D02*
G37*
G36*
X71755D02*
X71291D01*
X71313Y182263D01*
X71447Y182064D01*
X71646Y181930D01*
X71755Y181908D01*
Y182372D01*
D02*
G37*
G36*
Y183090D02*
X71646Y183068D01*
X71447Y182934D01*
X71313Y182735D01*
X71291Y182626D01*
X71755D01*
Y183090D01*
D02*
G37*
G36*
X39497Y183769D02*
X39033D01*
X39055Y183660D01*
X39189Y183461D01*
X39388Y183327D01*
X39497Y183305D01*
Y183769D01*
D02*
G37*
G36*
X50165Y184253D02*
X49980Y184216D01*
X49823Y184111D01*
X49718Y183954D01*
X49681Y183769D01*
X49718Y183584D01*
X49823Y183427D01*
X49980Y183322D01*
X50165Y183285D01*
X50350Y183322D01*
X50507Y183427D01*
X50612Y183584D01*
X50649Y183769D01*
X50612Y183954D01*
X50507Y184111D01*
X50350Y184216D01*
X50165Y184253D01*
D02*
G37*
G36*
X72009Y183090D02*
Y182626D01*
X72473D01*
X72451Y182735D01*
X72317Y182934D01*
X72118Y183068D01*
X72009Y183090D01*
D02*
G37*
G36*
X23495Y196602D02*
X23263Y196571D01*
X23048Y196482D01*
X22862Y196340D01*
X22720Y196154D01*
X22631Y195939D01*
X22600Y195707D01*
X22631Y195475D01*
X22720Y195260D01*
X22862Y195074D01*
X23048Y194932D01*
X23113Y194905D01*
Y174653D01*
X22992Y174612D01*
X22985Y174623D01*
X22799Y174765D01*
X22584Y174854D01*
X22352Y174885D01*
X22120Y174854D01*
X21905Y174765D01*
X21719Y174623D01*
X21577Y174437D01*
X21488Y174222D01*
X21457Y173990D01*
X21488Y173758D01*
X21577Y173543D01*
X21719Y173357D01*
X21905Y173215D01*
X22120Y173126D01*
X22352Y173095D01*
X22584Y173126D01*
X22799Y173215D01*
X22985Y173357D01*
X22992Y173368D01*
X23113Y173327D01*
Y172125D01*
X23048Y172098D01*
X22862Y171956D01*
X22720Y171770D01*
X22631Y171555D01*
X22600Y171323D01*
X22631Y171091D01*
X22720Y170876D01*
X22862Y170690D01*
X23048Y170548D01*
X23113Y170521D01*
Y150523D01*
X22992Y150482D01*
X22985Y150493D01*
X22799Y150635D01*
X22584Y150724D01*
X22352Y150755D01*
X22120Y150724D01*
X21905Y150635D01*
X21719Y150493D01*
X21577Y150307D01*
X21488Y150092D01*
X21457Y149860D01*
X21488Y149628D01*
X21577Y149413D01*
X21719Y149227D01*
X21905Y149085D01*
X22120Y148996D01*
X22352Y148965D01*
X22584Y148996D01*
X22799Y149085D01*
X22985Y149227D01*
X22992Y149238D01*
X23113Y149197D01*
Y147995D01*
X23048Y147968D01*
X22862Y147826D01*
X22720Y147640D01*
X22631Y147425D01*
X22600Y147193D01*
X22631Y146961D01*
X22720Y146746D01*
X22862Y146560D01*
X23048Y146418D01*
X23263Y146329D01*
X23495Y146298D01*
X23727Y146329D01*
X23942Y146418D01*
X24128Y146560D01*
X24135Y146571D01*
X24256Y146530D01*
Y145074D01*
X24191Y145047D01*
X24005Y144905D01*
X23863Y144719D01*
X23774Y144504D01*
X23743Y144272D01*
X23774Y144040D01*
X23863Y143825D01*
X24005Y143639D01*
X24191Y143497D01*
X24256Y143470D01*
Y133985D01*
X24285Y133839D01*
X24368Y133715D01*
X31099Y126984D01*
X31223Y126901D01*
X31369Y126872D01*
X38196D01*
X40976Y124092D01*
X40922Y123963D01*
X40887Y123698D01*
X40922Y123433D01*
X40976Y123304D01*
X27676Y110004D01*
X27593Y109880D01*
X27564Y109734D01*
Y109168D01*
X27437Y109125D01*
X27393Y109181D01*
X27181Y109344D01*
X26935Y109446D01*
X26670Y109481D01*
X26405Y109446D01*
X26159Y109344D01*
X25947Y109181D01*
X25903Y109125D01*
X25776Y109168D01*
Y112739D01*
X26852Y113814D01*
X26853Y113814D01*
X27051Y113787D01*
X27249Y113814D01*
X27434Y113890D01*
X27593Y114012D01*
X27715Y114171D01*
X27791Y114356D01*
X27818Y114554D01*
X27791Y114752D01*
X27715Y114937D01*
X27593Y115096D01*
X27434Y115218D01*
X27249Y115294D01*
X27051Y115321D01*
X26853Y115294D01*
X26668Y115218D01*
X26509Y115096D01*
X26387Y114937D01*
X26311Y114752D01*
X26284Y114554D01*
X26311Y114356D01*
X26311Y114355D01*
X25124Y113167D01*
X25041Y113043D01*
X25012Y112897D01*
Y109172D01*
X24891Y109131D01*
X24853Y109181D01*
X24641Y109344D01*
X24395Y109446D01*
X24130Y109481D01*
X23865Y109446D01*
X23619Y109344D01*
X23407Y109181D01*
X23244Y108969D01*
X23142Y108723D01*
X23107Y108458D01*
X23142Y108193D01*
X23244Y107947D01*
X23407Y107735D01*
X23619Y107572D01*
X23865Y107470D01*
X24130Y107435D01*
X24192Y107443D01*
X24248Y107330D01*
X22717Y105798D01*
X22634Y105674D01*
X22605Y105527D01*
Y101312D01*
X22484Y101271D01*
X22477Y101282D01*
X22291Y101424D01*
X22076Y101513D01*
X21844Y101544D01*
X21612Y101513D01*
X21397Y101424D01*
X21211Y101282D01*
X21069Y101096D01*
X20980Y100881D01*
X20949Y100649D01*
X20980Y100417D01*
X21069Y100202D01*
X21211Y100016D01*
X21397Y99874D01*
X21612Y99785D01*
X21844Y99754D01*
X22076Y99785D01*
X22291Y99874D01*
X22477Y100016D01*
X22484Y100027D01*
X22605Y99986D01*
Y98784D01*
X22540Y98757D01*
X22354Y98615D01*
X22212Y98429D01*
X22123Y98214D01*
X22092Y97982D01*
X22123Y97750D01*
X22212Y97535D01*
X22354Y97349D01*
X22540Y97207D01*
X22605Y97180D01*
Y77055D01*
X22484Y77014D01*
X22477Y77025D01*
X22291Y77167D01*
X22076Y77256D01*
X21844Y77287D01*
X21612Y77256D01*
X21397Y77167D01*
X21211Y77025D01*
X21069Y76839D01*
X20980Y76624D01*
X20949Y76392D01*
X20980Y76160D01*
X21069Y75945D01*
X21211Y75759D01*
X21397Y75617D01*
X21612Y75528D01*
X21844Y75497D01*
X22076Y75528D01*
X22291Y75617D01*
X22477Y75759D01*
X22484Y75770D01*
X22605Y75729D01*
Y74527D01*
X22540Y74500D01*
X22354Y74358D01*
X22212Y74172D01*
X22123Y73957D01*
X22092Y73725D01*
X22123Y73493D01*
X22212Y73278D01*
X22354Y73092D01*
X22540Y72950D01*
X22605Y72923D01*
Y52860D01*
X22484Y52819D01*
X22477Y52830D01*
X22291Y52972D01*
X22076Y53061D01*
X21844Y53092D01*
X21612Y53061D01*
X21397Y52972D01*
X21211Y52830D01*
X21069Y52644D01*
X20980Y52429D01*
X20949Y52197D01*
X20980Y51965D01*
X21069Y51750D01*
X21211Y51564D01*
X21397Y51422D01*
X21612Y51333D01*
X21844Y51302D01*
X22076Y51333D01*
X22291Y51422D01*
X22477Y51564D01*
X22484Y51575D01*
X22605Y51534D01*
Y50332D01*
X22540Y50305D01*
X22354Y50163D01*
X22212Y49977D01*
X22123Y49762D01*
X22092Y49530D01*
X22123Y49298D01*
X22212Y49083D01*
X22354Y48897D01*
X22540Y48755D01*
X22755Y48666D01*
X22987Y48635D01*
X23219Y48666D01*
X23434Y48755D01*
X23620Y48897D01*
X23627Y48908D01*
X23748Y48867D01*
Y47411D01*
X23683Y47384D01*
X23497Y47242D01*
X23355Y47056D01*
X23266Y46841D01*
X23235Y46609D01*
X23266Y46377D01*
X23355Y46162D01*
X23497Y45976D01*
X23683Y45834D01*
X23898Y45745D01*
X24130Y45714D01*
X24362Y45745D01*
X24577Y45834D01*
X24763Y45976D01*
X24905Y46162D01*
X24994Y46377D01*
X25016Y46544D01*
X25143Y46535D01*
Y44415D01*
X24953Y44336D01*
X24767Y44194D01*
X24625Y44008D01*
X24536Y43793D01*
X24505Y43561D01*
X24536Y43329D01*
X24625Y43114D01*
X24767Y42928D01*
X24953Y42786D01*
X25168Y42697D01*
X25400Y42666D01*
X25632Y42697D01*
X25847Y42786D01*
X26033Y42928D01*
X26175Y43114D01*
X26264Y43329D01*
X26295Y43561D01*
X26264Y43793D01*
X26175Y44008D01*
X26033Y44194D01*
X25847Y44336D01*
X25657Y44415D01*
Y66061D01*
X32924Y73327D01*
X33009Y73293D01*
X33046Y73270D01*
X33081Y73094D01*
X33186Y72937D01*
X33343Y72832D01*
X33528Y72795D01*
X33713Y72832D01*
X33870Y72937D01*
X33975Y73094D01*
X34012Y73279D01*
X33975Y73464D01*
X33929Y73534D01*
X33987Y73675D01*
X33993Y73677D01*
X34076Y73732D01*
X38282Y77938D01*
X38337Y78021D01*
X38357Y78120D01*
Y107922D01*
X38484Y107947D01*
X38484Y107947D01*
X38647Y107735D01*
X38859Y107572D01*
X39105Y107470D01*
X39370Y107435D01*
X39635Y107470D01*
X39881Y107572D01*
X40093Y107735D01*
X40256Y107947D01*
X40358Y108193D01*
X40393Y108458D01*
X40358Y108723D01*
X40256Y108969D01*
X40093Y109181D01*
X39881Y109344D01*
X39635Y109446D01*
X39370Y109481D01*
X39105Y109446D01*
X38859Y109344D01*
X38647Y109181D01*
X38484Y108969D01*
X38484Y108969D01*
X38357Y108994D01*
Y110109D01*
X38337Y110207D01*
X38282Y110291D01*
X38198Y110346D01*
X38100Y110366D01*
X33401D01*
X33303Y110346D01*
X33219Y110291D01*
X32268Y109339D01*
X32261Y109344D01*
X32015Y109446D01*
X31750Y109481D01*
X31485Y109446D01*
X31239Y109344D01*
X31027Y109181D01*
X30864Y108969D01*
X30762Y108723D01*
X30727Y108458D01*
X30762Y108193D01*
X30864Y107947D01*
X31027Y107735D01*
X31239Y107572D01*
X31485Y107470D01*
X31750Y107435D01*
X32015Y107470D01*
X32261Y107572D01*
X32473Y107735D01*
X32636Y107947D01*
X32738Y108193D01*
X32773Y108458D01*
X32738Y108723D01*
X32636Y108969D01*
X32631Y108976D01*
X33507Y109852D01*
X37843D01*
Y108994D01*
X37716Y108969D01*
X37716Y108969D01*
X37553Y109181D01*
X37341Y109344D01*
X37095Y109446D01*
X36830Y109481D01*
X36565Y109446D01*
X36319Y109344D01*
X36107Y109181D01*
X35944Y108969D01*
X35842Y108723D01*
X35807Y108458D01*
X35842Y108193D01*
X35944Y107947D01*
X35949Y107940D01*
X32147Y104138D01*
X32131Y104141D01*
X31985Y104112D01*
X31861Y104029D01*
X31778Y103905D01*
X31749Y103759D01*
Y98902D01*
X25697Y92850D01*
X25632Y92877D01*
X25400Y92908D01*
X25168Y92877D01*
X24953Y92788D01*
X24767Y92646D01*
X24639Y92479D01*
X24570Y92486D01*
X24512Y92513D01*
Y94259D01*
X24577Y94286D01*
X24763Y94428D01*
X24905Y94614D01*
X24994Y94829D01*
X25025Y95061D01*
X24994Y95293D01*
X24970Y95351D01*
X28216Y98597D01*
X28299Y98721D01*
X28328Y98868D01*
X28328Y98868D01*
Y107744D01*
X28449Y107785D01*
X28487Y107735D01*
X28699Y107572D01*
X28945Y107470D01*
X29210Y107435D01*
X29475Y107470D01*
X29721Y107572D01*
X29933Y107735D01*
X30096Y107947D01*
X30198Y108193D01*
X30233Y108458D01*
X30198Y108723D01*
X30096Y108969D01*
X29933Y109181D01*
X29721Y109344D01*
X29475Y109446D01*
X29210Y109481D01*
X28945Y109446D01*
X28699Y109344D01*
X28487Y109181D01*
X28449Y109131D01*
X28328Y109172D01*
Y109576D01*
X41516Y122764D01*
X41645Y122710D01*
X41910Y122675D01*
X42175Y122710D01*
X42421Y122812D01*
X42633Y122975D01*
X42796Y123187D01*
X42898Y123433D01*
X42933Y123698D01*
X42898Y123963D01*
X42796Y124209D01*
X42633Y124421D01*
X42421Y124584D01*
X42175Y124686D01*
X41910Y124721D01*
X41645Y124686D01*
X41516Y124632D01*
X38624Y127524D01*
X38500Y127607D01*
X38354Y127636D01*
X31527D01*
X25020Y134143D01*
Y140724D01*
X25078Y140751D01*
X25147Y140758D01*
X25275Y140591D01*
X25461Y140449D01*
X25676Y140360D01*
X25908Y140329D01*
X26140Y140360D01*
X26355Y140449D01*
X26541Y140591D01*
X26683Y140777D01*
X26772Y140992D01*
X26803Y141224D01*
X26772Y141456D01*
X26683Y141671D01*
X26541Y141857D01*
X26355Y141999D01*
X26140Y142088D01*
X25908Y142119D01*
X25676Y142088D01*
X25461Y141999D01*
X25275Y141857D01*
X25147Y141690D01*
X25078Y141697D01*
X25020Y141724D01*
Y143470D01*
X25085Y143497D01*
X25271Y143639D01*
X25413Y143825D01*
X25502Y144040D01*
X25524Y144207D01*
X25651Y144198D01*
Y143256D01*
X25671Y143158D01*
X25726Y143074D01*
X27175Y141626D01*
Y139356D01*
X27195Y139258D01*
X27250Y139174D01*
X27495Y138930D01*
X27458Y138854D01*
X27429Y138816D01*
X27200Y138786D01*
X26985Y138697D01*
X26799Y138555D01*
X26657Y138369D01*
X26568Y138154D01*
X26537Y137922D01*
X26568Y137690D01*
X26657Y137475D01*
X26799Y137289D01*
X26985Y137147D01*
X27200Y137058D01*
X27432Y137027D01*
X27664Y137058D01*
X27879Y137147D01*
X28065Y137289D01*
X28081Y137310D01*
X28125Y137313D01*
X28226Y137291D01*
X28264Y137234D01*
X34160Y131339D01*
Y129494D01*
X34034Y129442D01*
X33875Y129320D01*
X33753Y129161D01*
X33677Y128976D01*
X33650Y128778D01*
X33677Y128580D01*
X33753Y128395D01*
X33875Y128236D01*
X34034Y128114D01*
X34219Y128038D01*
X34417Y128011D01*
X34615Y128038D01*
X34800Y128114D01*
X34959Y128236D01*
X35081Y128395D01*
X35157Y128580D01*
X35184Y128778D01*
X35157Y128976D01*
X35081Y129161D01*
X34959Y129320D01*
X34800Y129442D01*
X34674Y129494D01*
Y131445D01*
X34654Y131543D01*
X34599Y131627D01*
X28703Y137522D01*
Y138342D01*
X28683Y138440D01*
X28628Y138524D01*
X28628Y138524D01*
X27689Y139462D01*
Y141732D01*
X27669Y141830D01*
X27614Y141914D01*
X26165Y143362D01*
Y164500D01*
X26355Y164579D01*
X26541Y164721D01*
X26683Y164907D01*
X26772Y165122D01*
X26803Y165354D01*
X26772Y165586D01*
X26683Y165801D01*
X26541Y165987D01*
X26355Y166129D01*
X26140Y166218D01*
X25908Y166249D01*
X25676Y166218D01*
X25461Y166129D01*
X25275Y165987D01*
X25147Y165820D01*
X25078Y165827D01*
X25020Y165854D01*
Y167600D01*
X25085Y167627D01*
X25271Y167769D01*
X25413Y167955D01*
X25502Y168170D01*
X25524Y168337D01*
X25651Y168328D01*
Y168148D01*
X25671Y168050D01*
X25726Y167966D01*
X28318Y165375D01*
Y162554D01*
X28271Y162531D01*
X28191Y162520D01*
X28065Y162685D01*
X27879Y162827D01*
X27664Y162916D01*
X27432Y162947D01*
X27200Y162916D01*
X26985Y162827D01*
X26799Y162685D01*
X26657Y162499D01*
X26568Y162284D01*
X26537Y162052D01*
X26568Y161820D01*
X26657Y161605D01*
X26799Y161419D01*
X26985Y161277D01*
X27200Y161188D01*
X27432Y161157D01*
X27664Y161188D01*
X27879Y161277D01*
X28065Y161419D01*
X28191Y161584D01*
X28271Y161573D01*
X28318Y161550D01*
Y139192D01*
X28338Y139094D01*
X28393Y139010D01*
X31486Y135917D01*
X31467Y135892D01*
X31391Y135707D01*
X31364Y135509D01*
X31391Y135311D01*
X31467Y135126D01*
X31589Y134967D01*
X31748Y134845D01*
X31933Y134769D01*
X32131Y134742D01*
X32329Y134769D01*
X32514Y134845D01*
X32673Y134967D01*
X32795Y135126D01*
X32871Y135311D01*
X32898Y135509D01*
X32871Y135707D01*
X32795Y135892D01*
X32673Y136051D01*
X32514Y136173D01*
X32329Y136249D01*
X32131Y136276D01*
X31933Y136249D01*
X31896Y136234D01*
X28832Y139298D01*
Y165481D01*
X28812Y165579D01*
X28757Y165663D01*
X26165Y168254D01*
Y188884D01*
X26355Y188963D01*
X26541Y189105D01*
X26683Y189291D01*
X26772Y189506D01*
X26803Y189738D01*
X26772Y189970D01*
X26683Y190185D01*
X26541Y190371D01*
X26355Y190513D01*
X26140Y190602D01*
X25908Y190633D01*
X25676Y190602D01*
X25461Y190513D01*
X25275Y190371D01*
X25147Y190204D01*
X25078Y190211D01*
X25020Y190238D01*
Y191984D01*
X25085Y192011D01*
X25271Y192153D01*
X25413Y192339D01*
X25502Y192554D01*
X25533Y192786D01*
X25502Y193018D01*
X25413Y193233D01*
X25271Y193419D01*
X25085Y193561D01*
X24870Y193650D01*
X24638Y193681D01*
X24406Y193650D01*
X24191Y193561D01*
X24005Y193419D01*
X23998Y193408D01*
X23877Y193449D01*
Y194905D01*
X23942Y194932D01*
X24128Y195074D01*
X24270Y195260D01*
X24359Y195475D01*
X24390Y195707D01*
X24359Y195939D01*
X24270Y196154D01*
X24128Y196340D01*
X23942Y196482D01*
X23727Y196571D01*
X23495Y196602D01*
D02*
G37*
G36*
X62103Y174885D02*
X61871Y174854D01*
X61656Y174765D01*
X61470Y174623D01*
X61328Y174437D01*
X61239Y174222D01*
X61208Y173990D01*
X61239Y173758D01*
X61291Y173633D01*
X61039Y173381D01*
X54198D01*
X54173Y173442D01*
X54051Y173601D01*
X53892Y173723D01*
X53707Y173799D01*
X53509Y173826D01*
X53311Y173799D01*
X53126Y173723D01*
X52967Y173601D01*
X52845Y173442D01*
X52769Y173257D01*
X52742Y173059D01*
X52769Y172861D01*
X52845Y172676D01*
X52967Y172517D01*
X53126Y172395D01*
X53311Y172319D01*
X53509Y172292D01*
X53707Y172319D01*
X53892Y172395D01*
X54051Y172517D01*
X54173Y172676D01*
X54198Y172737D01*
X61172D01*
X61295Y172762D01*
X61399Y172832D01*
X61537Y172969D01*
X61654Y172920D01*
Y164598D01*
X58318Y161261D01*
X58293Y161266D01*
X58108Y161229D01*
X57951Y161124D01*
X57846Y160967D01*
X57809Y160782D01*
X57846Y160597D01*
X57951Y160440D01*
X58108Y160335D01*
X58293Y160298D01*
X58478Y160335D01*
X58635Y160440D01*
X58740Y160597D01*
X58777Y160782D01*
X58772Y160807D01*
X62203Y164238D01*
X62273Y164342D01*
X62298Y164465D01*
Y173121D01*
X62335Y173126D01*
X62550Y173215D01*
X62736Y173357D01*
X62878Y173543D01*
X62967Y173758D01*
X62998Y173990D01*
X62967Y174222D01*
X62878Y174437D01*
X62736Y174623D01*
X62550Y174765D01*
X62335Y174854D01*
X62103Y174885D01*
D02*
G37*
G36*
X27379Y172643D02*
X27194Y172606D01*
X27037Y172501D01*
X26932Y172344D01*
X26895Y172159D01*
X26932Y171974D01*
X27037Y171817D01*
X27194Y171712D01*
X27379Y171675D01*
X27564Y171712D01*
X27721Y171817D01*
X27826Y171974D01*
X27863Y172159D01*
X27826Y172344D01*
X27721Y172501D01*
X27564Y172606D01*
X27379Y172643D01*
D02*
G37*
G36*
X77597Y176252D02*
X77412Y176215D01*
X77255Y176110D01*
X77150Y175953D01*
X77113Y175768D01*
X77150Y175583D01*
X77255Y175426D01*
X77412Y175321D01*
X77597Y175284D01*
X77782Y175321D01*
X77939Y175426D01*
X78044Y175583D01*
X78081Y175768D01*
X78044Y175953D01*
X77939Y176110D01*
X77782Y176215D01*
X77597Y176252D01*
D02*
G37*
G36*
X73279Y181459D02*
X73094Y181422D01*
X72937Y181317D01*
X72832Y181160D01*
X72795Y180975D01*
X72832Y180790D01*
X72937Y180633D01*
X73094Y180528D01*
X73279Y180491D01*
X73464Y180528D01*
X73621Y180633D01*
X73726Y180790D01*
X73763Y180975D01*
X73726Y181160D01*
X73621Y181317D01*
X73464Y181422D01*
X73279Y181459D01*
D02*
G37*
G36*
X72771Y185044D02*
X72573Y185017D01*
X72388Y184941D01*
X72229Y184819D01*
X72107Y184660D01*
X72031Y184475D01*
X72004Y184277D01*
X72031Y184079D01*
X72107Y183894D01*
X72229Y183735D01*
X72388Y183613D01*
X72573Y183537D01*
X72771Y183510D01*
X72969Y183537D01*
X73096Y183589D01*
X76070Y180615D01*
Y180167D01*
X75944Y180115D01*
X75785Y179993D01*
X75663Y179834D01*
X75587Y179649D01*
X75560Y179451D01*
X75587Y179253D01*
X75663Y179068D01*
X75785Y178909D01*
X75944Y178787D01*
X76129Y178711D01*
X76327Y178684D01*
X76525Y178711D01*
X76710Y178787D01*
X76869Y178909D01*
X76991Y179068D01*
X77067Y179253D01*
X77094Y179451D01*
X77067Y179649D01*
X76991Y179834D01*
X76869Y179993D01*
X76710Y180115D01*
X76584Y180167D01*
Y180721D01*
X76564Y180819D01*
X76509Y180903D01*
X73459Y183952D01*
X73511Y184079D01*
X73538Y184277D01*
X73511Y184475D01*
X73435Y184660D01*
X73313Y184819D01*
X73154Y184941D01*
X72969Y185017D01*
X72771Y185044D01*
D02*
G37*
G36*
X73152Y176506D02*
X72967Y176469D01*
X72810Y176364D01*
X72705Y176207D01*
X72668Y176022D01*
X72705Y175837D01*
X72810Y175680D01*
X72967Y175575D01*
X73152Y175538D01*
X73337Y175575D01*
X73494Y175680D01*
X73599Y175837D01*
X73636Y176022D01*
X73599Y176207D01*
X73494Y176364D01*
X73337Y176469D01*
X73152Y176506D01*
D02*
G37*
G36*
X68834Y168993D02*
X68725Y168971D01*
X68526Y168837D01*
X68392Y168638D01*
X68370Y168529D01*
X68834D01*
Y168993D01*
D02*
G37*
G36*
X72517Y164568D02*
X72332Y164531D01*
X72175Y164426D01*
X72070Y164269D01*
X72033Y164084D01*
X72070Y163899D01*
X72175Y163742D01*
X72332Y163637D01*
X72517Y163600D01*
X72702Y163637D01*
X72859Y163742D01*
X72964Y163899D01*
X73001Y164084D01*
X72964Y164269D01*
X72859Y164426D01*
X72702Y164531D01*
X72517Y164568D01*
D02*
G37*
G36*
X54991Y164441D02*
X54806Y164404D01*
X54649Y164299D01*
X54544Y164142D01*
X54507Y163957D01*
X54544Y163772D01*
X54649Y163615D01*
X54806Y163510D01*
X54991Y163473D01*
X55176Y163510D01*
X55333Y163615D01*
X55438Y163772D01*
X55475Y163957D01*
X55438Y164142D01*
X55333Y164299D01*
X55176Y164404D01*
X54991Y164441D01*
D02*
G37*
G36*
X53086Y163933D02*
X52901Y163896D01*
X52744Y163791D01*
X52639Y163634D01*
X52602Y163449D01*
X52639Y163264D01*
X52744Y163107D01*
X52901Y163002D01*
X53086Y162965D01*
X53271Y163002D01*
X53428Y163107D01*
X53533Y163264D01*
X53570Y163449D01*
X53533Y163634D01*
X53428Y163791D01*
X53271Y163896D01*
X53086Y163933D01*
D02*
G37*
G36*
X94615Y165729D02*
X94387Y165698D01*
X94174Y165610D01*
X93991Y165470D01*
X93851Y165287D01*
X93763Y165074D01*
X93732Y164846D01*
X93763Y164618D01*
X93851Y164405D01*
X93991Y164222D01*
X94174Y164082D01*
X94387Y163994D01*
X94615Y163963D01*
X94843Y163994D01*
X95056Y164082D01*
X95239Y164222D01*
X95379Y164405D01*
X95467Y164618D01*
X95498Y164846D01*
X95467Y165074D01*
X95379Y165287D01*
X95239Y165470D01*
X95056Y165610D01*
X94843Y165698D01*
X94615Y165729D01*
D02*
G37*
G36*
X57106Y165608D02*
X56642D01*
Y165144D01*
X56751Y165166D01*
X56950Y165300D01*
X57084Y165499D01*
X57106Y165608D01*
D02*
G37*
G36*
X56388D02*
X55924D01*
X55946Y165499D01*
X56080Y165300D01*
X56279Y165166D01*
X56388Y165144D01*
Y165608D01*
D02*
G37*
G36*
X64135Y166503D02*
X63903Y166472D01*
X63688Y166383D01*
X63502Y166241D01*
X63360Y166055D01*
X63271Y165840D01*
X63240Y165608D01*
X63271Y165376D01*
X63360Y165161D01*
X63502Y164975D01*
X63688Y164833D01*
X63903Y164744D01*
X64135Y164713D01*
X64367Y164744D01*
X64582Y164833D01*
X64768Y164975D01*
X64910Y165161D01*
X64999Y165376D01*
X65030Y165608D01*
X64999Y165840D01*
X64910Y166055D01*
X64768Y166241D01*
X64582Y166383D01*
X64367Y166472D01*
X64135Y166503D01*
D02*
G37*
G36*
X83058Y164459D02*
X82830Y164428D01*
X82617Y164340D01*
X82434Y164200D01*
X82294Y164017D01*
X82206Y163804D01*
X82175Y163576D01*
X82206Y163348D01*
X82294Y163135D01*
X82434Y162952D01*
X82617Y162812D01*
X82830Y162724D01*
X83058Y162693D01*
X83286Y162724D01*
X83499Y162812D01*
X83682Y162952D01*
X83822Y163135D01*
X83910Y163348D01*
X83941Y163576D01*
X83910Y163804D01*
X83822Y164017D01*
X83682Y164200D01*
X83499Y164340D01*
X83286Y164428D01*
X83058Y164459D01*
D02*
G37*
G36*
X97282Y163836D02*
X97050Y163805D01*
X96835Y163716D01*
X96649Y163574D01*
X96507Y163388D01*
X96418Y163173D01*
X96387Y162941D01*
X96418Y162709D01*
X96507Y162494D01*
X96649Y162308D01*
X96835Y162166D01*
X97050Y162077D01*
X97282Y162046D01*
X97514Y162077D01*
X97729Y162166D01*
X97915Y162308D01*
X98057Y162494D01*
X98146Y162709D01*
X98177Y162941D01*
X98146Y163173D01*
X98057Y163388D01*
X97915Y163574D01*
X97729Y163716D01*
X97514Y163805D01*
X97282Y163836D01*
D02*
G37*
G36*
X56642Y161520D02*
X56457Y161483D01*
X56300Y161378D01*
X56195Y161221D01*
X56158Y161036D01*
X56195Y160851D01*
X56300Y160694D01*
X56457Y160589D01*
X56642Y160552D01*
X56827Y160589D01*
X56984Y160694D01*
X57089Y160851D01*
X57126Y161036D01*
X57089Y161221D01*
X56984Y161378D01*
X56827Y161483D01*
X56642Y161520D01*
D02*
G37*
G36*
X85598Y164459D02*
X85370Y164428D01*
X85157Y164340D01*
X84974Y164200D01*
X84834Y164017D01*
X84746Y163804D01*
X84715Y163576D01*
X84746Y163348D01*
X84834Y163135D01*
X84974Y162952D01*
X85157Y162812D01*
X85370Y162724D01*
X85598Y162693D01*
X85826Y162724D01*
X86039Y162812D01*
X86222Y162952D01*
X86362Y163135D01*
X86450Y163348D01*
X86481Y163576D01*
X86450Y163804D01*
X86362Y164017D01*
X86222Y164200D01*
X86039Y164340D01*
X85826Y164428D01*
X85598Y164459D01*
D02*
G37*
G36*
X50038Y164598D02*
X49806Y164567D01*
X49591Y164478D01*
X49405Y164336D01*
X49263Y164150D01*
X49174Y163935D01*
X49143Y163703D01*
X49174Y163471D01*
X49263Y163256D01*
X49405Y163070D01*
X49591Y162928D01*
X49806Y162839D01*
X50038Y162808D01*
X50270Y162839D01*
X50485Y162928D01*
X50671Y163070D01*
X50813Y163256D01*
X50902Y163471D01*
X50933Y163703D01*
X50902Y163935D01*
X50813Y164150D01*
X50671Y164336D01*
X50485Y164478D01*
X50270Y164567D01*
X50038Y164598D01*
D02*
G37*
G36*
X90678Y164459D02*
X90450Y164428D01*
X90237Y164340D01*
X90054Y164200D01*
X89914Y164017D01*
X89826Y163804D01*
X89795Y163576D01*
X89826Y163348D01*
X89914Y163135D01*
X90054Y162952D01*
X90237Y162812D01*
X90450Y162724D01*
X90678Y162693D01*
X90906Y162724D01*
X91119Y162812D01*
X91302Y162952D01*
X91442Y163135D01*
X91530Y163348D01*
X91561Y163576D01*
X91530Y163804D01*
X91442Y164017D01*
X91302Y164200D01*
X91119Y164340D01*
X90906Y164428D01*
X90678Y164459D01*
D02*
G37*
G36*
X88138D02*
X87910Y164428D01*
X87697Y164340D01*
X87514Y164200D01*
X87374Y164017D01*
X87286Y163804D01*
X87255Y163576D01*
X87286Y163348D01*
X87374Y163135D01*
X87514Y162952D01*
X87697Y162812D01*
X87910Y162724D01*
X88138Y162693D01*
X88366Y162724D01*
X88579Y162812D01*
X88762Y162952D01*
X88902Y163135D01*
X88990Y163348D01*
X89021Y163576D01*
X88990Y163804D01*
X88902Y164017D01*
X88762Y164200D01*
X88579Y164340D01*
X88366Y164428D01*
X88138Y164459D01*
D02*
G37*
G36*
X83058Y169666D02*
X82830Y169635D01*
X82617Y169547D01*
X82434Y169407D01*
X82294Y169224D01*
X82206Y169011D01*
X82175Y168783D01*
X82206Y168555D01*
X82294Y168342D01*
X82434Y168159D01*
X82617Y168019D01*
X82830Y167931D01*
X83058Y167900D01*
X83286Y167931D01*
X83499Y168019D01*
X83682Y168159D01*
X83822Y168342D01*
X83910Y168555D01*
X83941Y168783D01*
X83910Y169011D01*
X83822Y169224D01*
X83682Y169407D01*
X83499Y169547D01*
X83286Y169635D01*
X83058Y169666D01*
D02*
G37*
G36*
X69552Y168275D02*
X69088D01*
Y167811D01*
X69197Y167833D01*
X69396Y167967D01*
X69530Y168166D01*
X69552Y168275D01*
D02*
G37*
G36*
X68834D02*
X68370D01*
X68392Y168166D01*
X68526Y167967D01*
X68725Y167833D01*
X68834Y167811D01*
Y168275D01*
D02*
G37*
G36*
X85598Y169666D02*
X85370Y169635D01*
X85157Y169547D01*
X84974Y169407D01*
X84834Y169224D01*
X84746Y169011D01*
X84715Y168783D01*
X84746Y168555D01*
X84834Y168342D01*
X84974Y168159D01*
X85157Y168019D01*
X85370Y167931D01*
X85598Y167900D01*
X85826Y167931D01*
X86039Y168019D01*
X86222Y168159D01*
X86362Y168342D01*
X86450Y168555D01*
X86481Y168783D01*
X86450Y169011D01*
X86362Y169224D01*
X86222Y169407D01*
X86039Y169547D01*
X85826Y169635D01*
X85598Y169666D01*
D02*
G37*
G36*
X73660Y169267D02*
X73475Y169230D01*
X73318Y169125D01*
X73213Y168968D01*
X73176Y168783D01*
X73213Y168598D01*
X73318Y168441D01*
X73475Y168336D01*
X73660Y168299D01*
X73845Y168336D01*
X74002Y168441D01*
X74107Y168598D01*
X74144Y168783D01*
X74107Y168968D01*
X74002Y169125D01*
X73845Y169230D01*
X73660Y169267D01*
D02*
G37*
G36*
X90678Y169666D02*
X90450Y169635D01*
X90237Y169547D01*
X90054Y169407D01*
X89914Y169224D01*
X89826Y169011D01*
X89795Y168783D01*
X89826Y168555D01*
X89914Y168342D01*
X90054Y168159D01*
X90237Y168019D01*
X90450Y167931D01*
X90678Y167900D01*
X90906Y167931D01*
X91119Y168019D01*
X91302Y168159D01*
X91442Y168342D01*
X91530Y168555D01*
X91561Y168783D01*
X91530Y169011D01*
X91442Y169224D01*
X91302Y169407D01*
X91119Y169547D01*
X90906Y169635D01*
X90678Y169666D01*
D02*
G37*
G36*
X88138D02*
X87910Y169635D01*
X87697Y169547D01*
X87514Y169407D01*
X87374Y169224D01*
X87286Y169011D01*
X87255Y168783D01*
X87286Y168555D01*
X87374Y168342D01*
X87514Y168159D01*
X87697Y168019D01*
X87910Y167931D01*
X88138Y167900D01*
X88366Y167931D01*
X88579Y168019D01*
X88762Y168159D01*
X88902Y168342D01*
X88990Y168555D01*
X89021Y168783D01*
X88990Y169011D01*
X88902Y169224D01*
X88762Y169407D01*
X88579Y169547D01*
X88366Y169635D01*
X88138Y169666D01*
D02*
G37*
G36*
X56642Y166326D02*
Y165862D01*
X57106D01*
X57084Y165971D01*
X56950Y166170D01*
X56751Y166304D01*
X56642Y166326D01*
D02*
G37*
G36*
X56388D02*
X56279Y166304D01*
X56080Y166170D01*
X55946Y165971D01*
X55924Y165862D01*
X56388D01*
Y166326D01*
D02*
G37*
G36*
X46228Y166600D02*
X46043Y166563D01*
X45886Y166458D01*
X45781Y166301D01*
X45744Y166116D01*
X45781Y165931D01*
X45886Y165774D01*
X46043Y165669D01*
X46228Y165632D01*
X46413Y165669D01*
X46570Y165774D01*
X46675Y165931D01*
X46712Y166116D01*
X46675Y166301D01*
X46570Y166458D01*
X46413Y166563D01*
X46228Y166600D01*
D02*
G37*
G36*
X95490Y168261D02*
X93740D01*
Y166511D01*
X95490D01*
Y168261D01*
D02*
G37*
G36*
X55245Y169296D02*
X55047Y169269D01*
X54862Y169193D01*
X54703Y169071D01*
X54581Y168912D01*
X54505Y168727D01*
X54478Y168529D01*
X54505Y168331D01*
X54581Y168146D01*
X54703Y167987D01*
X54862Y167865D01*
X55047Y167789D01*
X55245Y167762D01*
X55443Y167789D01*
X55628Y167865D01*
X55787Y167987D01*
X55909Y168146D01*
X55985Y168331D01*
X56012Y168529D01*
X55985Y168727D01*
X55909Y168912D01*
X55787Y169071D01*
X55628Y169193D01*
X55443Y169269D01*
X55245Y169296D01*
D02*
G37*
G36*
X54483Y171455D02*
X54285Y171428D01*
X54100Y171352D01*
X53941Y171230D01*
X53819Y171071D01*
X53743Y170886D01*
X53716Y170688D01*
X53743Y170490D01*
X53819Y170305D01*
X53941Y170146D01*
X54100Y170024D01*
X54285Y169948D01*
X54483Y169921D01*
X54681Y169948D01*
X54866Y170024D01*
X55025Y170146D01*
X55147Y170305D01*
X55172Y170366D01*
X57398D01*
X59229Y168535D01*
X59204Y168473D01*
X59177Y168275D01*
X59204Y168077D01*
X59280Y167892D01*
X59402Y167733D01*
X59561Y167611D01*
X59746Y167535D01*
X59944Y167508D01*
X60142Y167535D01*
X60327Y167611D01*
X60486Y167733D01*
X60608Y167892D01*
X60684Y168077D01*
X60711Y168275D01*
X60684Y168473D01*
X60608Y168658D01*
X60486Y168817D01*
X60327Y168939D01*
X60142Y169015D01*
X59944Y169042D01*
X59746Y169015D01*
X59684Y168990D01*
X57758Y170915D01*
X57654Y170985D01*
X57531Y171010D01*
X55172D01*
X55147Y171071D01*
X55025Y171230D01*
X54866Y171352D01*
X54681Y171428D01*
X54483Y171455D01*
D02*
G37*
G36*
X41783Y168251D02*
X41598Y168214D01*
X41441Y168109D01*
X41336Y167952D01*
X41299Y167767D01*
X41336Y167582D01*
X41441Y167425D01*
X41598Y167320D01*
X41783Y167283D01*
X41968Y167320D01*
X42125Y167425D01*
X42230Y167582D01*
X42267Y167767D01*
X42230Y167952D01*
X42125Y168109D01*
X41968Y168214D01*
X41783Y168251D01*
D02*
G37*
G36*
X40215Y183769D02*
X39751D01*
Y183305D01*
X39860Y183327D01*
X40059Y183461D01*
X40193Y183660D01*
X40215Y183769D01*
D02*
G37*
G36*
X68834Y193377D02*
X68725Y193355D01*
X68526Y193221D01*
X68392Y193022D01*
X68370Y192913D01*
X68834D01*
Y193377D01*
D02*
G37*
G36*
X73660Y193651D02*
X73475Y193614D01*
X73318Y193509D01*
X73213Y193352D01*
X73176Y193167D01*
X73213Y192982D01*
X73318Y192825D01*
X73475Y192720D01*
X73660Y192683D01*
X73845Y192720D01*
X74002Y192825D01*
X74107Y192982D01*
X74144Y193167D01*
X74107Y193352D01*
X74002Y193509D01*
X73845Y193614D01*
X73660Y193651D01*
D02*
G37*
G36*
X90678Y194050D02*
X90450Y194019D01*
X90237Y193931D01*
X90054Y193791D01*
X89914Y193608D01*
X89826Y193395D01*
X89795Y193167D01*
X89826Y192939D01*
X89914Y192726D01*
X90054Y192543D01*
X90237Y192403D01*
X90450Y192315D01*
X90678Y192284D01*
X90906Y192315D01*
X91119Y192403D01*
X91302Y192543D01*
X91442Y192726D01*
X91530Y192939D01*
X91561Y193167D01*
X91530Y193395D01*
X91442Y193608D01*
X91302Y193791D01*
X91119Y193931D01*
X90906Y194019D01*
X90678Y194050D01*
D02*
G37*
G36*
X69088Y193377D02*
Y192913D01*
X69552D01*
X69530Y193022D01*
X69396Y193221D01*
X69197Y193355D01*
X69088Y193377D01*
D02*
G37*
G36*
X43118Y195137D02*
X42365D01*
X42379Y195032D01*
X42468Y194816D01*
X42611Y194630D01*
X42797Y194487D01*
X43013Y194398D01*
X43118Y194384D01*
Y195137D01*
D02*
G37*
G36*
X51181Y194696D02*
X50983Y194669D01*
X50798Y194593D01*
X50639Y194471D01*
X50517Y194312D01*
X50441Y194127D01*
X50414Y193929D01*
X50441Y193731D01*
X50517Y193546D01*
X50639Y193387D01*
X50798Y193265D01*
X50983Y193189D01*
X51181Y193162D01*
X51379Y193189D01*
X51564Y193265D01*
X51723Y193387D01*
X51845Y193546D01*
X51921Y193731D01*
X51948Y193929D01*
X51921Y194127D01*
X51845Y194312D01*
X51723Y194471D01*
X51564Y194593D01*
X51379Y194669D01*
X51181Y194696D01*
D02*
G37*
G36*
X97282Y194951D02*
X97050Y194920D01*
X96835Y194831D01*
X96649Y194689D01*
X96507Y194503D01*
X96418Y194288D01*
X96387Y194056D01*
X96418Y193824D01*
X96507Y193609D01*
X96649Y193423D01*
X96835Y193281D01*
X97050Y193192D01*
X97282Y193161D01*
X97514Y193192D01*
X97729Y193281D01*
X97915Y193423D01*
X98057Y193609D01*
X98146Y193824D01*
X98177Y194056D01*
X98146Y194288D01*
X98057Y194503D01*
X97915Y194689D01*
X97729Y194831D01*
X97514Y194920D01*
X97282Y194951D01*
D02*
G37*
G36*
X68834Y192659D02*
X68370D01*
X68392Y192550D01*
X68526Y192351D01*
X68725Y192217D01*
X68834Y192195D01*
Y192659D01*
D02*
G37*
G36*
X55245Y193680D02*
X55047Y193653D01*
X54862Y193577D01*
X54703Y193455D01*
X54581Y193296D01*
X54505Y193111D01*
X54478Y192913D01*
X54505Y192715D01*
X54581Y192530D01*
X54703Y192371D01*
X54862Y192249D01*
X55047Y192173D01*
X55245Y192146D01*
X55443Y192173D01*
X55628Y192249D01*
X55787Y192371D01*
X55909Y192530D01*
X55985Y192715D01*
X56012Y192913D01*
X55985Y193111D01*
X55909Y193296D01*
X55787Y193455D01*
X55628Y193577D01*
X55443Y193653D01*
X55245Y193680D01*
D02*
G37*
G36*
X54483Y195839D02*
X54285Y195812D01*
X54100Y195736D01*
X53941Y195614D01*
X53819Y195455D01*
X53743Y195270D01*
X53716Y195072D01*
X53743Y194874D01*
X53819Y194689D01*
X53941Y194530D01*
X54100Y194408D01*
X54285Y194332D01*
X54483Y194305D01*
X54681Y194332D01*
X54866Y194408D01*
X55025Y194530D01*
X55147Y194689D01*
X55172Y194750D01*
X57398D01*
X59229Y192919D01*
X59204Y192857D01*
X59177Y192659D01*
X59204Y192461D01*
X59280Y192276D01*
X59402Y192117D01*
X59561Y191995D01*
X59746Y191919D01*
X59944Y191892D01*
X60142Y191919D01*
X60327Y191995D01*
X60486Y192117D01*
X60608Y192276D01*
X60684Y192461D01*
X60711Y192659D01*
X60684Y192857D01*
X60608Y193042D01*
X60486Y193201D01*
X60327Y193323D01*
X60142Y193399D01*
X59944Y193426D01*
X59746Y193399D01*
X59684Y193374D01*
X57758Y195299D01*
X57654Y195369D01*
X57531Y195394D01*
X55172D01*
X55147Y195455D01*
X55025Y195614D01*
X54866Y195736D01*
X54681Y195812D01*
X54483Y195839D01*
D02*
G37*
G36*
X69552Y192659D02*
X69088D01*
Y192195D01*
X69197Y192217D01*
X69396Y192351D01*
X69530Y192550D01*
X69552Y192659D01*
D02*
G37*
G36*
X88138Y194050D02*
X87910Y194019D01*
X87697Y193931D01*
X87514Y193791D01*
X87374Y193608D01*
X87286Y193395D01*
X87255Y193167D01*
X87286Y192939D01*
X87374Y192726D01*
X87514Y192543D01*
X87697Y192403D01*
X87910Y192315D01*
X88138Y192284D01*
X88366Y192315D01*
X88579Y192403D01*
X88762Y192543D01*
X88902Y192726D01*
X88990Y192939D01*
X89021Y193167D01*
X88990Y193395D01*
X88902Y193608D01*
X88762Y193791D01*
X88579Y193931D01*
X88366Y194019D01*
X88138Y194050D01*
D02*
G37*
G36*
X85598D02*
X85370Y194019D01*
X85157Y193931D01*
X84974Y193791D01*
X84834Y193608D01*
X84746Y193395D01*
X84715Y193167D01*
X84746Y192939D01*
X84834Y192726D01*
X84974Y192543D01*
X85157Y192403D01*
X85370Y192315D01*
X85598Y192284D01*
X85826Y192315D01*
X86039Y192403D01*
X86222Y192543D01*
X86362Y192726D01*
X86450Y192939D01*
X86481Y193167D01*
X86450Y193395D01*
X86362Y193608D01*
X86222Y193791D01*
X86039Y193931D01*
X85826Y194019D01*
X85598Y194050D01*
D02*
G37*
G36*
X83058D02*
X82830Y194019D01*
X82617Y193931D01*
X82434Y193791D01*
X82294Y193608D01*
X82206Y193395D01*
X82175Y193167D01*
X82206Y192939D01*
X82294Y192726D01*
X82434Y192543D01*
X82617Y192403D01*
X82830Y192315D01*
X83058Y192284D01*
X83286Y192315D01*
X83499Y192403D01*
X83682Y192543D01*
X83822Y192726D01*
X83910Y192939D01*
X83941Y193167D01*
X83910Y193395D01*
X83822Y193608D01*
X83682Y193791D01*
X83499Y193931D01*
X83286Y194019D01*
X83058Y194050D01*
D02*
G37*
G36*
X34006Y196835D02*
X33821Y196798D01*
X33664Y196693D01*
X33559Y196536D01*
X33522Y196351D01*
X33559Y196166D01*
X33664Y196009D01*
X33821Y195904D01*
X34006Y195867D01*
X34191Y195904D01*
X34348Y196009D01*
X34453Y196166D01*
X34490Y196351D01*
X34453Y196536D01*
X34348Y196693D01*
X34191Y196798D01*
X34006Y196835D01*
D02*
G37*
G36*
X43372Y196144D02*
Y195391D01*
X44125D01*
X44111Y195496D01*
X44022Y195712D01*
X43879Y195898D01*
X43693Y196041D01*
X43477Y196130D01*
X43372Y196144D01*
D02*
G37*
G36*
X43118D02*
X43013Y196130D01*
X42797Y196041D01*
X42611Y195898D01*
X42468Y195712D01*
X42379Y195496D01*
X42365Y195391D01*
X43118D01*
Y196144D01*
D02*
G37*
G36*
X27379Y197027D02*
X27194Y196990D01*
X27037Y196885D01*
X26932Y196728D01*
X26895Y196543D01*
X26932Y196358D01*
X27037Y196201D01*
X27194Y196096D01*
X27379Y196059D01*
X27564Y196096D01*
X27721Y196201D01*
X27826Y196358D01*
X27863Y196543D01*
X27826Y196728D01*
X27721Y196885D01*
X27564Y196990D01*
X27379Y197027D01*
D02*
G37*
G36*
X77597Y200636D02*
X77412Y200599D01*
X77255Y200494D01*
X77150Y200337D01*
X77113Y200152D01*
X77150Y199967D01*
X77255Y199810D01*
X77412Y199705D01*
X77597Y199668D01*
X77782Y199705D01*
X77939Y199810D01*
X78044Y199967D01*
X78081Y200152D01*
X78044Y200337D01*
X77939Y200494D01*
X77782Y200599D01*
X77597Y200636D01*
D02*
G37*
G36*
X62103Y199269D02*
X61871Y199238D01*
X61656Y199149D01*
X61470Y199007D01*
X61328Y198821D01*
X61239Y198606D01*
X61208Y198374D01*
X61239Y198142D01*
X61291Y198017D01*
X61039Y197765D01*
X54198D01*
X54173Y197826D01*
X54051Y197985D01*
X53892Y198107D01*
X53707Y198183D01*
X53509Y198210D01*
X53311Y198183D01*
X53126Y198107D01*
X52967Y197985D01*
X52845Y197826D01*
X52769Y197641D01*
X52742Y197443D01*
X52769Y197245D01*
X52845Y197060D01*
X52967Y196901D01*
X53126Y196779D01*
X53311Y196703D01*
X53509Y196676D01*
X53707Y196703D01*
X53892Y196779D01*
X54051Y196901D01*
X54173Y197060D01*
X54198Y197121D01*
X61172D01*
X61295Y197146D01*
X61399Y197216D01*
X61537Y197353D01*
X61654Y197304D01*
Y188982D01*
X58318Y185645D01*
X58293Y185650D01*
X58108Y185613D01*
X57951Y185508D01*
X57846Y185351D01*
X57809Y185166D01*
X57846Y184981D01*
X57951Y184824D01*
X58108Y184719D01*
X58293Y184682D01*
X58478Y184719D01*
X58635Y184824D01*
X58740Y184981D01*
X58777Y185166D01*
X58772Y185191D01*
X62203Y188622D01*
X62273Y188726D01*
X62298Y188849D01*
Y197505D01*
X62335Y197510D01*
X62550Y197599D01*
X62736Y197741D01*
X62878Y197927D01*
X62967Y198142D01*
X62998Y198374D01*
X62967Y198606D01*
X62878Y198821D01*
X62736Y199007D01*
X62550Y199149D01*
X62335Y199238D01*
X62103Y199269D01*
D02*
G37*
G36*
X22352D02*
X22120Y199238D01*
X21905Y199149D01*
X21719Y199007D01*
X21577Y198821D01*
X21488Y198606D01*
X21457Y198374D01*
X21488Y198142D01*
X21577Y197927D01*
X21719Y197741D01*
X21905Y197599D01*
X22120Y197510D01*
X22352Y197479D01*
X22584Y197510D01*
X22799Y197599D01*
X22985Y197741D01*
X23127Y197927D01*
X23216Y198142D01*
X23247Y198374D01*
X23216Y198606D01*
X23127Y198821D01*
X22985Y199007D01*
X22799Y199149D01*
X22584Y199238D01*
X22352Y199269D01*
D02*
G37*
G36*
X83058Y196590D02*
X82830Y196559D01*
X82617Y196471D01*
X82434Y196331D01*
X82294Y196148D01*
X82206Y195935D01*
X82175Y195707D01*
X82206Y195479D01*
X82294Y195266D01*
X82434Y195083D01*
X82617Y194943D01*
X82830Y194855D01*
X83058Y194824D01*
X83286Y194855D01*
X83499Y194943D01*
X83682Y195083D01*
X83822Y195266D01*
X83910Y195479D01*
X83941Y195707D01*
X83910Y195935D01*
X83822Y196148D01*
X83682Y196331D01*
X83499Y196471D01*
X83286Y196559D01*
X83058Y196590D01*
D02*
G37*
G36*
X34006Y195692D02*
X33821Y195655D01*
X33664Y195550D01*
X33559Y195393D01*
X33522Y195208D01*
X33559Y195023D01*
X33664Y194866D01*
X33821Y194761D01*
X34006Y194724D01*
X34191Y194761D01*
X34348Y194866D01*
X34453Y195023D01*
X34490Y195208D01*
X34453Y195393D01*
X34348Y195550D01*
X34191Y195655D01*
X34006Y195692D01*
D02*
G37*
G36*
X44125Y195137D02*
X43372D01*
Y194384D01*
X43477Y194398D01*
X43693Y194487D01*
X43879Y194630D01*
X44022Y194816D01*
X44111Y195032D01*
X44125Y195137D01*
D02*
G37*
G36*
X85598Y196590D02*
X85370Y196559D01*
X85157Y196471D01*
X84974Y196331D01*
X84834Y196148D01*
X84746Y195935D01*
X84715Y195707D01*
X84746Y195479D01*
X84834Y195266D01*
X84974Y195083D01*
X85157Y194943D01*
X85370Y194855D01*
X85598Y194824D01*
X85826Y194855D01*
X86039Y194943D01*
X86222Y195083D01*
X86362Y195266D01*
X86450Y195479D01*
X86481Y195707D01*
X86450Y195935D01*
X86362Y196148D01*
X86222Y196331D01*
X86039Y196471D01*
X85826Y196559D01*
X85598Y196590D01*
D02*
G37*
G36*
X40783Y196728D02*
X40585Y196701D01*
X40400Y196625D01*
X40241Y196503D01*
X40119Y196344D01*
X40043Y196159D01*
X40016Y195961D01*
X40043Y195763D01*
X40119Y195578D01*
X40241Y195419D01*
X40400Y195297D01*
X40585Y195221D01*
X40783Y195194D01*
X40981Y195221D01*
X41166Y195297D01*
X41325Y195419D01*
X41447Y195578D01*
X41523Y195763D01*
X41550Y195961D01*
X41523Y196159D01*
X41447Y196344D01*
X41325Y196503D01*
X41166Y196625D01*
X40981Y196701D01*
X40783Y196728D01*
D02*
G37*
G36*
X91553Y196582D02*
X89803D01*
Y194832D01*
X91553D01*
Y196582D01*
D02*
G37*
G36*
X88138Y196590D02*
X87910Y196559D01*
X87697Y196471D01*
X87514Y196331D01*
X87374Y196148D01*
X87286Y195935D01*
X87255Y195707D01*
X87286Y195479D01*
X87374Y195266D01*
X87514Y195083D01*
X87697Y194943D01*
X87910Y194855D01*
X88138Y194824D01*
X88366Y194855D01*
X88579Y194943D01*
X88762Y195083D01*
X88902Y195266D01*
X88990Y195479D01*
X89021Y195707D01*
X88990Y195935D01*
X88902Y196148D01*
X88762Y196331D01*
X88579Y196471D01*
X88366Y196559D01*
X88138Y196590D01*
D02*
G37*
G36*
X41783Y192635D02*
X41598Y192598D01*
X41441Y192493D01*
X41336Y192336D01*
X41299Y192151D01*
X41336Y191966D01*
X41441Y191809D01*
X41598Y191704D01*
X41783Y191667D01*
X41968Y191704D01*
X42125Y191809D01*
X42230Y191966D01*
X42267Y192151D01*
X42230Y192336D01*
X42125Y192493D01*
X41968Y192598D01*
X41783Y192635D01*
D02*
G37*
G36*
X56642Y185904D02*
X56457Y185867D01*
X56300Y185762D01*
X56195Y185605D01*
X56158Y185420D01*
X56195Y185235D01*
X56300Y185078D01*
X56457Y184973D01*
X56642Y184936D01*
X56827Y184973D01*
X56984Y185078D01*
X57089Y185235D01*
X57126Y185420D01*
X57089Y185605D01*
X56984Y185762D01*
X56827Y185867D01*
X56642Y185904D01*
D02*
G37*
G36*
X36957Y185523D02*
X36772Y185486D01*
X36615Y185381D01*
X36510Y185224D01*
X36473Y185039D01*
X36510Y184854D01*
X36615Y184697D01*
X36772Y184592D01*
X36957Y184555D01*
X37142Y184592D01*
X37299Y184697D01*
X37404Y184854D01*
X37441Y185039D01*
X37404Y185224D01*
X37299Y185381D01*
X37142Y185486D01*
X36957Y185523D01*
D02*
G37*
G36*
X83933Y186295D02*
X82183D01*
Y184545D01*
X83933D01*
Y186295D01*
D02*
G37*
G36*
X27432Y187331D02*
X27200Y187300D01*
X26985Y187211D01*
X26799Y187069D01*
X26657Y186883D01*
X26568Y186668D01*
X26537Y186436D01*
X26568Y186204D01*
X26657Y185989D01*
X26799Y185803D01*
X26985Y185661D01*
X27200Y185572D01*
X27432Y185541D01*
X27664Y185572D01*
X27879Y185661D01*
X28065Y185803D01*
X28207Y185989D01*
X28296Y186204D01*
X28327Y186436D01*
X28296Y186668D01*
X28207Y186883D01*
X28065Y187069D01*
X27879Y187211D01*
X27664Y187300D01*
X27432Y187331D01*
D02*
G37*
G36*
X85598Y188843D02*
X85370Y188812D01*
X85157Y188724D01*
X84974Y188584D01*
X84834Y188401D01*
X84746Y188188D01*
X84715Y187960D01*
X84746Y187732D01*
X84834Y187519D01*
X84974Y187336D01*
X85157Y187196D01*
X85370Y187108D01*
X85598Y187077D01*
X85826Y187108D01*
X86039Y187196D01*
X86222Y187336D01*
X86362Y187519D01*
X86450Y187732D01*
X86481Y187960D01*
X86450Y188188D01*
X86362Y188401D01*
X86222Y188584D01*
X86039Y188724D01*
X85826Y188812D01*
X85598Y188843D01*
D02*
G37*
G36*
X83058D02*
X82830Y188812D01*
X82617Y188724D01*
X82434Y188584D01*
X82294Y188401D01*
X82206Y188188D01*
X82175Y187960D01*
X82206Y187732D01*
X82294Y187519D01*
X82434Y187336D01*
X82617Y187196D01*
X82830Y187108D01*
X83058Y187077D01*
X83286Y187108D01*
X83499Y187196D01*
X83682Y187336D01*
X83822Y187519D01*
X83910Y187732D01*
X83941Y187960D01*
X83910Y188188D01*
X83822Y188401D01*
X83682Y188584D01*
X83499Y188724D01*
X83286Y188812D01*
X83058Y188843D01*
D02*
G37*
G36*
X97282Y188220D02*
X97050Y188189D01*
X96835Y188100D01*
X96649Y187958D01*
X96507Y187772D01*
X96418Y187557D01*
X96387Y187325D01*
X96418Y187093D01*
X96507Y186878D01*
X96649Y186692D01*
X96835Y186550D01*
X97050Y186461D01*
X97282Y186430D01*
X97514Y186461D01*
X97729Y186550D01*
X97915Y186692D01*
X98057Y186878D01*
X98146Y187093D01*
X98177Y187325D01*
X98146Y187557D01*
X98057Y187772D01*
X97915Y187958D01*
X97729Y188100D01*
X97514Y188189D01*
X97282Y188220D01*
D02*
G37*
G36*
X39497Y184487D02*
X39388Y184465D01*
X39189Y184331D01*
X39055Y184132D01*
X39033Y184023D01*
X39497D01*
Y184487D01*
D02*
G37*
G36*
X31115Y185171D02*
X30917Y185144D01*
X30732Y185068D01*
X30573Y184946D01*
X30451Y184787D01*
X30375Y184602D01*
X30348Y184404D01*
X30375Y184206D01*
X30451Y184021D01*
X30573Y183862D01*
X30732Y183740D01*
X30917Y183664D01*
X31115Y183637D01*
X31313Y183664D01*
X31498Y183740D01*
X31657Y183862D01*
X31779Y184021D01*
X31855Y184206D01*
X31882Y184404D01*
X31855Y184602D01*
X31779Y184787D01*
X31657Y184946D01*
X31498Y185068D01*
X31313Y185144D01*
X31115Y185171D01*
D02*
G37*
G36*
X41148Y184380D02*
X40963Y184343D01*
X40806Y184238D01*
X40701Y184081D01*
X40664Y183896D01*
X40701Y183711D01*
X40806Y183554D01*
X40963Y183449D01*
X41148Y183412D01*
X41333Y183449D01*
X41490Y183554D01*
X41595Y183711D01*
X41632Y183896D01*
X41595Y184081D01*
X41490Y184238D01*
X41333Y184343D01*
X41148Y184380D01*
D02*
G37*
G36*
X39751Y184487D02*
Y184023D01*
X40215D01*
X40193Y184132D01*
X40059Y184331D01*
X39860Y184465D01*
X39751Y184487D01*
D02*
G37*
G36*
X90678Y186303D02*
X90450Y186272D01*
X90237Y186184D01*
X90054Y186044D01*
X89914Y185861D01*
X89826Y185648D01*
X89795Y185420D01*
X89826Y185192D01*
X89914Y184979D01*
X90054Y184796D01*
X90237Y184656D01*
X90450Y184568D01*
X90678Y184537D01*
X90906Y184568D01*
X91119Y184656D01*
X91302Y184796D01*
X91442Y184979D01*
X91530Y185192D01*
X91561Y185420D01*
X91530Y185648D01*
X91442Y185861D01*
X91302Y186044D01*
X91119Y186184D01*
X90906Y186272D01*
X90678Y186303D01*
D02*
G37*
G36*
X88138D02*
X87910Y186272D01*
X87697Y186184D01*
X87514Y186044D01*
X87374Y185861D01*
X87286Y185648D01*
X87255Y185420D01*
X87286Y185192D01*
X87374Y184979D01*
X87514Y184796D01*
X87697Y184656D01*
X87910Y184568D01*
X88138Y184537D01*
X88366Y184568D01*
X88579Y184656D01*
X88762Y184796D01*
X88902Y184979D01*
X88990Y185192D01*
X89021Y185420D01*
X88990Y185648D01*
X88902Y185861D01*
X88762Y186044D01*
X88579Y186184D01*
X88366Y186272D01*
X88138Y186303D01*
D02*
G37*
G36*
X85598D02*
X85370Y186272D01*
X85157Y186184D01*
X84974Y186044D01*
X84834Y185861D01*
X84746Y185648D01*
X84715Y185420D01*
X84746Y185192D01*
X84834Y184979D01*
X84974Y184796D01*
X85157Y184656D01*
X85370Y184568D01*
X85598Y184537D01*
X85826Y184568D01*
X86039Y184656D01*
X86222Y184796D01*
X86362Y184979D01*
X86450Y185192D01*
X86481Y185420D01*
X86450Y185648D01*
X86362Y185861D01*
X86222Y186044D01*
X86039Y186184D01*
X85826Y186272D01*
X85598Y186303D01*
D02*
G37*
G36*
X57106Y189992D02*
X56642D01*
Y189528D01*
X56751Y189550D01*
X56950Y189684D01*
X57084Y189883D01*
X57106Y189992D01*
D02*
G37*
G36*
X56388D02*
X55924D01*
X55946Y189883D01*
X56080Y189684D01*
X56279Y189550D01*
X56388Y189528D01*
Y189992D01*
D02*
G37*
G36*
X64135Y190887D02*
X63903Y190856D01*
X63688Y190767D01*
X63502Y190625D01*
X63360Y190439D01*
X63271Y190224D01*
X63240Y189992D01*
X63271Y189760D01*
X63360Y189545D01*
X63502Y189359D01*
X63688Y189217D01*
X63903Y189128D01*
X64135Y189097D01*
X64367Y189128D01*
X64582Y189217D01*
X64768Y189359D01*
X64910Y189545D01*
X64999Y189760D01*
X65030Y189992D01*
X64999Y190224D01*
X64910Y190439D01*
X64768Y190625D01*
X64582Y190767D01*
X64367Y190856D01*
X64135Y190887D01*
D02*
G37*
G36*
X46228Y190984D02*
X46043Y190947D01*
X45886Y190842D01*
X45781Y190685D01*
X45744Y190500D01*
X45781Y190315D01*
X45886Y190158D01*
X46043Y190053D01*
X46228Y190016D01*
X46413Y190053D01*
X46570Y190158D01*
X46675Y190315D01*
X46712Y190500D01*
X46675Y190685D01*
X46570Y190842D01*
X46413Y190947D01*
X46228Y190984D01*
D02*
G37*
G36*
X95490Y192645D02*
X93740D01*
Y190895D01*
X95490D01*
Y192645D01*
D02*
G37*
G36*
X56642Y190710D02*
Y190246D01*
X57106D01*
X57084Y190355D01*
X56950Y190554D01*
X56751Y190688D01*
X56642Y190710D01*
D02*
G37*
G36*
X56388D02*
X56279Y190688D01*
X56080Y190554D01*
X55946Y190355D01*
X55924Y190246D01*
X56388D01*
Y190710D01*
D02*
G37*
G36*
X50038Y188982D02*
X49806Y188951D01*
X49591Y188862D01*
X49405Y188720D01*
X49263Y188534D01*
X49174Y188319D01*
X49143Y188087D01*
X49174Y187855D01*
X49263Y187640D01*
X49405Y187454D01*
X49591Y187312D01*
X49806Y187223D01*
X50038Y187192D01*
X50270Y187223D01*
X50485Y187312D01*
X50671Y187454D01*
X50813Y187640D01*
X50902Y187855D01*
X50933Y188087D01*
X50902Y188319D01*
X50813Y188534D01*
X50671Y188720D01*
X50485Y188862D01*
X50270Y188951D01*
X50038Y188982D01*
D02*
G37*
G36*
X90678Y188843D02*
X90450Y188812D01*
X90237Y188724D01*
X90054Y188584D01*
X89914Y188401D01*
X89826Y188188D01*
X89795Y187960D01*
X89826Y187732D01*
X89914Y187519D01*
X90054Y187336D01*
X90237Y187196D01*
X90450Y187108D01*
X90678Y187077D01*
X90906Y187108D01*
X91119Y187196D01*
X91302Y187336D01*
X91442Y187519D01*
X91530Y187732D01*
X91561Y187960D01*
X91530Y188188D01*
X91442Y188401D01*
X91302Y188584D01*
X91119Y188724D01*
X90906Y188812D01*
X90678Y188843D01*
D02*
G37*
G36*
X88138D02*
X87910Y188812D01*
X87697Y188724D01*
X87514Y188584D01*
X87374Y188401D01*
X87286Y188188D01*
X87255Y187960D01*
X87286Y187732D01*
X87374Y187519D01*
X87514Y187336D01*
X87697Y187196D01*
X87910Y187108D01*
X88138Y187077D01*
X88366Y187108D01*
X88579Y187196D01*
X88762Y187336D01*
X88902Y187519D01*
X88990Y187732D01*
X89021Y187960D01*
X88990Y188188D01*
X88902Y188401D01*
X88762Y188584D01*
X88579Y188724D01*
X88366Y188812D01*
X88138Y188843D01*
D02*
G37*
G36*
X53086Y188317D02*
X52901Y188280D01*
X52744Y188175D01*
X52639Y188018D01*
X52602Y187833D01*
X52639Y187648D01*
X52744Y187491D01*
X52901Y187386D01*
X53086Y187349D01*
X53271Y187386D01*
X53428Y187491D01*
X53533Y187648D01*
X53570Y187833D01*
X53533Y188018D01*
X53428Y188175D01*
X53271Y188280D01*
X53086Y188317D01*
D02*
G37*
G36*
X94615Y190113D02*
X94387Y190082D01*
X94174Y189994D01*
X93991Y189854D01*
X93851Y189671D01*
X93763Y189458D01*
X93732Y189230D01*
X93763Y189002D01*
X93851Y188789D01*
X93991Y188606D01*
X94174Y188466D01*
X94387Y188378D01*
X94615Y188347D01*
X94843Y188378D01*
X95056Y188466D01*
X95239Y188606D01*
X95379Y188789D01*
X95467Y189002D01*
X95498Y189230D01*
X95467Y189458D01*
X95379Y189671D01*
X95239Y189854D01*
X95056Y189994D01*
X94843Y190082D01*
X94615Y190113D01*
D02*
G37*
G36*
X72517Y188952D02*
X72332Y188915D01*
X72175Y188810D01*
X72070Y188653D01*
X72033Y188468D01*
X72070Y188283D01*
X72175Y188126D01*
X72332Y188021D01*
X72517Y187984D01*
X72702Y188021D01*
X72859Y188126D01*
X72964Y188283D01*
X73001Y188468D01*
X72964Y188653D01*
X72859Y188810D01*
X72702Y188915D01*
X72517Y188952D01*
D02*
G37*
G36*
X54991Y188825D02*
X54806Y188788D01*
X54649Y188683D01*
X54544Y188526D01*
X54507Y188341D01*
X54544Y188156D01*
X54649Y187999D01*
X54806Y187894D01*
X54991Y187857D01*
X55176Y187894D01*
X55333Y187999D01*
X55438Y188156D01*
X55475Y188341D01*
X55438Y188526D01*
X55333Y188683D01*
X55176Y188788D01*
X54991Y188825D01*
D02*
G37*
G36*
X83933Y137781D02*
X82183D01*
Y136031D01*
X83933D01*
Y137781D01*
D02*
G37*
G36*
X90678Y137789D02*
X90450Y137758D01*
X90237Y137670D01*
X90054Y137530D01*
X89914Y137347D01*
X89826Y137134D01*
X89795Y136906D01*
X89826Y136678D01*
X89914Y136465D01*
X90054Y136282D01*
X90237Y136142D01*
X90450Y136054D01*
X90678Y136023D01*
X90906Y136054D01*
X91119Y136142D01*
X91302Y136282D01*
X91442Y136465D01*
X91530Y136678D01*
X91561Y136906D01*
X91530Y137134D01*
X91442Y137347D01*
X91302Y137530D01*
X91119Y137670D01*
X90906Y137758D01*
X90678Y137789D01*
D02*
G37*
G36*
X88138D02*
X87910Y137758D01*
X87697Y137670D01*
X87514Y137530D01*
X87374Y137347D01*
X87286Y137134D01*
X87255Y136906D01*
X87286Y136678D01*
X87374Y136465D01*
X87514Y136282D01*
X87697Y136142D01*
X87910Y136054D01*
X88138Y136023D01*
X88366Y136054D01*
X88579Y136142D01*
X88762Y136282D01*
X88902Y136465D01*
X88990Y136678D01*
X89021Y136906D01*
X88990Y137134D01*
X88902Y137347D01*
X88762Y137530D01*
X88579Y137670D01*
X88366Y137758D01*
X88138Y137789D01*
D02*
G37*
G36*
X36957Y137009D02*
X36772Y136972D01*
X36615Y136867D01*
X36510Y136710D01*
X36473Y136525D01*
X36510Y136340D01*
X36615Y136183D01*
X36772Y136078D01*
X36957Y136041D01*
X37142Y136078D01*
X37299Y136183D01*
X37404Y136340D01*
X37441Y136525D01*
X37404Y136710D01*
X37299Y136867D01*
X37142Y136972D01*
X36957Y137009D01*
D02*
G37*
G36*
X83058Y140329D02*
X82830Y140298D01*
X82617Y140210D01*
X82434Y140070D01*
X82294Y139887D01*
X82206Y139674D01*
X82175Y139446D01*
X82206Y139218D01*
X82294Y139005D01*
X82434Y138822D01*
X82617Y138682D01*
X82830Y138594D01*
X83058Y138563D01*
X83286Y138594D01*
X83499Y138682D01*
X83682Y138822D01*
X83822Y139005D01*
X83910Y139218D01*
X83941Y139446D01*
X83910Y139674D01*
X83822Y139887D01*
X83682Y140070D01*
X83499Y140210D01*
X83286Y140298D01*
X83058Y140329D01*
D02*
G37*
G36*
X97282Y139706D02*
X97050Y139675D01*
X96835Y139586D01*
X96649Y139444D01*
X96507Y139258D01*
X96418Y139043D01*
X96387Y138811D01*
X96418Y138579D01*
X96507Y138364D01*
X96649Y138178D01*
X96835Y138036D01*
X97050Y137947D01*
X97282Y137916D01*
X97514Y137947D01*
X97729Y138036D01*
X97915Y138178D01*
X98057Y138364D01*
X98146Y138579D01*
X98177Y138811D01*
X98146Y139043D01*
X98057Y139258D01*
X97915Y139444D01*
X97729Y139586D01*
X97514Y139675D01*
X97282Y139706D01*
D02*
G37*
G36*
X56642Y137390D02*
X56457Y137353D01*
X56300Y137248D01*
X56195Y137091D01*
X56158Y136906D01*
X56195Y136721D01*
X56300Y136564D01*
X56457Y136459D01*
X56642Y136422D01*
X56827Y136459D01*
X56984Y136564D01*
X57089Y136721D01*
X57126Y136906D01*
X57089Y137091D01*
X56984Y137248D01*
X56827Y137353D01*
X56642Y137390D01*
D02*
G37*
G36*
X41148Y135866D02*
X40963Y135829D01*
X40806Y135724D01*
X40701Y135567D01*
X40664Y135382D01*
X40701Y135197D01*
X40806Y135040D01*
X40963Y134935D01*
X41148Y134898D01*
X41333Y134935D01*
X41490Y135040D01*
X41595Y135197D01*
X41632Y135382D01*
X41595Y135567D01*
X41490Y135724D01*
X41333Y135829D01*
X41148Y135866D01*
D02*
G37*
G36*
X40215Y135255D02*
X39751D01*
Y134791D01*
X39860Y134813D01*
X40059Y134947D01*
X40193Y135146D01*
X40215Y135255D01*
D02*
G37*
G36*
X39497D02*
X39033D01*
X39055Y135146D01*
X39189Y134947D01*
X39388Y134813D01*
X39497Y134791D01*
Y135255D01*
D02*
G37*
G36*
X29591Y144756D02*
X29406Y144719D01*
X29249Y144614D01*
X29144Y144457D01*
X29107Y144272D01*
X29144Y144087D01*
X29249Y143930D01*
X29406Y143825D01*
X29521Y143802D01*
X34162Y139161D01*
Y136681D01*
X34161Y136681D01*
X34002Y136559D01*
X33880Y136400D01*
X33804Y136215D01*
X33777Y136017D01*
X33804Y135819D01*
X33880Y135634D01*
X34002Y135475D01*
X34161Y135353D01*
X34346Y135277D01*
X34544Y135250D01*
X34742Y135277D01*
X34927Y135353D01*
X35086Y135475D01*
X35208Y135634D01*
X35284Y135819D01*
X35311Y136017D01*
X35284Y136215D01*
X35208Y136400D01*
X35086Y136559D01*
X34927Y136681D01*
X34926Y136681D01*
Y139319D01*
X34897Y139465D01*
X34814Y139589D01*
X34814Y139589D01*
X30061Y144342D01*
X30038Y144457D01*
X29933Y144614D01*
X29776Y144719D01*
X29591Y144756D01*
D02*
G37*
G36*
X85598Y137789D02*
X85370Y137758D01*
X85157Y137670D01*
X84974Y137530D01*
X84834Y137347D01*
X84746Y137134D01*
X84715Y136906D01*
X84746Y136678D01*
X84834Y136465D01*
X84974Y136282D01*
X85157Y136142D01*
X85370Y136054D01*
X85598Y136023D01*
X85826Y136054D01*
X86039Y136142D01*
X86222Y136282D01*
X86362Y136465D01*
X86450Y136678D01*
X86481Y136906D01*
X86450Y137134D01*
X86362Y137347D01*
X86222Y137530D01*
X86039Y137670D01*
X85826Y137758D01*
X85598Y137789D01*
D02*
G37*
G36*
X39751Y135973D02*
Y135509D01*
X40215D01*
X40193Y135618D01*
X40059Y135817D01*
X39860Y135951D01*
X39751Y135973D01*
D02*
G37*
G36*
X39497D02*
X39388Y135951D01*
X39189Y135817D01*
X39055Y135618D01*
X39033Y135509D01*
X39497D01*
Y135973D01*
D02*
G37*
G36*
X85598Y140329D02*
X85370Y140298D01*
X85157Y140210D01*
X84974Y140070D01*
X84834Y139887D01*
X84746Y139674D01*
X84715Y139446D01*
X84746Y139218D01*
X84834Y139005D01*
X84974Y138822D01*
X85157Y138682D01*
X85370Y138594D01*
X85598Y138563D01*
X85826Y138594D01*
X86039Y138682D01*
X86222Y138822D01*
X86362Y139005D01*
X86450Y139218D01*
X86481Y139446D01*
X86450Y139674D01*
X86362Y139887D01*
X86222Y140070D01*
X86039Y140210D01*
X85826Y140298D01*
X85598Y140329D01*
D02*
G37*
G36*
X57106Y141478D02*
X56642D01*
Y141014D01*
X56751Y141036D01*
X56950Y141170D01*
X57084Y141369D01*
X57106Y141478D01*
D02*
G37*
G36*
X56388D02*
X55924D01*
X55946Y141369D01*
X56080Y141170D01*
X56279Y141036D01*
X56388Y141014D01*
Y141478D01*
D02*
G37*
G36*
X64135Y142373D02*
X63903Y142342D01*
X63688Y142253D01*
X63502Y142111D01*
X63360Y141925D01*
X63271Y141710D01*
X63240Y141478D01*
X63271Y141246D01*
X63360Y141031D01*
X63502Y140845D01*
X63688Y140703D01*
X63903Y140614D01*
X64135Y140583D01*
X64367Y140614D01*
X64582Y140703D01*
X64768Y140845D01*
X64910Y141031D01*
X64999Y141246D01*
X65030Y141478D01*
X64999Y141710D01*
X64910Y141925D01*
X64768Y142111D01*
X64582Y142253D01*
X64367Y142342D01*
X64135Y142373D01*
D02*
G37*
G36*
X46228Y142470D02*
X46043Y142433D01*
X45886Y142328D01*
X45781Y142171D01*
X45744Y141986D01*
X45781Y141801D01*
X45886Y141644D01*
X46043Y141539D01*
X46228Y141502D01*
X46413Y141539D01*
X46570Y141644D01*
X46675Y141801D01*
X46712Y141986D01*
X46675Y142171D01*
X46570Y142328D01*
X46413Y142433D01*
X46228Y142470D01*
D02*
G37*
G36*
X95490Y144131D02*
X93740D01*
Y142381D01*
X95490D01*
Y144131D01*
D02*
G37*
G36*
X56642Y142196D02*
Y141732D01*
X57106D01*
X57084Y141841D01*
X56950Y142040D01*
X56751Y142174D01*
X56642Y142196D01*
D02*
G37*
G36*
X56388D02*
X56279Y142174D01*
X56080Y142040D01*
X55946Y141841D01*
X55924Y141732D01*
X56388D01*
Y142196D01*
D02*
G37*
G36*
X50038Y140468D02*
X49806Y140437D01*
X49591Y140348D01*
X49405Y140206D01*
X49263Y140020D01*
X49174Y139805D01*
X49143Y139573D01*
X49174Y139341D01*
X49263Y139126D01*
X49405Y138940D01*
X49591Y138798D01*
X49806Y138709D01*
X50038Y138678D01*
X50270Y138709D01*
X50485Y138798D01*
X50671Y138940D01*
X50813Y139126D01*
X50902Y139341D01*
X50933Y139573D01*
X50902Y139805D01*
X50813Y140020D01*
X50671Y140206D01*
X50485Y140348D01*
X50270Y140437D01*
X50038Y140468D01*
D02*
G37*
G36*
X90678Y140329D02*
X90450Y140298D01*
X90237Y140210D01*
X90054Y140070D01*
X89914Y139887D01*
X89826Y139674D01*
X89795Y139446D01*
X89826Y139218D01*
X89914Y139005D01*
X90054Y138822D01*
X90237Y138682D01*
X90450Y138594D01*
X90678Y138563D01*
X90906Y138594D01*
X91119Y138682D01*
X91302Y138822D01*
X91442Y139005D01*
X91530Y139218D01*
X91561Y139446D01*
X91530Y139674D01*
X91442Y139887D01*
X91302Y140070D01*
X91119Y140210D01*
X90906Y140298D01*
X90678Y140329D01*
D02*
G37*
G36*
X88138D02*
X87910Y140298D01*
X87697Y140210D01*
X87514Y140070D01*
X87374Y139887D01*
X87286Y139674D01*
X87255Y139446D01*
X87286Y139218D01*
X87374Y139005D01*
X87514Y138822D01*
X87697Y138682D01*
X87910Y138594D01*
X88138Y138563D01*
X88366Y138594D01*
X88579Y138682D01*
X88762Y138822D01*
X88902Y139005D01*
X88990Y139218D01*
X89021Y139446D01*
X88990Y139674D01*
X88902Y139887D01*
X88762Y140070D01*
X88579Y140210D01*
X88366Y140298D01*
X88138Y140329D01*
D02*
G37*
G36*
X53086Y139803D02*
X52901Y139766D01*
X52744Y139661D01*
X52639Y139504D01*
X52602Y139319D01*
X52639Y139134D01*
X52744Y138977D01*
X52901Y138872D01*
X53086Y138835D01*
X53271Y138872D01*
X53428Y138977D01*
X53533Y139134D01*
X53570Y139319D01*
X53533Y139504D01*
X53428Y139661D01*
X53271Y139766D01*
X53086Y139803D01*
D02*
G37*
G36*
X94615Y141599D02*
X94387Y141568D01*
X94174Y141480D01*
X93991Y141340D01*
X93851Y141157D01*
X93763Y140944D01*
X93732Y140716D01*
X93763Y140488D01*
X93851Y140275D01*
X93991Y140092D01*
X94174Y139952D01*
X94387Y139864D01*
X94615Y139833D01*
X94843Y139864D01*
X95056Y139952D01*
X95239Y140092D01*
X95379Y140275D01*
X95467Y140488D01*
X95498Y140716D01*
X95467Y140944D01*
X95379Y141157D01*
X95239Y141340D01*
X95056Y141480D01*
X94843Y141568D01*
X94615Y141599D01*
D02*
G37*
G36*
X72517Y140438D02*
X72332Y140401D01*
X72175Y140296D01*
X72070Y140139D01*
X72033Y139954D01*
X72070Y139769D01*
X72175Y139612D01*
X72332Y139507D01*
X72517Y139470D01*
X72702Y139507D01*
X72859Y139612D01*
X72964Y139769D01*
X73001Y139954D01*
X72964Y140139D01*
X72859Y140296D01*
X72702Y140401D01*
X72517Y140438D01*
D02*
G37*
G36*
X54991Y140311D02*
X54806Y140274D01*
X54649Y140169D01*
X54544Y140012D01*
X54507Y139827D01*
X54544Y139642D01*
X54649Y139485D01*
X54806Y139380D01*
X54991Y139343D01*
X55176Y139380D01*
X55333Y139485D01*
X55438Y139642D01*
X55475Y139827D01*
X55438Y140012D01*
X55333Y140169D01*
X55176Y140274D01*
X54991Y140311D01*
D02*
G37*
G36*
X81534Y126662D02*
X81260Y126626D01*
X81004Y126520D01*
X80785Y126352D01*
X80617Y126133D01*
X80511Y125877D01*
X80475Y125603D01*
X80511Y125329D01*
X80617Y125073D01*
X80785Y124854D01*
X81004Y124686D01*
X81260Y124580D01*
X81534Y124544D01*
X81808Y124580D01*
X82064Y124686D01*
X82283Y124854D01*
X82451Y125073D01*
X82557Y125329D01*
X82593Y125603D01*
X82557Y125877D01*
X82451Y126133D01*
X82283Y126352D01*
X82064Y126520D01*
X81808Y126626D01*
X81534Y126662D01*
D02*
G37*
G36*
X86995Y124846D02*
X86797Y124819D01*
X86612Y124743D01*
X86453Y124621D01*
X86331Y124462D01*
X86255Y124277D01*
X86228Y124079D01*
X86255Y123881D01*
X86331Y123696D01*
X86453Y123537D01*
X86612Y123415D01*
X86797Y123339D01*
X86995Y123312D01*
X87193Y123339D01*
X87378Y123415D01*
X87537Y123537D01*
X87659Y123696D01*
X87735Y123881D01*
X87762Y124079D01*
X87735Y124277D01*
X87659Y124462D01*
X87537Y124621D01*
X87378Y124743D01*
X87193Y124819D01*
X86995Y124846D01*
D02*
G37*
G36*
X83566Y124835D02*
X83338Y124804D01*
X83125Y124716D01*
X82942Y124576D01*
X82802Y124393D01*
X82714Y124180D01*
X82683Y123952D01*
X82714Y123724D01*
X82802Y123511D01*
X82942Y123328D01*
X83125Y123188D01*
X83338Y123100D01*
X83566Y123069D01*
X83794Y123100D01*
X84007Y123188D01*
X84190Y123328D01*
X84330Y123511D01*
X84418Y123724D01*
X84449Y123952D01*
X84418Y124180D01*
X84330Y124393D01*
X84190Y124576D01*
X84007Y124716D01*
X83794Y124804D01*
X83566Y124835D01*
D02*
G37*
G36*
X58547Y127895D02*
X58315Y127864D01*
X58100Y127775D01*
X57914Y127633D01*
X57772Y127447D01*
X57683Y127232D01*
X57652Y127000D01*
X57683Y126768D01*
X57772Y126553D01*
X57914Y126367D01*
X58100Y126225D01*
X58315Y126136D01*
X58547Y126105D01*
X58779Y126136D01*
X58994Y126225D01*
X59180Y126367D01*
X59322Y126553D01*
X59411Y126768D01*
X59442Y127000D01*
X59411Y127232D01*
X59322Y127447D01*
X59180Y127633D01*
X58994Y127775D01*
X58779Y127864D01*
X58547Y127895D01*
D02*
G37*
G36*
X54983Y127000D02*
X54102D01*
Y126119D01*
X54240Y126137D01*
X54487Y126240D01*
X54700Y126402D01*
X54862Y126615D01*
X54965Y126862D01*
X54983Y127000D01*
D02*
G37*
G36*
X53848D02*
X52967D01*
X52985Y126862D01*
X53088Y126615D01*
X53250Y126402D01*
X53463Y126240D01*
X53710Y126137D01*
X53848Y126119D01*
Y127000D01*
D02*
G37*
G36*
X62992Y127895D02*
X62760Y127864D01*
X62545Y127775D01*
X62359Y127633D01*
X62217Y127447D01*
X62128Y127232D01*
X62097Y127000D01*
X62128Y126768D01*
X62217Y126553D01*
X62359Y126367D01*
X62545Y126225D01*
X62760Y126136D01*
X62992Y126105D01*
X63224Y126136D01*
X63439Y126225D01*
X63625Y126367D01*
X63767Y126553D01*
X63856Y126768D01*
X63887Y127000D01*
X63856Y127232D01*
X63767Y127447D01*
X63625Y127633D01*
X63439Y127775D01*
X63224Y127864D01*
X62992Y127895D01*
D02*
G37*
G36*
X39370Y124721D02*
X39105Y124686D01*
X38859Y124584D01*
X38647Y124421D01*
X38484Y124209D01*
X38382Y123963D01*
X38347Y123698D01*
X38382Y123433D01*
X38484Y123187D01*
X38647Y122975D01*
X38859Y122812D01*
X39105Y122710D01*
X39370Y122675D01*
X39635Y122710D01*
X39881Y122812D01*
X40093Y122975D01*
X40256Y123187D01*
X40358Y123433D01*
X40393Y123698D01*
X40358Y123963D01*
X40256Y124209D01*
X40093Y124421D01*
X39881Y124584D01*
X39635Y124686D01*
X39370Y124721D01*
D02*
G37*
G36*
X36830D02*
X36565Y124686D01*
X36319Y124584D01*
X36107Y124421D01*
X35944Y124209D01*
X35842Y123963D01*
X35807Y123698D01*
X35842Y123433D01*
X35944Y123187D01*
X36107Y122975D01*
X36319Y122812D01*
X36565Y122710D01*
X36830Y122675D01*
X37095Y122710D01*
X37341Y122812D01*
X37553Y122975D01*
X37716Y123187D01*
X37818Y123433D01*
X37853Y123698D01*
X37818Y123963D01*
X37716Y124209D01*
X37553Y124421D01*
X37341Y124584D01*
X37095Y124686D01*
X36830Y124721D01*
D02*
G37*
G36*
X34290D02*
X34025Y124686D01*
X33779Y124584D01*
X33567Y124421D01*
X33404Y124209D01*
X33302Y123963D01*
X33267Y123698D01*
X33302Y123433D01*
X33404Y123187D01*
X33567Y122975D01*
X33779Y122812D01*
X34025Y122710D01*
X34290Y122675D01*
X34555Y122710D01*
X34801Y122812D01*
X35013Y122975D01*
X35176Y123187D01*
X35278Y123433D01*
X35313Y123698D01*
X35278Y123963D01*
X35176Y124209D01*
X35013Y124421D01*
X34801Y124584D01*
X34555Y124686D01*
X34290Y124721D01*
D02*
G37*
G36*
X44450D02*
X44185Y124686D01*
X43939Y124584D01*
X43727Y124421D01*
X43564Y124209D01*
X43462Y123963D01*
X43427Y123698D01*
X43462Y123433D01*
X43564Y123187D01*
X43727Y122975D01*
X43939Y122812D01*
X44185Y122710D01*
X44450Y122675D01*
X44715Y122710D01*
X44961Y122812D01*
X45173Y122975D01*
X45336Y123187D01*
X45438Y123433D01*
X45473Y123698D01*
X45438Y123963D01*
X45336Y124209D01*
X45173Y124421D01*
X44961Y124584D01*
X44715Y124686D01*
X44450Y124721D01*
D02*
G37*
G36*
X79756Y124835D02*
X79528Y124804D01*
X79315Y124716D01*
X79132Y124576D01*
X78992Y124393D01*
X78904Y124180D01*
X78873Y123952D01*
X78904Y123724D01*
X78992Y123511D01*
X79132Y123328D01*
X79315Y123188D01*
X79528Y123100D01*
X79756Y123069D01*
X79984Y123100D01*
X80197Y123188D01*
X80380Y123328D01*
X80520Y123511D01*
X80608Y123724D01*
X80639Y123952D01*
X80608Y124180D01*
X80520Y124393D01*
X80380Y124576D01*
X80197Y124716D01*
X79984Y124804D01*
X79756Y124835D01*
D02*
G37*
G36*
X49530Y124721D02*
X49265Y124686D01*
X49019Y124584D01*
X48807Y124421D01*
X48644Y124209D01*
X48542Y123963D01*
X48507Y123698D01*
X48542Y123433D01*
X48644Y123187D01*
X48807Y122975D01*
X49019Y122812D01*
X49265Y122710D01*
X49530Y122675D01*
X49795Y122710D01*
X50041Y122812D01*
X50253Y122975D01*
X50416Y123187D01*
X50518Y123433D01*
X50553Y123698D01*
X50518Y123963D01*
X50416Y124209D01*
X50253Y124421D01*
X50041Y124584D01*
X49795Y124686D01*
X49530Y124721D01*
D02*
G37*
G36*
X46990D02*
X46725Y124686D01*
X46479Y124584D01*
X46267Y124421D01*
X46104Y124209D01*
X46002Y123963D01*
X45967Y123698D01*
X46002Y123433D01*
X46104Y123187D01*
X46267Y122975D01*
X46479Y122812D01*
X46725Y122710D01*
X46990Y122675D01*
X47255Y122710D01*
X47501Y122812D01*
X47713Y122975D01*
X47876Y123187D01*
X47978Y123433D01*
X48013Y123698D01*
X47978Y123963D01*
X47876Y124209D01*
X47713Y124421D01*
X47501Y124584D01*
X47255Y124686D01*
X46990Y124721D01*
D02*
G37*
G36*
X79756Y128010D02*
X79528Y127979D01*
X79315Y127891D01*
X79132Y127751D01*
X78992Y127568D01*
X78904Y127355D01*
X78873Y127127D01*
X78904Y126899D01*
X78992Y126686D01*
X79132Y126503D01*
X79315Y126363D01*
X79528Y126275D01*
X79756Y126244D01*
X79984Y126275D01*
X80197Y126363D01*
X80380Y126503D01*
X80520Y126686D01*
X80608Y126899D01*
X80639Y127127D01*
X80608Y127355D01*
X80520Y127568D01*
X80380Y127751D01*
X80197Y127891D01*
X79984Y127979D01*
X79756Y128010D01*
D02*
G37*
G36*
X68326Y138562D02*
X68128Y138535D01*
X67943Y138459D01*
X67784Y138337D01*
X67662Y138178D01*
X67586Y137993D01*
X67559Y137795D01*
X67586Y137597D01*
X67662Y137412D01*
X67784Y137253D01*
X67943Y137131D01*
X68128Y137055D01*
X68326Y137028D01*
X68524Y137055D01*
X68709Y137131D01*
X68868Y137253D01*
X68990Y137412D01*
X69042Y137538D01*
X76475D01*
X79449Y134564D01*
X79397Y134437D01*
X79370Y134239D01*
X79397Y134041D01*
X79473Y133856D01*
X79595Y133697D01*
X79754Y133575D01*
X79939Y133499D01*
X80137Y133472D01*
X80335Y133499D01*
X80520Y133575D01*
X80679Y133697D01*
X80801Y133856D01*
X80877Y134041D01*
X80904Y134239D01*
X80877Y134437D01*
X80801Y134622D01*
X80679Y134781D01*
X80520Y134903D01*
X80335Y134979D01*
X80137Y135006D01*
X79939Y134979D01*
X79812Y134927D01*
X77544Y137196D01*
X77585Y137334D01*
X77655Y137348D01*
X77812Y137453D01*
X77917Y137610D01*
X77954Y137795D01*
X77917Y137980D01*
X77812Y138137D01*
X77655Y138242D01*
X77470Y138279D01*
X77285Y138242D01*
X77128Y138137D01*
X77023Y137980D01*
X77009Y137910D01*
X76871Y137869D01*
X76763Y137977D01*
X76679Y138032D01*
X76581Y138052D01*
X69042D01*
X68990Y138178D01*
X68868Y138337D01*
X68709Y138459D01*
X68524Y138535D01*
X68326Y138562D01*
D02*
G37*
G36*
X72473Y133858D02*
X72009D01*
Y133394D01*
X72118Y133416D01*
X72317Y133550D01*
X72451Y133749D01*
X72473Y133858D01*
D02*
G37*
G36*
X71755D02*
X71291D01*
X71313Y133749D01*
X71447Y133550D01*
X71646Y133416D01*
X71755Y133394D01*
Y133858D01*
D02*
G37*
G36*
X27051Y135514D02*
X26853Y135487D01*
X26668Y135411D01*
X26509Y135289D01*
X26387Y135130D01*
X26311Y134945D01*
X26284Y134747D01*
X26311Y134549D01*
X26387Y134364D01*
X26509Y134205D01*
X26668Y134083D01*
X26853Y134007D01*
X27051Y133980D01*
X27249Y134007D01*
X27434Y134083D01*
X27593Y134205D01*
X27715Y134364D01*
X27791Y134549D01*
X27818Y134747D01*
X27791Y134945D01*
X27715Y135130D01*
X27593Y135289D01*
X27434Y135411D01*
X27249Y135487D01*
X27051Y135514D01*
D02*
G37*
G36*
X50165Y135739D02*
X49980Y135702D01*
X49823Y135597D01*
X49718Y135440D01*
X49681Y135255D01*
X49718Y135070D01*
X49823Y134913D01*
X49980Y134808D01*
X50165Y134771D01*
X50350Y134808D01*
X50507Y134913D01*
X50612Y135070D01*
X50649Y135255D01*
X50612Y135440D01*
X50507Y135597D01*
X50350Y135702D01*
X50165Y135739D01*
D02*
G37*
G36*
X72009Y134576D02*
Y134112D01*
X72473D01*
X72451Y134221D01*
X72317Y134420D01*
X72118Y134554D01*
X72009Y134576D01*
D02*
G37*
G36*
X71755D02*
X71646Y134554D01*
X71447Y134420D01*
X71313Y134221D01*
X71291Y134112D01*
X71755D01*
Y134576D01*
D02*
G37*
G36*
X54102Y128135D02*
Y127254D01*
X54983D01*
X54965Y127392D01*
X54862Y127639D01*
X54700Y127852D01*
X54487Y128014D01*
X54240Y128117D01*
X54102Y128135D01*
D02*
G37*
G36*
X53848D02*
X53710Y128117D01*
X53463Y128014D01*
X53250Y127852D01*
X53088Y127639D01*
X52985Y127392D01*
X52967Y127254D01*
X53848D01*
Y128135D01*
D02*
G37*
G36*
X83439Y128010D02*
X83211Y127979D01*
X82998Y127891D01*
X82815Y127751D01*
X82675Y127568D01*
X82587Y127355D01*
X82556Y127127D01*
X82587Y126899D01*
X82675Y126686D01*
X82815Y126503D01*
X82998Y126363D01*
X83211Y126275D01*
X83439Y126244D01*
X83667Y126275D01*
X83880Y126363D01*
X84063Y126503D01*
X84203Y126686D01*
X84291Y126899D01*
X84322Y127127D01*
X84291Y127355D01*
X84203Y127568D01*
X84063Y127751D01*
X83880Y127891D01*
X83667Y127979D01*
X83439Y128010D01*
D02*
G37*
G36*
X30861Y133990D02*
X30663Y133963D01*
X30478Y133887D01*
X30319Y133765D01*
X30197Y133606D01*
X30121Y133421D01*
X30094Y133223D01*
X30121Y133025D01*
X30197Y132840D01*
X30319Y132681D01*
X30478Y132559D01*
X30663Y132483D01*
X30861Y132456D01*
X31059Y132483D01*
X31186Y132535D01*
X32255Y131466D01*
Y129527D01*
X32187Y129518D01*
X32002Y129442D01*
X31843Y129320D01*
X31721Y129161D01*
X31645Y128976D01*
X31618Y128778D01*
X31645Y128580D01*
X31721Y128395D01*
X31843Y128236D01*
X32002Y128114D01*
X32187Y128038D01*
X32385Y128011D01*
X32583Y128038D01*
X32768Y128114D01*
X32927Y128236D01*
X33049Y128395D01*
X33125Y128580D01*
X33152Y128778D01*
X33125Y128976D01*
X33049Y129161D01*
X32927Y129320D01*
X32769Y129441D01*
Y131572D01*
X32749Y131670D01*
X32694Y131754D01*
X31549Y132898D01*
X31601Y133025D01*
X31628Y133223D01*
X31601Y133421D01*
X31525Y133606D01*
X31403Y133765D01*
X31244Y133887D01*
X31059Y133963D01*
X30861Y133990D01*
D02*
G37*
G36*
X73279Y132945D02*
X73094Y132908D01*
X72937Y132803D01*
X72832Y132646D01*
X72795Y132461D01*
X72832Y132276D01*
X72937Y132119D01*
X73094Y132014D01*
X73279Y131977D01*
X73464Y132014D01*
X73621Y132119D01*
X73726Y132276D01*
X73763Y132461D01*
X73726Y132646D01*
X73621Y132803D01*
X73464Y132908D01*
X73279Y132945D01*
D02*
G37*
G36*
X72771Y136530D02*
X72573Y136503D01*
X72388Y136427D01*
X72229Y136305D01*
X72107Y136146D01*
X72031Y135961D01*
X72004Y135763D01*
X72031Y135565D01*
X72107Y135380D01*
X72229Y135221D01*
X72388Y135099D01*
X72573Y135023D01*
X72771Y134996D01*
X72969Y135023D01*
X73096Y135075D01*
X76070Y132101D01*
Y131653D01*
X75944Y131601D01*
X75785Y131479D01*
X75663Y131320D01*
X75587Y131135D01*
X75560Y130937D01*
X75587Y130739D01*
X75663Y130554D01*
X75785Y130395D01*
X75944Y130273D01*
X76129Y130197D01*
X76327Y130170D01*
X76525Y130197D01*
X76710Y130273D01*
X76869Y130395D01*
X76991Y130554D01*
X77067Y130739D01*
X77094Y130937D01*
X77067Y131135D01*
X76991Y131320D01*
X76869Y131479D01*
X76710Y131601D01*
X76584Y131653D01*
Y132207D01*
X76564Y132305D01*
X76509Y132389D01*
X73459Y135438D01*
X73511Y135565D01*
X73538Y135763D01*
X73511Y135961D01*
X73435Y136146D01*
X73313Y136305D01*
X73154Y136427D01*
X72969Y136503D01*
X72771Y136530D01*
D02*
G37*
G36*
X36703Y129545D02*
X36505Y129518D01*
X36320Y129442D01*
X36161Y129320D01*
X36039Y129161D01*
X35963Y128976D01*
X35936Y128778D01*
X35963Y128580D01*
X36039Y128395D01*
X36161Y128236D01*
X36320Y128114D01*
X36505Y128038D01*
X36703Y128011D01*
X36901Y128038D01*
X37086Y128114D01*
X37245Y128236D01*
X37367Y128395D01*
X37443Y128580D01*
X37470Y128778D01*
X37443Y128976D01*
X37367Y129161D01*
X37245Y129320D01*
X37086Y129442D01*
X36901Y129518D01*
X36703Y129545D01*
D02*
G37*
G36*
X73279Y157075D02*
X73094Y157038D01*
X72937Y156933D01*
X72832Y156776D01*
X72795Y156591D01*
X72832Y156406D01*
X72937Y156249D01*
X73094Y156144D01*
X73279Y156107D01*
X73464Y156144D01*
X73621Y156249D01*
X73726Y156406D01*
X73763Y156591D01*
X73726Y156776D01*
X73621Y156933D01*
X73464Y157038D01*
X73279Y157075D01*
D02*
G37*
G36*
X72771Y160660D02*
X72573Y160633D01*
X72388Y160557D01*
X72229Y160435D01*
X72107Y160276D01*
X72031Y160091D01*
X72004Y159893D01*
X72031Y159695D01*
X72107Y159510D01*
X72229Y159351D01*
X72388Y159229D01*
X72573Y159153D01*
X72771Y159126D01*
X72969Y159153D01*
X73096Y159205D01*
X76070Y156231D01*
Y155783D01*
X75944Y155731D01*
X75785Y155609D01*
X75663Y155450D01*
X75587Y155265D01*
X75560Y155067D01*
X75587Y154869D01*
X75663Y154684D01*
X75785Y154525D01*
X75944Y154403D01*
X76129Y154327D01*
X76327Y154300D01*
X76525Y154327D01*
X76710Y154403D01*
X76869Y154525D01*
X76991Y154684D01*
X77067Y154869D01*
X77094Y155067D01*
X77067Y155265D01*
X76991Y155450D01*
X76869Y155609D01*
X76710Y155731D01*
X76584Y155783D01*
Y156337D01*
X76564Y156435D01*
X76509Y156519D01*
X73459Y159568D01*
X73511Y159695D01*
X73538Y159893D01*
X73511Y160091D01*
X73435Y160276D01*
X73313Y160435D01*
X73154Y160557D01*
X72969Y160633D01*
X72771Y160660D01*
D02*
G37*
G36*
X73152Y152376D02*
X72967Y152339D01*
X72810Y152234D01*
X72705Y152077D01*
X72668Y151892D01*
X72705Y151707D01*
X72810Y151550D01*
X72967Y151445D01*
X73152Y151408D01*
X73337Y151445D01*
X73494Y151550D01*
X73599Y151707D01*
X73636Y151892D01*
X73599Y152077D01*
X73494Y152234D01*
X73337Y152339D01*
X73152Y152376D01*
D02*
G37*
G36*
X68326Y162692D02*
X68128Y162665D01*
X67943Y162589D01*
X67784Y162467D01*
X67662Y162308D01*
X67586Y162123D01*
X67559Y161925D01*
X67586Y161727D01*
X67662Y161542D01*
X67784Y161383D01*
X67943Y161261D01*
X68128Y161185D01*
X68326Y161158D01*
X68524Y161185D01*
X68709Y161261D01*
X68868Y161383D01*
X68990Y161542D01*
X69042Y161668D01*
X76475D01*
X79449Y158694D01*
X79397Y158567D01*
X79370Y158369D01*
X79397Y158171D01*
X79473Y157986D01*
X79595Y157827D01*
X79754Y157705D01*
X79939Y157629D01*
X80137Y157602D01*
X80335Y157629D01*
X80520Y157705D01*
X80679Y157827D01*
X80801Y157986D01*
X80877Y158171D01*
X80904Y158369D01*
X80877Y158567D01*
X80801Y158752D01*
X80679Y158911D01*
X80520Y159033D01*
X80335Y159109D01*
X80137Y159136D01*
X79939Y159109D01*
X79812Y159057D01*
X77544Y161326D01*
X77585Y161464D01*
X77655Y161478D01*
X77812Y161583D01*
X77917Y161740D01*
X77954Y161925D01*
X77917Y162110D01*
X77812Y162267D01*
X77655Y162372D01*
X77470Y162409D01*
X77285Y162372D01*
X77128Y162267D01*
X77023Y162110D01*
X77009Y162040D01*
X76871Y161999D01*
X76763Y162107D01*
X76679Y162162D01*
X76581Y162182D01*
X69042D01*
X68990Y162308D01*
X68868Y162467D01*
X68709Y162589D01*
X68524Y162665D01*
X68326Y162692D01*
D02*
G37*
G36*
X72473Y157988D02*
X72009D01*
Y157524D01*
X72118Y157546D01*
X72317Y157680D01*
X72451Y157879D01*
X72473Y157988D01*
D02*
G37*
G36*
X71755D02*
X71291D01*
X71313Y157879D01*
X71447Y157680D01*
X71646Y157546D01*
X71755Y157524D01*
Y157988D01*
D02*
G37*
G36*
X77597Y152122D02*
X77412Y152085D01*
X77255Y151980D01*
X77150Y151823D01*
X77113Y151638D01*
X77150Y151453D01*
X77255Y151296D01*
X77412Y151191D01*
X77597Y151154D01*
X77782Y151191D01*
X77939Y151296D01*
X78044Y151453D01*
X78081Y151638D01*
X78044Y151823D01*
X77939Y151980D01*
X77782Y152085D01*
X77597Y152122D01*
D02*
G37*
G36*
X43372Y147630D02*
Y146877D01*
X44125D01*
X44111Y146982D01*
X44022Y147198D01*
X43879Y147384D01*
X43693Y147527D01*
X43477Y147616D01*
X43372Y147630D01*
D02*
G37*
G36*
X43118D02*
X43013Y147616D01*
X42797Y147527D01*
X42611Y147384D01*
X42468Y147198D01*
X42379Y146982D01*
X42365Y146877D01*
X43118D01*
Y147630D01*
D02*
G37*
G36*
X40783Y148214D02*
X40585Y148187D01*
X40400Y148111D01*
X40241Y147989D01*
X40119Y147830D01*
X40043Y147645D01*
X40016Y147447D01*
X40043Y147249D01*
X40119Y147064D01*
X40241Y146905D01*
X40400Y146783D01*
X40585Y146707D01*
X40783Y146680D01*
X40981Y146707D01*
X41166Y146783D01*
X41325Y146905D01*
X41447Y147064D01*
X41523Y147249D01*
X41550Y147447D01*
X41523Y147645D01*
X41447Y147830D01*
X41325Y147989D01*
X41166Y148111D01*
X40981Y148187D01*
X40783Y148214D01*
D02*
G37*
G36*
X62103Y150755D02*
X61871Y150724D01*
X61656Y150635D01*
X61470Y150493D01*
X61328Y150307D01*
X61239Y150092D01*
X61208Y149860D01*
X61239Y149628D01*
X61291Y149503D01*
X61039Y149251D01*
X54198D01*
X54173Y149312D01*
X54051Y149471D01*
X53892Y149593D01*
X53707Y149669D01*
X53509Y149696D01*
X53311Y149669D01*
X53126Y149593D01*
X52967Y149471D01*
X52845Y149312D01*
X52769Y149127D01*
X52742Y148929D01*
X52769Y148731D01*
X52845Y148546D01*
X52967Y148387D01*
X53126Y148265D01*
X53311Y148189D01*
X53509Y148162D01*
X53707Y148189D01*
X53892Y148265D01*
X54051Y148387D01*
X54173Y148546D01*
X54198Y148607D01*
X61172D01*
X61295Y148632D01*
X61399Y148702D01*
X61537Y148839D01*
X61654Y148790D01*
Y140468D01*
X58318Y137131D01*
X58293Y137136D01*
X58108Y137099D01*
X57951Y136994D01*
X57846Y136837D01*
X57809Y136652D01*
X57846Y136467D01*
X57951Y136310D01*
X58108Y136205D01*
X58293Y136168D01*
X58478Y136205D01*
X58635Y136310D01*
X58740Y136467D01*
X58777Y136652D01*
X58772Y136677D01*
X62203Y140108D01*
X62273Y140212D01*
X62298Y140335D01*
Y148991D01*
X62335Y148996D01*
X62550Y149085D01*
X62736Y149227D01*
X62878Y149413D01*
X62967Y149628D01*
X62998Y149860D01*
X62967Y150092D01*
X62878Y150307D01*
X62736Y150493D01*
X62550Y150635D01*
X62335Y150724D01*
X62103Y150755D01*
D02*
G37*
G36*
X27379Y148513D02*
X27194Y148476D01*
X27037Y148371D01*
X26932Y148214D01*
X26895Y148029D01*
X26932Y147844D01*
X27037Y147687D01*
X27194Y147582D01*
X27379Y147545D01*
X27564Y147582D01*
X27721Y147687D01*
X27826Y147844D01*
X27863Y148029D01*
X27826Y148214D01*
X27721Y148371D01*
X27564Y148476D01*
X27379Y148513D01*
D02*
G37*
G36*
X34006Y148321D02*
X33821Y148284D01*
X33664Y148179D01*
X33559Y148022D01*
X33522Y147837D01*
X33559Y147652D01*
X33664Y147495D01*
X33821Y147390D01*
X34006Y147353D01*
X34191Y147390D01*
X34348Y147495D01*
X34453Y147652D01*
X34490Y147837D01*
X34453Y148022D01*
X34348Y148179D01*
X34191Y148284D01*
X34006Y148321D01*
D02*
G37*
G36*
X71755Y158706D02*
X71646Y158684D01*
X71447Y158550D01*
X71313Y158351D01*
X71291Y158242D01*
X71755D01*
Y158706D01*
D02*
G37*
G36*
X88138Y161919D02*
X87910Y161888D01*
X87697Y161800D01*
X87514Y161660D01*
X87374Y161477D01*
X87286Y161264D01*
X87255Y161036D01*
X87286Y160808D01*
X87374Y160595D01*
X87514Y160412D01*
X87697Y160272D01*
X87910Y160184D01*
X88138Y160153D01*
X88366Y160184D01*
X88579Y160272D01*
X88762Y160412D01*
X88902Y160595D01*
X88990Y160808D01*
X89021Y161036D01*
X88990Y161264D01*
X88902Y161477D01*
X88762Y161660D01*
X88579Y161800D01*
X88366Y161888D01*
X88138Y161919D01*
D02*
G37*
G36*
X85598D02*
X85370Y161888D01*
X85157Y161800D01*
X84974Y161660D01*
X84834Y161477D01*
X84746Y161264D01*
X84715Y161036D01*
X84746Y160808D01*
X84834Y160595D01*
X84974Y160412D01*
X85157Y160272D01*
X85370Y160184D01*
X85598Y160153D01*
X85826Y160184D01*
X86039Y160272D01*
X86222Y160412D01*
X86362Y160595D01*
X86450Y160808D01*
X86481Y161036D01*
X86450Y161264D01*
X86362Y161477D01*
X86222Y161660D01*
X86039Y161800D01*
X85826Y161888D01*
X85598Y161919D01*
D02*
G37*
G36*
X39751Y160103D02*
Y159639D01*
X40215D01*
X40193Y159748D01*
X40059Y159947D01*
X39860Y160081D01*
X39751Y160103D01*
D02*
G37*
G36*
X36957Y161139D02*
X36772Y161102D01*
X36615Y160997D01*
X36510Y160840D01*
X36473Y160655D01*
X36510Y160470D01*
X36615Y160313D01*
X36772Y160208D01*
X36957Y160171D01*
X37142Y160208D01*
X37299Y160313D01*
X37404Y160470D01*
X37441Y160655D01*
X37404Y160840D01*
X37299Y160997D01*
X37142Y161102D01*
X36957Y161139D01*
D02*
G37*
G36*
X83933Y161911D02*
X82183D01*
Y160161D01*
X83933D01*
Y161911D01*
D02*
G37*
G36*
X90678Y161919D02*
X90450Y161888D01*
X90237Y161800D01*
X90054Y161660D01*
X89914Y161477D01*
X89826Y161264D01*
X89795Y161036D01*
X89826Y160808D01*
X89914Y160595D01*
X90054Y160412D01*
X90237Y160272D01*
X90450Y160184D01*
X90678Y160153D01*
X90906Y160184D01*
X91119Y160272D01*
X91302Y160412D01*
X91442Y160595D01*
X91530Y160808D01*
X91561Y161036D01*
X91530Y161264D01*
X91442Y161477D01*
X91302Y161660D01*
X91119Y161800D01*
X90906Y161888D01*
X90678Y161919D01*
D02*
G37*
G36*
X39497Y160103D02*
X39388Y160081D01*
X39189Y159947D01*
X39055Y159748D01*
X39033Y159639D01*
X39497D01*
Y160103D01*
D02*
G37*
G36*
Y159385D02*
X39033D01*
X39055Y159276D01*
X39189Y159077D01*
X39388Y158943D01*
X39497Y158921D01*
Y159385D01*
D02*
G37*
G36*
X50165Y159869D02*
X49980Y159832D01*
X49823Y159727D01*
X49718Y159570D01*
X49681Y159385D01*
X49718Y159200D01*
X49823Y159043D01*
X49980Y158938D01*
X50165Y158901D01*
X50350Y158938D01*
X50507Y159043D01*
X50612Y159200D01*
X50649Y159385D01*
X50612Y159570D01*
X50507Y159727D01*
X50350Y159832D01*
X50165Y159869D01*
D02*
G37*
G36*
X72009Y158706D02*
Y158242D01*
X72473D01*
X72451Y158351D01*
X72317Y158550D01*
X72118Y158684D01*
X72009Y158706D01*
D02*
G37*
G36*
X31115Y160787D02*
X30917Y160760D01*
X30732Y160684D01*
X30573Y160562D01*
X30451Y160403D01*
X30375Y160218D01*
X30348Y160020D01*
X30375Y159822D01*
X30451Y159637D01*
X30573Y159478D01*
X30732Y159356D01*
X30917Y159280D01*
X31115Y159253D01*
X31313Y159280D01*
X31498Y159356D01*
X31657Y159478D01*
X31779Y159637D01*
X31855Y159822D01*
X31882Y160020D01*
X31855Y160218D01*
X31779Y160403D01*
X31657Y160562D01*
X31498Y160684D01*
X31313Y160760D01*
X31115Y160787D01*
D02*
G37*
G36*
X41148Y159996D02*
X40963Y159959D01*
X40806Y159854D01*
X40701Y159697D01*
X40664Y159512D01*
X40701Y159327D01*
X40806Y159170D01*
X40963Y159065D01*
X41148Y159028D01*
X41333Y159065D01*
X41490Y159170D01*
X41595Y159327D01*
X41632Y159512D01*
X41595Y159697D01*
X41490Y159854D01*
X41333Y159959D01*
X41148Y159996D01*
D02*
G37*
G36*
X40215Y159385D02*
X39751D01*
Y158921D01*
X39860Y158943D01*
X40059Y159077D01*
X40193Y159276D01*
X40215Y159385D01*
D02*
G37*
G36*
X91553Y148068D02*
X89803D01*
Y146318D01*
X91553D01*
Y148068D01*
D02*
G37*
G36*
X73660Y145137D02*
X73475Y145100D01*
X73318Y144995D01*
X73213Y144838D01*
X73176Y144653D01*
X73213Y144468D01*
X73318Y144311D01*
X73475Y144206D01*
X73660Y144169D01*
X73845Y144206D01*
X74002Y144311D01*
X74107Y144468D01*
X74144Y144653D01*
X74107Y144838D01*
X74002Y144995D01*
X73845Y145100D01*
X73660Y145137D01*
D02*
G37*
G36*
X90678Y145536D02*
X90450Y145505D01*
X90237Y145417D01*
X90054Y145277D01*
X89914Y145094D01*
X89826Y144881D01*
X89795Y144653D01*
X89826Y144425D01*
X89914Y144212D01*
X90054Y144029D01*
X90237Y143889D01*
X90450Y143801D01*
X90678Y143770D01*
X90906Y143801D01*
X91119Y143889D01*
X91302Y144029D01*
X91442Y144212D01*
X91530Y144425D01*
X91561Y144653D01*
X91530Y144881D01*
X91442Y145094D01*
X91302Y145277D01*
X91119Y145417D01*
X90906Y145505D01*
X90678Y145536D01*
D02*
G37*
G36*
X88138D02*
X87910Y145505D01*
X87697Y145417D01*
X87514Y145277D01*
X87374Y145094D01*
X87286Y144881D01*
X87255Y144653D01*
X87286Y144425D01*
X87374Y144212D01*
X87514Y144029D01*
X87697Y143889D01*
X87910Y143801D01*
X88138Y143770D01*
X88366Y143801D01*
X88579Y143889D01*
X88762Y144029D01*
X88902Y144212D01*
X88990Y144425D01*
X89021Y144653D01*
X88990Y144881D01*
X88902Y145094D01*
X88762Y145277D01*
X88579Y145417D01*
X88366Y145505D01*
X88138Y145536D01*
D02*
G37*
G36*
X97282Y146437D02*
X97050Y146406D01*
X96835Y146317D01*
X96649Y146175D01*
X96507Y145989D01*
X96418Y145774D01*
X96387Y145542D01*
X96418Y145310D01*
X96507Y145095D01*
X96649Y144909D01*
X96835Y144767D01*
X97050Y144678D01*
X97282Y144647D01*
X97514Y144678D01*
X97729Y144767D01*
X97915Y144909D01*
X98057Y145095D01*
X98146Y145310D01*
X98177Y145542D01*
X98146Y145774D01*
X98057Y145989D01*
X97915Y146175D01*
X97729Y146317D01*
X97514Y146406D01*
X97282Y146437D01*
D02*
G37*
G36*
X69088Y144863D02*
Y144399D01*
X69552D01*
X69530Y144508D01*
X69396Y144707D01*
X69197Y144841D01*
X69088Y144863D01*
D02*
G37*
G36*
X68834D02*
X68725Y144841D01*
X68526Y144707D01*
X68392Y144508D01*
X68370Y144399D01*
X68834D01*
Y144863D01*
D02*
G37*
G36*
X85598Y145536D02*
X85370Y145505D01*
X85157Y145417D01*
X84974Y145277D01*
X84834Y145094D01*
X84746Y144881D01*
X84715Y144653D01*
X84746Y144425D01*
X84834Y144212D01*
X84974Y144029D01*
X85157Y143889D01*
X85370Y143801D01*
X85598Y143770D01*
X85826Y143801D01*
X86039Y143889D01*
X86222Y144029D01*
X86362Y144212D01*
X86450Y144425D01*
X86481Y144653D01*
X86450Y144881D01*
X86362Y145094D01*
X86222Y145277D01*
X86039Y145417D01*
X85826Y145505D01*
X85598Y145536D01*
D02*
G37*
G36*
X55245Y145166D02*
X55047Y145139D01*
X54862Y145063D01*
X54703Y144941D01*
X54581Y144782D01*
X54505Y144597D01*
X54478Y144399D01*
X54505Y144201D01*
X54581Y144016D01*
X54703Y143857D01*
X54862Y143735D01*
X55047Y143659D01*
X55245Y143632D01*
X55443Y143659D01*
X55628Y143735D01*
X55787Y143857D01*
X55909Y144016D01*
X55985Y144201D01*
X56012Y144399D01*
X55985Y144597D01*
X55909Y144782D01*
X55787Y144941D01*
X55628Y145063D01*
X55443Y145139D01*
X55245Y145166D01*
D02*
G37*
G36*
X54483Y147325D02*
X54285Y147298D01*
X54100Y147222D01*
X53941Y147100D01*
X53819Y146941D01*
X53743Y146756D01*
X53716Y146558D01*
X53743Y146360D01*
X53819Y146175D01*
X53941Y146016D01*
X54100Y145894D01*
X54285Y145818D01*
X54483Y145791D01*
X54681Y145818D01*
X54866Y145894D01*
X55025Y146016D01*
X55147Y146175D01*
X55172Y146236D01*
X57398D01*
X59229Y144405D01*
X59204Y144343D01*
X59177Y144145D01*
X59204Y143947D01*
X59280Y143762D01*
X59402Y143603D01*
X59561Y143481D01*
X59746Y143405D01*
X59944Y143378D01*
X60142Y143405D01*
X60327Y143481D01*
X60486Y143603D01*
X60608Y143762D01*
X60684Y143947D01*
X60711Y144145D01*
X60684Y144343D01*
X60608Y144528D01*
X60486Y144687D01*
X60327Y144809D01*
X60142Y144885D01*
X59944Y144912D01*
X59746Y144885D01*
X59684Y144860D01*
X57758Y146785D01*
X57654Y146855D01*
X57531Y146880D01*
X55172D01*
X55147Y146941D01*
X55025Y147100D01*
X54866Y147222D01*
X54681Y147298D01*
X54483Y147325D01*
D02*
G37*
G36*
X41783Y144121D02*
X41598Y144084D01*
X41441Y143979D01*
X41336Y143822D01*
X41299Y143637D01*
X41336Y143452D01*
X41441Y143295D01*
X41598Y143190D01*
X41783Y143153D01*
X41968Y143190D01*
X42125Y143295D01*
X42230Y143452D01*
X42267Y143637D01*
X42230Y143822D01*
X42125Y143979D01*
X41968Y144084D01*
X41783Y144121D01*
D02*
G37*
G36*
X83058Y145536D02*
X82830Y145505D01*
X82617Y145417D01*
X82434Y145277D01*
X82294Y145094D01*
X82206Y144881D01*
X82175Y144653D01*
X82206Y144425D01*
X82294Y144212D01*
X82434Y144029D01*
X82617Y143889D01*
X82830Y143801D01*
X83058Y143770D01*
X83286Y143801D01*
X83499Y143889D01*
X83682Y144029D01*
X83822Y144212D01*
X83910Y144425D01*
X83941Y144653D01*
X83910Y144881D01*
X83822Y145094D01*
X83682Y145277D01*
X83499Y145417D01*
X83286Y145505D01*
X83058Y145536D01*
D02*
G37*
G36*
X69552Y144145D02*
X69088D01*
Y143681D01*
X69197Y143703D01*
X69396Y143837D01*
X69530Y144036D01*
X69552Y144145D01*
D02*
G37*
G36*
X68834D02*
X68370D01*
X68392Y144036D01*
X68526Y143837D01*
X68725Y143703D01*
X68834Y143681D01*
Y144145D01*
D02*
G37*
G36*
X51181Y146182D02*
X50983Y146155D01*
X50798Y146079D01*
X50639Y145957D01*
X50517Y145798D01*
X50441Y145613D01*
X50414Y145415D01*
X50441Y145217D01*
X50517Y145032D01*
X50639Y144873D01*
X50798Y144751D01*
X50983Y144675D01*
X51181Y144648D01*
X51379Y144675D01*
X51564Y144751D01*
X51723Y144873D01*
X51845Y145032D01*
X51921Y145217D01*
X51948Y145415D01*
X51921Y145613D01*
X51845Y145798D01*
X51723Y145957D01*
X51564Y146079D01*
X51379Y146155D01*
X51181Y146182D01*
D02*
G37*
G36*
X88138Y148076D02*
X87910Y148045D01*
X87697Y147957D01*
X87514Y147817D01*
X87374Y147634D01*
X87286Y147421D01*
X87255Y147193D01*
X87286Y146965D01*
X87374Y146752D01*
X87514Y146569D01*
X87697Y146429D01*
X87910Y146341D01*
X88138Y146310D01*
X88366Y146341D01*
X88579Y146429D01*
X88762Y146569D01*
X88902Y146752D01*
X88990Y146965D01*
X89021Y147193D01*
X88990Y147421D01*
X88902Y147634D01*
X88762Y147817D01*
X88579Y147957D01*
X88366Y148045D01*
X88138Y148076D01*
D02*
G37*
G36*
X85598D02*
X85370Y148045D01*
X85157Y147957D01*
X84974Y147817D01*
X84834Y147634D01*
X84746Y147421D01*
X84715Y147193D01*
X84746Y146965D01*
X84834Y146752D01*
X84974Y146569D01*
X85157Y146429D01*
X85370Y146341D01*
X85598Y146310D01*
X85826Y146341D01*
X86039Y146429D01*
X86222Y146569D01*
X86362Y146752D01*
X86450Y146965D01*
X86481Y147193D01*
X86450Y147421D01*
X86362Y147634D01*
X86222Y147817D01*
X86039Y147957D01*
X85826Y148045D01*
X85598Y148076D01*
D02*
G37*
G36*
X83058D02*
X82830Y148045D01*
X82617Y147957D01*
X82434Y147817D01*
X82294Y147634D01*
X82206Y147421D01*
X82175Y147193D01*
X82206Y146965D01*
X82294Y146752D01*
X82434Y146569D01*
X82617Y146429D01*
X82830Y146341D01*
X83058Y146310D01*
X83286Y146341D01*
X83499Y146429D01*
X83682Y146569D01*
X83822Y146752D01*
X83910Y146965D01*
X83941Y147193D01*
X83910Y147421D01*
X83822Y147634D01*
X83682Y147817D01*
X83499Y147957D01*
X83286Y148045D01*
X83058Y148076D01*
D02*
G37*
G36*
X44125Y146623D02*
X43372D01*
Y145870D01*
X43477Y145884D01*
X43693Y145973D01*
X43879Y146116D01*
X44022Y146302D01*
X44111Y146518D01*
X44125Y146623D01*
D02*
G37*
G36*
X34006Y147178D02*
X33821Y147141D01*
X33664Y147036D01*
X33559Y146879D01*
X33522Y146694D01*
X33559Y146509D01*
X33664Y146352D01*
X33821Y146247D01*
X34006Y146210D01*
X34191Y146247D01*
X34348Y146352D01*
X34453Y146509D01*
X34490Y146694D01*
X34453Y146879D01*
X34348Y147036D01*
X34191Y147141D01*
X34006Y147178D01*
D02*
G37*
G36*
X43118Y146623D02*
X42365D01*
X42379Y146518D01*
X42468Y146302D01*
X42611Y146116D01*
X42797Y145973D01*
X43013Y145884D01*
X43118Y145870D01*
Y146623D01*
D02*
G37*
%LPD*%
G36*
X25947Y107735D02*
X26159Y107572D01*
X26405Y107470D01*
X26670Y107435D01*
X26935Y107470D01*
X27181Y107572D01*
X27393Y107735D01*
X27437Y107791D01*
X27564Y107748D01*
Y99026D01*
X27463Y98926D01*
X27326Y98968D01*
X27318Y99003D01*
X27213Y99160D01*
X27056Y99265D01*
X26871Y99302D01*
X26686Y99265D01*
X26529Y99160D01*
X26424Y99003D01*
X26387Y98818D01*
X26424Y98633D01*
X26529Y98476D01*
X26686Y98371D01*
X26721Y98363D01*
X26763Y98226D01*
X24433Y95896D01*
X24362Y95925D01*
X24130Y95956D01*
X23898Y95925D01*
X23683Y95836D01*
X23497Y95694D01*
X23490Y95683D01*
X23369Y95724D01*
Y97180D01*
X23434Y97207D01*
X23620Y97349D01*
X23762Y97535D01*
X23851Y97750D01*
X23882Y97982D01*
X23851Y98214D01*
X23762Y98429D01*
X23620Y98615D01*
X23434Y98757D01*
X23369Y98784D01*
Y105369D01*
X25664Y107664D01*
X25747Y107788D01*
X25883Y107818D01*
X25947Y107735D01*
D02*
G37*
G36*
X25275Y189105D02*
X25461Y188963D01*
X25651Y188884D01*
Y168476D01*
X25524Y168467D01*
X25502Y168634D01*
X25413Y168849D01*
X25271Y169035D01*
X25085Y169177D01*
X25020Y169204D01*
Y189238D01*
X25078Y189265D01*
X25147Y189272D01*
X25275Y189105D01*
D02*
G37*
G36*
X37843Y107922D02*
Y78226D01*
X34136Y74519D01*
X34074Y74534D01*
X34008Y74571D01*
X33975Y74734D01*
X33870Y74891D01*
X33713Y74996D01*
X33528Y75033D01*
X33343Y74996D01*
X33186Y74891D01*
X33081Y74734D01*
X33044Y74549D01*
X33081Y74364D01*
X33127Y74295D01*
X33067Y74155D01*
X33049Y74151D01*
X32965Y74096D01*
X26392Y67522D01*
X26272Y67582D01*
X26295Y67756D01*
X26264Y67988D01*
X26175Y68203D01*
X26033Y68389D01*
X25847Y68531D01*
X25657Y68610D01*
Y84476D01*
X34345Y93163D01*
X34400Y93247D01*
X34420Y93345D01*
Y102789D01*
X34546Y102841D01*
X34705Y102963D01*
X34827Y103122D01*
X34903Y103307D01*
X34930Y103505D01*
X34903Y103703D01*
X34827Y103888D01*
X34705Y104047D01*
X34546Y104169D01*
X34361Y104245D01*
X34163Y104272D01*
X33965Y104245D01*
X33780Y104169D01*
X33621Y104047D01*
X33499Y103888D01*
X33423Y103703D01*
X33396Y103505D01*
X33423Y103307D01*
X33499Y103122D01*
X33621Y102963D01*
X33780Y102841D01*
X33906Y102789D01*
Y99077D01*
X33779Y99009D01*
X33683Y99073D01*
X33498Y99110D01*
X33313Y99073D01*
X33156Y98968D01*
X33051Y98811D01*
X33014Y98626D01*
X33051Y98441D01*
X33156Y98284D01*
X33313Y98179D01*
X33498Y98142D01*
X33683Y98179D01*
X33779Y98243D01*
X33906Y98175D01*
Y97934D01*
X33779Y97866D01*
X33683Y97930D01*
X33498Y97967D01*
X33313Y97930D01*
X33156Y97825D01*
X33051Y97668D01*
X33014Y97483D01*
X33051Y97298D01*
X33156Y97141D01*
X33313Y97036D01*
X33498Y96999D01*
X33683Y97036D01*
X33779Y97100D01*
X33906Y97032D01*
Y93451D01*
X25218Y84764D01*
X25163Y84680D01*
X25143Y84582D01*
Y70878D01*
X25016Y70869D01*
X24994Y71036D01*
X24905Y71251D01*
X24763Y71437D01*
X24577Y71579D01*
X24512Y71606D01*
Y91513D01*
X24570Y91540D01*
X24639Y91547D01*
X24767Y91380D01*
X24953Y91238D01*
X25168Y91149D01*
X25400Y91118D01*
X25632Y91149D01*
X25847Y91238D01*
X26033Y91380D01*
X26175Y91566D01*
X26264Y91781D01*
X26295Y92013D01*
X26264Y92245D01*
X26237Y92310D01*
X32401Y98474D01*
X32401Y98474D01*
X32484Y98598D01*
X32513Y98744D01*
X32513Y98744D01*
Y103759D01*
X32510Y103775D01*
X36312Y107577D01*
X36319Y107572D01*
X36565Y107470D01*
X36830Y107435D01*
X37095Y107470D01*
X37341Y107572D01*
X37553Y107735D01*
X37716Y107947D01*
X37716Y107947D01*
X37843Y107922D01*
D02*
G37*
G36*
X23497Y70171D02*
X23683Y70029D01*
X23748Y70002D01*
Y50193D01*
X23627Y50152D01*
X23620Y50163D01*
X23434Y50305D01*
X23369Y50332D01*
Y70141D01*
X23490Y70182D01*
X23497Y70171D01*
D02*
G37*
G36*
X25275Y164721D02*
X25461Y164579D01*
X25651Y164500D01*
Y144346D01*
X25524Y144337D01*
X25502Y144504D01*
X25413Y144719D01*
X25271Y144905D01*
X25085Y145047D01*
X25020Y145074D01*
Y164854D01*
X25078Y164881D01*
X25147Y164888D01*
X25275Y164721D01*
D02*
G37*
G36*
X23497Y94428D02*
X23683Y94286D01*
X23748Y94259D01*
Y74388D01*
X23627Y74347D01*
X23620Y74358D01*
X23434Y74500D01*
X23369Y74527D01*
Y94398D01*
X23490Y94439D01*
X23497Y94428D01*
D02*
G37*
G36*
X24005Y192153D02*
X24191Y192011D01*
X24256Y191984D01*
Y171986D01*
X24135Y171945D01*
X24128Y171956D01*
X23942Y172098D01*
X23877Y172125D01*
Y192123D01*
X23998Y192164D01*
X24005Y192153D01*
D02*
G37*
G36*
X24767Y67123D02*
X24953Y66981D01*
X25168Y66892D01*
X25400Y66861D01*
X25574Y66884D01*
X25634Y66764D01*
X25218Y66349D01*
X25163Y66265D01*
X25143Y66167D01*
Y46683D01*
X25016Y46674D01*
X24994Y46841D01*
X24905Y47056D01*
X24763Y47242D01*
X24577Y47384D01*
X24512Y47411D01*
Y67256D01*
X24570Y67283D01*
X24639Y67290D01*
X24767Y67123D01*
D02*
G37*
G36*
X24005Y167769D02*
X24191Y167627D01*
X24256Y167600D01*
Y147856D01*
X24135Y147815D01*
X24128Y147826D01*
X23942Y147968D01*
X23877Y147995D01*
Y167739D01*
X23998Y167780D01*
X24005Y167769D01*
D02*
G37*
%LPC*%
G36*
X26924Y89606D02*
X26692Y89575D01*
X26477Y89486D01*
X26291Y89344D01*
X26149Y89158D01*
X26060Y88943D01*
X26029Y88711D01*
X26060Y88479D01*
X26149Y88264D01*
X26291Y88078D01*
X26477Y87936D01*
X26692Y87847D01*
X26924Y87816D01*
X27156Y87847D01*
X27371Y87936D01*
X27557Y88078D01*
X27699Y88264D01*
X27788Y88479D01*
X27819Y88711D01*
X27788Y88943D01*
X27699Y89158D01*
X27557Y89344D01*
X27371Y89486D01*
X27156Y89575D01*
X26924Y89606D01*
D02*
G37*
G36*
X30607Y87446D02*
X30409Y87419D01*
X30224Y87343D01*
X30065Y87221D01*
X29943Y87062D01*
X29867Y86877D01*
X29840Y86679D01*
X29867Y86481D01*
X29943Y86296D01*
X30065Y86137D01*
X30224Y86015D01*
X30409Y85939D01*
X30607Y85912D01*
X30805Y85939D01*
X30990Y86015D01*
X31149Y86137D01*
X31271Y86296D01*
X31347Y86481D01*
X31374Y86679D01*
X31347Y86877D01*
X31271Y87062D01*
X31149Y87221D01*
X30990Y87343D01*
X30805Y87419D01*
X30607Y87446D01*
D02*
G37*
G36*
X26871Y75045D02*
X26686Y75008D01*
X26529Y74903D01*
X26424Y74746D01*
X26387Y74561D01*
X26424Y74376D01*
X26529Y74219D01*
X26686Y74114D01*
X26871Y74077D01*
X27056Y74114D01*
X27213Y74219D01*
X27318Y74376D01*
X27355Y74561D01*
X27318Y74746D01*
X27213Y74903D01*
X27056Y75008D01*
X26871Y75045D01*
D02*
G37*
G36*
X36449Y87798D02*
X36264Y87761D01*
X36107Y87656D01*
X36002Y87499D01*
X35965Y87314D01*
X36002Y87129D01*
X36107Y86972D01*
X36264Y86867D01*
X36449Y86830D01*
X36634Y86867D01*
X36791Y86972D01*
X36896Y87129D01*
X36933Y87314D01*
X36896Y87499D01*
X36791Y87656D01*
X36634Y87761D01*
X36449Y87798D01*
D02*
G37*
%LPD*%
D27*
X23495Y147193D02*
Y171323D01*
X22987Y49530D02*
Y73725D01*
X22987Y49530D02*
X22987Y49530D01*
X81407Y108712D02*
X86741Y114046D01*
Y114427D01*
X23495Y171323D02*
Y195707D01*
X22987Y73725D02*
Y97982D01*
X24638Y144272D02*
Y168402D01*
X38354Y127254D02*
X41910Y123698D01*
X27946Y109734D02*
X41910Y123698D01*
X22987Y97982D02*
Y105527D01*
X25394Y107934D02*
Y112897D01*
X27051Y114554D01*
X24130Y46609D02*
Y70804D01*
X22987Y105527D02*
X25394Y107934D01*
X24638Y168402D02*
Y192786D01*
X31369Y127254D02*
X38354D01*
X24638Y133985D02*
X31369Y127254D01*
X24130Y70804D02*
Y95061D01*
X22987Y73725D02*
X22987Y73725D01*
X22987Y97982D02*
X22987Y97982D01*
X23495Y147193D02*
X23495Y147193D01*
X23495Y171323D02*
X23495Y171323D01*
X23495Y195707D02*
X23495Y195707D01*
X24638Y133985D02*
Y144272D01*
X34544Y136017D02*
Y139319D01*
X29591Y144272D02*
X34544Y139319D01*
X24139Y95061D02*
X27946Y98868D01*
X24130Y95061D02*
X24139D01*
X27946Y98868D02*
Y109734D01*
X32131Y98744D02*
Y103759D01*
X25400Y92013D02*
X32131Y98744D01*
D28*
X25908Y143256D02*
Y165354D01*
Y143256D02*
X27432Y141732D01*
Y139356D02*
Y141732D01*
Y139356D02*
X28446Y138342D01*
X25908Y168148D02*
Y189738D01*
X30861Y133223D02*
X32512Y131572D01*
Y128905D02*
Y131572D01*
X32385Y128778D02*
X32512Y128905D01*
X32131Y103759D02*
X36830Y108458D01*
X34163Y93345D02*
Y103505D01*
X25400Y84582D02*
X34163Y93345D01*
X25400Y43561D02*
Y66167D01*
X38100Y78120D02*
Y110109D01*
X33401D02*
X38100D01*
X31750Y108458D02*
X33401Y110109D01*
X25400Y67756D02*
Y84582D01*
X76073Y40132D02*
X79629Y36576D01*
X67818Y40132D02*
X76073D01*
X72263Y38100D02*
X75819Y34544D01*
Y33274D02*
Y34544D01*
X76073Y64327D02*
X79629Y60771D01*
X67818Y64327D02*
X76073D01*
X75819Y57469D02*
Y58739D01*
X72263Y62295D02*
X75819Y58739D01*
X76073Y88584D02*
X79629Y85028D01*
X67818Y88584D02*
X76073D01*
X75819Y81726D02*
Y82996D01*
X72263Y86552D02*
X75819Y82996D01*
X76581Y137795D02*
X80137Y134239D01*
X68326Y137795D02*
X76581D01*
X76327Y130937D02*
Y132207D01*
X72771Y135763D02*
X76327Y132207D01*
X76581Y161925D02*
X80137Y158369D01*
X68326Y161925D02*
X76581D01*
X76327Y155067D02*
Y156337D01*
X72771Y159893D02*
X76327Y156337D01*
X76581Y186309D02*
X80137Y182753D01*
X68326Y186309D02*
X76581D01*
X76327Y179451D02*
Y180721D01*
X72771Y184277D02*
X76327Y180721D01*
X32131Y135509D02*
Y135636D01*
X28446Y137416D02*
Y138342D01*
X34417Y128778D02*
Y131445D01*
X28446Y137416D02*
X34417Y131445D01*
X25400Y66167D02*
X33147Y73914D01*
X33894D01*
X38100Y78120D01*
X28575Y139192D02*
X32131Y135636D01*
X28575Y139192D02*
Y165481D01*
X25908Y168148D02*
X28575Y165481D01*
D30*
X57785Y38989D02*
X61468Y42672D01*
X57023Y48895D02*
X59436Y46482D01*
X61468Y52070D02*
X61595Y52197D01*
X61468Y42672D02*
Y52070D01*
X53975Y48895D02*
X57023D01*
X53001Y51266D02*
X60664D01*
X61468Y52070D01*
X53001Y75461D02*
X60664D01*
X61468Y76265D01*
X57023Y73090D02*
X59436Y70677D01*
X53975Y73090D02*
X57023D01*
X57785Y63184D02*
X61468Y66867D01*
Y76265D01*
X61595Y76392D01*
X53001Y99718D02*
X60664D01*
X61468Y100522D01*
X57023Y97347D02*
X59436Y94934D01*
X53975Y97347D02*
X57023D01*
X57785Y87441D02*
X61468Y91124D01*
Y100522D01*
X61595Y100649D01*
X53509Y148929D02*
X61172D01*
X61976Y149733D01*
X57531Y146558D02*
X59944Y144145D01*
X54483Y146558D02*
X57531D01*
X58293Y136652D02*
X61976Y140335D01*
Y149733D01*
X62103Y149860D01*
X53509Y173059D02*
X61172D01*
X61976Y173863D01*
X57531Y170688D02*
X59944Y168275D01*
X54483Y170688D02*
X57531D01*
X58293Y160782D02*
X61976Y164465D01*
Y173863D01*
X62103Y173990D01*
X53509Y197443D02*
X61172D01*
X61976Y198247D01*
X57531Y195072D02*
X59944Y192659D01*
X54483Y195072D02*
X57531D01*
X58293Y185166D02*
X61976Y188849D01*
Y198247D01*
X62103Y198374D01*
D33*
X63627Y43815D02*
D03*
X49530Y41910D02*
D03*
X63627Y68010D02*
D03*
X49530Y66105D02*
D03*
X63627Y92267D02*
D03*
X49530Y90362D02*
D03*
X64135Y141478D02*
D03*
X50038Y139573D02*
D03*
X64135Y165608D02*
D03*
X50038Y163703D02*
D03*
X64135Y189992D02*
D03*
X50038Y188087D02*
D03*
X62992Y127000D02*
D03*
X58547D02*
D03*
X53975Y127127D02*
D03*
X62103Y198374D02*
D03*
X97282Y187325D02*
D03*
Y194056D02*
D03*
X22352Y198374D02*
D03*
X23495Y195707D02*
D03*
X24638Y192786D02*
D03*
X27432Y186436D02*
D03*
X25908Y189738D02*
D03*
X61595Y52197D02*
D03*
X96774Y41148D02*
D03*
Y47879D02*
D03*
X21844Y52197D02*
D03*
X22987Y49530D02*
D03*
X24130Y46609D02*
D03*
X26924Y40259D02*
D03*
X25400Y43561D02*
D03*
X61595Y76392D02*
D03*
X96774Y65343D02*
D03*
Y72074D02*
D03*
X21844Y76392D02*
D03*
X22987Y73725D02*
D03*
X24130Y70804D02*
D03*
X26924Y64454D02*
D03*
X25400Y67756D02*
D03*
X61595Y100649D02*
D03*
X96774Y89600D02*
D03*
Y96331D02*
D03*
X21844Y100649D02*
D03*
X22987Y97982D02*
D03*
X24130Y95061D02*
D03*
X26924Y88711D02*
D03*
X25400Y92013D02*
D03*
X62103Y149860D02*
D03*
X97282Y138811D02*
D03*
Y145542D02*
D03*
X22352Y149860D02*
D03*
X23495Y147193D02*
D03*
X24638Y144272D02*
D03*
X27432Y137922D02*
D03*
X25908Y141224D02*
D03*
X62103Y173990D02*
D03*
X97282Y162941D02*
D03*
Y169672D02*
D03*
X22352Y173990D02*
D03*
X23495Y171323D02*
D03*
X24638Y168402D02*
D03*
X27432Y162052D02*
D03*
X25908Y165354D02*
D03*
D34*
X83058Y193167D02*
D03*
Y195707D02*
D03*
X85598Y193167D02*
D03*
Y195707D02*
D03*
X88138Y193167D02*
D03*
Y195707D02*
D03*
X90678Y193167D02*
D03*
Y187960D02*
D03*
Y185420D02*
D03*
X88138Y187960D02*
D03*
Y185420D02*
D03*
X85598Y187960D02*
D03*
Y185420D02*
D03*
X83058Y187960D02*
D03*
X94615Y189230D02*
D03*
X82550Y41783D02*
D03*
X85090Y39243D02*
D03*
Y41783D02*
D03*
X87630Y39243D02*
D03*
Y41783D02*
D03*
X90170Y39243D02*
D03*
Y41783D02*
D03*
X94107Y43053D02*
D03*
X90170Y46990D02*
D03*
X87630Y49530D02*
D03*
Y46990D02*
D03*
X85090Y49530D02*
D03*
Y46990D02*
D03*
X82550Y49530D02*
D03*
Y46990D02*
D03*
X82550Y65978D02*
D03*
X85090Y63438D02*
D03*
Y65978D02*
D03*
X87630Y63438D02*
D03*
Y65978D02*
D03*
X90170Y63438D02*
D03*
Y65978D02*
D03*
X94107Y67248D02*
D03*
X90170Y71185D02*
D03*
X87630Y73725D02*
D03*
Y71185D02*
D03*
X85090Y73725D02*
D03*
Y71185D02*
D03*
X82550Y73725D02*
D03*
Y71185D02*
D03*
X82550Y90235D02*
D03*
X85090Y87695D02*
D03*
Y90235D02*
D03*
X87630Y87695D02*
D03*
Y90235D02*
D03*
X90170Y87695D02*
D03*
Y90235D02*
D03*
X94107Y91505D02*
D03*
X90170Y95442D02*
D03*
X87630Y97982D02*
D03*
Y95442D02*
D03*
X85090Y97982D02*
D03*
Y95442D02*
D03*
X82550Y97982D02*
D03*
Y95442D02*
D03*
X83058Y139446D02*
D03*
X85598Y136906D02*
D03*
Y139446D02*
D03*
X88138Y136906D02*
D03*
Y139446D02*
D03*
X90678Y136906D02*
D03*
Y139446D02*
D03*
X94615Y140716D02*
D03*
X90678Y144653D02*
D03*
X88138Y147193D02*
D03*
Y144653D02*
D03*
X85598Y147193D02*
D03*
Y144653D02*
D03*
X83058Y147193D02*
D03*
Y144653D02*
D03*
Y163576D02*
D03*
X85598Y161036D02*
D03*
Y163576D02*
D03*
X88138Y161036D02*
D03*
Y163576D02*
D03*
X90678Y161036D02*
D03*
Y163576D02*
D03*
X94615Y164846D02*
D03*
X90678Y168783D02*
D03*
X88138Y171323D02*
D03*
Y168783D02*
D03*
X85598Y171323D02*
D03*
Y168783D02*
D03*
X83058Y171323D02*
D03*
Y168783D02*
D03*
X79756Y127127D02*
D03*
X83439D02*
D03*
X83566Y123952D02*
D03*
X79756D02*
D03*
X86741Y114427D02*
D03*
X81407Y108712D02*
D03*
D35*
X90678Y195707D02*
D03*
X83058Y185420D02*
D03*
X82550Y39243D02*
D03*
X90170Y49530D02*
D03*
X82550Y63438D02*
D03*
X90170Y73725D02*
D03*
X82550Y87695D02*
D03*
X90170Y97982D02*
D03*
X83058Y136906D02*
D03*
X90678Y147193D02*
D03*
X83058Y161036D02*
D03*
X90678Y171323D02*
D03*
D36*
X49530Y123698D02*
D03*
X46990D02*
D03*
X44450D02*
D03*
X41910D02*
D03*
X39370D02*
D03*
X36830D02*
D03*
X34290D02*
D03*
X31750D02*
D03*
X29210D02*
D03*
X26670D02*
D03*
X24130D02*
D03*
X21590D02*
D03*
X49530Y108458D02*
D03*
X46990D02*
D03*
X44450D02*
D03*
X41910D02*
D03*
X39370D02*
D03*
X36830D02*
D03*
X34290D02*
D03*
X31750D02*
D03*
X29210D02*
D03*
X26670D02*
D03*
X24130D02*
D03*
X21590D02*
D03*
D37*
X96443Y113611D02*
D03*
Y109161D02*
D03*
D38*
X99568Y115474D02*
D03*
Y107299D02*
D03*
D39*
X81534Y125603D02*
D03*
D40*
Y120523D02*
D03*
D41*
X94615Y191770D02*
D03*
X94107Y45593D02*
D03*
X94107Y69788D02*
D03*
Y94045D02*
D03*
X94615Y143256D02*
D03*
Y167386D02*
D03*
D42*
X98806Y117221D02*
D03*
X36449Y38862D02*
D03*
X49657Y37592D02*
D03*
X26871Y50366D02*
D03*
X41275Y45974D02*
D03*
X40640Y37719D02*
D03*
X39116Y37719D02*
D03*
X72644Y54229D02*
D03*
X77089Y53975D02*
D03*
X73152Y46990D02*
D03*
X68453Y46609D02*
D03*
X72009Y42291D02*
D03*
X72771Y34798D02*
D03*
X33498Y49031D02*
D03*
Y50174D02*
D03*
X54483Y42164D02*
D03*
X56134Y39243D02*
D03*
X52578Y41656D02*
D03*
X56007Y43942D02*
D03*
X57785Y38989D02*
D03*
X76962Y40132D02*
D03*
X71374Y36322D02*
D03*
X57785Y114808D02*
D03*
X56134Y112649D02*
D03*
X62103Y111506D02*
D03*
X61976Y115062D02*
D03*
X90805Y112649D02*
D03*
X77470Y115443D02*
D03*
X77343Y112776D02*
D03*
X74803Y108966D02*
D03*
X75822Y111255D02*
D03*
X45720Y44323D02*
D03*
X41275Y70169D02*
D03*
X71374Y60517D02*
D03*
X76962Y64327D02*
D03*
X56007Y68137D02*
D03*
X57785Y63184D02*
D03*
X56134Y63438D02*
D03*
X54483Y66359D02*
D03*
X45720Y68518D02*
D03*
X52578Y65851D02*
D03*
X72771Y58993D02*
D03*
X72009Y66486D02*
D03*
X68453Y70804D02*
D03*
X73152Y71185D02*
D03*
X77089Y78170D02*
D03*
X72644Y78424D02*
D03*
X39116Y61914D02*
D03*
X40640Y61914D02*
D03*
X26871Y74561D02*
D03*
X49657Y61787D02*
D03*
X36449Y63057D02*
D03*
X41275Y94426D02*
D03*
X71374Y84774D02*
D03*
X76962Y88584D02*
D03*
X56007Y92394D02*
D03*
X57785Y87441D02*
D03*
X56134Y87695D02*
D03*
X54483Y90616D02*
D03*
X45720Y92775D02*
D03*
X33498Y97483D02*
D03*
Y98626D02*
D03*
X52578Y90108D02*
D03*
X72771Y83250D02*
D03*
X72009Y90743D02*
D03*
X68453Y95061D02*
D03*
X73152Y95442D02*
D03*
X77089Y102427D02*
D03*
X72644Y102681D02*
D03*
X39116Y86171D02*
D03*
X40640Y86171D02*
D03*
X26871Y98818D02*
D03*
X49657Y86044D02*
D03*
X36449Y87314D02*
D03*
X41783Y143637D02*
D03*
X71882Y133985D02*
D03*
X77470Y137795D02*
D03*
X56515Y141605D02*
D03*
X58293Y136652D02*
D03*
X56642Y136906D02*
D03*
X54991Y139827D02*
D03*
X46228Y141986D02*
D03*
X34006Y146694D02*
D03*
Y147837D02*
D03*
X53086Y139319D02*
D03*
X73279Y132461D02*
D03*
X72517Y139954D02*
D03*
X68961Y144272D02*
D03*
X73660Y144653D02*
D03*
X77597Y151638D02*
D03*
X73152Y151892D02*
D03*
X39624Y135382D02*
D03*
X41148Y135382D02*
D03*
X27379Y148029D02*
D03*
X50165Y135255D02*
D03*
X36957Y136525D02*
D03*
X41783Y167767D02*
D03*
X71882Y158115D02*
D03*
X77470Y161925D02*
D03*
X56515Y165735D02*
D03*
X58293Y160782D02*
D03*
X56642Y161036D02*
D03*
X54991Y163957D02*
D03*
X46228Y166116D02*
D03*
X34006Y170824D02*
D03*
Y171967D02*
D03*
X53086Y163449D02*
D03*
X73279Y156591D02*
D03*
X72517Y164084D02*
D03*
X68961Y168402D02*
D03*
X73660Y168783D02*
D03*
X77597Y175768D02*
D03*
X73152Y176022D02*
D03*
X39624Y159512D02*
D03*
X41148Y159512D02*
D03*
X27379Y172159D02*
D03*
X50165Y159385D02*
D03*
X36957Y160655D02*
D03*
X41783Y192151D02*
D03*
X71882Y182499D02*
D03*
X77470Y186309D02*
D03*
X56515Y190119D02*
D03*
X58293Y185166D02*
D03*
X56642Y185420D02*
D03*
X54991Y188341D02*
D03*
X46228Y190500D02*
D03*
X34006Y195208D02*
D03*
Y196351D02*
D03*
X53086Y187833D02*
D03*
X73279Y180975D02*
D03*
X72517Y188468D02*
D03*
X68961Y192786D02*
D03*
X73660Y193167D02*
D03*
X77597Y200152D02*
D03*
X73152Y200406D02*
D03*
X39624Y183896D02*
D03*
X41148Y183896D02*
D03*
X27379Y196543D02*
D03*
X50165Y183769D02*
D03*
X36957Y185039D02*
D03*
X33528Y73279D02*
D03*
Y74549D02*
D03*
X29591Y144272D02*
D03*
D43*
X65659Y117475D02*
D03*
X72390Y123317D02*
D03*
X86995Y124079D02*
D03*
X71120Y119507D02*
D03*
X68834Y118110D02*
D03*
X27051Y114554D02*
D03*
X36703Y128778D02*
D03*
X34417D02*
D03*
X32131Y135509D02*
D03*
X30861Y133223D02*
D03*
X32385Y128778D02*
D03*
X34163Y103505D02*
D03*
X30607Y38227D02*
D03*
X79629Y36576D02*
D03*
X67818Y40132D02*
D03*
X72263Y38100D02*
D03*
X75819Y33274D02*
D03*
X42737Y49087D02*
D03*
X40275Y49784D02*
D03*
X59436Y46482D02*
D03*
X53975Y48895D02*
D03*
X50673Y47752D02*
D03*
X54737Y46736D02*
D03*
X53001Y51266D02*
D03*
X53001Y75461D02*
D03*
X50673Y71947D02*
D03*
X53975Y73090D02*
D03*
X59436Y70677D02*
D03*
X40275Y73979D02*
D03*
X42737Y73282D02*
D03*
X54737Y70931D02*
D03*
X30607Y62422D02*
D03*
X67818Y64327D02*
D03*
X79629Y60771D02*
D03*
X72263Y62295D02*
D03*
X75819Y57469D02*
D03*
X53001Y99718D02*
D03*
X50673Y96204D02*
D03*
X53975Y97347D02*
D03*
X59436Y94934D02*
D03*
X40275Y98236D02*
D03*
X42737Y97539D02*
D03*
X54737Y95188D02*
D03*
X30607Y86679D02*
D03*
X67818Y88584D02*
D03*
X79629Y85028D02*
D03*
X72263Y86552D02*
D03*
X75819Y81726D02*
D03*
X53509Y148929D02*
D03*
X51181Y145415D02*
D03*
X54483Y146558D02*
D03*
X59944Y144145D02*
D03*
X40783Y147447D02*
D03*
X43245Y146750D02*
D03*
X55245Y144399D02*
D03*
X68326Y137795D02*
D03*
X80137Y134239D02*
D03*
X72771Y135763D02*
D03*
X76327Y130937D02*
D03*
X53509Y173059D02*
D03*
X51181Y169545D02*
D03*
X54483Y170688D02*
D03*
X59944Y168275D02*
D03*
X40783Y171577D02*
D03*
X43245Y170880D02*
D03*
X55245Y168529D02*
D03*
X31115Y160020D02*
D03*
X68326Y161925D02*
D03*
X80137Y158369D02*
D03*
X72771Y159893D02*
D03*
X76327Y155067D02*
D03*
X53509Y197443D02*
D03*
X51181Y193929D02*
D03*
X54483Y195072D02*
D03*
X59944Y192659D02*
D03*
X40783Y195961D02*
D03*
X43245Y195264D02*
D03*
X55245Y192913D02*
D03*
X31115Y184404D02*
D03*
X68326Y186309D02*
D03*
X80137Y182753D02*
D03*
X72771Y184277D02*
D03*
X76327Y179451D02*
D03*
X27051Y134747D02*
D03*
X34544Y136017D02*
D03*
M02*
