G04 Layer_Color=255*
%FSLAX43Y43*%
%MOMM*%
G71*
G01*
G75*
%ADD10R,0.800X0.900*%
%ADD11R,1.500X1.400*%
%ADD12R,1.400X1.500*%
%ADD13R,0.900X0.800*%
%ADD14R,0.600X0.800*%
%ADD15R,0.800X0.600*%
%ADD16R,1.220X0.620*%
%ADD17O,2.500X0.700*%
%ADD18R,1.350X0.400*%
%ADD19R,1.900X1.800*%
%ADD20R,1.300X0.700*%
%ADD21R,3.500X1.000*%
%ADD22R,3.400X1.500*%
G04:AMPARAMS|DCode=23|XSize=0.55mm|YSize=1.25mm|CornerRadius=0.05mm|HoleSize=0mm|Usage=FLASHONLY|Rotation=90.000|XOffset=0mm|YOffset=0mm|HoleType=Round|Shape=RoundedRectangle|*
%AMROUNDEDRECTD23*
21,1,0.550,1.151,0,0,90.0*
21,1,0.451,1.250,0,0,90.0*
1,1,0.099,0.576,0.226*
1,1,0.099,0.576,-0.226*
1,1,0.099,-0.576,-0.226*
1,1,0.099,-0.576,0.226*
%
%ADD23ROUNDEDRECTD23*%
%ADD24R,0.432X1.499*%
%ADD25O,0.300X2.000*%
G04:AMPARAMS|DCode=26|XSize=0.55mm|YSize=1.25mm|CornerRadius=0.05mm|HoleSize=0mm|Usage=FLASHONLY|Rotation=0.000|XOffset=0mm|YOffset=0mm|HoleType=Round|Shape=RoundedRectangle|*
%AMROUNDEDRECTD26*
21,1,0.550,1.151,0,0,0.0*
21,1,0.451,1.250,0,0,0.0*
1,1,0.099,0.226,-0.576*
1,1,0.099,-0.226,-0.576*
1,1,0.099,-0.226,0.576*
1,1,0.099,0.226,0.576*
%
%ADD26ROUNDEDRECTD26*%
%ADD33C,1.524*%
%ADD34C,1.500*%
%ADD35R,1.500X1.500*%
%ADD36C,1.778*%
%ADD37O,1.250X1.050*%
%ADD38O,1.900X1.225*%
%ADD39C,1.850*%
%ADD40R,1.850X1.850*%
%ADD41R,1.500X1.500*%
D10*
X45150Y38481D02*
D03*
X43750D02*
D03*
X45150Y62738D02*
D03*
X43750D02*
D03*
X45150Y86995D02*
D03*
X43750D02*
D03*
X45785Y136017D02*
D03*
X44385D02*
D03*
X45785Y160274D02*
D03*
X44385D02*
D03*
X45658Y184658D02*
D03*
X44258D02*
D03*
X68899Y116713D02*
D03*
X67499D02*
D03*
X59179Y115062D02*
D03*
X60579D02*
D03*
X69912Y34479D02*
D03*
X71312D02*
D03*
X70293Y46671D02*
D03*
X71693D02*
D03*
X75249Y53910D02*
D03*
X73849D02*
D03*
X39116Y38797D02*
D03*
X40516D02*
D03*
X44199Y45909D02*
D03*
X42799D02*
D03*
X35241Y45528D02*
D03*
X36641D02*
D03*
X69912Y58674D02*
D03*
X71312D02*
D03*
X70293Y70866D02*
D03*
X71693D02*
D03*
X75249Y78105D02*
D03*
X73849D02*
D03*
X39116Y62992D02*
D03*
X40516D02*
D03*
X44199Y70104D02*
D03*
X42799D02*
D03*
X35241Y69723D02*
D03*
X36641D02*
D03*
X69912Y82931D02*
D03*
X71312D02*
D03*
X70293Y95123D02*
D03*
X71693D02*
D03*
X75249Y102362D02*
D03*
X73849D02*
D03*
X39116Y87249D02*
D03*
X40516D02*
D03*
X44199Y94361D02*
D03*
X42799D02*
D03*
X35241Y93980D02*
D03*
X36641D02*
D03*
X70420Y132142D02*
D03*
X71820D02*
D03*
X70801Y144334D02*
D03*
X72201D02*
D03*
X75757Y151573D02*
D03*
X74357D02*
D03*
X39624Y136460D02*
D03*
X41024D02*
D03*
X44707Y143572D02*
D03*
X43307D02*
D03*
X35749Y143191D02*
D03*
X37149D02*
D03*
X70420Y156272D02*
D03*
X71820D02*
D03*
X70801Y168464D02*
D03*
X72201D02*
D03*
X75757Y175703D02*
D03*
X74357D02*
D03*
X39624Y160590D02*
D03*
X41024D02*
D03*
X44707Y167702D02*
D03*
X43307D02*
D03*
X35749Y167321D02*
D03*
X37149D02*
D03*
X70420Y180656D02*
D03*
X71820D02*
D03*
X75757Y200087D02*
D03*
X74357D02*
D03*
X70801Y192848D02*
D03*
X72201D02*
D03*
X44707Y192086D02*
D03*
X43307D02*
D03*
X39624Y184974D02*
D03*
X41024D02*
D03*
X35749Y191705D02*
D03*
X37149D02*
D03*
X75249Y188149D02*
D03*
X73849D02*
D03*
X74741Y41972D02*
D03*
X73341D02*
D03*
X74741Y66167D02*
D03*
X73341D02*
D03*
X74741Y90424D02*
D03*
X73341D02*
D03*
X75249Y139635D02*
D03*
X73849D02*
D03*
X75249Y163765D02*
D03*
X73849D02*
D03*
X52005Y46736D02*
D03*
X53405D02*
D03*
X52005Y70931D02*
D03*
X53405D02*
D03*
X52005Y95188D02*
D03*
X53405D02*
D03*
X52513Y144399D02*
D03*
X53913D02*
D03*
X52513Y168529D02*
D03*
X53913D02*
D03*
X52513Y192913D02*
D03*
X53913D02*
D03*
D11*
X56896Y194072D02*
D03*
Y196072D02*
D03*
Y170069D02*
D03*
Y172069D02*
D03*
Y145685D02*
D03*
Y147685D02*
D03*
X56261Y96663D02*
D03*
Y98663D02*
D03*
X56388Y72279D02*
D03*
Y74279D02*
D03*
X56261Y48022D02*
D03*
Y50022D02*
D03*
X85725Y111379D02*
D03*
Y109379D02*
D03*
X76454Y125841D02*
D03*
Y123841D02*
D03*
X54102Y111665D02*
D03*
Y113665D02*
D03*
X90424Y51832D02*
D03*
Y53832D02*
D03*
X87757Y51959D02*
D03*
Y53959D02*
D03*
X65913Y34941D02*
D03*
Y36941D02*
D03*
X85090Y51959D02*
D03*
Y53959D02*
D03*
X82550Y54086D02*
D03*
Y52086D02*
D03*
X90424Y76027D02*
D03*
Y78027D02*
D03*
X87757Y76154D02*
D03*
Y78154D02*
D03*
X65913Y59136D02*
D03*
Y61136D02*
D03*
X85090Y76154D02*
D03*
Y78154D02*
D03*
X82550Y78281D02*
D03*
Y76281D02*
D03*
X90424Y100284D02*
D03*
Y102284D02*
D03*
X87757Y100411D02*
D03*
Y102411D02*
D03*
X65913Y83393D02*
D03*
Y85393D02*
D03*
X85090Y100411D02*
D03*
Y102411D02*
D03*
X82550Y102538D02*
D03*
Y100538D02*
D03*
X90932Y149495D02*
D03*
Y151495D02*
D03*
X88265Y149622D02*
D03*
Y151622D02*
D03*
X66421Y132604D02*
D03*
Y134604D02*
D03*
X85598Y149622D02*
D03*
Y151622D02*
D03*
X83058Y151749D02*
D03*
Y149749D02*
D03*
X90932Y173625D02*
D03*
Y175625D02*
D03*
X88265Y173752D02*
D03*
Y175752D02*
D03*
X66421Y156734D02*
D03*
Y158734D02*
D03*
X85598Y173752D02*
D03*
Y175752D02*
D03*
X83058Y175879D02*
D03*
Y173879D02*
D03*
Y198263D02*
D03*
Y200263D02*
D03*
X85598Y198136D02*
D03*
Y200136D02*
D03*
X88265D02*
D03*
Y198136D02*
D03*
X90932Y200009D02*
D03*
Y198009D02*
D03*
X66421Y181118D02*
D03*
Y183118D02*
D03*
X82931Y182864D02*
D03*
Y180864D02*
D03*
X85471Y180737D02*
D03*
Y182737D02*
D03*
X88265Y180737D02*
D03*
Y182737D02*
D03*
X90932Y180864D02*
D03*
Y182864D02*
D03*
X78867Y192356D02*
D03*
Y194356D02*
D03*
X90424Y36560D02*
D03*
Y34560D02*
D03*
X87757Y36560D02*
D03*
Y34560D02*
D03*
X84963Y36560D02*
D03*
Y34560D02*
D03*
X82423D02*
D03*
Y36560D02*
D03*
X78359Y48179D02*
D03*
Y46179D02*
D03*
X90424Y60755D02*
D03*
Y58755D02*
D03*
X87757Y60755D02*
D03*
Y58755D02*
D03*
X84963Y60755D02*
D03*
Y58755D02*
D03*
X82423D02*
D03*
Y60755D02*
D03*
X78359Y72374D02*
D03*
Y70374D02*
D03*
X90424Y85012D02*
D03*
Y83012D02*
D03*
X87757Y85012D02*
D03*
Y83012D02*
D03*
X84963Y85012D02*
D03*
Y83012D02*
D03*
X82423D02*
D03*
Y85012D02*
D03*
X78359Y96631D02*
D03*
Y94631D02*
D03*
X90932Y134223D02*
D03*
Y132223D02*
D03*
X88265Y134223D02*
D03*
Y132223D02*
D03*
X85471Y134223D02*
D03*
Y132223D02*
D03*
X82931D02*
D03*
Y134223D02*
D03*
X78867Y145842D02*
D03*
Y143842D02*
D03*
X90932Y158353D02*
D03*
Y156353D02*
D03*
X88265Y158353D02*
D03*
Y156353D02*
D03*
X85471Y158353D02*
D03*
Y156353D02*
D03*
X82931D02*
D03*
Y158353D02*
D03*
X78867Y169972D02*
D03*
Y167972D02*
D03*
X24384Y160306D02*
D03*
Y162306D02*
D03*
Y136176D02*
D03*
Y138176D02*
D03*
X23876Y86965D02*
D03*
Y88965D02*
D03*
Y62708D02*
D03*
Y64708D02*
D03*
X23876Y38513D02*
D03*
Y40513D02*
D03*
X24384Y184690D02*
D03*
Y186690D02*
D03*
D12*
X47641Y39751D02*
D03*
X49641D02*
D03*
X81788Y115443D02*
D03*
X79788D02*
D03*
X60293Y36511D02*
D03*
X58293D02*
D03*
X33639Y42861D02*
D03*
X31639D02*
D03*
X31734Y40194D02*
D03*
X29734D02*
D03*
X60293Y60706D02*
D03*
X58293D02*
D03*
X47641Y64008D02*
D03*
X49641D02*
D03*
X33639Y67056D02*
D03*
X31639D02*
D03*
X31734Y64389D02*
D03*
X29734D02*
D03*
X60293Y84963D02*
D03*
X58293D02*
D03*
X47641Y88265D02*
D03*
X49641D02*
D03*
X33639Y91313D02*
D03*
X31639D02*
D03*
X31734Y88646D02*
D03*
X29734D02*
D03*
X60801Y134174D02*
D03*
X58801D02*
D03*
X48022Y137414D02*
D03*
X50022D02*
D03*
X34147Y140524D02*
D03*
X32147D02*
D03*
X32242Y137857D02*
D03*
X30242D02*
D03*
X60801Y158304D02*
D03*
X58801D02*
D03*
X47895Y161671D02*
D03*
X49895D02*
D03*
X34147Y164654D02*
D03*
X32147D02*
D03*
X32242Y161987D02*
D03*
X30242D02*
D03*
X60801Y182688D02*
D03*
X58801D02*
D03*
X48276Y186055D02*
D03*
X50276D02*
D03*
X32242Y186371D02*
D03*
X30242D02*
D03*
X34147Y189038D02*
D03*
X32147D02*
D03*
X78121Y180848D02*
D03*
X80121D02*
D03*
X66151Y186117D02*
D03*
X64151D02*
D03*
X64897Y194880D02*
D03*
X66897D02*
D03*
X60960D02*
D03*
X58960D02*
D03*
X67024Y198309D02*
D03*
X65024D02*
D03*
X65643Y39940D02*
D03*
X63643D02*
D03*
X79613Y34671D02*
D03*
X77613D02*
D03*
X60452Y48703D02*
D03*
X58452D02*
D03*
X66516Y52132D02*
D03*
X64516D02*
D03*
X65643Y64135D02*
D03*
X63643D02*
D03*
X79613Y58866D02*
D03*
X77613D02*
D03*
X60452Y72898D02*
D03*
X58452D02*
D03*
X64389D02*
D03*
X66389D02*
D03*
X66516Y76327D02*
D03*
X64516D02*
D03*
X65643Y88392D02*
D03*
X63643D02*
D03*
X79613Y83123D02*
D03*
X77613D02*
D03*
X60452Y97155D02*
D03*
X58452D02*
D03*
X64389D02*
D03*
X66389D02*
D03*
X66516Y100584D02*
D03*
X64516D02*
D03*
X66151Y137603D02*
D03*
X64151D02*
D03*
X80121Y132334D02*
D03*
X78121D02*
D03*
X60960Y146366D02*
D03*
X58960D02*
D03*
X64897D02*
D03*
X66897D02*
D03*
X67024Y149795D02*
D03*
X65024D02*
D03*
X66151Y161733D02*
D03*
X64151D02*
D03*
X80121Y156464D02*
D03*
X78121D02*
D03*
X60960Y170496D02*
D03*
X58960D02*
D03*
X64897D02*
D03*
X66897D02*
D03*
X67024Y173925D02*
D03*
X65024D02*
D03*
X64389Y48703D02*
D03*
X66389D02*
D03*
X41799Y51308D02*
D03*
X43799D02*
D03*
X55388Y52324D02*
D03*
X57388D02*
D03*
X49514Y44069D02*
D03*
X47514D02*
D03*
X49514Y68264D02*
D03*
X47514D02*
D03*
X41799Y75503D02*
D03*
X43799D02*
D03*
X55515Y76454D02*
D03*
X57515D02*
D03*
X49514Y92521D02*
D03*
X47514D02*
D03*
X41799Y99760D02*
D03*
X43799D02*
D03*
X55515Y100711D02*
D03*
X57515D02*
D03*
X50022Y141732D02*
D03*
X48022D02*
D03*
X42307Y148971D02*
D03*
X44307D02*
D03*
X56023Y149987D02*
D03*
X58023D02*
D03*
X50022Y165862D02*
D03*
X48022D02*
D03*
X42307Y173101D02*
D03*
X44307D02*
D03*
X56023Y174244D02*
D03*
X58023D02*
D03*
X50022Y190246D02*
D03*
X48022D02*
D03*
X42307Y197485D02*
D03*
X44307D02*
D03*
X56023Y198501D02*
D03*
X58023D02*
D03*
D13*
X77216Y109855D02*
D03*
Y111255D02*
D03*
X89027Y111376D02*
D03*
Y112776D02*
D03*
X60071Y121542D02*
D03*
Y120142D02*
D03*
X52705Y44577D02*
D03*
Y43177D02*
D03*
X54229Y44577D02*
D03*
Y43177D02*
D03*
X52578Y38859D02*
D03*
Y40259D02*
D03*
X54229Y38859D02*
D03*
Y40259D02*
D03*
X37989Y50363D02*
D03*
Y48963D02*
D03*
X36465Y50363D02*
D03*
Y48963D02*
D03*
X34941Y50363D02*
D03*
Y48963D02*
D03*
X28418Y48966D02*
D03*
Y50366D02*
D03*
X36449Y41848D02*
D03*
Y40448D02*
D03*
X52705Y68772D02*
D03*
Y67372D02*
D03*
X54229Y68772D02*
D03*
Y67372D02*
D03*
X52578Y63054D02*
D03*
Y64454D02*
D03*
X54229Y63054D02*
D03*
Y64454D02*
D03*
X37989Y74558D02*
D03*
Y73158D02*
D03*
X36465Y74558D02*
D03*
Y73158D02*
D03*
X34941Y74558D02*
D03*
Y73158D02*
D03*
X28418Y73161D02*
D03*
Y74561D02*
D03*
X36449Y66043D02*
D03*
Y64643D02*
D03*
X52705Y93029D02*
D03*
Y91629D02*
D03*
X54229Y93029D02*
D03*
Y91629D02*
D03*
X52578Y87311D02*
D03*
Y88711D02*
D03*
X54229Y87311D02*
D03*
Y88711D02*
D03*
X37989Y98815D02*
D03*
Y97415D02*
D03*
X36465Y98815D02*
D03*
Y97415D02*
D03*
X34941Y98815D02*
D03*
Y97415D02*
D03*
X28418Y97418D02*
D03*
Y98818D02*
D03*
X36449Y90300D02*
D03*
Y88900D02*
D03*
X53213Y142240D02*
D03*
Y140840D02*
D03*
X54737Y142240D02*
D03*
Y140840D02*
D03*
X53086Y136522D02*
D03*
Y137922D02*
D03*
X54737Y136522D02*
D03*
Y137922D02*
D03*
X38497Y148026D02*
D03*
Y146626D02*
D03*
X36973Y148026D02*
D03*
Y146626D02*
D03*
X35449Y148026D02*
D03*
Y146626D02*
D03*
X28926Y146629D02*
D03*
Y148029D02*
D03*
X36957Y139511D02*
D03*
Y138111D02*
D03*
X53213Y166370D02*
D03*
Y164970D02*
D03*
X54737Y166370D02*
D03*
Y164970D02*
D03*
X53086Y160652D02*
D03*
Y162052D02*
D03*
X54737Y160652D02*
D03*
Y162052D02*
D03*
X38497Y172156D02*
D03*
Y170756D02*
D03*
X36973Y172156D02*
D03*
Y170756D02*
D03*
X35449Y172156D02*
D03*
Y170756D02*
D03*
X28926Y170759D02*
D03*
Y172159D02*
D03*
X36957Y163641D02*
D03*
Y162241D02*
D03*
X54737Y190754D02*
D03*
Y189354D02*
D03*
X53213Y190754D02*
D03*
Y189354D02*
D03*
X53086Y185036D02*
D03*
Y186436D02*
D03*
X54737Y185036D02*
D03*
Y186436D02*
D03*
X36957Y188025D02*
D03*
Y186625D02*
D03*
X38497Y196540D02*
D03*
Y195140D02*
D03*
X36973Y196540D02*
D03*
Y195140D02*
D03*
X35449Y196540D02*
D03*
Y195140D02*
D03*
X28926Y195143D02*
D03*
Y196543D02*
D03*
X44450Y49087D02*
D03*
Y47687D02*
D03*
X44450Y73282D02*
D03*
Y71882D02*
D03*
Y97539D02*
D03*
Y96139D02*
D03*
X44958Y146750D02*
D03*
Y145350D02*
D03*
Y170880D02*
D03*
Y169480D02*
D03*
Y195264D02*
D03*
Y193864D02*
D03*
D14*
X74840Y107569D02*
D03*
X76290D02*
D03*
D15*
X76454Y119798D02*
D03*
Y121248D02*
D03*
D16*
X57872Y113472D02*
D03*
Y112522D02*
D03*
Y111572D02*
D03*
X60492D02*
D03*
Y113472D02*
D03*
D17*
X63844Y123317D02*
D03*
Y122047D02*
D03*
Y120777D02*
D03*
Y119507D02*
D03*
X68744Y123317D02*
D03*
Y122047D02*
D03*
Y120777D02*
D03*
Y119507D02*
D03*
D18*
X96768Y110086D02*
D03*
Y110736D02*
D03*
Y111386D02*
D03*
Y112036D02*
D03*
Y112686D02*
D03*
D19*
X99568Y112536D02*
D03*
Y110236D02*
D03*
D20*
X82156Y112390D02*
D03*
Y110490D02*
D03*
X79756D02*
D03*
Y111440D02*
D03*
Y112390D02*
D03*
D21*
X91038Y122063D02*
D03*
Y124063D02*
D03*
D22*
X96788Y119713D02*
D03*
Y126413D02*
D03*
D23*
X70146Y186371D02*
D03*
Y185101D02*
D03*
Y183831D02*
D03*
Y182561D02*
D03*
X75396Y186371D02*
D03*
Y185101D02*
D03*
Y183831D02*
D03*
Y182561D02*
D03*
X39539Y190516D02*
D03*
Y189246D02*
D03*
Y187976D02*
D03*
Y186706D02*
D03*
X44789Y190516D02*
D03*
Y189246D02*
D03*
Y187976D02*
D03*
Y186706D02*
D03*
X70654Y198309D02*
D03*
Y197039D02*
D03*
Y195769D02*
D03*
Y194499D02*
D03*
X75904Y198309D02*
D03*
Y197039D02*
D03*
Y195769D02*
D03*
Y194499D02*
D03*
X69638Y40194D02*
D03*
Y38924D02*
D03*
Y37654D02*
D03*
Y36384D02*
D03*
X74888Y40194D02*
D03*
Y38924D02*
D03*
Y37654D02*
D03*
Y36384D02*
D03*
X39031Y44339D02*
D03*
Y43069D02*
D03*
Y41799D02*
D03*
Y40529D02*
D03*
X44281Y44339D02*
D03*
Y43069D02*
D03*
Y41799D02*
D03*
Y40529D02*
D03*
X70146Y52132D02*
D03*
Y50862D02*
D03*
Y49592D02*
D03*
Y48322D02*
D03*
X75396Y52132D02*
D03*
Y50862D02*
D03*
Y49592D02*
D03*
Y48322D02*
D03*
X69638Y64389D02*
D03*
Y63119D02*
D03*
Y61849D02*
D03*
Y60579D02*
D03*
X74888Y64389D02*
D03*
Y63119D02*
D03*
Y61849D02*
D03*
Y60579D02*
D03*
X39031Y68534D02*
D03*
Y67264D02*
D03*
Y65994D02*
D03*
Y64724D02*
D03*
X44281Y68534D02*
D03*
Y67264D02*
D03*
Y65994D02*
D03*
Y64724D02*
D03*
X70146Y76327D02*
D03*
Y75057D02*
D03*
Y73787D02*
D03*
Y72517D02*
D03*
X75396Y76327D02*
D03*
Y75057D02*
D03*
Y73787D02*
D03*
Y72517D02*
D03*
X69638Y88646D02*
D03*
Y87376D02*
D03*
Y86106D02*
D03*
Y84836D02*
D03*
X74888Y88646D02*
D03*
Y87376D02*
D03*
Y86106D02*
D03*
Y84836D02*
D03*
X39031Y92791D02*
D03*
Y91521D02*
D03*
Y90251D02*
D03*
Y88981D02*
D03*
X44281Y92791D02*
D03*
Y91521D02*
D03*
Y90251D02*
D03*
Y88981D02*
D03*
X70146Y100584D02*
D03*
Y99314D02*
D03*
Y98044D02*
D03*
Y96774D02*
D03*
X75396Y100584D02*
D03*
Y99314D02*
D03*
Y98044D02*
D03*
Y96774D02*
D03*
X70146Y137857D02*
D03*
Y136587D02*
D03*
Y135317D02*
D03*
Y134047D02*
D03*
X75396Y137857D02*
D03*
Y136587D02*
D03*
Y135317D02*
D03*
Y134047D02*
D03*
X39539Y142002D02*
D03*
Y140732D02*
D03*
Y139462D02*
D03*
Y138192D02*
D03*
X44789Y142002D02*
D03*
Y140732D02*
D03*
Y139462D02*
D03*
Y138192D02*
D03*
X70654Y149795D02*
D03*
Y148525D02*
D03*
Y147255D02*
D03*
Y145985D02*
D03*
X75904Y149795D02*
D03*
Y148525D02*
D03*
Y147255D02*
D03*
Y145985D02*
D03*
X70146Y161987D02*
D03*
Y160717D02*
D03*
Y159447D02*
D03*
Y158177D02*
D03*
X75396Y161987D02*
D03*
Y160717D02*
D03*
Y159447D02*
D03*
Y158177D02*
D03*
X39539Y166132D02*
D03*
Y164862D02*
D03*
Y163592D02*
D03*
Y162322D02*
D03*
X44789Y166132D02*
D03*
Y164862D02*
D03*
Y163592D02*
D03*
Y162322D02*
D03*
X70654Y173925D02*
D03*
Y172655D02*
D03*
Y171385D02*
D03*
Y170115D02*
D03*
X75904Y173925D02*
D03*
Y172655D02*
D03*
Y171385D02*
D03*
Y170115D02*
D03*
D24*
X56312Y191476D02*
D03*
X56947D02*
D03*
X57607D02*
D03*
X58242D02*
D03*
Y187108D02*
D03*
X57607D02*
D03*
X56947D02*
D03*
X56312D02*
D03*
X55804Y45299D02*
D03*
X56439D02*
D03*
X57099D02*
D03*
X57734D02*
D03*
Y40931D02*
D03*
X57099D02*
D03*
X56439D02*
D03*
X55804D02*
D03*
X55804Y69494D02*
D03*
X56439D02*
D03*
X57099D02*
D03*
X57734D02*
D03*
Y65126D02*
D03*
X57099D02*
D03*
X56439D02*
D03*
X55804D02*
D03*
Y93751D02*
D03*
X56439D02*
D03*
X57099D02*
D03*
X57734D02*
D03*
Y89383D02*
D03*
X57099D02*
D03*
X56439D02*
D03*
X55804D02*
D03*
X56312Y142962D02*
D03*
X56947D02*
D03*
X57607D02*
D03*
X58242D02*
D03*
Y138594D02*
D03*
X57607D02*
D03*
X56947D02*
D03*
X56312D02*
D03*
Y167092D02*
D03*
X56947D02*
D03*
X57607D02*
D03*
X58242D02*
D03*
Y162724D02*
D03*
X57607D02*
D03*
X56947D02*
D03*
X56312D02*
D03*
D25*
X30893Y193802D02*
D03*
X31393D02*
D03*
X31893D02*
D03*
X32393D02*
D03*
X32893D02*
D03*
X30893Y198002D02*
D03*
X31393D02*
D03*
X31893D02*
D03*
X32393D02*
D03*
X32893D02*
D03*
X30385Y47625D02*
D03*
X30885D02*
D03*
X31385D02*
D03*
X31885D02*
D03*
X32385D02*
D03*
X30385Y51825D02*
D03*
X30885D02*
D03*
X31385D02*
D03*
X31885D02*
D03*
X32385D02*
D03*
X30385Y71820D02*
D03*
X30885D02*
D03*
X31385D02*
D03*
X31885D02*
D03*
X32385D02*
D03*
X30385Y76020D02*
D03*
X30885D02*
D03*
X31385D02*
D03*
X31885D02*
D03*
X32385D02*
D03*
X30385Y96077D02*
D03*
X30885D02*
D03*
X31385D02*
D03*
X31885D02*
D03*
X32385D02*
D03*
X30385Y100277D02*
D03*
X30885D02*
D03*
X31385D02*
D03*
X31885D02*
D03*
X32385D02*
D03*
X30893Y145288D02*
D03*
X31393D02*
D03*
X31893D02*
D03*
X32393D02*
D03*
X32893D02*
D03*
X30893Y149488D02*
D03*
X31393D02*
D03*
X31893D02*
D03*
X32393D02*
D03*
X32893D02*
D03*
X30893Y169418D02*
D03*
X31393D02*
D03*
X31893D02*
D03*
X32393D02*
D03*
X32893D02*
D03*
X30893Y173618D02*
D03*
X31393D02*
D03*
X31893D02*
D03*
X32393D02*
D03*
X32893D02*
D03*
D26*
X50165Y75461D02*
D03*
X48895D02*
D03*
X47625D02*
D03*
X46355D02*
D03*
X50165Y70211D02*
D03*
X48895D02*
D03*
X47625D02*
D03*
X46355D02*
D03*
X50165Y99718D02*
D03*
X48895D02*
D03*
X47625D02*
D03*
X46355D02*
D03*
X50165Y94468D02*
D03*
X48895D02*
D03*
X47625D02*
D03*
X46355D02*
D03*
X50673Y148929D02*
D03*
X49403D02*
D03*
X48133D02*
D03*
X46863D02*
D03*
X50673Y143679D02*
D03*
X49403D02*
D03*
X48133D02*
D03*
X46863D02*
D03*
X50673Y173059D02*
D03*
X49403D02*
D03*
X48133D02*
D03*
X46863D02*
D03*
X50673Y167809D02*
D03*
X49403D02*
D03*
X48133D02*
D03*
X46863D02*
D03*
X50673Y197443D02*
D03*
X49403D02*
D03*
X48133D02*
D03*
X46863D02*
D03*
X50673Y192193D02*
D03*
X49403D02*
D03*
X48133D02*
D03*
X46863D02*
D03*
X50165Y51266D02*
D03*
X48895D02*
D03*
X47625D02*
D03*
X46355D02*
D03*
X50165Y46016D02*
D03*
X48895D02*
D03*
X47625D02*
D03*
X46355D02*
D03*
D33*
X63627Y43815D02*
D03*
X49530Y41910D02*
D03*
X63627Y68010D02*
D03*
X49530Y66105D02*
D03*
X63627Y92267D02*
D03*
X49530Y90362D02*
D03*
X64135Y141478D02*
D03*
X50038Y139573D02*
D03*
X64135Y165608D02*
D03*
X50038Y163703D02*
D03*
X64135Y189992D02*
D03*
X50038Y188087D02*
D03*
X62992Y127000D02*
D03*
X58547D02*
D03*
X53975Y127127D02*
D03*
X62103Y198374D02*
D03*
X97282Y187325D02*
D03*
Y194056D02*
D03*
X22352Y198374D02*
D03*
X23495Y195707D02*
D03*
X24638Y192786D02*
D03*
X27432Y186436D02*
D03*
X25908Y189738D02*
D03*
X61595Y52197D02*
D03*
X96774Y41148D02*
D03*
Y47879D02*
D03*
X21844Y52197D02*
D03*
X22987Y49530D02*
D03*
X24130Y46609D02*
D03*
X26924Y40259D02*
D03*
X25400Y43561D02*
D03*
X61595Y76392D02*
D03*
X96774Y65343D02*
D03*
Y72074D02*
D03*
X21844Y76392D02*
D03*
X22987Y73725D02*
D03*
X24130Y70804D02*
D03*
X26924Y64454D02*
D03*
X25400Y67756D02*
D03*
X61595Y100649D02*
D03*
X96774Y89600D02*
D03*
Y96331D02*
D03*
X21844Y100649D02*
D03*
X22987Y97982D02*
D03*
X24130Y95061D02*
D03*
X26924Y88711D02*
D03*
X25400Y92013D02*
D03*
X62103Y149860D02*
D03*
X97282Y138811D02*
D03*
Y145542D02*
D03*
X22352Y149860D02*
D03*
X23495Y147193D02*
D03*
X24638Y144272D02*
D03*
X27432Y137922D02*
D03*
X25908Y141224D02*
D03*
X62103Y173990D02*
D03*
X97282Y162941D02*
D03*
Y169672D02*
D03*
X22352Y173990D02*
D03*
X23495Y171323D02*
D03*
X24638Y168402D02*
D03*
X27432Y162052D02*
D03*
X25908Y165354D02*
D03*
D34*
X83058Y193167D02*
D03*
Y195707D02*
D03*
X85598Y193167D02*
D03*
Y195707D02*
D03*
X88138Y193167D02*
D03*
Y195707D02*
D03*
X90678Y193167D02*
D03*
Y187960D02*
D03*
Y185420D02*
D03*
X88138Y187960D02*
D03*
Y185420D02*
D03*
X85598Y187960D02*
D03*
Y185420D02*
D03*
X83058Y187960D02*
D03*
X94615Y189230D02*
D03*
X82550Y41783D02*
D03*
X85090Y39243D02*
D03*
Y41783D02*
D03*
X87630Y39243D02*
D03*
Y41783D02*
D03*
X90170Y39243D02*
D03*
Y41783D02*
D03*
X94107Y43053D02*
D03*
X90170Y46990D02*
D03*
X87630Y49530D02*
D03*
Y46990D02*
D03*
X85090Y49530D02*
D03*
Y46990D02*
D03*
X82550Y49530D02*
D03*
Y46990D02*
D03*
X82550Y65978D02*
D03*
X85090Y63438D02*
D03*
Y65978D02*
D03*
X87630Y63438D02*
D03*
Y65978D02*
D03*
X90170Y63438D02*
D03*
Y65978D02*
D03*
X94107Y67248D02*
D03*
X90170Y71185D02*
D03*
X87630Y73725D02*
D03*
Y71185D02*
D03*
X85090Y73725D02*
D03*
Y71185D02*
D03*
X82550Y73725D02*
D03*
Y71185D02*
D03*
X82550Y90235D02*
D03*
X85090Y87695D02*
D03*
Y90235D02*
D03*
X87630Y87695D02*
D03*
Y90235D02*
D03*
X90170Y87695D02*
D03*
Y90235D02*
D03*
X94107Y91505D02*
D03*
X90170Y95442D02*
D03*
X87630Y97982D02*
D03*
Y95442D02*
D03*
X85090Y97982D02*
D03*
Y95442D02*
D03*
X82550Y97982D02*
D03*
Y95442D02*
D03*
X83058Y139446D02*
D03*
X85598Y136906D02*
D03*
Y139446D02*
D03*
X88138Y136906D02*
D03*
Y139446D02*
D03*
X90678Y136906D02*
D03*
Y139446D02*
D03*
X94615Y140716D02*
D03*
X90678Y144653D02*
D03*
X88138Y147193D02*
D03*
Y144653D02*
D03*
X85598Y147193D02*
D03*
Y144653D02*
D03*
X83058Y147193D02*
D03*
Y144653D02*
D03*
Y163576D02*
D03*
X85598Y161036D02*
D03*
Y163576D02*
D03*
X88138Y161036D02*
D03*
Y163576D02*
D03*
X90678Y161036D02*
D03*
Y163576D02*
D03*
X94615Y164846D02*
D03*
X90678Y168783D02*
D03*
X88138Y171323D02*
D03*
Y168783D02*
D03*
X85598Y171323D02*
D03*
Y168783D02*
D03*
X83058Y171323D02*
D03*
Y168783D02*
D03*
D35*
X90678Y195707D02*
D03*
X83058Y185420D02*
D03*
X82550Y39243D02*
D03*
X90170Y49530D02*
D03*
X82550Y63438D02*
D03*
X90170Y73725D02*
D03*
X82550Y87695D02*
D03*
X90170Y97982D02*
D03*
X83058Y136906D02*
D03*
X90678Y147193D02*
D03*
X83058Y161036D02*
D03*
X90678Y171323D02*
D03*
D36*
X49530Y123698D02*
D03*
X46990D02*
D03*
X44450D02*
D03*
X41910D02*
D03*
X39370D02*
D03*
X36830D02*
D03*
X34290D02*
D03*
X31750D02*
D03*
X29210D02*
D03*
X26670D02*
D03*
X24130D02*
D03*
X21590D02*
D03*
X49530Y108458D02*
D03*
X46990D02*
D03*
X44450D02*
D03*
X41910D02*
D03*
X39370D02*
D03*
X36830D02*
D03*
X34290D02*
D03*
X31750D02*
D03*
X29210D02*
D03*
X26670D02*
D03*
X24130D02*
D03*
X21590D02*
D03*
D37*
X96443Y113611D02*
D03*
Y109161D02*
D03*
D38*
X99568Y115474D02*
D03*
Y107299D02*
D03*
D39*
X81534Y125603D02*
D03*
D40*
Y120523D02*
D03*
D41*
X94615Y191770D02*
D03*
X94107Y45593D02*
D03*
X94107Y69788D02*
D03*
Y94045D02*
D03*
X94615Y143256D02*
D03*
Y167386D02*
D03*
M02*
