M48
;Layer_Color=9474304
;FILE_FORMAT=4:3
METRIC,TZ
;TYPE=PLATED
T1F00S00C0.500
T3F00S00C0.711
T5F00S00C0.900
T6F00S00C1.000
T7F00S00C1.016
T8F00S00C1.100
%
T01
X36449Y38862
X39116Y37719
X40640Y37719
X49657Y37592
X56134Y39243
X57785Y38989
X71374Y36322
X72771Y34798
X72009Y42291
X73152Y46990
X68453Y46609
X72644Y54229
X77089Y53975
X72771Y58993
X71374Y60517
X72009Y66486
X73152Y71185
X68453Y70804
X72644Y78424
X77089Y78170
X76962Y64327
X57785Y63184
X56134Y63438
X54483Y66359
X52578Y65851
X56007Y68137
X45720Y68518
X41275Y70169
X40640Y61914
X49657Y61787
X45720Y44323
X41275Y45974
X52578Y41656
X54483Y42164
X56007Y43942
X76962Y40132
X33498Y49031
Y50174
X26871Y50366
X36449Y63057
X39116Y61914
X33528Y73279
Y74549
X26871Y74561
X36449Y87314
X39116Y86171
X33498Y97483
Y98626
X26871Y98818
X41275Y94426
X45720Y92775
X52578Y90108
X54483Y90616
X56007Y92394
X56134Y87695
X57785Y87441
X49657Y86044
X40640Y86171
X71374Y84774
X72771Y83250
X72009Y90743
X73152Y95442
X68453Y95061
X72644Y102681
X77089Y102427
X74803Y108966
X75822Y111255
X77343Y112776
X77470Y115443
X61976Y115062
X62103Y111506
X56134Y112649
X57785Y114808
X76962Y88584
X90805Y112649
X98806Y117221
X73279Y132461
X71882Y133985
X72517Y139954
X73660Y144653
X68961Y144272
X73152Y151892
X77597Y151638
X73279Y156591
X71882Y158115
X77470Y137795
X58293Y136652
X56642Y136906
X54991Y139827
X53086Y139319
X56515Y141605
X46228Y141986
X41783Y143637
X41148Y135382
X50165Y135255
X39624Y135382
X36957Y136525
X34006Y146694
Y147837
X27379Y148029
X29591Y144272
X36957Y160655
X39624Y159512
X34006Y170824
Y171967
X27379Y172159
X36957Y185039
X39624Y183896
X34006Y195208
Y196351
X27379Y196543
X41783Y192151
X46228Y190500
X53086Y187833
X54991Y188341
X56515Y190119
X56642Y185420
X58293Y185166
X50165Y183769
X41148Y183896
X41783Y167767
X46228Y166116
X53086Y163449
X54991Y163957
X56515Y165735
X56642Y161036
X58293Y160782
X50165Y159385
X41148Y159512
X72517Y164084
X73660Y168783
X68961Y168402
X73152Y176022
X77597Y175768
X73279Y180975
X71882Y182499
X72517Y188468
X73660Y193167
X68961Y192786
X77470Y186309
Y161925
X77597Y200152
X73152Y200406
T03
X30607Y38227
X72263Y38100
X75819Y33274
X79629Y36576
X79629Y60771
X75819Y57469
X72263Y62295
X67818Y64327
X59436Y70677
X54737Y70931
X53975Y73090
X53001Y75461
X50673Y71947
X42737Y73282
X40275Y73979
X40275Y49784
X42737Y49087
X50673Y47752
X53975Y48895
X54737Y46736
X59436Y46482
X53001Y51266
X67818Y40132
X30607Y62422
Y86679
X34163Y103505
X27051Y114554
X40275Y98236
X42737Y97539
X50673Y96204
X53975Y97347
X54737Y95188
X59436Y94934
X53001Y99718
X67818Y88584
X72263Y86552
X75819Y81726
X68834Y118110
X65659Y117475
X79629Y85028
X86995Y124079
X80137Y134239
Y158369
X76327Y155067
X72771Y135763
X68326Y137795
X59944Y144145
X55245Y144399
X54483Y146558
X53509Y148929
X51181Y145415
X43245Y146750
X40783Y147447
X76327Y130937
X72390Y123317
X71120Y119507
X36703Y128778
X34417
X32385
X30861Y133223
X32131Y135509
X34544Y136017
X27051Y134747
X31115Y160020
Y184404
X40783Y195961
X43245Y195264
X51181Y193929
X54483Y195072
X55245Y192913
X59944Y192659
X53509Y197443
Y173059
X54483Y170688
X55245Y168529
X59944Y168275
X51181Y169545
X43245Y170880
X40783Y171577
X68326Y161925
X72771Y159893
X76327Y179451
X72771Y184277
X68326Y186309
X80137Y182753
T05
X82550Y39243
X85090
X87630
X90170
Y41783
X87630
X85090
X82550
Y46990
X85090
X87630
X90170
Y49530
X87630
X85090
X82550
X82550Y63438
Y65978
X85090
Y63438
X87630
Y65978
X90170
Y63438
X94107Y67248
Y69788
X90170Y71185
Y73725
X87630
Y71185
X85090
Y73725
X82550
Y71185
X94107Y45593
Y43053
X94107Y91505
Y94045
X90170Y95442
Y97982
X87630
Y95442
X85090
Y97982
X82550
Y95442
X82550Y90235
Y87695
X85090
Y90235
X87630
Y87695
X90170
Y90235
X90678Y136906
X88138
X85598
X83058
Y139446
X85598
X88138
X90678
X94615Y140716
Y143256
X90678Y144653
Y147193
X88138
Y144653
X85598
Y147193
X83058
Y144653
Y161036
Y163576
X85598
Y161036
X88138
Y163576
X90678
Y161036
X94615Y164846
Y167386
X90678Y168783
Y171323
X88138
Y168783
X85598
Y171323
X83058
Y168783
Y185420
X85598
X88138
X90678
Y187960
X88138
X85598
X83058
Y193167
Y195707
X85598
Y193167
X88138
Y195707
X90678
Y193167
X94615Y191770
Y189230
T06
X96774Y41148
Y47879
X96774Y65343
Y72074
X63627Y68010
X61595Y76392
X49530Y66105
X49530Y41910
X63627Y43815
X61595Y52197
X21844
X22987Y49530
X24130Y46609
X25400Y43561
X26924Y40259
X26924Y64454
X25400Y67756
X24130Y70804
X22987Y73725
X21844Y76392
X26924Y88711
X25400Y92013
X24130Y95061
X22987Y97982
X21844Y100649
X49530Y90362
X63627Y92267
X61595Y100649
X81407Y108712
X86741Y114427
X96774Y96331
Y89600
X83566Y123952
X83439Y127127
X79756
Y123952
X97282Y138811
Y145542
X64135Y141478
X62103Y149860
X50038Y139573
X53975Y127127
X58547Y127000
X62992
X27432Y137922
X25908Y141224
X24638Y144272
X23495Y147193
X22352Y149860
X27432Y162052
X25908Y165354
X24638Y168402
X23495Y171323
X22352Y173990
X27432Y186436
X25908Y189738
X24638Y192786
X23495Y195707
X22352Y198374
X50038Y188087
X64135Y189992
X62103Y198374
Y173990
X64135Y165608
X50038Y163703
X97282Y162941
Y169672
Y187325
Y194056
T07
X21590Y108458
X24130
X26670
X29210
X31750
X34290
X36830
X39370
X41910
X44450
X46990
X49530
Y123698
X46990
X44450
X41910
X39370
X36830
X34290
X31750
X29210
X26670
X24130
X21590
T08
X81534Y120523
Y125603
M30
