G04 Layer_Color=65535*
%FSLAX43Y43*%
%MOMM*%
G71*
G01*
G75*
%ADD28C,0.254*%
%ADD60C,0.250*%
%ADD61C,0.600*%
%ADD62C,0.000*%
%ADD63C,0.200*%
%ADD64C,0.400*%
%ADD65C,0.152*%
%ADD66C,0.203*%
%ADD67C,0.198*%
D28*
X45466Y37211D02*
X45133D01*
X45299D01*
Y36211D01*
X45466Y36378D01*
X44633Y36545D02*
Y37044D01*
X44466Y37211D01*
X43966D01*
Y36545D01*
X44958Y61468D02*
X44625D01*
X44791D01*
Y60468D01*
X44958Y60635D01*
X44125Y60802D02*
Y61301D01*
X43958Y61468D01*
X43458D01*
Y60802D01*
X45466Y86106D02*
X45133D01*
X45299D01*
Y85106D01*
X45466Y85273D01*
X44633Y85440D02*
Y85939D01*
X44466Y86106D01*
X43966D01*
Y85440D01*
X45974Y135255D02*
X45641D01*
X45807D01*
Y134255D01*
X45974Y134422D01*
X45141Y134589D02*
Y135088D01*
X44974Y135255D01*
X44474D01*
Y134589D01*
X46228Y159258D02*
X45895D01*
X46061D01*
Y158258D01*
X46228Y158425D01*
X45395Y158592D02*
Y159091D01*
X45228Y159258D01*
X44728D01*
Y158592D01*
X45720Y183642D02*
X45387D01*
X45553D01*
Y182642D01*
X45720Y182809D01*
X44887Y182976D02*
Y183475D01*
X44720Y183642D01*
X44220D01*
Y182976D01*
X53848Y195961D02*
X54181D01*
X54015D01*
Y196961D01*
X53848Y196794D01*
X54681D02*
X54848Y196961D01*
X55181D01*
X55348Y196794D01*
Y196128D01*
X55181Y195961D01*
X54848D01*
X54681Y196128D01*
Y196794D01*
X55681Y195961D02*
Y196961D01*
Y196294D02*
X56181Y196627D01*
X55681Y196294D02*
X56181Y195961D01*
X53848Y171450D02*
X54181D01*
X54015D01*
Y172450D01*
X53848Y172283D01*
X54681D02*
X54848Y172450D01*
X55181D01*
X55348Y172283D01*
Y171617D01*
X55181Y171450D01*
X54848D01*
X54681Y171617D01*
Y172283D01*
X55681Y171450D02*
Y172450D01*
Y171783D02*
X56181Y172116D01*
X55681Y171783D02*
X56181Y171450D01*
X58166Y147447D02*
X58499D01*
X58333D01*
Y148447D01*
X58166Y148280D01*
X58999D02*
X59166Y148447D01*
X59499D01*
X59666Y148280D01*
Y147614D01*
X59499Y147447D01*
X59166D01*
X58999Y147614D01*
Y148280D01*
X59999Y147447D02*
Y148447D01*
Y147780D02*
X60499Y148113D01*
X59999Y147780D02*
X60499Y147447D01*
X57531Y98425D02*
X57864D01*
X57698D01*
Y99425D01*
X57531Y99258D01*
X58364D02*
X58531Y99425D01*
X58864D01*
X59031Y99258D01*
Y98592D01*
X58864Y98425D01*
X58531D01*
X58364Y98592D01*
Y99258D01*
X59364Y98425D02*
Y99425D01*
Y98758D02*
X59864Y99091D01*
X59364Y98758D02*
X59864Y98425D01*
X57912Y73914D02*
X58245D01*
X58079D01*
Y74914D01*
X57912Y74747D01*
X58745D02*
X58912Y74914D01*
X59245D01*
X59412Y74747D01*
Y74081D01*
X59245Y73914D01*
X58912D01*
X58745Y74081D01*
Y74747D01*
X59745Y73914D02*
Y74914D01*
Y74247D02*
X60245Y74580D01*
X59745Y74247D02*
X60245Y73914D01*
X53086Y49911D02*
X53419D01*
X53253D01*
Y50911D01*
X53086Y50744D01*
X53919D02*
X54086Y50911D01*
X54419D01*
X54586Y50744D01*
Y50078D01*
X54419Y49911D01*
X54086D01*
X53919Y50078D01*
Y50744D01*
X54919Y49911D02*
Y50911D01*
Y50244D02*
X55419Y50577D01*
X54919Y50244D02*
X55419Y49911D01*
X48387Y35941D02*
Y36274D01*
Y36108D01*
X47387D01*
X47554Y35941D01*
Y36774D02*
X47387Y36941D01*
Y37274D01*
X47554Y37441D01*
X48220D01*
X48387Y37274D01*
Y36941D01*
X48220Y36774D01*
X47554D01*
X48387Y37774D02*
X47387D01*
X48054D02*
X47721Y38274D01*
X48054Y37774D02*
X48387Y38274D01*
X95535Y196707D02*
X94869D01*
Y196207D01*
X95202Y196373D01*
X95369D01*
X95535Y196207D01*
Y195874D01*
X95369Y195707D01*
X95036D01*
X94869Y195874D01*
X95869Y195707D02*
Y196707D01*
Y196040D02*
X96369Y196373D01*
X95869Y196040D02*
X96369Y195707D01*
X96868Y196040D02*
X97535D01*
X96868Y196373D02*
X97535D01*
X97868Y195707D02*
X98201D01*
X98035D01*
Y196707D01*
X97868Y196540D01*
X99368Y196707D02*
X99034Y196540D01*
X98701Y196207D01*
Y195874D01*
X98868Y195707D01*
X99201D01*
X99368Y195874D01*
Y196040D01*
X99201Y196207D01*
X98701D01*
X99701Y196373D02*
Y195874D01*
X99867Y195707D01*
X100367D01*
Y196373D01*
X93726Y197485D02*
X94059D01*
X93893D01*
Y198485D01*
X93726Y198318D01*
X94559D02*
X94726Y198485D01*
X95059D01*
X95226Y198318D01*
Y197652D01*
X95059Y197485D01*
X94726D01*
X94559Y197652D01*
Y198318D01*
X95559Y197485D02*
Y198485D01*
Y197818D02*
X96059Y198151D01*
X95559Y197818D02*
X96059Y197485D01*
X96558Y197818D02*
X97225D01*
X96558Y198151D02*
X97225D01*
X97558Y198318D02*
X97725Y198485D01*
X98058D01*
X98225Y198318D01*
Y198151D01*
X98058Y197985D01*
X97891D01*
X98058D01*
X98225Y197818D01*
Y197652D01*
X98058Y197485D01*
X97725D01*
X97558Y197652D01*
X98558Y198318D02*
X98724Y198485D01*
X99058D01*
X99224Y198318D01*
Y198151D01*
X99058Y197985D01*
X98891D01*
X99058D01*
X99224Y197818D01*
Y197652D01*
X99058Y197485D01*
X98724D01*
X98558Y197652D01*
X99557Y198151D02*
Y197652D01*
X99724Y197485D01*
X100224D01*
Y198151D01*
X20853Y126720D02*
X21869Y125705D01*
X20853D02*
X21869Y126720D01*
X20853Y126212D02*
X21869D01*
X21361Y125705D02*
Y126720D01*
X22377Y125451D02*
X22885D01*
X22631D01*
Y126974D01*
X22377Y126720D01*
X88011Y109855D02*
X89535D01*
X88773Y110617D01*
Y109601D01*
X88011Y109093D02*
X88265D01*
Y108840D01*
X88011D01*
Y109093D01*
X89535Y107824D02*
Y106808D01*
X89281D01*
X88265Y107824D01*
X88011D01*
X89027Y106300D02*
X88265D01*
X88011Y106046D01*
Y105285D01*
X89027D01*
X89535Y103761D02*
Y104777D01*
X88773D01*
Y104269D01*
Y104777D01*
X88011D01*
X55753Y122555D02*
X56261D01*
X56007D01*
Y124079D01*
X55753Y123825D01*
X57023D02*
X57277Y124079D01*
X57784D01*
X58038Y123825D01*
Y122809D01*
X57784Y122555D01*
X57277D01*
X57023Y122809D01*
Y123825D01*
X58546Y123571D02*
Y122809D01*
X58800Y122555D01*
X59562D01*
Y123571D01*
X61085Y124079D02*
X60070D01*
Y123317D01*
X60577D01*
X60070D01*
Y122555D01*
X73152Y113157D02*
Y114681D01*
X72390Y113919D01*
X73406D01*
X73914Y113157D02*
Y113411D01*
X74167D01*
Y113157D01*
X73914D01*
X75183Y114681D02*
X76199D01*
Y114427D01*
X75183Y113411D01*
Y113157D01*
X76707Y114173D02*
Y113411D01*
X76961Y113157D01*
X77722D01*
Y114173D01*
X79246Y114681D02*
X78230D01*
Y113919D01*
X78738D01*
X78230D01*
Y113157D01*
X55118Y117475D02*
X55372Y117729D01*
X55880D01*
X56134Y117475D01*
Y116459D01*
X55880Y116205D01*
X55372D01*
X55118Y116459D01*
Y117475D01*
X56642Y116205D02*
Y116459D01*
X56895D01*
Y116205D01*
X56642D01*
X57911D02*
X58419D01*
X58165D01*
Y117729D01*
X57911Y117475D01*
X59181Y117221D02*
Y116459D01*
X59435Y116205D01*
X60196D01*
Y117221D01*
X61720Y117729D02*
X60704D01*
Y116967D01*
X61212D01*
X60704D01*
Y116205D01*
X69723Y108331D02*
Y106807D01*
X70485D01*
X70739Y107061D01*
Y108077D01*
X70485Y108331D01*
X69723D01*
X72262Y108077D02*
X72008Y108331D01*
X71500D01*
X71247Y108077D01*
Y107823D01*
X71500Y107569D01*
X72008D01*
X72262Y107315D01*
Y107061D01*
X72008Y106807D01*
X71500D01*
X71247Y107061D01*
X72770Y106807D02*
X73278D01*
X73024D01*
Y108331D01*
X72770Y108077D01*
X74168Y121539D02*
Y120015D01*
X74930D01*
X75184Y120269D01*
Y121285D01*
X74930Y121539D01*
X74168D01*
X76707Y121285D02*
X76453Y121539D01*
X75945D01*
X75692Y121285D01*
Y121031D01*
X75945Y120777D01*
X76453D01*
X76707Y120523D01*
Y120269D01*
X76453Y120015D01*
X75945D01*
X75692Y120269D01*
X78231Y120015D02*
X77215D01*
X78231Y121031D01*
Y121285D01*
X77977Y121539D01*
X77469D01*
X77215Y121285D01*
X83312Y116459D02*
X82296D01*
X83312Y117475D01*
Y117729D01*
X83058Y117983D01*
X82550D01*
X82296Y117729D01*
X83820Y116459D02*
Y117983D01*
Y116967D02*
X84581Y117475D01*
X83820Y116967D02*
X84581Y116459D01*
X72136Y128524D02*
X72390Y128778D01*
X72898D01*
X73152Y128524D01*
Y128270D01*
X72898Y128016D01*
X72644D01*
X72898D01*
X73152Y127762D01*
Y127508D01*
X72898Y127254D01*
X72390D01*
X72136Y127508D01*
X73660Y128524D02*
X73913Y128778D01*
X74421D01*
X74675Y128524D01*
Y128270D01*
X74421Y128016D01*
X74167D01*
X74421D01*
X74675Y127762D01*
Y127508D01*
X74421Y127254D01*
X73913D01*
X73660Y127508D01*
X75183Y128524D02*
X75437Y128778D01*
X75945D01*
X76199Y128524D01*
Y127508D01*
X75945Y127254D01*
X75437D01*
X75183Y127508D01*
Y128524D01*
X82677Y107442D02*
X82931Y107696D01*
X83439D01*
X83693Y107442D01*
Y107188D01*
X83439Y106934D01*
X83185D01*
X83439D01*
X83693Y106680D01*
Y106426D01*
X83439Y106172D01*
X82931D01*
X82677Y106426D01*
X84201Y107442D02*
X84454Y107696D01*
X84962D01*
X85216Y107442D01*
Y107188D01*
X84962Y106934D01*
X84708D01*
X84962D01*
X85216Y106680D01*
Y106426D01*
X84962Y106172D01*
X84454D01*
X84201Y106426D01*
X85724Y107442D02*
X85978Y107696D01*
X86486D01*
X86740Y107442D01*
Y106426D01*
X86486Y106172D01*
X85978D01*
X85724Y106426D01*
Y107442D01*
X49403Y111887D02*
X48387D01*
X49403Y112903D01*
Y113157D01*
X49149Y113411D01*
X48641D01*
X48387Y113157D01*
X49911D02*
X50164Y113411D01*
X50672D01*
X50926Y113157D01*
Y112141D01*
X50672Y111887D01*
X50164D01*
X49911Y112141D01*
Y113157D01*
X51434Y111887D02*
Y113411D01*
Y112395D02*
X52196Y112903D01*
X51434Y112395D02*
X52196Y111887D01*
X81445Y129476D02*
X81191Y129730D01*
X80683D01*
X80429Y129476D01*
Y129222D01*
X80683Y128968D01*
X81191D01*
X81445Y128714D01*
Y128460D01*
X81191Y128206D01*
X80683D01*
X80429Y128460D01*
X81953Y128206D02*
X82460D01*
X82207D01*
Y129730D01*
X81953Y129476D01*
X61087Y199898D02*
X61420D01*
X61254D01*
Y200898D01*
X61087Y200731D01*
X61920D02*
X62087Y200898D01*
X62420D01*
X62587Y200731D01*
Y200065D01*
X62420Y199898D01*
X62087D01*
X61920Y200065D01*
Y200731D01*
X62920D02*
X63086Y200898D01*
X63420D01*
X63586Y200731D01*
Y200065D01*
X63420Y199898D01*
X63086D01*
X62920Y200065D01*
Y200731D01*
X63919Y200898D02*
Y199898D01*
Y200231D01*
X64586Y200898D01*
X64086Y200398D01*
X64586Y199898D01*
X93376Y199136D02*
X92710D01*
X93376Y199802D01*
Y199969D01*
X93210Y200136D01*
X92877D01*
X92710Y199969D01*
X93710D02*
X93876Y200136D01*
X94210D01*
X94376Y199969D01*
Y199303D01*
X94210Y199136D01*
X93876D01*
X93710Y199303D01*
Y199969D01*
X94709Y199136D02*
Y200136D01*
Y199469D02*
X95209Y199802D01*
X94709Y199469D02*
X95209Y199136D01*
X95709Y199469D02*
X96375D01*
X95709Y199802D02*
X96375D01*
X97375Y200136D02*
X97042Y199969D01*
X96709Y199636D01*
Y199303D01*
X96875Y199136D01*
X97209D01*
X97375Y199303D01*
Y199469D01*
X97209Y199636D01*
X96709D01*
X98375Y200136D02*
X98042Y199969D01*
X97708Y199636D01*
Y199303D01*
X97875Y199136D01*
X98208D01*
X98375Y199303D01*
Y199469D01*
X98208Y199636D01*
X97708D01*
X98708Y199802D02*
Y199303D01*
X98875Y199136D01*
X99375D01*
Y199802D01*
X49149Y181991D02*
Y182324D01*
Y182158D01*
X48149D01*
X48316Y181991D01*
Y182824D02*
X48149Y182991D01*
Y183324D01*
X48316Y183491D01*
X48982D01*
X49149Y183324D01*
Y182991D01*
X48982Y182824D01*
X48316D01*
X49149Y183824D02*
X48149D01*
X48816D02*
X48483Y184324D01*
X48816Y183824D02*
X49149Y184324D01*
X28321Y191079D02*
X28488Y191246D01*
X28821D01*
X28987Y191079D01*
Y190912D01*
X28821Y190746D01*
X28987Y190579D01*
Y190413D01*
X28821Y190246D01*
X28488D01*
X28321Y190413D01*
Y190579D01*
X28488Y190746D01*
X28321Y190912D01*
Y191079D01*
X28488Y190746D02*
X28821D01*
X29321Y190246D02*
Y190413D01*
X29487D01*
Y190246D01*
X29321D01*
X30154Y191079D02*
X30320Y191246D01*
X30654D01*
X30820Y191079D01*
Y190912D01*
X30654Y190746D01*
X30820Y190579D01*
Y190413D01*
X30654Y190246D01*
X30320D01*
X30154Y190413D01*
Y190579D01*
X30320Y190746D01*
X30154Y190912D01*
Y191079D01*
X30320Y190746D02*
X30654D01*
X31153Y191246D02*
X31820D01*
Y191079D01*
X31153Y190413D01*
Y190246D01*
X32153D02*
Y191246D01*
Y190579D02*
X32653Y190912D01*
X32153Y190579D02*
X32653Y190246D01*
X31369Y179959D02*
Y180292D01*
Y180126D01*
X30369D01*
X30536Y179959D01*
X31369Y180792D02*
X31202D01*
Y180959D01*
X31369D01*
Y180792D01*
Y181625D02*
Y181958D01*
Y181792D01*
X30369D01*
X30536Y181625D01*
Y182458D02*
X30369Y182625D01*
Y182958D01*
X30536Y183125D01*
X30703D01*
X30869Y182958D01*
Y182791D01*
Y182958D01*
X31036Y183125D01*
X31202D01*
X31369Y182958D01*
Y182625D01*
X31202Y182458D01*
X31369Y183458D02*
X30369D01*
X31036D02*
X30703Y183958D01*
X31036Y183458D02*
X31369Y183958D01*
X91979Y201914D02*
X91313D01*
Y201414D01*
X91646Y201580D01*
X91813D01*
X91979Y201414D01*
Y201081D01*
X91813Y200914D01*
X91480D01*
X91313Y201081D01*
X92313Y201747D02*
X92479Y201914D01*
X92813D01*
X92979Y201747D01*
Y201081D01*
X92813Y200914D01*
X92479D01*
X92313Y201081D01*
Y201747D01*
X93312Y200914D02*
Y201914D01*
Y201247D02*
X93812Y201580D01*
X93312Y201247D02*
X93812Y200914D01*
X94312Y201247D02*
X94978D01*
X94312Y201580D02*
X94978D01*
X95312Y200914D02*
X95645D01*
X95478D01*
Y201914D01*
X95312Y201747D01*
X96811Y201914D02*
X96478Y201747D01*
X96145Y201414D01*
Y201081D01*
X96311Y200914D01*
X96645D01*
X96811Y201081D01*
Y201247D01*
X96645Y201414D01*
X96145D01*
X97811Y201914D02*
X97144D01*
Y201414D01*
X97478Y201580D01*
X97644D01*
X97811Y201414D01*
Y201081D01*
X97644Y200914D01*
X97311D01*
X97144Y201081D01*
X98144Y201580D02*
Y201081D01*
X98311Y200914D01*
X98811D01*
Y201580D01*
X52324Y188341D02*
Y188674D01*
Y188508D01*
X51324D01*
X51491Y188341D01*
Y189174D02*
X51324Y189341D01*
Y189674D01*
X51491Y189841D01*
X52157D01*
X52324Y189674D01*
Y189341D01*
X52157Y189174D01*
X51491D01*
X51658Y190174D02*
X52157D01*
X52324Y190340D01*
Y190840D01*
X51658D01*
X51324Y191840D02*
Y191173D01*
X51824D01*
Y191507D01*
Y191173D01*
X52324D01*
X55880Y189428D02*
X56047Y189595D01*
X56380D01*
X56546Y189428D01*
Y188762D01*
X56380Y188595D01*
X56047D01*
X55880Y188762D01*
Y189428D01*
X56880Y188595D02*
Y188762D01*
X57046D01*
Y188595D01*
X56880D01*
X57713D02*
X58046D01*
X57879D01*
Y189595D01*
X57713Y189428D01*
X58546Y189261D02*
Y188762D01*
X58712Y188595D01*
X59212D01*
Y189261D01*
X60212Y189595D02*
X59545D01*
Y189095D01*
X59879D01*
X59545D01*
Y188595D01*
X53721Y179324D02*
Y179657D01*
Y179491D01*
X52721D01*
X52888Y179324D01*
Y180157D02*
X52721Y180324D01*
Y180657D01*
X52888Y180824D01*
X53554D01*
X53721Y180657D01*
Y180324D01*
X53554Y180157D01*
X52888D01*
X53055Y181157D02*
X53554D01*
X53721Y181323D01*
Y181823D01*
X53055D01*
X52721Y182823D02*
Y182156D01*
X53221D01*
Y182490D01*
Y182156D01*
X53721D01*
X55174Y178943D02*
X55007Y179110D01*
Y179443D01*
X55174Y179609D01*
X55840D01*
X56007Y179443D01*
Y179110D01*
X55840Y178943D01*
X55174D01*
X56007Y179943D02*
X55840D01*
Y180109D01*
X56007D01*
Y179943D01*
Y180776D02*
Y181109D01*
Y180942D01*
X55007D01*
X55174Y180776D01*
X55341Y181609D02*
X55840D01*
X56007Y181775D01*
Y182275D01*
X55341D01*
X55007Y183275D02*
Y182608D01*
X55507D01*
Y182942D01*
Y182608D01*
X56007D01*
X40386Y197358D02*
Y197691D01*
Y197525D01*
X39386D01*
X39553Y197358D01*
Y198191D02*
X39386Y198358D01*
Y198691D01*
X39553Y198858D01*
X40219D01*
X40386Y198691D01*
Y198358D01*
X40219Y198191D01*
X39553D01*
X39720Y199191D02*
X40219D01*
X40386Y199357D01*
Y199857D01*
X39720D01*
X39386Y200857D02*
Y200190D01*
X39886D01*
Y200524D01*
Y200190D01*
X40386D01*
X37267Y197485D02*
X37100Y197652D01*
Y197985D01*
X37267Y198151D01*
X37933D01*
X38100Y197985D01*
Y197652D01*
X37933Y197485D01*
X37267D01*
X38100Y198485D02*
X37933D01*
Y198651D01*
X38100D01*
Y198485D01*
Y199318D02*
Y199651D01*
Y199484D01*
X37100D01*
X37267Y199318D01*
X37434Y200151D02*
X37933D01*
X38100Y200317D01*
Y200817D01*
X37434D01*
X37100Y201817D02*
Y201150D01*
X37600D01*
Y201484D01*
Y201150D01*
X38100D01*
X36068Y197485D02*
Y197818D01*
Y197652D01*
X35068D01*
X35235Y197485D01*
Y198318D02*
X35068Y198485D01*
Y198818D01*
X35235Y198985D01*
X35901D01*
X36068Y198818D01*
Y198485D01*
X35901Y198318D01*
X35235D01*
X36068Y199318D02*
X35402D01*
Y199818D01*
X35568Y199984D01*
X36068D01*
X35068Y200984D02*
Y200317D01*
X35568D01*
Y200651D01*
Y200317D01*
X36068D01*
X64389Y179141D02*
X64556Y179308D01*
X64889D01*
X65055Y179141D01*
Y178475D01*
X64889Y178308D01*
X64556D01*
X64389Y178475D01*
Y179141D01*
X65389Y178308D02*
Y178475D01*
X65555D01*
Y178308D01*
X65389D01*
X66222D02*
X66555D01*
X66388D01*
Y179308D01*
X66222Y179141D01*
X67055Y178974D02*
Y178475D01*
X67221Y178308D01*
X67721D01*
Y178974D01*
X68721Y179308D02*
X68054D01*
Y178808D01*
X68388D01*
X68054D01*
Y178308D01*
X70231Y190825D02*
X70398Y190992D01*
X70731D01*
X70897Y190825D01*
Y190159D01*
X70731Y189992D01*
X70398D01*
X70231Y190159D01*
Y190825D01*
X71231Y189992D02*
Y190159D01*
X71397D01*
Y189992D01*
X71231D01*
X72064D02*
X72397D01*
X72230D01*
Y190992D01*
X72064Y190825D01*
X72897Y190658D02*
Y190159D01*
X73063Y189992D01*
X73563D01*
Y190658D01*
X74563Y190992D02*
X73896D01*
Y190492D01*
X74230D01*
X73896D01*
Y189992D01*
X75819Y198572D02*
X75986Y198739D01*
X76319D01*
X76485Y198572D01*
Y197906D01*
X76319Y197739D01*
X75986D01*
X75819Y197906D01*
Y198572D01*
X76819Y197739D02*
Y197906D01*
X76985D01*
Y197739D01*
X76819D01*
X77652D02*
X77985D01*
X77818D01*
Y198739D01*
X77652Y198572D01*
X78485Y198405D02*
Y197906D01*
X78651Y197739D01*
X79151D01*
Y198405D01*
X80151Y198739D02*
X79484D01*
Y198239D01*
X79818D01*
X79484D01*
Y197739D01*
X37973Y182570D02*
X38140Y182737D01*
X38473D01*
X38639Y182570D01*
Y181904D01*
X38473Y181737D01*
X38140D01*
X37973Y181904D01*
Y182570D01*
X38973Y181737D02*
Y181904D01*
X39139D01*
Y181737D01*
X38973D01*
X39806D02*
X40139D01*
X39972D01*
Y182737D01*
X39806Y182570D01*
X40639Y182403D02*
Y181904D01*
X40805Y181737D01*
X41305D01*
Y182403D01*
X42305Y182737D02*
X41638D01*
Y182237D01*
X41972D01*
X41638D01*
Y181737D01*
X39751Y193619D02*
X39918Y193786D01*
X40251D01*
X40417Y193619D01*
Y192953D01*
X40251Y192786D01*
X39918D01*
X39751Y192953D01*
Y193619D01*
X40751Y192786D02*
Y192953D01*
X40917D01*
Y192786D01*
X40751D01*
X41584D02*
X41917D01*
X41750D01*
Y193786D01*
X41584Y193619D01*
X42417Y193452D02*
Y192953D01*
X42583Y192786D01*
X43083D01*
Y193452D01*
X44083Y193786D02*
X43416D01*
Y193286D01*
X43750D01*
X43416D01*
Y192786D01*
X25019Y199842D02*
X25186Y200009D01*
X25519D01*
X25685Y199842D01*
Y199176D01*
X25519Y199009D01*
X25186D01*
X25019Y199176D01*
Y199842D01*
X26019Y199009D02*
Y199176D01*
X26185D01*
Y199009D01*
X26019D01*
X26852D02*
X27185D01*
X27018D01*
Y200009D01*
X26852Y199842D01*
X27685Y199675D02*
Y199176D01*
X27851Y199009D01*
X28351D01*
Y199675D01*
X29351Y200009D02*
X28684D01*
Y199509D01*
X29018D01*
X28684D01*
Y199009D01*
X34544Y192532D02*
X34877D01*
X34711D01*
Y193532D01*
X34544Y193365D01*
X35377Y192532D02*
Y192699D01*
X35544D01*
Y192532D01*
X35377D01*
X36877Y193532D02*
X36543Y193365D01*
X36210Y193032D01*
Y192699D01*
X36377Y192532D01*
X36710D01*
X36877Y192699D01*
Y192865D01*
X36710Y193032D01*
X36210D01*
X37210Y192532D02*
Y193198D01*
X37710D01*
X37876Y193032D01*
Y192532D01*
X38876Y193532D02*
X38209D01*
Y193032D01*
X38543D01*
X38209D01*
Y192532D01*
X35560Y181356D02*
Y181689D01*
Y181523D01*
X34560D01*
X34727Y181356D01*
X34560Y182856D02*
X34727Y182522D01*
X35060Y182189D01*
X35393D01*
X35560Y182356D01*
Y182689D01*
X35393Y182856D01*
X35227D01*
X35060Y182689D01*
Y182189D01*
X34727Y183189D02*
X34560Y183355D01*
Y183689D01*
X34727Y183855D01*
X35393D01*
X35560Y183689D01*
Y183355D01*
X35393Y183189D01*
X34727D01*
X35893Y184188D02*
X34894D01*
Y184688D01*
X35060Y184855D01*
X35393D01*
X35560Y184688D01*
Y184188D01*
X34560Y185855D02*
Y185188D01*
X35060D01*
Y185521D01*
Y185188D01*
X35560D01*
X65786Y114173D02*
X66294D01*
X66040D01*
Y115697D01*
X65786Y115443D01*
X67056D02*
X67310Y115697D01*
X67817D01*
X68071Y115443D01*
Y114427D01*
X67817Y114173D01*
X67310D01*
X67056Y114427D01*
Y115443D01*
X68579Y115189D02*
Y114427D01*
X68833Y114173D01*
X69595D01*
Y115189D01*
X71118Y115697D02*
X70103D01*
Y114935D01*
X70610D01*
X70103D01*
Y114173D01*
X35052Y35179D02*
Y35512D01*
Y35346D01*
X34052D01*
X34219Y35179D01*
X34052Y36679D02*
X34219Y36345D01*
X34552Y36012D01*
X34885D01*
X35052Y36179D01*
Y36512D01*
X34885Y36679D01*
X34719D01*
X34552Y36512D01*
Y36012D01*
X34219Y37012D02*
X34052Y37178D01*
Y37512D01*
X34219Y37678D01*
X34885D01*
X35052Y37512D01*
Y37178D01*
X34885Y37012D01*
X34219D01*
X35385Y38011D02*
X34386D01*
Y38511D01*
X34552Y38678D01*
X34885D01*
X35052Y38511D01*
Y38011D01*
X34052Y39678D02*
Y39011D01*
X34552D01*
Y39344D01*
Y39011D01*
X35052D01*
X34036Y46355D02*
X34369D01*
X34203D01*
Y47355D01*
X34036Y47188D01*
X34869Y46355D02*
Y46522D01*
X35036D01*
Y46355D01*
X34869D01*
X36369Y47355D02*
X36035Y47188D01*
X35702Y46855D01*
Y46522D01*
X35869Y46355D01*
X36202D01*
X36369Y46522D01*
Y46688D01*
X36202Y46855D01*
X35702D01*
X36702Y46355D02*
Y47021D01*
X37202D01*
X37368Y46855D01*
Y46355D01*
X38368Y47355D02*
X37701D01*
Y46855D01*
X38035D01*
X37701D01*
Y46355D01*
X24511Y53665D02*
X24678Y53832D01*
X25011D01*
X25177Y53665D01*
Y52999D01*
X25011Y52832D01*
X24678D01*
X24511Y52999D01*
Y53665D01*
X25511Y52832D02*
Y52999D01*
X25677D01*
Y52832D01*
X25511D01*
X26344D02*
X26677D01*
X26510D01*
Y53832D01*
X26344Y53665D01*
X27177Y53498D02*
Y52999D01*
X27343Y52832D01*
X27843D01*
Y53498D01*
X28843Y53832D02*
X28176D01*
Y53332D01*
X28510D01*
X28176D01*
Y52832D01*
X39243Y47442D02*
X39410Y47609D01*
X39743D01*
X39909Y47442D01*
Y46776D01*
X39743Y46609D01*
X39410D01*
X39243Y46776D01*
Y47442D01*
X40243Y46609D02*
Y46776D01*
X40409D01*
Y46609D01*
X40243D01*
X41076D02*
X41409D01*
X41242D01*
Y47609D01*
X41076Y47442D01*
X41909Y47275D02*
Y46776D01*
X42075Y46609D01*
X42575D01*
Y47275D01*
X43575Y47609D02*
X42908D01*
Y47109D01*
X43242D01*
X42908D01*
Y46609D01*
X37465Y36393D02*
X37632Y36560D01*
X37965D01*
X38131Y36393D01*
Y35727D01*
X37965Y35560D01*
X37632D01*
X37465Y35727D01*
Y36393D01*
X38465Y35560D02*
Y35727D01*
X38631D01*
Y35560D01*
X38465D01*
X39298D02*
X39631D01*
X39464D01*
Y36560D01*
X39298Y36393D01*
X40131Y36226D02*
Y35727D01*
X40297Y35560D01*
X40797D01*
Y36226D01*
X41797Y36560D02*
X41130D01*
Y36060D01*
X41464D01*
X41130D01*
Y35560D01*
X75311Y52395D02*
X75478Y52562D01*
X75811D01*
X75977Y52395D01*
Y51729D01*
X75811Y51562D01*
X75478D01*
X75311Y51729D01*
Y52395D01*
X76311Y51562D02*
Y51729D01*
X76477D01*
Y51562D01*
X76311D01*
X77144D02*
X77477D01*
X77310D01*
Y52562D01*
X77144Y52395D01*
X77977Y52228D02*
Y51729D01*
X78143Y51562D01*
X78643D01*
Y52228D01*
X79643Y52562D02*
X78976D01*
Y52062D01*
X79310D01*
X78976D01*
Y51562D01*
X69723Y44648D02*
X69890Y44815D01*
X70223D01*
X70389Y44648D01*
Y43982D01*
X70223Y43815D01*
X69890D01*
X69723Y43982D01*
Y44648D01*
X70723Y43815D02*
Y43982D01*
X70889D01*
Y43815D01*
X70723D01*
X71556D02*
X71889D01*
X71722D01*
Y44815D01*
X71556Y44648D01*
X72389Y44481D02*
Y43982D01*
X72555Y43815D01*
X73055D01*
Y44481D01*
X74055Y44815D02*
X73388D01*
Y44315D01*
X73722D01*
X73388D01*
Y43815D01*
X63881Y32964D02*
X64048Y33131D01*
X64381D01*
X64547Y32964D01*
Y32298D01*
X64381Y32131D01*
X64048D01*
X63881Y32298D01*
Y32964D01*
X64881Y32131D02*
Y32298D01*
X65047D01*
Y32131D01*
X64881D01*
X65714D02*
X66047D01*
X65880D01*
Y33131D01*
X65714Y32964D01*
X66547Y32797D02*
Y32298D01*
X66713Y32131D01*
X67213D01*
Y32797D01*
X68213Y33131D02*
X67546D01*
Y32631D01*
X67880D01*
X67546D01*
Y32131D01*
X35560Y51308D02*
Y51641D01*
Y51475D01*
X34560D01*
X34727Y51308D01*
Y52141D02*
X34560Y52308D01*
Y52641D01*
X34727Y52808D01*
X35393D01*
X35560Y52641D01*
Y52308D01*
X35393Y52141D01*
X34727D01*
X35560Y53141D02*
X34894D01*
Y53641D01*
X35060Y53807D01*
X35560D01*
X34560Y54807D02*
Y54140D01*
X35060D01*
Y54474D01*
Y54140D01*
X35560D01*
X36759Y51308D02*
X36592Y51475D01*
Y51808D01*
X36759Y51974D01*
X37425D01*
X37592Y51808D01*
Y51475D01*
X37425Y51308D01*
X36759D01*
X37592Y52308D02*
X37425D01*
Y52474D01*
X37592D01*
Y52308D01*
Y53141D02*
Y53474D01*
Y53307D01*
X36592D01*
X36759Y53141D01*
X36926Y53974D02*
X37425D01*
X37592Y54140D01*
Y54640D01*
X36926D01*
X36592Y55640D02*
Y54973D01*
X37092D01*
Y55307D01*
Y54973D01*
X37592D01*
X39878Y51181D02*
Y51514D01*
Y51348D01*
X38878D01*
X39045Y51181D01*
Y52014D02*
X38878Y52181D01*
Y52514D01*
X39045Y52681D01*
X39711D01*
X39878Y52514D01*
Y52181D01*
X39711Y52014D01*
X39045D01*
X39212Y53014D02*
X39711D01*
X39878Y53180D01*
Y53680D01*
X39212D01*
X38878Y54680D02*
Y54013D01*
X39378D01*
Y54347D01*
Y54013D01*
X39878D01*
X54666Y32766D02*
X54499Y32933D01*
Y33266D01*
X54666Y33432D01*
X55332D01*
X55499Y33266D01*
Y32933D01*
X55332Y32766D01*
X54666D01*
X55499Y33766D02*
X55332D01*
Y33932D01*
X55499D01*
Y33766D01*
Y34599D02*
Y34932D01*
Y34765D01*
X54499D01*
X54666Y34599D01*
X54833Y35432D02*
X55332D01*
X55499Y35598D01*
Y36098D01*
X54833D01*
X54499Y37098D02*
Y36431D01*
X54999D01*
Y36765D01*
Y36431D01*
X55499D01*
X53213Y33147D02*
Y33480D01*
Y33314D01*
X52213D01*
X52380Y33147D01*
Y33980D02*
X52213Y34147D01*
Y34480D01*
X52380Y34647D01*
X53046D01*
X53213Y34480D01*
Y34147D01*
X53046Y33980D01*
X52380D01*
X52547Y34980D02*
X53046D01*
X53213Y35146D01*
Y35646D01*
X52547D01*
X52213Y36646D02*
Y35979D01*
X52713D01*
Y36313D01*
Y35979D01*
X53213D01*
X55372Y43251D02*
X55539Y43418D01*
X55872D01*
X56038Y43251D01*
Y42585D01*
X55872Y42418D01*
X55539D01*
X55372Y42585D01*
Y43251D01*
X56372Y42418D02*
Y42585D01*
X56538D01*
Y42418D01*
X56372D01*
X57205D02*
X57538D01*
X57371D01*
Y43418D01*
X57205Y43251D01*
X58038Y43084D02*
Y42585D01*
X58204Y42418D01*
X58704D01*
Y43084D01*
X59704Y43418D02*
X59037D01*
Y42918D01*
X59371D01*
X59037D01*
Y42418D01*
X51816Y42164D02*
Y42497D01*
Y42331D01*
X50816D01*
X50983Y42164D01*
Y42997D02*
X50816Y43164D01*
Y43497D01*
X50983Y43664D01*
X51649D01*
X51816Y43497D01*
Y43164D01*
X51649Y42997D01*
X50983D01*
X51150Y43997D02*
X51649D01*
X51816Y44163D01*
Y44663D01*
X51150D01*
X50816Y45663D02*
Y44996D01*
X51316D01*
Y45330D01*
Y44996D01*
X51816D01*
X97694Y50276D02*
X97028D01*
Y49776D01*
X97361Y49942D01*
X97528D01*
X97694Y49776D01*
Y49443D01*
X97528Y49276D01*
X97195D01*
X97028Y49443D01*
X98028Y50109D02*
X98194Y50276D01*
X98528D01*
X98694Y50109D01*
Y49443D01*
X98528Y49276D01*
X98194D01*
X98028Y49443D01*
Y50109D01*
X99027Y49276D02*
Y50276D01*
Y49609D02*
X99527Y49942D01*
X99027Y49609D02*
X99527Y49276D01*
X30861Y33782D02*
Y34115D01*
Y33949D01*
X29861D01*
X30028Y33782D01*
X30861Y34615D02*
X30694D01*
Y34782D01*
X30861D01*
Y34615D01*
Y35448D02*
Y35781D01*
Y35615D01*
X29861D01*
X30028Y35448D01*
Y36281D02*
X29861Y36448D01*
Y36781D01*
X30028Y36948D01*
X30195D01*
X30361Y36781D01*
Y36614D01*
Y36781D01*
X30528Y36948D01*
X30694D01*
X30861Y36781D01*
Y36448D01*
X30694Y36281D01*
X30861Y37281D02*
X29861D01*
X30528D02*
X30195Y37781D01*
X30528Y37281D02*
X30861Y37781D01*
X27813Y44902D02*
X27980Y45069D01*
X28313D01*
X28479Y44902D01*
Y44735D01*
X28313Y44569D01*
X28479Y44402D01*
Y44236D01*
X28313Y44069D01*
X27980D01*
X27813Y44236D01*
Y44402D01*
X27980Y44569D01*
X27813Y44735D01*
Y44902D01*
X27980Y44569D02*
X28313D01*
X28813Y44069D02*
Y44236D01*
X28979D01*
Y44069D01*
X28813D01*
X29646Y44902D02*
X29812Y45069D01*
X30146D01*
X30312Y44902D01*
Y44735D01*
X30146Y44569D01*
X30312Y44402D01*
Y44236D01*
X30146Y44069D01*
X29812D01*
X29646Y44236D01*
Y44402D01*
X29812Y44569D01*
X29646Y44735D01*
Y44902D01*
X29812Y44569D02*
X30146D01*
X30645Y45069D02*
X31312D01*
Y44902D01*
X30645Y44236D01*
Y44069D01*
X31645D02*
Y45069D01*
Y44402D02*
X32145Y44735D01*
X31645Y44402D02*
X32145Y44069D01*
X95789Y50800D02*
X95123D01*
X95789Y51466D01*
Y51633D01*
X95623Y51800D01*
X95290D01*
X95123Y51633D01*
X96123D02*
X96289Y51800D01*
X96623D01*
X96789Y51633D01*
Y50967D01*
X96623Y50800D01*
X96289D01*
X96123Y50967D01*
Y51633D01*
X97122Y50800D02*
Y51800D01*
Y51133D02*
X97622Y51466D01*
X97122Y51133D02*
X97622Y50800D01*
X60579Y53721D02*
X60912D01*
X60746D01*
Y54721D01*
X60579Y54554D01*
X61412D02*
X61579Y54721D01*
X61912D01*
X62079Y54554D01*
Y53888D01*
X61912Y53721D01*
X61579D01*
X61412Y53888D01*
Y54554D01*
X62412D02*
X62578Y54721D01*
X62912D01*
X63078Y54554D01*
Y53888D01*
X62912Y53721D01*
X62578D01*
X62412Y53888D01*
Y54554D01*
X63411Y54721D02*
Y53721D01*
Y54054D01*
X64078Y54721D01*
X63578Y54221D01*
X64078Y53721D01*
X93472Y52451D02*
X93805D01*
X93639D01*
Y53451D01*
X93472Y53284D01*
X94305D02*
X94472Y53451D01*
X94805D01*
X94972Y53284D01*
Y52618D01*
X94805Y52451D01*
X94472D01*
X94305Y52618D01*
Y53284D01*
X95305Y52451D02*
Y53451D01*
Y52784D02*
X95805Y53117D01*
X95305Y52784D02*
X95805Y52451D01*
X93122Y54975D02*
X92456D01*
Y54475D01*
X92789Y54641D01*
X92956D01*
X93122Y54475D01*
Y54142D01*
X92956Y53975D01*
X92623D01*
X92456Y54142D01*
X93456Y53975D02*
Y54975D01*
Y54308D02*
X93956Y54641D01*
X93456Y54308D02*
X93956Y53975D01*
X35052Y59374D02*
Y59707D01*
Y59541D01*
X34052D01*
X34219Y59374D01*
X34052Y60874D02*
X34219Y60540D01*
X34552Y60207D01*
X34885D01*
X35052Y60374D01*
Y60707D01*
X34885Y60874D01*
X34719D01*
X34552Y60707D01*
Y60207D01*
X34219Y61207D02*
X34052Y61373D01*
Y61707D01*
X34219Y61873D01*
X34885D01*
X35052Y61707D01*
Y61373D01*
X34885Y61207D01*
X34219D01*
X35385Y62206D02*
X34386D01*
Y62706D01*
X34552Y62873D01*
X34885D01*
X35052Y62706D01*
Y62206D01*
X34052Y63873D02*
Y63206D01*
X34552D01*
Y63539D01*
Y63206D01*
X35052D01*
X34036Y70550D02*
X34369D01*
X34203D01*
Y71550D01*
X34036Y71383D01*
X34869Y70550D02*
Y70717D01*
X35036D01*
Y70550D01*
X34869D01*
X36369Y71550D02*
X36035Y71383D01*
X35702Y71050D01*
Y70717D01*
X35869Y70550D01*
X36202D01*
X36369Y70717D01*
Y70883D01*
X36202Y71050D01*
X35702D01*
X36702Y70550D02*
Y71216D01*
X37202D01*
X37368Y71050D01*
Y70550D01*
X38368Y71550D02*
X37701D01*
Y71050D01*
X38035D01*
X37701D01*
Y70550D01*
X24511Y77860D02*
X24678Y78027D01*
X25011D01*
X25177Y77860D01*
Y77194D01*
X25011Y77027D01*
X24678D01*
X24511Y77194D01*
Y77860D01*
X25511Y77027D02*
Y77194D01*
X25677D01*
Y77027D01*
X25511D01*
X26344D02*
X26677D01*
X26510D01*
Y78027D01*
X26344Y77860D01*
X27177Y77693D02*
Y77194D01*
X27343Y77027D01*
X27843D01*
Y77693D01*
X28843Y78027D02*
X28176D01*
Y77527D01*
X28510D01*
X28176D01*
Y77027D01*
X39243Y71637D02*
X39410Y71804D01*
X39743D01*
X39909Y71637D01*
Y70971D01*
X39743Y70804D01*
X39410D01*
X39243Y70971D01*
Y71637D01*
X40243Y70804D02*
Y70971D01*
X40409D01*
Y70804D01*
X40243D01*
X41076D02*
X41409D01*
X41242D01*
Y71804D01*
X41076Y71637D01*
X41909Y71470D02*
Y70971D01*
X42075Y70804D01*
X42575D01*
Y71470D01*
X43575Y71804D02*
X42908D01*
Y71304D01*
X43242D01*
X42908D01*
Y70804D01*
X37465Y60588D02*
X37632Y60755D01*
X37965D01*
X38131Y60588D01*
Y59922D01*
X37965Y59755D01*
X37632D01*
X37465Y59922D01*
Y60588D01*
X38465Y59755D02*
Y59922D01*
X38631D01*
Y59755D01*
X38465D01*
X39298D02*
X39631D01*
X39464D01*
Y60755D01*
X39298Y60588D01*
X40131Y60421D02*
Y59922D01*
X40297Y59755D01*
X40797D01*
Y60421D01*
X41797Y60755D02*
X41130D01*
Y60255D01*
X41464D01*
X41130D01*
Y59755D01*
X75311Y76590D02*
X75478Y76757D01*
X75811D01*
X75977Y76590D01*
Y75924D01*
X75811Y75757D01*
X75478D01*
X75311Y75924D01*
Y76590D01*
X76311Y75757D02*
Y75924D01*
X76477D01*
Y75757D01*
X76311D01*
X77144D02*
X77477D01*
X77310D01*
Y76757D01*
X77144Y76590D01*
X77977Y76423D02*
Y75924D01*
X78143Y75757D01*
X78643D01*
Y76423D01*
X79643Y76757D02*
X78976D01*
Y76257D01*
X79310D01*
X78976D01*
Y75757D01*
X69723Y68843D02*
X69890Y69010D01*
X70223D01*
X70389Y68843D01*
Y68177D01*
X70223Y68010D01*
X69890D01*
X69723Y68177D01*
Y68843D01*
X70723Y68010D02*
Y68177D01*
X70889D01*
Y68010D01*
X70723D01*
X71556D02*
X71889D01*
X71722D01*
Y69010D01*
X71556Y68843D01*
X72389Y68676D02*
Y68177D01*
X72555Y68010D01*
X73055D01*
Y68676D01*
X74055Y69010D02*
X73388D01*
Y68510D01*
X73722D01*
X73388D01*
Y68010D01*
X63881Y57159D02*
X64048Y57326D01*
X64381D01*
X64547Y57159D01*
Y56493D01*
X64381Y56326D01*
X64048D01*
X63881Y56493D01*
Y57159D01*
X64881Y56326D02*
Y56493D01*
X65047D01*
Y56326D01*
X64881D01*
X65714D02*
X66047D01*
X65880D01*
Y57326D01*
X65714Y57159D01*
X66547Y56992D02*
Y56493D01*
X66713Y56326D01*
X67213D01*
Y56992D01*
X68213Y57326D02*
X67546D01*
Y56826D01*
X67880D01*
X67546D01*
Y56326D01*
X35560Y75503D02*
Y75836D01*
Y75670D01*
X34560D01*
X34727Y75503D01*
Y76336D02*
X34560Y76503D01*
Y76836D01*
X34727Y77003D01*
X35393D01*
X35560Y76836D01*
Y76503D01*
X35393Y76336D01*
X34727D01*
X35560Y77336D02*
X34894D01*
Y77836D01*
X35060Y78002D01*
X35560D01*
X34560Y79002D02*
Y78335D01*
X35060D01*
Y78669D01*
Y78335D01*
X35560D01*
X36759Y75503D02*
X36592Y75670D01*
Y76003D01*
X36759Y76169D01*
X37425D01*
X37592Y76003D01*
Y75670D01*
X37425Y75503D01*
X36759D01*
X37592Y76503D02*
X37425D01*
Y76669D01*
X37592D01*
Y76503D01*
Y77336D02*
Y77669D01*
Y77502D01*
X36592D01*
X36759Y77336D01*
X36926Y78169D02*
X37425D01*
X37592Y78335D01*
Y78835D01*
X36926D01*
X36592Y79835D02*
Y79168D01*
X37092D01*
Y79502D01*
Y79168D01*
X37592D01*
X39878Y75376D02*
Y75709D01*
Y75543D01*
X38878D01*
X39045Y75376D01*
Y76209D02*
X38878Y76376D01*
Y76709D01*
X39045Y76876D01*
X39711D01*
X39878Y76709D01*
Y76376D01*
X39711Y76209D01*
X39045D01*
X39212Y77209D02*
X39711D01*
X39878Y77375D01*
Y77875D01*
X39212D01*
X38878Y78875D02*
Y78208D01*
X39378D01*
Y78542D01*
Y78208D01*
X39878D01*
X54666Y56961D02*
X54499Y57128D01*
Y57461D01*
X54666Y57627D01*
X55332D01*
X55499Y57461D01*
Y57128D01*
X55332Y56961D01*
X54666D01*
X55499Y57961D02*
X55332D01*
Y58127D01*
X55499D01*
Y57961D01*
Y58794D02*
Y59127D01*
Y58960D01*
X54499D01*
X54666Y58794D01*
X54833Y59627D02*
X55332D01*
X55499Y59793D01*
Y60293D01*
X54833D01*
X54499Y61293D02*
Y60626D01*
X54999D01*
Y60960D01*
Y60626D01*
X55499D01*
X53213Y57342D02*
Y57675D01*
Y57509D01*
X52213D01*
X52380Y57342D01*
Y58175D02*
X52213Y58342D01*
Y58675D01*
X52380Y58842D01*
X53046D01*
X53213Y58675D01*
Y58342D01*
X53046Y58175D01*
X52380D01*
X52547Y59175D02*
X53046D01*
X53213Y59341D01*
Y59841D01*
X52547D01*
X52213Y60841D02*
Y60174D01*
X52713D01*
Y60508D01*
Y60174D01*
X53213D01*
X55372Y67446D02*
X55539Y67613D01*
X55872D01*
X56038Y67446D01*
Y66780D01*
X55872Y66613D01*
X55539D01*
X55372Y66780D01*
Y67446D01*
X56372Y66613D02*
Y66780D01*
X56538D01*
Y66613D01*
X56372D01*
X57205D02*
X57538D01*
X57371D01*
Y67613D01*
X57205Y67446D01*
X58038Y67279D02*
Y66780D01*
X58204Y66613D01*
X58704D01*
Y67279D01*
X59704Y67613D02*
X59037D01*
Y67113D01*
X59371D01*
X59037D01*
Y66613D01*
X51816Y66359D02*
Y66692D01*
Y66526D01*
X50816D01*
X50983Y66359D01*
Y67192D02*
X50816Y67359D01*
Y67692D01*
X50983Y67859D01*
X51649D01*
X51816Y67692D01*
Y67359D01*
X51649Y67192D01*
X50983D01*
X51150Y68192D02*
X51649D01*
X51816Y68358D01*
Y68858D01*
X51150D01*
X50816Y69858D02*
Y69191D01*
X51316D01*
Y69525D01*
Y69191D01*
X51816D01*
X97694Y74471D02*
X97028D01*
Y73971D01*
X97361Y74137D01*
X97528D01*
X97694Y73971D01*
Y73638D01*
X97528Y73471D01*
X97195D01*
X97028Y73638D01*
X98028Y74304D02*
X98194Y74471D01*
X98528D01*
X98694Y74304D01*
Y73638D01*
X98528Y73471D01*
X98194D01*
X98028Y73638D01*
Y74304D01*
X99027Y73471D02*
Y74471D01*
Y73804D02*
X99527Y74137D01*
X99027Y73804D02*
X99527Y73471D01*
X30861Y57977D02*
Y58310D01*
Y58144D01*
X29861D01*
X30028Y57977D01*
X30861Y58810D02*
X30694D01*
Y58977D01*
X30861D01*
Y58810D01*
Y59643D02*
Y59976D01*
Y59810D01*
X29861D01*
X30028Y59643D01*
Y60476D02*
X29861Y60643D01*
Y60976D01*
X30028Y61143D01*
X30195D01*
X30361Y60976D01*
Y60809D01*
Y60976D01*
X30528Y61143D01*
X30694D01*
X30861Y60976D01*
Y60643D01*
X30694Y60476D01*
X30861Y61476D02*
X29861D01*
X30528D02*
X30195Y61976D01*
X30528Y61476D02*
X30861Y61976D01*
X27813Y69097D02*
X27980Y69264D01*
X28313D01*
X28479Y69097D01*
Y68930D01*
X28313Y68764D01*
X28479Y68597D01*
Y68431D01*
X28313Y68264D01*
X27980D01*
X27813Y68431D01*
Y68597D01*
X27980Y68764D01*
X27813Y68930D01*
Y69097D01*
X27980Y68764D02*
X28313D01*
X28813Y68264D02*
Y68431D01*
X28979D01*
Y68264D01*
X28813D01*
X29646Y69097D02*
X29812Y69264D01*
X30146D01*
X30312Y69097D01*
Y68930D01*
X30146Y68764D01*
X30312Y68597D01*
Y68431D01*
X30146Y68264D01*
X29812D01*
X29646Y68431D01*
Y68597D01*
X29812Y68764D01*
X29646Y68930D01*
Y69097D01*
X29812Y68764D02*
X30146D01*
X30645Y69264D02*
X31312D01*
Y69097D01*
X30645Y68431D01*
Y68264D01*
X31645D02*
Y69264D01*
Y68597D02*
X32145Y68930D01*
X31645Y68597D02*
X32145Y68264D01*
X48514Y60325D02*
Y60658D01*
Y60492D01*
X47514D01*
X47681Y60325D01*
Y61158D02*
X47514Y61325D01*
Y61658D01*
X47681Y61825D01*
X48347D01*
X48514Y61658D01*
Y61325D01*
X48347Y61158D01*
X47681D01*
X48514Y62158D02*
X47514D01*
X48181D02*
X47848Y62658D01*
X48181Y62158D02*
X48514Y62658D01*
X95789Y74995D02*
X95123D01*
X95789Y75661D01*
Y75828D01*
X95623Y75995D01*
X95290D01*
X95123Y75828D01*
X96123D02*
X96289Y75995D01*
X96623D01*
X96789Y75828D01*
Y75162D01*
X96623Y74995D01*
X96289D01*
X96123Y75162D01*
Y75828D01*
X97122Y74995D02*
Y75995D01*
Y75328D02*
X97622Y75661D01*
X97122Y75328D02*
X97622Y74995D01*
X60579Y77916D02*
X60912D01*
X60746D01*
Y78916D01*
X60579Y78749D01*
X61412D02*
X61579Y78916D01*
X61912D01*
X62079Y78749D01*
Y78083D01*
X61912Y77916D01*
X61579D01*
X61412Y78083D01*
Y78749D01*
X62412D02*
X62578Y78916D01*
X62912D01*
X63078Y78749D01*
Y78083D01*
X62912Y77916D01*
X62578D01*
X62412Y78083D01*
Y78749D01*
X63411Y78916D02*
Y77916D01*
Y78249D01*
X64078Y78916D01*
X63578Y78416D01*
X64078Y77916D01*
X93472Y76646D02*
X93805D01*
X93639D01*
Y77646D01*
X93472Y77479D01*
X94305D02*
X94472Y77646D01*
X94805D01*
X94972Y77479D01*
Y76813D01*
X94805Y76646D01*
X94472D01*
X94305Y76813D01*
Y77479D01*
X95305Y76646D02*
Y77646D01*
Y76979D02*
X95805Y77312D01*
X95305Y76979D02*
X95805Y76646D01*
X93122Y79170D02*
X92456D01*
Y78670D01*
X92789Y78836D01*
X92956D01*
X93122Y78670D01*
Y78337D01*
X92956Y78170D01*
X92623D01*
X92456Y78337D01*
X93456Y78170D02*
Y79170D01*
Y78503D02*
X93956Y78836D01*
X93456Y78503D02*
X93956Y78170D01*
X35052Y83631D02*
Y83964D01*
Y83798D01*
X34052D01*
X34219Y83631D01*
X34052Y85131D02*
X34219Y84797D01*
X34552Y84464D01*
X34885D01*
X35052Y84631D01*
Y84964D01*
X34885Y85131D01*
X34719D01*
X34552Y84964D01*
Y84464D01*
X34219Y85464D02*
X34052Y85630D01*
Y85964D01*
X34219Y86130D01*
X34885D01*
X35052Y85964D01*
Y85630D01*
X34885Y85464D01*
X34219D01*
X35385Y86463D02*
X34386D01*
Y86963D01*
X34552Y87130D01*
X34885D01*
X35052Y86963D01*
Y86463D01*
X34052Y88130D02*
Y87463D01*
X34552D01*
Y87796D01*
Y87463D01*
X35052D01*
X34036Y94807D02*
X34369D01*
X34203D01*
Y95807D01*
X34036Y95640D01*
X34869Y94807D02*
Y94974D01*
X35036D01*
Y94807D01*
X34869D01*
X36369Y95807D02*
X36035Y95640D01*
X35702Y95307D01*
Y94974D01*
X35869Y94807D01*
X36202D01*
X36369Y94974D01*
Y95140D01*
X36202Y95307D01*
X35702D01*
X36702Y94807D02*
Y95473D01*
X37202D01*
X37368Y95307D01*
Y94807D01*
X38368Y95807D02*
X37701D01*
Y95307D01*
X38035D01*
X37701D01*
Y94807D01*
X24511Y102117D02*
X24678Y102284D01*
X25011D01*
X25177Y102117D01*
Y101451D01*
X25011Y101284D01*
X24678D01*
X24511Y101451D01*
Y102117D01*
X25511Y101284D02*
Y101451D01*
X25677D01*
Y101284D01*
X25511D01*
X26344D02*
X26677D01*
X26510D01*
Y102284D01*
X26344Y102117D01*
X27177Y101950D02*
Y101451D01*
X27343Y101284D01*
X27843D01*
Y101950D01*
X28843Y102284D02*
X28176D01*
Y101784D01*
X28510D01*
X28176D01*
Y101284D01*
X39243Y95894D02*
X39410Y96061D01*
X39743D01*
X39909Y95894D01*
Y95228D01*
X39743Y95061D01*
X39410D01*
X39243Y95228D01*
Y95894D01*
X40243Y95061D02*
Y95228D01*
X40409D01*
Y95061D01*
X40243D01*
X41076D02*
X41409D01*
X41242D01*
Y96061D01*
X41076Y95894D01*
X41909Y95727D02*
Y95228D01*
X42075Y95061D01*
X42575D01*
Y95727D01*
X43575Y96061D02*
X42908D01*
Y95561D01*
X43242D01*
X42908D01*
Y95061D01*
X37465Y84845D02*
X37632Y85012D01*
X37965D01*
X38131Y84845D01*
Y84179D01*
X37965Y84012D01*
X37632D01*
X37465Y84179D01*
Y84845D01*
X38465Y84012D02*
Y84179D01*
X38631D01*
Y84012D01*
X38465D01*
X39298D02*
X39631D01*
X39464D01*
Y85012D01*
X39298Y84845D01*
X40131Y84678D02*
Y84179D01*
X40297Y84012D01*
X40797D01*
Y84678D01*
X41797Y85012D02*
X41130D01*
Y84512D01*
X41464D01*
X41130D01*
Y84012D01*
X75311Y100847D02*
X75478Y101014D01*
X75811D01*
X75977Y100847D01*
Y100181D01*
X75811Y100014D01*
X75478D01*
X75311Y100181D01*
Y100847D01*
X76311Y100014D02*
Y100181D01*
X76477D01*
Y100014D01*
X76311D01*
X77144D02*
X77477D01*
X77310D01*
Y101014D01*
X77144Y100847D01*
X77977Y100680D02*
Y100181D01*
X78143Y100014D01*
X78643D01*
Y100680D01*
X79643Y101014D02*
X78976D01*
Y100514D01*
X79310D01*
X78976D01*
Y100014D01*
X69723Y93100D02*
X69890Y93267D01*
X70223D01*
X70389Y93100D01*
Y92434D01*
X70223Y92267D01*
X69890D01*
X69723Y92434D01*
Y93100D01*
X70723Y92267D02*
Y92434D01*
X70889D01*
Y92267D01*
X70723D01*
X71556D02*
X71889D01*
X71722D01*
Y93267D01*
X71556Y93100D01*
X72389Y92933D02*
Y92434D01*
X72555Y92267D01*
X73055D01*
Y92933D01*
X74055Y93267D02*
X73388D01*
Y92767D01*
X73722D01*
X73388D01*
Y92267D01*
X63881Y81416D02*
X64048Y81583D01*
X64381D01*
X64547Y81416D01*
Y80750D01*
X64381Y80583D01*
X64048D01*
X63881Y80750D01*
Y81416D01*
X64881Y80583D02*
Y80750D01*
X65047D01*
Y80583D01*
X64881D01*
X65714D02*
X66047D01*
X65880D01*
Y81583D01*
X65714Y81416D01*
X66547Y81249D02*
Y80750D01*
X66713Y80583D01*
X67213D01*
Y81249D01*
X68213Y81583D02*
X67546D01*
Y81083D01*
X67880D01*
X67546D01*
Y80583D01*
X35560Y99760D02*
Y100093D01*
Y99927D01*
X34560D01*
X34727Y99760D01*
Y100593D02*
X34560Y100760D01*
Y101093D01*
X34727Y101260D01*
X35393D01*
X35560Y101093D01*
Y100760D01*
X35393Y100593D01*
X34727D01*
X35560Y101593D02*
X34894D01*
Y102093D01*
X35060Y102259D01*
X35560D01*
X34560Y103259D02*
Y102592D01*
X35060D01*
Y102926D01*
Y102592D01*
X35560D01*
X36759Y99760D02*
X36592Y99927D01*
Y100260D01*
X36759Y100426D01*
X37425D01*
X37592Y100260D01*
Y99927D01*
X37425Y99760D01*
X36759D01*
X37592Y100760D02*
X37425D01*
Y100926D01*
X37592D01*
Y100760D01*
Y101593D02*
Y101926D01*
Y101759D01*
X36592D01*
X36759Y101593D01*
X36926Y102426D02*
X37425D01*
X37592Y102592D01*
Y103092D01*
X36926D01*
X36592Y104092D02*
Y103425D01*
X37092D01*
Y103759D01*
Y103425D01*
X37592D01*
X39878Y99633D02*
Y99966D01*
Y99800D01*
X38878D01*
X39045Y99633D01*
Y100466D02*
X38878Y100633D01*
Y100966D01*
X39045Y101133D01*
X39711D01*
X39878Y100966D01*
Y100633D01*
X39711Y100466D01*
X39045D01*
X39212Y101466D02*
X39711D01*
X39878Y101632D01*
Y102132D01*
X39212D01*
X38878Y103132D02*
Y102465D01*
X39378D01*
Y102799D01*
Y102465D01*
X39878D01*
X54666Y81218D02*
X54499Y81385D01*
Y81718D01*
X54666Y81884D01*
X55332D01*
X55499Y81718D01*
Y81385D01*
X55332Y81218D01*
X54666D01*
X55499Y82218D02*
X55332D01*
Y82384D01*
X55499D01*
Y82218D01*
Y83051D02*
Y83384D01*
Y83217D01*
X54499D01*
X54666Y83051D01*
X54833Y83884D02*
X55332D01*
X55499Y84050D01*
Y84550D01*
X54833D01*
X54499Y85550D02*
Y84883D01*
X54999D01*
Y85217D01*
Y84883D01*
X55499D01*
X53213Y81599D02*
Y81932D01*
Y81766D01*
X52213D01*
X52380Y81599D01*
Y82432D02*
X52213Y82599D01*
Y82932D01*
X52380Y83099D01*
X53046D01*
X53213Y82932D01*
Y82599D01*
X53046Y82432D01*
X52380D01*
X52547Y83432D02*
X53046D01*
X53213Y83598D01*
Y84098D01*
X52547D01*
X52213Y85098D02*
Y84431D01*
X52713D01*
Y84765D01*
Y84431D01*
X53213D01*
X55372Y91703D02*
X55539Y91870D01*
X55872D01*
X56038Y91703D01*
Y91037D01*
X55872Y90870D01*
X55539D01*
X55372Y91037D01*
Y91703D01*
X56372Y90870D02*
Y91037D01*
X56538D01*
Y90870D01*
X56372D01*
X57205D02*
X57538D01*
X57371D01*
Y91870D01*
X57205Y91703D01*
X58038Y91536D02*
Y91037D01*
X58204Y90870D01*
X58704D01*
Y91536D01*
X59704Y91870D02*
X59037D01*
Y91370D01*
X59371D01*
X59037D01*
Y90870D01*
X51816Y90616D02*
Y90949D01*
Y90783D01*
X50816D01*
X50983Y90616D01*
Y91449D02*
X50816Y91616D01*
Y91949D01*
X50983Y92116D01*
X51649D01*
X51816Y91949D01*
Y91616D01*
X51649Y91449D01*
X50983D01*
X51150Y92449D02*
X51649D01*
X51816Y92615D01*
Y93115D01*
X51150D01*
X50816Y94115D02*
Y93448D01*
X51316D01*
Y93782D01*
Y93448D01*
X51816D01*
X97694Y98728D02*
X97028D01*
Y98228D01*
X97361Y98394D01*
X97528D01*
X97694Y98228D01*
Y97895D01*
X97528Y97728D01*
X97195D01*
X97028Y97895D01*
X98028Y98561D02*
X98194Y98728D01*
X98528D01*
X98694Y98561D01*
Y97895D01*
X98528Y97728D01*
X98194D01*
X98028Y97895D01*
Y98561D01*
X99027Y97728D02*
Y98728D01*
Y98061D02*
X99527Y98394D01*
X99027Y98061D02*
X99527Y97728D01*
X30861Y82234D02*
Y82567D01*
Y82401D01*
X29861D01*
X30028Y82234D01*
X30861Y83067D02*
X30694D01*
Y83234D01*
X30861D01*
Y83067D01*
Y83900D02*
Y84233D01*
Y84067D01*
X29861D01*
X30028Y83900D01*
Y84733D02*
X29861Y84900D01*
Y85233D01*
X30028Y85400D01*
X30195D01*
X30361Y85233D01*
Y85066D01*
Y85233D01*
X30528Y85400D01*
X30694D01*
X30861Y85233D01*
Y84900D01*
X30694Y84733D01*
X30861Y85733D02*
X29861D01*
X30528D02*
X30195Y86233D01*
X30528Y85733D02*
X30861Y86233D01*
X27813Y93354D02*
X27980Y93521D01*
X28313D01*
X28479Y93354D01*
Y93187D01*
X28313Y93021D01*
X28479Y92854D01*
Y92688D01*
X28313Y92521D01*
X27980D01*
X27813Y92688D01*
Y92854D01*
X27980Y93021D01*
X27813Y93187D01*
Y93354D01*
X27980Y93021D02*
X28313D01*
X28813Y92521D02*
Y92688D01*
X28979D01*
Y92521D01*
X28813D01*
X29646Y93354D02*
X29812Y93521D01*
X30146D01*
X30312Y93354D01*
Y93187D01*
X30146Y93021D01*
X30312Y92854D01*
Y92688D01*
X30146Y92521D01*
X29812D01*
X29646Y92688D01*
Y92854D01*
X29812Y93021D01*
X29646Y93187D01*
Y93354D01*
X29812Y93021D02*
X30146D01*
X30645Y93521D02*
X31312D01*
Y93354D01*
X30645Y92688D01*
Y92521D01*
X31645D02*
Y93521D01*
Y92854D02*
X32145Y93187D01*
X31645Y92854D02*
X32145Y92521D01*
X48514Y84074D02*
Y84407D01*
Y84241D01*
X47514D01*
X47681Y84074D01*
Y84907D02*
X47514Y85074D01*
Y85407D01*
X47681Y85574D01*
X48347D01*
X48514Y85407D01*
Y85074D01*
X48347Y84907D01*
X47681D01*
X48514Y85907D02*
X47514D01*
X48181D02*
X47848Y86407D01*
X48181Y85907D02*
X48514Y86407D01*
X95789Y99252D02*
X95123D01*
X95789Y99918D01*
Y100085D01*
X95623Y100252D01*
X95290D01*
X95123Y100085D01*
X96123D02*
X96289Y100252D01*
X96623D01*
X96789Y100085D01*
Y99419D01*
X96623Y99252D01*
X96289D01*
X96123Y99419D01*
Y100085D01*
X97122Y99252D02*
Y100252D01*
Y99585D02*
X97622Y99918D01*
X97122Y99585D02*
X97622Y99252D01*
X60579Y102173D02*
X60912D01*
X60746D01*
Y103173D01*
X60579Y103006D01*
X61412D02*
X61579Y103173D01*
X61912D01*
X62079Y103006D01*
Y102340D01*
X61912Y102173D01*
X61579D01*
X61412Y102340D01*
Y103006D01*
X62412D02*
X62578Y103173D01*
X62912D01*
X63078Y103006D01*
Y102340D01*
X62912Y102173D01*
X62578D01*
X62412Y102340D01*
Y103006D01*
X63411Y103173D02*
Y102173D01*
Y102506D01*
X64078Y103173D01*
X63578Y102673D01*
X64078Y102173D01*
X93472Y100903D02*
X93805D01*
X93639D01*
Y101903D01*
X93472Y101736D01*
X94305D02*
X94472Y101903D01*
X94805D01*
X94972Y101736D01*
Y101070D01*
X94805Y100903D01*
X94472D01*
X94305Y101070D01*
Y101736D01*
X95305Y100903D02*
Y101903D01*
Y101236D02*
X95805Y101569D01*
X95305Y101236D02*
X95805Y100903D01*
X93122Y103427D02*
X92456D01*
Y102927D01*
X92789Y103093D01*
X92956D01*
X93122Y102927D01*
Y102594D01*
X92956Y102427D01*
X92623D01*
X92456Y102594D01*
X93456Y102427D02*
Y103427D01*
Y102760D02*
X93956Y103093D01*
X93456Y102760D02*
X93956Y102427D01*
X35560Y132842D02*
Y133175D01*
Y133009D01*
X34560D01*
X34727Y132842D01*
X34560Y134342D02*
X34727Y134008D01*
X35060Y133675D01*
X35393D01*
X35560Y133842D01*
Y134175D01*
X35393Y134342D01*
X35227D01*
X35060Y134175D01*
Y133675D01*
X34727Y134675D02*
X34560Y134841D01*
Y135175D01*
X34727Y135341D01*
X35393D01*
X35560Y135175D01*
Y134841D01*
X35393Y134675D01*
X34727D01*
X35893Y135674D02*
X34894D01*
Y136174D01*
X35060Y136341D01*
X35393D01*
X35560Y136174D01*
Y135674D01*
X34560Y137341D02*
Y136674D01*
X35060D01*
Y137007D01*
Y136674D01*
X35560D01*
X34544Y144018D02*
X34877D01*
X34711D01*
Y145018D01*
X34544Y144851D01*
X35377Y144018D02*
Y144185D01*
X35544D01*
Y144018D01*
X35377D01*
X36877Y145018D02*
X36543Y144851D01*
X36210Y144518D01*
Y144185D01*
X36377Y144018D01*
X36710D01*
X36877Y144185D01*
Y144351D01*
X36710Y144518D01*
X36210D01*
X37210Y144018D02*
Y144684D01*
X37710D01*
X37876Y144518D01*
Y144018D01*
X38876Y145018D02*
X38209D01*
Y144518D01*
X38543D01*
X38209D01*
Y144018D01*
X25019Y151328D02*
X25186Y151495D01*
X25519D01*
X25685Y151328D01*
Y150662D01*
X25519Y150495D01*
X25186D01*
X25019Y150662D01*
Y151328D01*
X26019Y150495D02*
Y150662D01*
X26185D01*
Y150495D01*
X26019D01*
X26852D02*
X27185D01*
X27018D01*
Y151495D01*
X26852Y151328D01*
X27685Y151161D02*
Y150662D01*
X27851Y150495D01*
X28351D01*
Y151161D01*
X29351Y151495D02*
X28684D01*
Y150995D01*
X29018D01*
X28684D01*
Y150495D01*
X39751Y145105D02*
X39918Y145272D01*
X40251D01*
X40417Y145105D01*
Y144439D01*
X40251Y144272D01*
X39918D01*
X39751Y144439D01*
Y145105D01*
X40751Y144272D02*
Y144439D01*
X40917D01*
Y144272D01*
X40751D01*
X41584D02*
X41917D01*
X41750D01*
Y145272D01*
X41584Y145105D01*
X42417Y144938D02*
Y144439D01*
X42583Y144272D01*
X43083D01*
Y144938D01*
X44083Y145272D02*
X43416D01*
Y144772D01*
X43750D01*
X43416D01*
Y144272D01*
X37973Y134056D02*
X38140Y134223D01*
X38473D01*
X38639Y134056D01*
Y133390D01*
X38473Y133223D01*
X38140D01*
X37973Y133390D01*
Y134056D01*
X38973Y133223D02*
Y133390D01*
X39139D01*
Y133223D01*
X38973D01*
X39806D02*
X40139D01*
X39972D01*
Y134223D01*
X39806Y134056D01*
X40639Y133889D02*
Y133390D01*
X40805Y133223D01*
X41305D01*
Y133889D01*
X42305Y134223D02*
X41638D01*
Y133723D01*
X41972D01*
X41638D01*
Y133223D01*
X75819Y150058D02*
X75986Y150225D01*
X76319D01*
X76485Y150058D01*
Y149392D01*
X76319Y149225D01*
X75986D01*
X75819Y149392D01*
Y150058D01*
X76819Y149225D02*
Y149392D01*
X76985D01*
Y149225D01*
X76819D01*
X77652D02*
X77985D01*
X77818D01*
Y150225D01*
X77652Y150058D01*
X78485Y149891D02*
Y149392D01*
X78651Y149225D01*
X79151D01*
Y149891D01*
X80151Y150225D02*
X79484D01*
Y149725D01*
X79818D01*
X79484D01*
Y149225D01*
X70231Y142311D02*
X70398Y142478D01*
X70731D01*
X70897Y142311D01*
Y141645D01*
X70731Y141478D01*
X70398D01*
X70231Y141645D01*
Y142311D01*
X71231Y141478D02*
Y141645D01*
X71397D01*
Y141478D01*
X71231D01*
X72064D02*
X72397D01*
X72230D01*
Y142478D01*
X72064Y142311D01*
X72897Y142144D02*
Y141645D01*
X73063Y141478D01*
X73563D01*
Y142144D01*
X74563Y142478D02*
X73896D01*
Y141978D01*
X74230D01*
X73896D01*
Y141478D01*
X64389Y130627D02*
X64556Y130794D01*
X64889D01*
X65055Y130627D01*
Y129961D01*
X64889Y129794D01*
X64556D01*
X64389Y129961D01*
Y130627D01*
X65389Y129794D02*
Y129961D01*
X65555D01*
Y129794D01*
X65389D01*
X66222D02*
X66555D01*
X66388D01*
Y130794D01*
X66222Y130627D01*
X67055Y130460D02*
Y129961D01*
X67221Y129794D01*
X67721D01*
Y130460D01*
X68721Y130794D02*
X68054D01*
Y130294D01*
X68388D01*
X68054D01*
Y129794D01*
X36068Y148971D02*
Y149304D01*
Y149138D01*
X35068D01*
X35235Y148971D01*
Y149804D02*
X35068Y149971D01*
Y150304D01*
X35235Y150471D01*
X35901D01*
X36068Y150304D01*
Y149971D01*
X35901Y149804D01*
X35235D01*
X36068Y150804D02*
X35402D01*
Y151304D01*
X35568Y151470D01*
X36068D01*
X35068Y152470D02*
Y151803D01*
X35568D01*
Y152137D01*
Y151803D01*
X36068D01*
X37267Y148971D02*
X37100Y149138D01*
Y149471D01*
X37267Y149637D01*
X37933D01*
X38100Y149471D01*
Y149138D01*
X37933Y148971D01*
X37267D01*
X38100Y149971D02*
X37933D01*
Y150137D01*
X38100D01*
Y149971D01*
Y150804D02*
Y151137D01*
Y150970D01*
X37100D01*
X37267Y150804D01*
X37434Y151637D02*
X37933D01*
X38100Y151803D01*
Y152303D01*
X37434D01*
X37100Y153303D02*
Y152636D01*
X37600D01*
Y152970D01*
Y152636D01*
X38100D01*
X40386Y148844D02*
Y149177D01*
Y149011D01*
X39386D01*
X39553Y148844D01*
Y149677D02*
X39386Y149844D01*
Y150177D01*
X39553Y150344D01*
X40219D01*
X40386Y150177D01*
Y149844D01*
X40219Y149677D01*
X39553D01*
X39720Y150677D02*
X40219D01*
X40386Y150843D01*
Y151343D01*
X39720D01*
X39386Y152343D02*
Y151676D01*
X39886D01*
Y152010D01*
Y151676D01*
X40386D01*
X55174Y130429D02*
X55007Y130596D01*
Y130929D01*
X55174Y131095D01*
X55840D01*
X56007Y130929D01*
Y130596D01*
X55840Y130429D01*
X55174D01*
X56007Y131429D02*
X55840D01*
Y131595D01*
X56007D01*
Y131429D01*
Y132262D02*
Y132595D01*
Y132428D01*
X55007D01*
X55174Y132262D01*
X55341Y133095D02*
X55840D01*
X56007Y133261D01*
Y133761D01*
X55341D01*
X55007Y134761D02*
Y134094D01*
X55507D01*
Y134428D01*
Y134094D01*
X56007D01*
X53721Y130810D02*
Y131143D01*
Y130977D01*
X52721D01*
X52888Y130810D01*
Y131643D02*
X52721Y131810D01*
Y132143D01*
X52888Y132310D01*
X53554D01*
X53721Y132143D01*
Y131810D01*
X53554Y131643D01*
X52888D01*
X53055Y132643D02*
X53554D01*
X53721Y132809D01*
Y133309D01*
X53055D01*
X52721Y134309D02*
Y133642D01*
X53221D01*
Y133976D01*
Y133642D01*
X53721D01*
X55880Y140914D02*
X56047Y141081D01*
X56380D01*
X56546Y140914D01*
Y140248D01*
X56380Y140081D01*
X56047D01*
X55880Y140248D01*
Y140914D01*
X56880Y140081D02*
Y140248D01*
X57046D01*
Y140081D01*
X56880D01*
X57713D02*
X58046D01*
X57879D01*
Y141081D01*
X57713Y140914D01*
X58546Y140747D02*
Y140248D01*
X58712Y140081D01*
X59212D01*
Y140747D01*
X60212Y141081D02*
X59545D01*
Y140581D01*
X59879D01*
X59545D01*
Y140081D01*
X52324Y139827D02*
Y140160D01*
Y139994D01*
X51324D01*
X51491Y139827D01*
Y140660D02*
X51324Y140827D01*
Y141160D01*
X51491Y141327D01*
X52157D01*
X52324Y141160D01*
Y140827D01*
X52157Y140660D01*
X51491D01*
X51658Y141660D02*
X52157D01*
X52324Y141826D01*
Y142326D01*
X51658D01*
X51324Y143326D02*
Y142659D01*
X51824D01*
Y142993D01*
Y142659D01*
X52324D01*
X98202Y147939D02*
X97536D01*
Y147439D01*
X97869Y147605D01*
X98036D01*
X98202Y147439D01*
Y147106D01*
X98036Y146939D01*
X97703D01*
X97536Y147106D01*
X98536Y147772D02*
X98702Y147939D01*
X99036D01*
X99202Y147772D01*
Y147106D01*
X99036Y146939D01*
X98702D01*
X98536Y147106D01*
Y147772D01*
X99535Y146939D02*
Y147939D01*
Y147272D02*
X100035Y147605D01*
X99535Y147272D02*
X100035Y146939D01*
X31369Y131445D02*
Y131778D01*
Y131612D01*
X30369D01*
X30536Y131445D01*
X31369Y132278D02*
X31202D01*
Y132445D01*
X31369D01*
Y132278D01*
Y133111D02*
Y133444D01*
Y133278D01*
X30369D01*
X30536Y133111D01*
Y133944D02*
X30369Y134111D01*
Y134444D01*
X30536Y134611D01*
X30703D01*
X30869Y134444D01*
Y134277D01*
Y134444D01*
X31036Y134611D01*
X31202D01*
X31369Y134444D01*
Y134111D01*
X31202Y133944D01*
X31369Y134944D02*
X30369D01*
X31036D02*
X30703Y135444D01*
X31036Y134944D02*
X31369Y135444D01*
X28321Y142565D02*
X28488Y142732D01*
X28821D01*
X28987Y142565D01*
Y142398D01*
X28821Y142232D01*
X28987Y142065D01*
Y141899D01*
X28821Y141732D01*
X28488D01*
X28321Y141899D01*
Y142065D01*
X28488Y142232D01*
X28321Y142398D01*
Y142565D01*
X28488Y142232D02*
X28821D01*
X29321Y141732D02*
Y141899D01*
X29487D01*
Y141732D01*
X29321D01*
X30154Y142565D02*
X30320Y142732D01*
X30654D01*
X30820Y142565D01*
Y142398D01*
X30654Y142232D01*
X30820Y142065D01*
Y141899D01*
X30654Y141732D01*
X30320D01*
X30154Y141899D01*
Y142065D01*
X30320Y142232D01*
X30154Y142398D01*
Y142565D01*
X30320Y142232D02*
X30654D01*
X31153Y142732D02*
X31820D01*
Y142565D01*
X31153Y141899D01*
Y141732D01*
X32153D02*
Y142732D01*
Y142065D02*
X32653Y142398D01*
X32153Y142065D02*
X32653Y141732D01*
X49149Y133096D02*
Y133429D01*
Y133263D01*
X48149D01*
X48316Y133096D01*
Y133929D02*
X48149Y134096D01*
Y134429D01*
X48316Y134596D01*
X48982D01*
X49149Y134429D01*
Y134096D01*
X48982Y133929D01*
X48316D01*
X49149Y134929D02*
X48149D01*
X48816D02*
X48483Y135429D01*
X48816Y134929D02*
X49149Y135429D01*
X96297Y148463D02*
X95631D01*
X96297Y149129D01*
Y149296D01*
X96131Y149463D01*
X95798D01*
X95631Y149296D01*
X96631D02*
X96797Y149463D01*
X97131D01*
X97297Y149296D01*
Y148630D01*
X97131Y148463D01*
X96797D01*
X96631Y148630D01*
Y149296D01*
X97630Y148463D02*
Y149463D01*
Y148796D02*
X98130Y149129D01*
X97630Y148796D02*
X98130Y148463D01*
X61087Y151384D02*
X61420D01*
X61254D01*
Y152384D01*
X61087Y152217D01*
X61920D02*
X62087Y152384D01*
X62420D01*
X62587Y152217D01*
Y151551D01*
X62420Y151384D01*
X62087D01*
X61920Y151551D01*
Y152217D01*
X62920D02*
X63086Y152384D01*
X63420D01*
X63586Y152217D01*
Y151551D01*
X63420Y151384D01*
X63086D01*
X62920Y151551D01*
Y152217D01*
X63919Y152384D02*
Y151384D01*
Y151717D01*
X64586Y152384D01*
X64086Y151884D01*
X64586Y151384D01*
X93980Y150114D02*
X94313D01*
X94147D01*
Y151114D01*
X93980Y150947D01*
X94813D02*
X94980Y151114D01*
X95313D01*
X95480Y150947D01*
Y150281D01*
X95313Y150114D01*
X94980D01*
X94813Y150281D01*
Y150947D01*
X95813Y150114D02*
Y151114D01*
Y150447D02*
X96313Y150780D01*
X95813Y150447D02*
X96313Y150114D01*
X93630Y152638D02*
X92964D01*
Y152138D01*
X93297Y152304D01*
X93464D01*
X93630Y152138D01*
Y151805D01*
X93464Y151638D01*
X93131D01*
X92964Y151805D01*
X93964Y151638D02*
Y152638D01*
Y151971D02*
X94464Y152304D01*
X93964Y151971D02*
X94464Y151638D01*
X35560Y156972D02*
Y157305D01*
Y157139D01*
X34560D01*
X34727Y156972D01*
X34560Y158472D02*
X34727Y158138D01*
X35060Y157805D01*
X35393D01*
X35560Y157972D01*
Y158305D01*
X35393Y158472D01*
X35227D01*
X35060Y158305D01*
Y157805D01*
X34727Y158805D02*
X34560Y158971D01*
Y159305D01*
X34727Y159471D01*
X35393D01*
X35560Y159305D01*
Y158971D01*
X35393Y158805D01*
X34727D01*
X35893Y159804D02*
X34894D01*
Y160304D01*
X35060Y160471D01*
X35393D01*
X35560Y160304D01*
Y159804D01*
X34560Y161471D02*
Y160804D01*
X35060D01*
Y161137D01*
Y160804D01*
X35560D01*
X34544Y168148D02*
X34877D01*
X34711D01*
Y169148D01*
X34544Y168981D01*
X35377Y168148D02*
Y168315D01*
X35544D01*
Y168148D01*
X35377D01*
X36877Y169148D02*
X36543Y168981D01*
X36210Y168648D01*
Y168315D01*
X36377Y168148D01*
X36710D01*
X36877Y168315D01*
Y168481D01*
X36710Y168648D01*
X36210D01*
X37210Y168148D02*
Y168814D01*
X37710D01*
X37876Y168648D01*
Y168148D01*
X38876Y169148D02*
X38209D01*
Y168648D01*
X38543D01*
X38209D01*
Y168148D01*
X25019Y175458D02*
X25186Y175625D01*
X25519D01*
X25685Y175458D01*
Y174792D01*
X25519Y174625D01*
X25186D01*
X25019Y174792D01*
Y175458D01*
X26019Y174625D02*
Y174792D01*
X26185D01*
Y174625D01*
X26019D01*
X26852D02*
X27185D01*
X27018D01*
Y175625D01*
X26852Y175458D01*
X27685Y175291D02*
Y174792D01*
X27851Y174625D01*
X28351D01*
Y175291D01*
X29351Y175625D02*
X28684D01*
Y175125D01*
X29018D01*
X28684D01*
Y174625D01*
X39751Y169235D02*
X39918Y169402D01*
X40251D01*
X40417Y169235D01*
Y168569D01*
X40251Y168402D01*
X39918D01*
X39751Y168569D01*
Y169235D01*
X40751Y168402D02*
Y168569D01*
X40917D01*
Y168402D01*
X40751D01*
X41584D02*
X41917D01*
X41750D01*
Y169402D01*
X41584Y169235D01*
X42417Y169068D02*
Y168569D01*
X42583Y168402D01*
X43083D01*
Y169068D01*
X44083Y169402D02*
X43416D01*
Y168902D01*
X43750D01*
X43416D01*
Y168402D01*
X37973Y158186D02*
X38140Y158353D01*
X38473D01*
X38639Y158186D01*
Y157520D01*
X38473Y157353D01*
X38140D01*
X37973Y157520D01*
Y158186D01*
X38973Y157353D02*
Y157520D01*
X39139D01*
Y157353D01*
X38973D01*
X39806D02*
X40139D01*
X39972D01*
Y158353D01*
X39806Y158186D01*
X40639Y158019D02*
Y157520D01*
X40805Y157353D01*
X41305D01*
Y158019D01*
X42305Y158353D02*
X41638D01*
Y157853D01*
X41972D01*
X41638D01*
Y157353D01*
X75819Y174188D02*
X75986Y174355D01*
X76319D01*
X76485Y174188D01*
Y173522D01*
X76319Y173355D01*
X75986D01*
X75819Y173522D01*
Y174188D01*
X76819Y173355D02*
Y173522D01*
X76985D01*
Y173355D01*
X76819D01*
X77652D02*
X77985D01*
X77818D01*
Y174355D01*
X77652Y174188D01*
X78485Y174021D02*
Y173522D01*
X78651Y173355D01*
X79151D01*
Y174021D01*
X80151Y174355D02*
X79484D01*
Y173855D01*
X79818D01*
X79484D01*
Y173355D01*
X70231Y166441D02*
X70398Y166608D01*
X70731D01*
X70897Y166441D01*
Y165775D01*
X70731Y165608D01*
X70398D01*
X70231Y165775D01*
Y166441D01*
X71231Y165608D02*
Y165775D01*
X71397D01*
Y165608D01*
X71231D01*
X72064D02*
X72397D01*
X72230D01*
Y166608D01*
X72064Y166441D01*
X72897Y166274D02*
Y165775D01*
X73063Y165608D01*
X73563D01*
Y166274D01*
X74563Y166608D02*
X73896D01*
Y166108D01*
X74230D01*
X73896D01*
Y165608D01*
X64389Y154757D02*
X64556Y154924D01*
X64889D01*
X65055Y154757D01*
Y154091D01*
X64889Y153924D01*
X64556D01*
X64389Y154091D01*
Y154757D01*
X65389Y153924D02*
Y154091D01*
X65555D01*
Y153924D01*
X65389D01*
X66222D02*
X66555D01*
X66388D01*
Y154924D01*
X66222Y154757D01*
X67055Y154590D02*
Y154091D01*
X67221Y153924D01*
X67721D01*
Y154590D01*
X68721Y154924D02*
X68054D01*
Y154424D01*
X68388D01*
X68054D01*
Y153924D01*
X36068Y173101D02*
Y173434D01*
Y173268D01*
X35068D01*
X35235Y173101D01*
Y173934D02*
X35068Y174101D01*
Y174434D01*
X35235Y174601D01*
X35901D01*
X36068Y174434D01*
Y174101D01*
X35901Y173934D01*
X35235D01*
X36068Y174934D02*
X35402D01*
Y175434D01*
X35568Y175600D01*
X36068D01*
X35068Y176600D02*
Y175933D01*
X35568D01*
Y176267D01*
Y175933D01*
X36068D01*
X37267Y173101D02*
X37100Y173268D01*
Y173601D01*
X37267Y173767D01*
X37933D01*
X38100Y173601D01*
Y173268D01*
X37933Y173101D01*
X37267D01*
X38100Y174101D02*
X37933D01*
Y174267D01*
X38100D01*
Y174101D01*
Y174934D02*
Y175267D01*
Y175100D01*
X37100D01*
X37267Y174934D01*
X37434Y175767D02*
X37933D01*
X38100Y175933D01*
Y176433D01*
X37434D01*
X37100Y177433D02*
Y176766D01*
X37600D01*
Y177100D01*
Y176766D01*
X38100D01*
X40386Y172974D02*
Y173307D01*
Y173141D01*
X39386D01*
X39553Y172974D01*
Y173807D02*
X39386Y173974D01*
Y174307D01*
X39553Y174474D01*
X40219D01*
X40386Y174307D01*
Y173974D01*
X40219Y173807D01*
X39553D01*
X39720Y174807D02*
X40219D01*
X40386Y174973D01*
Y175473D01*
X39720D01*
X39386Y176473D02*
Y175806D01*
X39886D01*
Y176140D01*
Y175806D01*
X40386D01*
X55174Y154559D02*
X55007Y154726D01*
Y155059D01*
X55174Y155225D01*
X55840D01*
X56007Y155059D01*
Y154726D01*
X55840Y154559D01*
X55174D01*
X56007Y155559D02*
X55840D01*
Y155725D01*
X56007D01*
Y155559D01*
Y156392D02*
Y156725D01*
Y156558D01*
X55007D01*
X55174Y156392D01*
X55341Y157225D02*
X55840D01*
X56007Y157391D01*
Y157891D01*
X55341D01*
X55007Y158891D02*
Y158224D01*
X55507D01*
Y158558D01*
Y158224D01*
X56007D01*
X53721Y154940D02*
Y155273D01*
Y155107D01*
X52721D01*
X52888Y154940D01*
Y155773D02*
X52721Y155940D01*
Y156273D01*
X52888Y156440D01*
X53554D01*
X53721Y156273D01*
Y155940D01*
X53554Y155773D01*
X52888D01*
X53055Y156773D02*
X53554D01*
X53721Y156939D01*
Y157439D01*
X53055D01*
X52721Y158439D02*
Y157772D01*
X53221D01*
Y158106D01*
Y157772D01*
X53721D01*
X55880Y165044D02*
X56047Y165211D01*
X56380D01*
X56546Y165044D01*
Y164378D01*
X56380Y164211D01*
X56047D01*
X55880Y164378D01*
Y165044D01*
X56880Y164211D02*
Y164378D01*
X57046D01*
Y164211D01*
X56880D01*
X57713D02*
X58046D01*
X57879D01*
Y165211D01*
X57713Y165044D01*
X58546Y164877D02*
Y164378D01*
X58712Y164211D01*
X59212D01*
Y164877D01*
X60212Y165211D02*
X59545D01*
Y164711D01*
X59879D01*
X59545D01*
Y164211D01*
X52324Y163957D02*
Y164290D01*
Y164124D01*
X51324D01*
X51491Y163957D01*
Y164790D02*
X51324Y164957D01*
Y165290D01*
X51491Y165457D01*
X52157D01*
X52324Y165290D01*
Y164957D01*
X52157Y164790D01*
X51491D01*
X51658Y165790D02*
X52157D01*
X52324Y165956D01*
Y166456D01*
X51658D01*
X51324Y167456D02*
Y166789D01*
X51824D01*
Y167123D01*
Y166789D01*
X52324D01*
X98202Y172069D02*
X97536D01*
Y171569D01*
X97869Y171735D01*
X98036D01*
X98202Y171569D01*
Y171236D01*
X98036Y171069D01*
X97703D01*
X97536Y171236D01*
X98536Y171902D02*
X98702Y172069D01*
X99036D01*
X99202Y171902D01*
Y171236D01*
X99036Y171069D01*
X98702D01*
X98536Y171236D01*
Y171902D01*
X99535Y171069D02*
Y172069D01*
Y171402D02*
X100035Y171735D01*
X99535Y171402D02*
X100035Y171069D01*
X31369Y155575D02*
Y155908D01*
Y155742D01*
X30369D01*
X30536Y155575D01*
X31369Y156408D02*
X31202D01*
Y156575D01*
X31369D01*
Y156408D01*
Y157241D02*
Y157574D01*
Y157408D01*
X30369D01*
X30536Y157241D01*
Y158074D02*
X30369Y158241D01*
Y158574D01*
X30536Y158741D01*
X30703D01*
X30869Y158574D01*
Y158407D01*
Y158574D01*
X31036Y158741D01*
X31202D01*
X31369Y158574D01*
Y158241D01*
X31202Y158074D01*
X31369Y159074D02*
X30369D01*
X31036D02*
X30703Y159574D01*
X31036Y159074D02*
X31369Y159574D01*
X28321Y166695D02*
X28488Y166862D01*
X28821D01*
X28987Y166695D01*
Y166528D01*
X28821Y166362D01*
X28987Y166195D01*
Y166029D01*
X28821Y165862D01*
X28488D01*
X28321Y166029D01*
Y166195D01*
X28488Y166362D01*
X28321Y166528D01*
Y166695D01*
X28488Y166362D02*
X28821D01*
X29321Y165862D02*
Y166029D01*
X29487D01*
Y165862D01*
X29321D01*
X30154Y166695D02*
X30320Y166862D01*
X30654D01*
X30820Y166695D01*
Y166528D01*
X30654Y166362D01*
X30820Y166195D01*
Y166029D01*
X30654Y165862D01*
X30320D01*
X30154Y166029D01*
Y166195D01*
X30320Y166362D01*
X30154Y166528D01*
Y166695D01*
X30320Y166362D02*
X30654D01*
X31153Y166862D02*
X31820D01*
Y166695D01*
X31153Y166029D01*
Y165862D01*
X32153D02*
Y166862D01*
Y166195D02*
X32653Y166528D01*
X32153Y166195D02*
X32653Y165862D01*
X48895Y157861D02*
Y158194D01*
Y158028D01*
X47895D01*
X48062Y157861D01*
Y158694D02*
X47895Y158861D01*
Y159194D01*
X48062Y159361D01*
X48728D01*
X48895Y159194D01*
Y158861D01*
X48728Y158694D01*
X48062D01*
X48895Y159694D02*
X47895D01*
X48562D02*
X48229Y160194D01*
X48562Y159694D02*
X48895Y160194D01*
X96297Y172593D02*
X95631D01*
X96297Y173259D01*
Y173426D01*
X96131Y173593D01*
X95798D01*
X95631Y173426D01*
X96631D02*
X96797Y173593D01*
X97131D01*
X97297Y173426D01*
Y172760D01*
X97131Y172593D01*
X96797D01*
X96631Y172760D01*
Y173426D01*
X97630Y172593D02*
Y173593D01*
Y172926D02*
X98130Y173259D01*
X97630Y172926D02*
X98130Y172593D01*
X61087Y175514D02*
X61420D01*
X61254D01*
Y176514D01*
X61087Y176347D01*
X61920D02*
X62087Y176514D01*
X62420D01*
X62587Y176347D01*
Y175681D01*
X62420Y175514D01*
X62087D01*
X61920Y175681D01*
Y176347D01*
X62920D02*
X63086Y176514D01*
X63420D01*
X63586Y176347D01*
Y175681D01*
X63420Y175514D01*
X63086D01*
X62920Y175681D01*
Y176347D01*
X63919Y176514D02*
Y175514D01*
Y175847D01*
X64586Y176514D01*
X64086Y176014D01*
X64586Y175514D01*
X93980Y174244D02*
X94313D01*
X94147D01*
Y175244D01*
X93980Y175077D01*
X94813D02*
X94980Y175244D01*
X95313D01*
X95480Y175077D01*
Y174411D01*
X95313Y174244D01*
X94980D01*
X94813Y174411D01*
Y175077D01*
X95813Y174244D02*
Y175244D01*
Y174577D02*
X96313Y174910D01*
X95813Y174577D02*
X96313Y174244D01*
X93630Y176768D02*
X92964D01*
Y176268D01*
X93297Y176434D01*
X93464D01*
X93630Y176268D01*
Y175935D01*
X93464Y175768D01*
X93131D01*
X92964Y175935D01*
X93964Y175768D02*
Y176768D01*
Y176101D02*
X94464Y176434D01*
X93964Y176101D02*
X94464Y175768D01*
X22835Y34976D02*
X23342D01*
X23089D01*
Y36499D01*
X22835Y36245D01*
X24104D02*
X24358Y36499D01*
X24866D01*
X25120Y36245D01*
Y35230D01*
X24866Y34976D01*
X24358D01*
X24104Y35230D01*
Y36245D01*
X25628Y34976D02*
Y36499D01*
Y35484D02*
X26389Y35991D01*
X25628Y35484D02*
X26389Y34976D01*
X22835Y59171D02*
X23342D01*
X23089D01*
Y60694D01*
X22835Y60440D01*
X24104D02*
X24358Y60694D01*
X24866D01*
X25120Y60440D01*
Y59425D01*
X24866Y59171D01*
X24358D01*
X24104Y59425D01*
Y60440D01*
X25628Y59171D02*
Y60694D01*
Y59679D02*
X26389Y60186D01*
X25628Y59679D02*
X26389Y59171D01*
X22835Y83428D02*
X23342D01*
X23089D01*
Y84951D01*
X22835Y84697D01*
X24104D02*
X24358Y84951D01*
X24866D01*
X25120Y84697D01*
Y83682D01*
X24866Y83428D01*
X24358D01*
X24104Y83682D01*
Y84697D01*
X25628Y83428D02*
Y84951D01*
Y83936D02*
X26389Y84443D01*
X25628Y83936D02*
X26389Y83428D01*
X23343Y132639D02*
X23850D01*
X23597D01*
Y134162D01*
X23343Y133908D01*
X24612D02*
X24866Y134162D01*
X25374D01*
X25628Y133908D01*
Y132893D01*
X25374Y132639D01*
X24866D01*
X24612Y132893D01*
Y133908D01*
X26136Y132639D02*
Y134162D01*
Y133147D02*
X26897Y133654D01*
X26136Y133147D02*
X26897Y132639D01*
X23343Y156769D02*
X23850D01*
X23597D01*
Y158292D01*
X23343Y158038D01*
X24612D02*
X24866Y158292D01*
X25374D01*
X25628Y158038D01*
Y157023D01*
X25374Y156769D01*
X24866D01*
X24612Y157023D01*
Y158038D01*
X26136Y156769D02*
Y158292D01*
Y157277D02*
X26897Y157784D01*
X26136Y157277D02*
X26897Y156769D01*
X23343Y181153D02*
X23850D01*
X23597D01*
Y182676D01*
X23343Y182422D01*
X24612D02*
X24866Y182676D01*
X25374D01*
X25628Y182422D01*
Y181407D01*
X25374Y181153D01*
X24866D01*
X24612Y181407D01*
Y182422D01*
X26136Y181153D02*
Y182676D01*
Y181661D02*
X26897Y182168D01*
X26136Y181661D02*
X26897Y181153D01*
X51624Y48204D02*
X51791Y48371D01*
X52124D01*
X52290Y48204D01*
Y47538D01*
X52124Y47371D01*
X51791D01*
X51624Y47538D01*
Y48204D01*
X52624Y47371D02*
Y47538D01*
X52790D01*
Y47371D01*
X52624D01*
X53457D02*
X53790D01*
X53623D01*
Y48371D01*
X53457Y48204D01*
X54290Y48037D02*
Y47538D01*
X54456Y47371D01*
X54956D01*
Y48037D01*
X55956Y48371D02*
X55289D01*
Y47871D01*
X55623D01*
X55289D01*
Y47371D01*
X45339Y48966D02*
X45506Y49133D01*
X45839D01*
X46005Y48966D01*
Y48300D01*
X45839Y48133D01*
X45506D01*
X45339Y48300D01*
Y48966D01*
X46339Y48133D02*
Y48300D01*
X46505D01*
Y48133D01*
X46339D01*
X47172D02*
X47505D01*
X47338D01*
Y49133D01*
X47172Y48966D01*
X48005Y48799D02*
Y48300D01*
X48171Y48133D01*
X48671D01*
Y48799D01*
X49671Y49133D02*
X49004D01*
Y48633D01*
X49338D01*
X49004D01*
Y48133D01*
X55372Y53848D02*
X55705D01*
X55539D01*
Y54848D01*
X55372Y54681D01*
X56205D02*
X56372Y54848D01*
X56705D01*
X56872Y54681D01*
Y54015D01*
X56705Y53848D01*
X56372D01*
X56205Y54015D01*
Y54681D01*
X57205Y53848D02*
Y54848D01*
Y54181D02*
X57705Y54514D01*
X57205Y54181D02*
X57705Y53848D01*
X41021Y52451D02*
X41354D01*
X41188D01*
Y53451D01*
X41021Y53284D01*
X41854D02*
X42021Y53451D01*
X42354D01*
X42521Y53284D01*
Y52618D01*
X42354Y52451D01*
X42021D01*
X41854Y52618D01*
Y53284D01*
X42854Y52451D02*
Y53451D01*
Y52784D02*
X43354Y53117D01*
X42854Y52784D02*
X43354Y52451D01*
X45847Y42291D02*
X46180D01*
X46014D01*
Y43291D01*
X45847Y43124D01*
X46680D02*
X46847Y43291D01*
X47180D01*
X47347Y43124D01*
Y42458D01*
X47180Y42291D01*
X46847D01*
X46680Y42458D01*
Y43124D01*
X47680Y42291D02*
Y43291D01*
Y42624D02*
X48180Y42957D01*
X47680Y42624D02*
X48180Y42291D01*
X51624Y72399D02*
X51791Y72566D01*
X52124D01*
X52290Y72399D01*
Y71733D01*
X52124Y71566D01*
X51791D01*
X51624Y71733D01*
Y72399D01*
X52624Y71566D02*
Y71733D01*
X52790D01*
Y71566D01*
X52624D01*
X53457D02*
X53790D01*
X53623D01*
Y72566D01*
X53457Y72399D01*
X54290Y72232D02*
Y71733D01*
X54456Y71566D01*
X54956D01*
Y72232D01*
X55956Y72566D02*
X55289D01*
Y72066D01*
X55623D01*
X55289D01*
Y71566D01*
X45339Y73161D02*
X45506Y73328D01*
X45839D01*
X46005Y73161D01*
Y72495D01*
X45839Y72328D01*
X45506D01*
X45339Y72495D01*
Y73161D01*
X46339Y72328D02*
Y72495D01*
X46505D01*
Y72328D01*
X46339D01*
X47172D02*
X47505D01*
X47338D01*
Y73328D01*
X47172Y73161D01*
X48005Y72994D02*
Y72495D01*
X48171Y72328D01*
X48671D01*
Y72994D01*
X49671Y73328D02*
X49004D01*
Y72828D01*
X49338D01*
X49004D01*
Y72328D01*
X55499Y77978D02*
X55832D01*
X55666D01*
Y78978D01*
X55499Y78811D01*
X56332D02*
X56499Y78978D01*
X56832D01*
X56999Y78811D01*
Y78145D01*
X56832Y77978D01*
X56499D01*
X56332Y78145D01*
Y78811D01*
X57332Y77978D02*
Y78978D01*
Y78311D02*
X57832Y78644D01*
X57332Y78311D02*
X57832Y77978D01*
X41021Y76646D02*
X41354D01*
X41188D01*
Y77646D01*
X41021Y77479D01*
X41854D02*
X42021Y77646D01*
X42354D01*
X42521Y77479D01*
Y76813D01*
X42354Y76646D01*
X42021D01*
X41854Y76813D01*
Y77479D01*
X42854Y76646D02*
Y77646D01*
Y76979D02*
X43354Y77312D01*
X42854Y76979D02*
X43354Y76646D01*
X45847Y66486D02*
X46180D01*
X46014D01*
Y67486D01*
X45847Y67319D01*
X46680D02*
X46847Y67486D01*
X47180D01*
X47347Y67319D01*
Y66653D01*
X47180Y66486D01*
X46847D01*
X46680Y66653D01*
Y67319D01*
X47680Y66486D02*
Y67486D01*
Y66819D02*
X48180Y67152D01*
X47680Y66819D02*
X48180Y66486D01*
X51624Y96656D02*
X51791Y96823D01*
X52124D01*
X52290Y96656D01*
Y95990D01*
X52124Y95823D01*
X51791D01*
X51624Y95990D01*
Y96656D01*
X52624Y95823D02*
Y95990D01*
X52790D01*
Y95823D01*
X52624D01*
X53457D02*
X53790D01*
X53623D01*
Y96823D01*
X53457Y96656D01*
X54290Y96489D02*
Y95990D01*
X54456Y95823D01*
X54956D01*
Y96489D01*
X55956Y96823D02*
X55289D01*
Y96323D01*
X55623D01*
X55289D01*
Y95823D01*
X45339Y97418D02*
X45506Y97585D01*
X45839D01*
X46005Y97418D01*
Y96752D01*
X45839Y96585D01*
X45506D01*
X45339Y96752D01*
Y97418D01*
X46339Y96585D02*
Y96752D01*
X46505D01*
Y96585D01*
X46339D01*
X47172D02*
X47505D01*
X47338D01*
Y97585D01*
X47172Y97418D01*
X48005Y97251D02*
Y96752D01*
X48171Y96585D01*
X48671D01*
Y97251D01*
X49671Y97585D02*
X49004D01*
Y97085D01*
X49338D01*
X49004D01*
Y96585D01*
X55499Y102235D02*
X55832D01*
X55666D01*
Y103235D01*
X55499Y103068D01*
X56332D02*
X56499Y103235D01*
X56832D01*
X56999Y103068D01*
Y102402D01*
X56832Y102235D01*
X56499D01*
X56332Y102402D01*
Y103068D01*
X57332Y102235D02*
Y103235D01*
Y102568D02*
X57832Y102901D01*
X57332Y102568D02*
X57832Y102235D01*
X41021Y100903D02*
X41354D01*
X41188D01*
Y101903D01*
X41021Y101736D01*
X41854D02*
X42021Y101903D01*
X42354D01*
X42521Y101736D01*
Y101070D01*
X42354Y100903D01*
X42021D01*
X41854Y101070D01*
Y101736D01*
X42854Y100903D02*
Y101903D01*
Y101236D02*
X43354Y101569D01*
X42854Y101236D02*
X43354Y100903D01*
X45847Y90743D02*
X46180D01*
X46014D01*
Y91743D01*
X45847Y91576D01*
X46680D02*
X46847Y91743D01*
X47180D01*
X47347Y91576D01*
Y90910D01*
X47180Y90743D01*
X46847D01*
X46680Y90910D01*
Y91576D01*
X47680Y90743D02*
Y91743D01*
Y91076D02*
X48180Y91409D01*
X47680Y91076D02*
X48180Y90743D01*
X52132Y145867D02*
X52299Y146034D01*
X52632D01*
X52798Y145867D01*
Y145201D01*
X52632Y145034D01*
X52299D01*
X52132Y145201D01*
Y145867D01*
X53132Y145034D02*
Y145201D01*
X53298D01*
Y145034D01*
X53132D01*
X53965D02*
X54298D01*
X54131D01*
Y146034D01*
X53965Y145867D01*
X54798Y145700D02*
Y145201D01*
X54964Y145034D01*
X55464D01*
Y145700D01*
X56464Y146034D02*
X55797D01*
Y145534D01*
X56131D01*
X55797D01*
Y145034D01*
X45847Y146629D02*
X46014Y146796D01*
X46347D01*
X46513Y146629D01*
Y145963D01*
X46347Y145796D01*
X46014D01*
X45847Y145963D01*
Y146629D01*
X46847Y145796D02*
Y145963D01*
X47013D01*
Y145796D01*
X46847D01*
X47680D02*
X48013D01*
X47846D01*
Y146796D01*
X47680Y146629D01*
X48513Y146462D02*
Y145963D01*
X48679Y145796D01*
X49179D01*
Y146462D01*
X50179Y146796D02*
X49512D01*
Y146296D01*
X49846D01*
X49512D01*
Y145796D01*
X56007Y151511D02*
X56340D01*
X56174D01*
Y152511D01*
X56007Y152344D01*
X56840D02*
X57007Y152511D01*
X57340D01*
X57507Y152344D01*
Y151678D01*
X57340Y151511D01*
X57007D01*
X56840Y151678D01*
Y152344D01*
X57840Y151511D02*
Y152511D01*
Y151844D02*
X58340Y152177D01*
X57840Y151844D02*
X58340Y151511D01*
X41529Y150114D02*
X41862D01*
X41696D01*
Y151114D01*
X41529Y150947D01*
X42362D02*
X42529Y151114D01*
X42862D01*
X43029Y150947D01*
Y150281D01*
X42862Y150114D01*
X42529D01*
X42362Y150281D01*
Y150947D01*
X43362Y150114D02*
Y151114D01*
Y150447D02*
X43862Y150780D01*
X43362Y150447D02*
X43862Y150114D01*
X46355Y139954D02*
X46688D01*
X46522D01*
Y140954D01*
X46355Y140787D01*
X47188D02*
X47355Y140954D01*
X47688D01*
X47855Y140787D01*
Y140121D01*
X47688Y139954D01*
X47355D01*
X47188Y140121D01*
Y140787D01*
X48188Y139954D02*
Y140954D01*
Y140287D02*
X48688Y140620D01*
X48188Y140287D02*
X48688Y139954D01*
X52132Y169997D02*
X52299Y170164D01*
X52632D01*
X52798Y169997D01*
Y169331D01*
X52632Y169164D01*
X52299D01*
X52132Y169331D01*
Y169997D01*
X53132Y169164D02*
Y169331D01*
X53298D01*
Y169164D01*
X53132D01*
X53965D02*
X54298D01*
X54131D01*
Y170164D01*
X53965Y169997D01*
X54798Y169830D02*
Y169331D01*
X54964Y169164D01*
X55464D01*
Y169830D01*
X56464Y170164D02*
X55797D01*
Y169664D01*
X56131D01*
X55797D01*
Y169164D01*
X45847Y170759D02*
X46014Y170926D01*
X46347D01*
X46513Y170759D01*
Y170093D01*
X46347Y169926D01*
X46014D01*
X45847Y170093D01*
Y170759D01*
X46847Y169926D02*
Y170093D01*
X47013D01*
Y169926D01*
X46847D01*
X47680D02*
X48013D01*
X47846D01*
Y170926D01*
X47680Y170759D01*
X48513Y170592D02*
Y170093D01*
X48679Y169926D01*
X49179D01*
Y170592D01*
X50179Y170926D02*
X49512D01*
Y170426D01*
X49846D01*
X49512D01*
Y169926D01*
X56007Y175768D02*
X56340D01*
X56174D01*
Y176768D01*
X56007Y176601D01*
X56840D02*
X57007Y176768D01*
X57340D01*
X57507Y176601D01*
Y175935D01*
X57340Y175768D01*
X57007D01*
X56840Y175935D01*
Y176601D01*
X57840Y175768D02*
Y176768D01*
Y176101D02*
X58340Y176434D01*
X57840Y176101D02*
X58340Y175768D01*
X41529Y174244D02*
X41862D01*
X41696D01*
Y175244D01*
X41529Y175077D01*
X42362D02*
X42529Y175244D01*
X42862D01*
X43029Y175077D01*
Y174411D01*
X42862Y174244D01*
X42529D01*
X42362Y174411D01*
Y175077D01*
X43362Y174244D02*
Y175244D01*
Y174577D02*
X43862Y174910D01*
X43362Y174577D02*
X43862Y174244D01*
X46355Y164084D02*
X46688D01*
X46522D01*
Y165084D01*
X46355Y164917D01*
X47188D02*
X47355Y165084D01*
X47688D01*
X47855Y164917D01*
Y164251D01*
X47688Y164084D01*
X47355D01*
X47188Y164251D01*
Y164917D01*
X48188Y164084D02*
Y165084D01*
Y164417D02*
X48688Y164750D01*
X48188Y164417D02*
X48688Y164084D01*
X52132Y194381D02*
X52299Y194548D01*
X52632D01*
X52798Y194381D01*
Y193715D01*
X52632Y193548D01*
X52299D01*
X52132Y193715D01*
Y194381D01*
X53132Y193548D02*
Y193715D01*
X53298D01*
Y193548D01*
X53132D01*
X53965D02*
X54298D01*
X54131D01*
Y194548D01*
X53965Y194381D01*
X54798Y194214D02*
Y193715D01*
X54964Y193548D01*
X55464D01*
Y194214D01*
X56464Y194548D02*
X55797D01*
Y194048D01*
X56131D01*
X55797D01*
Y193548D01*
X45847Y195143D02*
X46014Y195310D01*
X46347D01*
X46513Y195143D01*
Y194477D01*
X46347Y194310D01*
X46014D01*
X45847Y194477D01*
Y195143D01*
X46847Y194310D02*
Y194477D01*
X47013D01*
Y194310D01*
X46847D01*
X47680D02*
X48013D01*
X47846D01*
Y195310D01*
X47680Y195143D01*
X48513Y194976D02*
Y194477D01*
X48679Y194310D01*
X49179D01*
Y194976D01*
X50179Y195310D02*
X49512D01*
Y194810D01*
X49846D01*
X49512D01*
Y194310D01*
X56007Y200025D02*
X56340D01*
X56174D01*
Y201025D01*
X56007Y200858D01*
X56840D02*
X57007Y201025D01*
X57340D01*
X57507Y200858D01*
Y200192D01*
X57340Y200025D01*
X57007D01*
X56840Y200192D01*
Y200858D01*
X57840Y200025D02*
Y201025D01*
Y200358D02*
X58340Y200691D01*
X57840Y200358D02*
X58340Y200025D01*
X41529Y198628D02*
X41862D01*
X41696D01*
Y199628D01*
X41529Y199461D01*
X42362D02*
X42529Y199628D01*
X42862D01*
X43029Y199461D01*
Y198795D01*
X42862Y198628D01*
X42529D01*
X42362Y198795D01*
Y199461D01*
X43362Y198628D02*
Y199628D01*
Y198961D02*
X43862Y199294D01*
X43362Y198961D02*
X43862Y198628D01*
X46355Y188468D02*
X46688D01*
X46522D01*
Y189468D01*
X46355Y189301D01*
X47188D02*
X47355Y189468D01*
X47688D01*
X47855Y189301D01*
Y188635D01*
X47688Y188468D01*
X47355D01*
X47188Y188635D01*
Y189301D01*
X48188Y188468D02*
Y189468D01*
Y188801D02*
X48688Y189134D01*
X48188Y188801D02*
X48688Y188468D01*
X57531Y129540D02*
X57277Y129794D01*
X56769D01*
X56515Y129540D01*
Y128524D01*
X56769Y128270D01*
X57277D01*
X57531Y128524D01*
Y129032D01*
X57023D01*
X58039Y128270D02*
Y129794D01*
X59054Y128270D01*
Y129794D01*
X59562D02*
Y128270D01*
X60324D01*
X60578Y128524D01*
Y129540D01*
X60324Y129794D01*
X59562D01*
X49911Y127889D02*
Y126873D01*
X50419Y126365D01*
X50927Y126873D01*
Y127889D01*
X51435Y127127D02*
X52450D01*
X64516Y127889D02*
Y126873D01*
X65024Y126365D01*
X65532Y126873D01*
Y127889D01*
X66040Y127127D02*
X67055D01*
X66547Y127635D02*
Y126619D01*
X94234Y36322D02*
X93980Y36576D01*
X93472D01*
X93218Y36322D01*
Y35306D01*
X93472Y35052D01*
X93980D01*
X94234Y35306D01*
X95757Y36322D02*
X95503Y36576D01*
X94995D01*
X94742Y36322D01*
Y36068D01*
X94995Y35814D01*
X95503D01*
X95757Y35560D01*
Y35306D01*
X95503Y35052D01*
X94995D01*
X94742Y35306D01*
X97789Y35052D02*
X98296D01*
X98042D01*
Y36576D01*
X97789Y36322D01*
X93726Y60833D02*
X93472Y61087D01*
X92964D01*
X92710Y60833D01*
Y59817D01*
X92964Y59563D01*
X93472D01*
X93726Y59817D01*
X95249Y60833D02*
X94995Y61087D01*
X94487D01*
X94234Y60833D01*
Y60579D01*
X94487Y60325D01*
X94995D01*
X95249Y60071D01*
Y59817D01*
X94995Y59563D01*
X94487D01*
X94234Y59817D01*
X98296Y59563D02*
X97281D01*
X98296Y60579D01*
Y60833D01*
X98042Y61087D01*
X97534D01*
X97281Y60833D01*
X94107Y84836D02*
X93853Y85090D01*
X93345D01*
X93091Y84836D01*
Y83820D01*
X93345Y83566D01*
X93853D01*
X94107Y83820D01*
X95630Y84836D02*
X95376Y85090D01*
X94868D01*
X94615Y84836D01*
Y84582D01*
X94868Y84328D01*
X95376D01*
X95630Y84074D01*
Y83820D01*
X95376Y83566D01*
X94868D01*
X94615Y83820D01*
X97662Y84836D02*
X97915Y85090D01*
X98423D01*
X98677Y84836D01*
Y84582D01*
X98423Y84328D01*
X98169D01*
X98423D01*
X98677Y84074D01*
Y83820D01*
X98423Y83566D01*
X97915D01*
X97662Y83820D01*
X94361Y134239D02*
X94107Y134493D01*
X93599D01*
X93345Y134239D01*
Y133223D01*
X93599Y132969D01*
X94107D01*
X94361Y133223D01*
X95884Y134239D02*
X95630Y134493D01*
X95122D01*
X94869Y134239D01*
Y133985D01*
X95122Y133731D01*
X95630D01*
X95884Y133477D01*
Y133223D01*
X95630Y132969D01*
X95122D01*
X94869Y133223D01*
X98677Y132969D02*
Y134493D01*
X97916Y133731D01*
X98931D01*
X94107Y157861D02*
X93853Y158115D01*
X93345D01*
X93091Y157861D01*
Y156845D01*
X93345Y156591D01*
X93853D01*
X94107Y156845D01*
X95630Y157861D02*
X95376Y158115D01*
X94868D01*
X94615Y157861D01*
Y157607D01*
X94868Y157353D01*
X95376D01*
X95630Y157099D01*
Y156845D01*
X95376Y156591D01*
X94868D01*
X94615Y156845D01*
X98677Y158115D02*
X97662D01*
Y157353D01*
X98169Y157607D01*
X98423D01*
X98677Y157353D01*
Y156845D01*
X98423Y156591D01*
X97915D01*
X97662Y156845D01*
X94488Y181864D02*
X94234Y182118D01*
X93726D01*
X93472Y181864D01*
Y180848D01*
X93726Y180594D01*
X94234D01*
X94488Y180848D01*
X96011Y181864D02*
X95757Y182118D01*
X95249D01*
X94996Y181864D01*
Y181610D01*
X95249Y181356D01*
X95757D01*
X96011Y181102D01*
Y180848D01*
X95757Y180594D01*
X95249D01*
X94996Y180848D01*
X99058Y182118D02*
X98550Y181864D01*
X98043Y181356D01*
Y180848D01*
X98296Y180594D01*
X98804D01*
X99058Y180848D01*
Y181102D01*
X98804Y181356D01*
X98043D01*
D60*
X57997Y114332D02*
G03*
X57997Y114332I-125J0D01*
G01*
X63969Y124217D02*
G03*
X63969Y124217I-125J0D01*
G01*
X95668Y110086D02*
G03*
X95668Y110086I-125J0D01*
G01*
X79881Y113290D02*
G03*
X79881Y113290I-125J0D01*
G01*
X81660Y118302D02*
G03*
X81660Y118302I-125J0D01*
G01*
X88863Y122063D02*
G03*
X88863Y122063I-125J0D01*
G01*
X70271Y187196D02*
G03*
X70271Y187196I-125J0D01*
G01*
X39664Y191341D02*
G03*
X39664Y191341I-125J0D01*
G01*
X70779Y199134D02*
G03*
X70779Y199134I-125J0D01*
G01*
X33718Y198002D02*
G03*
X33718Y198002I-125J0D01*
G01*
X69763Y41019D02*
G03*
X69763Y41019I-125J0D01*
G01*
X33210Y51825D02*
G03*
X33210Y51825I-125J0D01*
G01*
X39156Y45164D02*
G03*
X39156Y45164I-125J0D01*
G01*
X70271Y52957D02*
G03*
X70271Y52957I-125J0D01*
G01*
X69763Y65214D02*
G03*
X69763Y65214I-125J0D01*
G01*
X33210Y76020D02*
G03*
X33210Y76020I-125J0D01*
G01*
X39156Y69359D02*
G03*
X39156Y69359I-125J0D01*
G01*
X70271Y77152D02*
G03*
X70271Y77152I-125J0D01*
G01*
X69763Y89471D02*
G03*
X69763Y89471I-125J0D01*
G01*
X33210Y100277D02*
G03*
X33210Y100277I-125J0D01*
G01*
X39156Y93616D02*
G03*
X39156Y93616I-125J0D01*
G01*
X70271Y101409D02*
G03*
X70271Y101409I-125J0D01*
G01*
X70271Y138682D02*
G03*
X70271Y138682I-125J0D01*
G01*
X33718Y149488D02*
G03*
X33718Y149488I-125J0D01*
G01*
X39664Y142827D02*
G03*
X39664Y142827I-125J0D01*
G01*
X70779Y150620D02*
G03*
X70779Y150620I-125J0D01*
G01*
X70271Y162812D02*
G03*
X70271Y162812I-125J0D01*
G01*
X33718Y173618D02*
G03*
X33718Y173618I-125J0D01*
G01*
X39664Y166957D02*
G03*
X39664Y166957I-125J0D01*
G01*
X70779Y174750D02*
G03*
X70779Y174750I-125J0D01*
G01*
X51115Y75461D02*
G03*
X51115Y75461I-125J0D01*
G01*
Y99718D02*
G03*
X51115Y99718I-125J0D01*
G01*
X51623Y148929D02*
G03*
X51623Y148929I-125J0D01*
G01*
Y173059D02*
G03*
X51623Y173059I-125J0D01*
G01*
Y197443D02*
G03*
X51623Y197443I-125J0D01*
G01*
X51115Y51266D02*
G03*
X51115Y51266I-125J0D01*
G01*
D61*
X72471Y185966D02*
G03*
X72471Y185966I-300J0D01*
G01*
X41864Y190111D02*
G03*
X41864Y190111I-300J0D01*
G01*
X72979Y197904D02*
G03*
X72979Y197904I-300J0D01*
G01*
X71963Y39789D02*
G03*
X71963Y39789I-300J0D01*
G01*
X41356Y43934D02*
G03*
X41356Y43934I-300J0D01*
G01*
X72471Y51727D02*
G03*
X72471Y51727I-300J0D01*
G01*
X71963Y63984D02*
G03*
X71963Y63984I-300J0D01*
G01*
X41356Y68129D02*
G03*
X41356Y68129I-300J0D01*
G01*
X72471Y75922D02*
G03*
X72471Y75922I-300J0D01*
G01*
X71963Y88241D02*
G03*
X71963Y88241I-300J0D01*
G01*
X41356Y92386D02*
G03*
X41356Y92386I-300J0D01*
G01*
X72471Y100179D02*
G03*
X72471Y100179I-300J0D01*
G01*
X72471Y137452D02*
G03*
X72471Y137452I-300J0D01*
G01*
X41864Y141597D02*
G03*
X41864Y141597I-300J0D01*
G01*
X72979Y149390D02*
G03*
X72979Y149390I-300J0D01*
G01*
X72471Y161582D02*
G03*
X72471Y161582I-300J0D01*
G01*
X41864Y165727D02*
G03*
X41864Y165727I-300J0D01*
G01*
X72979Y173520D02*
G03*
X72979Y173520I-300J0D01*
G01*
X50060Y73436D02*
G03*
X50060Y73436I-300J0D01*
G01*
Y97693D02*
G03*
X50060Y97693I-300J0D01*
G01*
X50568Y146904D02*
G03*
X50568Y146904I-300J0D01*
G01*
Y171034D02*
G03*
X50568Y171034I-300J0D01*
G01*
Y195418D02*
G03*
X50568Y195418I-300J0D01*
G01*
X50060Y49241D02*
G03*
X50060Y49241I-300J0D01*
G01*
D62*
X55677Y188987D02*
G03*
X55677Y189597I0J305D01*
G01*
X55169Y42810D02*
G03*
X55169Y43420I0J305D01*
G01*
X55169Y67005D02*
G03*
X55169Y67615I0J305D01*
G01*
Y91262D02*
G03*
X55169Y91872I0J305D01*
G01*
X55677Y140473D02*
G03*
X55677Y141083I0J305D01*
G01*
Y164603D02*
G03*
X55677Y165213I0J305D01*
G01*
D63*
X56246Y195072D02*
X57546D01*
X56246Y171069D02*
X57546D01*
X56246Y146685D02*
X57546D01*
X55611Y97663D02*
X56911D01*
X55738Y73279D02*
X57038D01*
X55611Y49022D02*
X56911D01*
X48641Y39101D02*
Y40401D01*
X80788Y114793D02*
Y116093D01*
X85075Y110379D02*
X86375D01*
X75804Y124841D02*
X77104D01*
X53452Y112665D02*
X54752D01*
X89774Y52832D02*
X91074D01*
X87107Y52959D02*
X88407D01*
X65263Y35941D02*
X66563D01*
X59293Y35861D02*
Y37161D01*
X84440Y52959D02*
X85740D01*
X32639Y42211D02*
Y43511D01*
X30734Y39544D02*
Y40844D01*
X81900Y53086D02*
X83200D01*
X89774Y77027D02*
X91074D01*
X87107Y77154D02*
X88407D01*
X65263Y60136D02*
X66563D01*
X59293Y60056D02*
Y61356D01*
X84440Y77154D02*
X85740D01*
X48641Y63358D02*
Y64658D01*
X32639Y66406D02*
Y67706D01*
X30734Y63739D02*
Y65039D01*
X81900Y77281D02*
X83200D01*
X89774Y101284D02*
X91074D01*
X87107Y101411D02*
X88407D01*
X65263Y84393D02*
X66563D01*
X59293Y84313D02*
Y85613D01*
X84440Y101411D02*
X85740D01*
X48641Y87615D02*
Y88915D01*
X32639Y90663D02*
Y91963D01*
X30734Y87996D02*
Y89296D01*
X81900Y101538D02*
X83200D01*
X90282Y150495D02*
X91582D01*
X87615Y150622D02*
X88915D01*
X65771Y133604D02*
X67071D01*
X59801Y133524D02*
Y134824D01*
X84948Y150622D02*
X86248D01*
X49022Y136764D02*
Y138064D01*
X33147Y139874D02*
Y141174D01*
X31242Y137207D02*
Y138507D01*
X82408Y150749D02*
X83708D01*
X90282Y174625D02*
X91582D01*
X87615Y174752D02*
X88915D01*
X65771Y157734D02*
X67071D01*
X59801Y157654D02*
Y158954D01*
X84948Y174752D02*
X86248D01*
X48895Y161021D02*
Y162321D01*
X33147Y164004D02*
Y165304D01*
X31242Y161337D02*
Y162637D01*
X82408Y174879D02*
X83708D01*
X82408Y199263D02*
X83708D01*
X84948Y199136D02*
X86248D01*
X87615D02*
X88915D01*
X90282Y199009D02*
X91582D01*
X65771Y182118D02*
X67071D01*
X59801Y182038D02*
Y183338D01*
X49276Y185405D02*
Y186705D01*
X31242Y185721D02*
Y187021D01*
X33147Y188388D02*
Y189688D01*
X81788Y196977D02*
X91948D01*
X81788Y191897D02*
X91948D01*
Y196977D01*
X81788Y191897D02*
Y196977D01*
Y184150D02*
X91948D01*
X81788Y189230D02*
X91948D01*
X81788Y184150D02*
Y189230D01*
X91948Y184150D02*
Y189230D01*
X82281Y181864D02*
X83581D01*
X84821Y181737D02*
X86121D01*
X87615D02*
X88915D01*
X90282Y181864D02*
X91582D01*
X58882Y113972D02*
X59482D01*
X58882Y111072D02*
X59482D01*
X58882D02*
Y113972D01*
X59482Y111072D02*
Y113972D01*
X65494Y118912D02*
Y123912D01*
X67094Y118912D02*
Y123912D01*
X65494D02*
X67094D01*
X65494Y118912D02*
X67094D01*
X96593Y114535D02*
Y115136D01*
X97096D01*
X96593Y107636D02*
X97096D01*
X96593D02*
Y108237D01*
X81106Y109890D02*
Y112990D01*
X80806Y109890D02*
Y112990D01*
Y109890D02*
X81106D01*
X80806Y112990D02*
X81106D01*
X80264Y118783D02*
X82804D01*
Y127343D01*
X80264D02*
X82804D01*
X80264Y118783D02*
Y127343D01*
X90688Y119113D02*
X94688D01*
X90688D02*
Y119913D01*
X92288D01*
Y121163D01*
Y124963D02*
Y126213D01*
X90688D02*
X92288D01*
X90688D02*
Y127013D01*
X94688D01*
X98288Y120863D02*
Y125263D01*
X71171Y181966D02*
Y186966D01*
X74371Y181966D02*
Y186966D01*
X71171D02*
X74371D01*
X71171Y181966D02*
X74371D01*
X40564Y186111D02*
Y191111D01*
X43764Y186111D02*
Y191111D01*
X40564D02*
X43764D01*
X40564Y186111D02*
X43764D01*
X71679Y193904D02*
Y198904D01*
X74879Y193904D02*
Y198904D01*
X71679D02*
X74879D01*
X71679Y193904D02*
X74879D01*
X30343Y195202D02*
Y196602D01*
X33443Y195202D02*
Y196602D01*
X30343Y195202D02*
X33443D01*
X30343Y196602D02*
X33443D01*
X79121Y180198D02*
Y181498D01*
X65151Y185467D02*
Y186767D01*
X65897Y194230D02*
Y195530D01*
X59960Y194230D02*
Y195530D01*
X78217Y193356D02*
X79517D01*
X66024Y197659D02*
Y198959D01*
X95885Y187960D02*
Y193040D01*
X93345D02*
X95885D01*
X93345Y187960D02*
Y193040D01*
Y187960D02*
X95885D01*
X70663Y35789D02*
Y40789D01*
X73863Y35789D02*
Y40789D01*
X70663D02*
X73863D01*
X70663Y35789D02*
X73863D01*
X89774Y35560D02*
X91074D01*
X87107D02*
X88407D01*
X84313D02*
X85613D01*
X81773D02*
X83073D01*
X91440Y37973D02*
Y43053D01*
X81280Y37973D02*
Y43053D01*
X91440D01*
X81280Y37973D02*
X91440D01*
X64643Y39290D02*
Y40590D01*
X78613Y34021D02*
Y35321D01*
X95377Y41783D02*
Y46863D01*
X92837D02*
X95377D01*
X92837Y41783D02*
Y46863D01*
Y41783D02*
X95377D01*
X29835Y49025D02*
Y50425D01*
X32935Y49025D02*
Y50425D01*
X29835Y49025D02*
X32935D01*
X29835Y50425D02*
X32935D01*
X59452Y48053D02*
Y49353D01*
X40056Y39934D02*
Y44934D01*
X43256Y39934D02*
Y44934D01*
X40056D02*
X43256D01*
X40056Y39934D02*
X43256D01*
X71171Y47727D02*
Y52727D01*
X74371Y47727D02*
Y52727D01*
X71171D02*
X74371D01*
X71171Y47727D02*
X74371D01*
X81280Y45720D02*
Y50800D01*
X91440Y45720D02*
Y50800D01*
X81280Y45720D02*
X91440D01*
X81280Y50800D02*
X91440D01*
X65516Y51482D02*
Y52782D01*
X77709Y47179D02*
X79009D01*
X70663Y59984D02*
Y64984D01*
X73863Y59984D02*
Y64984D01*
X70663D02*
X73863D01*
X70663Y59984D02*
X73863D01*
X89774Y59755D02*
X91074D01*
X87107D02*
X88407D01*
X84313D02*
X85613D01*
X81773D02*
X83073D01*
X91440Y62168D02*
Y67248D01*
X81280Y62168D02*
Y67248D01*
X91440D01*
X81280Y62168D02*
X91440D01*
X64643Y63485D02*
Y64785D01*
X78613Y58216D02*
Y59516D01*
X95377Y65978D02*
Y71058D01*
X92837D02*
X95377D01*
X92837Y65978D02*
Y71058D01*
Y65978D02*
X95377D01*
X29835Y73220D02*
Y74620D01*
X32935Y73220D02*
Y74620D01*
X29835Y73220D02*
X32935D01*
X29835Y74620D02*
X32935D01*
X59452Y72248D02*
Y73548D01*
X65389Y72248D02*
Y73548D01*
X40056Y64129D02*
Y69129D01*
X43256Y64129D02*
Y69129D01*
X40056D02*
X43256D01*
X40056Y64129D02*
X43256D01*
X71171Y71922D02*
Y76922D01*
X74371Y71922D02*
Y76922D01*
X71171D02*
X74371D01*
X71171Y71922D02*
X74371D01*
X81280Y69915D02*
Y74995D01*
X91440Y69915D02*
Y74995D01*
X81280Y69915D02*
X91440D01*
X81280Y74995D02*
X91440D01*
X65516Y75677D02*
Y76977D01*
X77709Y71374D02*
X79009D01*
X70663Y84241D02*
Y89241D01*
X73863Y84241D02*
Y89241D01*
X70663D02*
X73863D01*
X70663Y84241D02*
X73863D01*
X89774Y84012D02*
X91074D01*
X87107D02*
X88407D01*
X84313D02*
X85613D01*
X81773D02*
X83073D01*
X91440Y86425D02*
Y91505D01*
X81280Y86425D02*
Y91505D01*
X91440D01*
X81280Y86425D02*
X91440D01*
X64643Y87742D02*
Y89042D01*
X78613Y82473D02*
Y83773D01*
X95377Y90235D02*
Y95315D01*
X92837D02*
X95377D01*
X92837Y90235D02*
Y95315D01*
Y90235D02*
X95377D01*
X29835Y97477D02*
Y98877D01*
X32935Y97477D02*
Y98877D01*
X29835Y97477D02*
X32935D01*
X29835Y98877D02*
X32935D01*
X59452Y96505D02*
Y97805D01*
X65389Y96505D02*
Y97805D01*
X40056Y88386D02*
Y93386D01*
X43256Y88386D02*
Y93386D01*
X40056D02*
X43256D01*
X40056Y88386D02*
X43256D01*
X71171Y96179D02*
Y101179D01*
X74371Y96179D02*
Y101179D01*
X71171D02*
X74371D01*
X71171Y96179D02*
X74371D01*
X81280Y94172D02*
Y99252D01*
X91440Y94172D02*
Y99252D01*
X81280Y94172D02*
X91440D01*
X81280Y99252D02*
X91440D01*
X65516Y99934D02*
Y101234D01*
X77709Y95631D02*
X79009D01*
X71171Y133452D02*
Y138452D01*
X74371Y133452D02*
Y138452D01*
X71171D02*
X74371D01*
X71171Y133452D02*
X74371D01*
X90282Y133223D02*
X91582D01*
X87615D02*
X88915D01*
X84821D02*
X86121D01*
X82281D02*
X83581D01*
X91948Y135636D02*
Y140716D01*
X81788Y135636D02*
Y140716D01*
X91948D01*
X81788Y135636D02*
X91948D01*
X65151Y136953D02*
Y138253D01*
X79121Y131684D02*
Y132984D01*
X95885Y139446D02*
Y144526D01*
X93345D02*
X95885D01*
X93345Y139446D02*
Y144526D01*
Y139446D02*
X95885D01*
X30343Y146688D02*
Y148088D01*
X33443Y146688D02*
Y148088D01*
X30343Y146688D02*
X33443D01*
X30343Y148088D02*
X33443D01*
X59960Y145716D02*
Y147016D01*
X65897Y145716D02*
Y147016D01*
X40564Y137597D02*
Y142597D01*
X43764Y137597D02*
Y142597D01*
X40564D02*
X43764D01*
X40564Y137597D02*
X43764D01*
X71679Y145390D02*
Y150390D01*
X74879Y145390D02*
Y150390D01*
X71679D02*
X74879D01*
X71679Y145390D02*
X74879D01*
X81788Y143383D02*
Y148463D01*
X91948Y143383D02*
Y148463D01*
X81788Y143383D02*
X91948D01*
X81788Y148463D02*
X91948D01*
X66024Y149145D02*
Y150445D01*
X78217Y144842D02*
X79517D01*
X71171Y157582D02*
Y162582D01*
X74371Y157582D02*
Y162582D01*
X71171D02*
X74371D01*
X71171Y157582D02*
X74371D01*
X90282Y157353D02*
X91582D01*
X87615D02*
X88915D01*
X84821D02*
X86121D01*
X82281D02*
X83581D01*
X91948Y159766D02*
Y164846D01*
X81788Y159766D02*
Y164846D01*
X91948D01*
X81788Y159766D02*
X91948D01*
X65151Y161083D02*
Y162383D01*
X79121Y155814D02*
Y157114D01*
X95885Y163576D02*
Y168656D01*
X93345D02*
X95885D01*
X93345Y163576D02*
Y168656D01*
Y163576D02*
X95885D01*
X30343Y170818D02*
Y172218D01*
X33443Y170818D02*
Y172218D01*
X30343Y170818D02*
X33443D01*
X30343Y172218D02*
X33443D01*
X59960Y169846D02*
Y171146D01*
X65897Y169846D02*
Y171146D01*
X40564Y161727D02*
Y166727D01*
X43764Y161727D02*
Y166727D01*
X40564D02*
X43764D01*
X40564Y161727D02*
X43764D01*
X71679Y169520D02*
Y174520D01*
X74879Y169520D02*
Y174520D01*
X71679D02*
X74879D01*
X71679Y169520D02*
X74879D01*
X81788Y167513D02*
Y172593D01*
X91948Y167513D02*
Y172593D01*
X81788Y167513D02*
X91948D01*
X81788Y172593D02*
X91948D01*
X66024Y173275D02*
Y174575D01*
X78217Y168972D02*
X79517D01*
X23734Y161306D02*
X25034D01*
X23734Y137176D02*
X25034D01*
X23226Y87965D02*
X24526D01*
X23226Y63708D02*
X24526D01*
X23226Y39513D02*
X24526D01*
X65389Y48053D02*
Y49353D01*
X45760Y74436D02*
X50760D01*
X45760Y71236D02*
X50760D01*
Y74436D01*
X45760Y71236D02*
Y74436D01*
Y98693D02*
X50760D01*
X45760Y95493D02*
X50760D01*
Y98693D01*
X45760Y95493D02*
Y98693D01*
X46268Y147904D02*
X51268D01*
X46268Y144704D02*
X51268D01*
Y147904D01*
X46268Y144704D02*
Y147904D01*
Y172034D02*
X51268D01*
X46268Y168834D02*
X51268D01*
Y172034D01*
X46268Y168834D02*
Y172034D01*
Y196418D02*
X51268D01*
X46268Y193218D02*
X51268D01*
Y196418D01*
X46268Y193218D02*
Y196418D01*
X45760Y50241D02*
X50760D01*
X45760Y47041D02*
X50760D01*
Y50241D01*
X45760Y47041D02*
Y50241D01*
X42799Y50658D02*
Y51958D01*
X56388Y51674D02*
Y52974D01*
X48514Y43419D02*
Y44719D01*
X48514Y67614D02*
Y68914D01*
X42799Y74853D02*
Y76153D01*
X56515Y75804D02*
Y77104D01*
X48514Y91871D02*
Y93171D01*
X42799Y99110D02*
Y100410D01*
X56515Y100061D02*
Y101361D01*
X49022Y141082D02*
Y142382D01*
X43307Y148321D02*
Y149621D01*
X57023Y149337D02*
Y150637D01*
X49022Y165212D02*
Y166512D01*
X43307Y172451D02*
Y173751D01*
X57023Y173594D02*
Y174894D01*
X49022Y189596D02*
Y190896D01*
X43307Y196835D02*
Y198135D01*
X57023Y197851D02*
Y199151D01*
X23734Y185690D02*
X25034D01*
X28151Y185039D02*
X27418D01*
X27051Y184672D01*
X27418Y184306D01*
X28151D01*
Y183939D02*
X27051D01*
Y183390D01*
X27234Y183206D01*
X27967D01*
X28151Y183390D01*
Y183939D01*
Y182840D02*
X27051D01*
Y182290D01*
X27234Y182107D01*
X27967D01*
X28151Y182290D01*
Y182840D01*
X27967Y181007D02*
X28151Y181190D01*
Y181557D01*
X27967Y181740D01*
X27784D01*
X27601Y181557D01*
Y181190D01*
X27418Y181007D01*
X27234D01*
X27051Y181190D01*
Y181557D01*
X27234Y181740D01*
X97028Y190203D02*
X97395D01*
X97211D01*
Y189103D01*
X97028D01*
X97395D01*
X97944Y189653D02*
X98677D01*
X96901Y192743D02*
X97268D01*
X97084D01*
Y191643D01*
X96901D01*
X97268D01*
X97817Y192193D02*
X98550D01*
X98184Y192559D02*
Y191826D01*
X63754Y189060D02*
Y188327D01*
X64121Y187960D01*
X64487Y188327D01*
Y189060D01*
X64854D02*
Y187960D01*
X65403D01*
X65587Y188143D01*
Y188876D01*
X65403Y189060D01*
X64854D01*
X65953D02*
X66320D01*
X66137D01*
Y187960D01*
X65953D01*
X66320D01*
X67603Y189060D02*
X66870D01*
Y188510D01*
X67236D01*
X66870D01*
Y187960D01*
X68702Y189060D02*
X67969D01*
Y188510D01*
X68336D01*
X67969D01*
Y187960D01*
X69069Y188510D02*
X69802D01*
X60579Y200617D02*
Y199884D01*
X60946Y199517D01*
X61312Y199884D01*
Y200617D01*
X61679D02*
Y199517D01*
X62228D01*
X62412Y199700D01*
Y200433D01*
X62228Y200617D01*
X61679D01*
X62778D02*
X63145D01*
X62962D01*
Y199517D01*
X62778D01*
X63145D01*
X64428Y200617D02*
X63695D01*
Y200067D01*
X64061D01*
X63695D01*
Y199517D01*
X65527Y200617D02*
X64794D01*
Y200067D01*
X65161D01*
X64794D01*
Y199517D01*
X65894Y200067D02*
X66627D01*
X66260Y200433D02*
Y199700D01*
X47371Y191219D02*
Y190486D01*
X47738Y190119D01*
X48104Y190486D01*
Y191219D01*
X49204D02*
X48471D01*
Y190669D01*
X48837D01*
X48471D01*
Y190119D01*
X49570Y191219D02*
X49937D01*
X49754D01*
Y190119D01*
X49570D01*
X49937D01*
X50487Y191219D02*
Y190119D01*
X51220D01*
X51586Y191219D02*
X52319D01*
X51953D01*
Y190119D01*
X24355Y188679D02*
X23622D01*
Y188129D01*
X23989D01*
X23622D01*
Y187579D01*
X25455Y188495D02*
X25271Y188679D01*
X24905D01*
X24722Y188495D01*
Y188312D01*
X24905Y188129D01*
X25271D01*
X25455Y187946D01*
Y187762D01*
X25271Y187579D01*
X24905D01*
X24722Y187762D01*
X25821Y188679D02*
Y188495D01*
X26188Y188129D01*
X26554Y188495D01*
Y188679D01*
X26188Y188129D02*
Y187579D01*
X26921D02*
Y188679D01*
X27654Y187579D01*
Y188679D01*
X28754Y188495D02*
X28570Y188679D01*
X28204D01*
X28021Y188495D01*
Y187762D01*
X28204Y187579D01*
X28570D01*
X28754Y187762D01*
X26641Y193448D02*
X26458Y193632D01*
X26091D01*
X25908Y193448D01*
Y193265D01*
X26091Y193082D01*
X26458D01*
X26641Y192899D01*
Y192715D01*
X26458Y192532D01*
X26091D01*
X25908Y192715D01*
X27741Y193448D02*
X27557Y193632D01*
X27191D01*
X27008Y193448D01*
Y192715D01*
X27191Y192532D01*
X27557D01*
X27741Y192715D01*
X28107Y193632D02*
Y192532D01*
X28840D01*
X29207Y193632D02*
Y192532D01*
Y192899D01*
X29940Y193632D01*
X29390Y193082D01*
X29940Y192532D01*
X23720Y197766D02*
X23537Y197950D01*
X23170D01*
X22987Y197766D01*
Y197583D01*
X23170Y197400D01*
X23537D01*
X23720Y197217D01*
Y197033D01*
X23537Y196850D01*
X23170D01*
X22987Y197033D01*
X24087Y197950D02*
Y196850D01*
X24636D01*
X24820Y197033D01*
Y197766D01*
X24636Y197950D01*
X24087D01*
X25186Y196850D02*
Y197583D01*
X25553Y197950D01*
X25919Y197583D01*
Y196850D01*
Y197400D01*
X25186D01*
X26286Y197950D02*
X27019D01*
X26652D01*
Y196850D01*
X27386D02*
Y197583D01*
X27752Y197950D01*
X28119Y197583D01*
Y196850D01*
Y197400D01*
X27386D01*
X21688Y200433D02*
X21505Y200617D01*
X21138D01*
X20955Y200433D01*
Y199700D01*
X21138Y199517D01*
X21505D01*
X21688Y199700D01*
X22055Y200617D02*
Y199517D01*
X22788D01*
X23154Y200617D02*
Y199517D01*
Y199884D01*
X23887Y200617D01*
X23338Y200067D01*
X23887Y199517D01*
D64*
X74040Y107169D02*
Y107969D01*
X76054Y118998D02*
X76854D01*
D65*
X55677Y187692D02*
Y188987D01*
Y189597D01*
Y190892D01*
X58877Y187692D02*
Y190892D01*
X55169Y41515D02*
Y42810D01*
Y43420D01*
Y44715D01*
X58369Y41515D02*
Y44715D01*
X55169Y65710D02*
Y67005D01*
Y67615D01*
Y68910D01*
X58369Y65710D02*
Y68910D01*
X55169Y89967D02*
Y91262D01*
Y91872D01*
Y93167D01*
X58369Y89967D02*
Y93167D01*
X55677Y139178D02*
Y140473D01*
Y141083D01*
Y142378D01*
X58877Y139178D02*
Y142378D01*
X55677Y163308D02*
Y164603D01*
Y165213D01*
Y166508D01*
X58877Y163308D02*
Y166508D01*
D66*
X92372Y193675D02*
X93218D01*
X92372Y192829D01*
Y192617D01*
X92583Y192405D01*
X93006D01*
X93218Y192617D01*
X92710Y196215D02*
X92287D01*
X92498D01*
Y194945D01*
X92710Y195157D01*
X81534Y194945D02*
X80688D01*
Y195157D01*
X81534Y196003D01*
Y196215D01*
Y192617D02*
X81322Y192405D01*
X80899D01*
X80688Y192617D01*
Y192829D01*
X80899Y193040D01*
X80688Y193252D01*
Y193463D01*
X80899Y193675D01*
X81322D01*
X81534Y193463D01*
Y193252D01*
X81322Y193040D01*
X81534Y192829D01*
Y192617D01*
X81322Y193040D02*
X80899D01*
X81364Y187452D02*
X80518D01*
X81364Y188298D01*
Y188510D01*
X81153Y188722D01*
X80730D01*
X80518Y188510D01*
X81026Y184912D02*
X81449D01*
X81238D01*
Y186182D01*
X81026Y185970D01*
X92202Y186182D02*
X93048D01*
Y185970D01*
X92202Y185124D01*
Y184912D01*
Y188510D02*
X92414Y188722D01*
X92837D01*
X93048Y188510D01*
Y188298D01*
X92837Y188087D01*
X93048Y187875D01*
Y187664D01*
X92837Y187452D01*
X92414D01*
X92202Y187664D01*
Y187875D01*
X92414Y188087D01*
X92202Y188298D01*
Y188510D01*
X92414Y188087D02*
X92837D01*
X91694Y42333D02*
X91906Y42545D01*
X92329D01*
X92540Y42333D01*
Y42121D01*
X92329Y41910D01*
X92540Y41698D01*
Y41487D01*
X92329Y41275D01*
X91906D01*
X91694Y41487D01*
Y41698D01*
X91906Y41910D01*
X91694Y42121D01*
Y42333D01*
X91906Y41910D02*
X92329D01*
X91694Y40005D02*
X92540D01*
Y39793D01*
X91694Y38947D01*
Y38735D01*
X80518D02*
X80941D01*
X80730D01*
Y40005D01*
X80518Y39793D01*
X80856Y41275D02*
X80010D01*
X80856Y42121D01*
Y42333D01*
X80645Y42545D01*
X80222D01*
X80010Y42333D01*
X81026Y46440D02*
X80814Y46228D01*
X80391D01*
X80180Y46440D01*
Y46652D01*
X80391Y46863D01*
X80180Y47075D01*
Y47286D01*
X80391Y47498D01*
X80814D01*
X81026Y47286D01*
Y47075D01*
X80814Y46863D01*
X81026Y46652D01*
Y46440D01*
X80814Y46863D02*
X80391D01*
X81026Y48768D02*
X80180D01*
Y48980D01*
X81026Y49826D01*
Y50038D01*
X92202D02*
X91779D01*
X91990D01*
Y48768D01*
X92202Y48980D01*
X91864Y47498D02*
X92710D01*
X91864Y46652D01*
Y46440D01*
X92075Y46228D01*
X92498D01*
X92710Y46440D01*
X91694Y66528D02*
X91906Y66740D01*
X92329D01*
X92540Y66528D01*
Y66316D01*
X92329Y66105D01*
X92540Y65893D01*
Y65682D01*
X92329Y65470D01*
X91906D01*
X91694Y65682D01*
Y65893D01*
X91906Y66105D01*
X91694Y66316D01*
Y66528D01*
X91906Y66105D02*
X92329D01*
X91694Y64200D02*
X92540D01*
Y63988D01*
X91694Y63142D01*
Y62930D01*
X80518D02*
X80941D01*
X80730D01*
Y64200D01*
X80518Y63988D01*
X80856Y65470D02*
X80010D01*
X80856Y66316D01*
Y66528D01*
X80645Y66740D01*
X80222D01*
X80010Y66528D01*
X81026Y70635D02*
X80814Y70423D01*
X80391D01*
X80180Y70635D01*
Y70847D01*
X80391Y71058D01*
X80180Y71270D01*
Y71481D01*
X80391Y71693D01*
X80814D01*
X81026Y71481D01*
Y71270D01*
X80814Y71058D01*
X81026Y70847D01*
Y70635D01*
X80814Y71058D02*
X80391D01*
X81026Y72963D02*
X80180D01*
Y73175D01*
X81026Y74021D01*
Y74233D01*
X92202D02*
X91779D01*
X91990D01*
Y72963D01*
X92202Y73175D01*
X91864Y71693D02*
X92710D01*
X91864Y70847D01*
Y70635D01*
X92075Y70423D01*
X92498D01*
X92710Y70635D01*
X91694Y90785D02*
X91906Y90997D01*
X92329D01*
X92540Y90785D01*
Y90573D01*
X92329Y90362D01*
X92540Y90150D01*
Y89939D01*
X92329Y89727D01*
X91906D01*
X91694Y89939D01*
Y90150D01*
X91906Y90362D01*
X91694Y90573D01*
Y90785D01*
X91906Y90362D02*
X92329D01*
X91694Y88457D02*
X92540D01*
Y88245D01*
X91694Y87399D01*
Y87187D01*
X80518D02*
X80941D01*
X80730D01*
Y88457D01*
X80518Y88245D01*
X80856Y89727D02*
X80010D01*
X80856Y90573D01*
Y90785D01*
X80645Y90997D01*
X80222D01*
X80010Y90785D01*
X81026Y94892D02*
X80814Y94680D01*
X80391D01*
X80180Y94892D01*
Y95104D01*
X80391Y95315D01*
X80180Y95527D01*
Y95738D01*
X80391Y95950D01*
X80814D01*
X81026Y95738D01*
Y95527D01*
X80814Y95315D01*
X81026Y95104D01*
Y94892D01*
X80814Y95315D02*
X80391D01*
X81026Y97220D02*
X80180D01*
Y97432D01*
X81026Y98278D01*
Y98490D01*
X92202D02*
X91779D01*
X91990D01*
Y97220D01*
X92202Y97432D01*
X91864Y95950D02*
X92710D01*
X91864Y95104D01*
Y94892D01*
X92075Y94680D01*
X92498D01*
X92710Y94892D01*
X92202Y139996D02*
X92414Y140208D01*
X92837D01*
X93048Y139996D01*
Y139784D01*
X92837Y139573D01*
X93048Y139361D01*
Y139150D01*
X92837Y138938D01*
X92414D01*
X92202Y139150D01*
Y139361D01*
X92414Y139573D01*
X92202Y139784D01*
Y139996D01*
X92414Y139573D02*
X92837D01*
X92202Y137668D02*
X93048D01*
Y137456D01*
X92202Y136610D01*
Y136398D01*
X81026D02*
X81449D01*
X81238D01*
Y137668D01*
X81026Y137456D01*
X81364Y138938D02*
X80518D01*
X81364Y139784D01*
Y139996D01*
X81153Y140208D01*
X80730D01*
X80518Y139996D01*
X81534Y144103D02*
X81322Y143891D01*
X80899D01*
X80688Y144103D01*
Y144315D01*
X80899Y144526D01*
X80688Y144738D01*
Y144949D01*
X80899Y145161D01*
X81322D01*
X81534Y144949D01*
Y144738D01*
X81322Y144526D01*
X81534Y144315D01*
Y144103D01*
X81322Y144526D02*
X80899D01*
X81534Y146431D02*
X80688D01*
Y146643D01*
X81534Y147489D01*
Y147701D01*
X92710D02*
X92287D01*
X92498D01*
Y146431D01*
X92710Y146643D01*
X92372Y145161D02*
X93218D01*
X92372Y144315D01*
Y144103D01*
X92583Y143891D01*
X93006D01*
X93218Y144103D01*
X92202Y164126D02*
X92414Y164338D01*
X92837D01*
X93048Y164126D01*
Y163914D01*
X92837Y163703D01*
X93048Y163491D01*
Y163280D01*
X92837Y163068D01*
X92414D01*
X92202Y163280D01*
Y163491D01*
X92414Y163703D01*
X92202Y163914D01*
Y164126D01*
X92414Y163703D02*
X92837D01*
X92202Y161798D02*
X93048D01*
Y161586D01*
X92202Y160740D01*
Y160528D01*
X81026D02*
X81449D01*
X81238D01*
Y161798D01*
X81026Y161586D01*
X81364Y163068D02*
X80518D01*
X81364Y163914D01*
Y164126D01*
X81153Y164338D01*
X80730D01*
X80518Y164126D01*
X81534Y168233D02*
X81322Y168021D01*
X80899D01*
X80688Y168233D01*
Y168445D01*
X80899Y168656D01*
X80688Y168868D01*
Y169079D01*
X80899Y169291D01*
X81322D01*
X81534Y169079D01*
Y168868D01*
X81322Y168656D01*
X81534Y168445D01*
Y168233D01*
X81322Y168656D02*
X80899D01*
X81534Y170561D02*
X80688D01*
Y170773D01*
X81534Y171619D01*
Y171831D01*
X92710D02*
X92287D01*
X92498D01*
Y170561D01*
X92710Y170773D01*
X92372Y169291D02*
X93218D01*
X92372Y168445D01*
Y168233D01*
X92583Y168021D01*
X93006D01*
X93218Y168233D01*
D67*
X54382Y186739D02*
X55453D01*
X54649Y186293D02*
X55185Y187186D01*
X54649D02*
X55185Y186293D01*
X53874Y40562D02*
X54945D01*
X54141Y40116D02*
X54677Y41009D01*
X54141D02*
X54677Y40116D01*
X53874Y64757D02*
X54945D01*
X54141Y64311D02*
X54677Y65204D01*
X54141D02*
X54677Y64311D01*
X53874Y89014D02*
X54945D01*
X54141Y88568D02*
X54677Y89461D01*
X54141D02*
X54677Y88568D01*
X54382Y138225D02*
X55453D01*
X54649Y137779D02*
X55185Y138672D01*
X54649D02*
X55185Y137779D01*
X54382Y162355D02*
X55453D01*
X54649Y161909D02*
X55185Y162802D01*
X54649D02*
X55185Y161909D01*
M02*
