G04 Layer_Color=32768*
%FSLAX43Y43*%
%MOMM*%
G71*
G01*
G75*
%ADD98C,0.100*%
%ADD99C,0.050*%
D98*
X100893Y106386D02*
Y116386D01*
D99*
X100727Y104274D02*
X100926D01*
Y104374D01*
X100893Y104407D01*
X100860D01*
X100827D01*
X100793Y104374D01*
Y104274D01*
X100926Y104507D02*
Y104574D01*
X100893Y104607D01*
X100827D01*
X100793Y104574D01*
Y104507D01*
X100827Y104474D01*
X100893D01*
X100926Y104507D01*
X100793Y104707D02*
Y104774D01*
X100827Y104807D01*
X100926D01*
Y104707D01*
X100893Y104674D01*
X100860Y104707D01*
Y104807D01*
X100793Y104874D02*
X100926D01*
X100860D01*
X100827Y104907D01*
X100793Y104940D01*
Y104974D01*
X100727Y105207D02*
X100926D01*
Y105107D01*
X100893Y105074D01*
X100827D01*
X100793Y105107D01*
Y105207D01*
X100926Y105574D02*
Y105507D01*
X100893Y105474D01*
X100827D01*
X100793Y105507D01*
Y105574D01*
X100827Y105607D01*
X100860D01*
Y105474D01*
X100727Y105807D02*
X100926D01*
Y105707D01*
X100893Y105674D01*
X100827D01*
X100793Y105707D01*
Y105807D01*
X100993Y105940D02*
Y105973D01*
X100960Y106007D01*
X100793D01*
Y105907D01*
X100827Y105873D01*
X100893D01*
X100926Y105907D01*
Y106007D01*
Y106173D02*
Y106107D01*
X100893Y106073D01*
X100827D01*
X100793Y106107D01*
Y106173D01*
X100827Y106207D01*
X100860D01*
Y106073D01*
M02*
